<svg xmlns="http://www.w3.org/2000/svg" width="30" height="30" viewBox="0 0 30 30" fill="none">
  <path d="M29.7373 7.82687C29.1654 5.6475 27.7135 4.2275 25.7417 3.93C24.9254 3.8225 24.0298 3.75812 23.1248 3.75437V3.75H6.87478V3.75437C5.96665 3.75875 5.06728 3.82312 4.24603 3.93187C2.28603 4.22812 0.834154 5.64812 0.262279 7.82687C-0.474596 10.6362 0.411654 13.8806 2.3229 15.3725C3.06603 15.9519 3.96415 16.2463 4.9454 16.2463C5.5304 16.2463 6.14415 16.1419 6.7729 15.9306C9.64478 14.9669 12.3823 11.9694 13.4848 8.64875C14.2704 8.05375 15.3929 7.98875 16.2467 8.46562V18.1194H12.3692V19.3694H17.4967V10.8337C18.861 13.2175 21.0017 15.185 23.2254 15.9312C23.8542 16.1425 24.4679 16.2469 25.0529 16.2469C26.0342 16.2469 26.9323 15.9525 27.6754 15.3731C29.5879 13.8806 30.4735 10.6369 29.7373 7.82687ZM12.4592 7.72937C11.6135 10.8956 9.0554 13.8469 6.37603 14.7463C5.47603 15.0481 4.1754 15.2319 3.09228 14.3875C1.57603 13.2031 0.864779 10.4612 1.47228 8.14437C1.7304 7.16063 2.4579 5.46625 4.42228 5.16937C5.26728 5.05813 6.0929 5.00313 6.87478 4.99875V5H7.13165C9.4654 5.02062 11.3698 5.50625 12.136 6.35313C12.486 6.74 12.5873 7.18312 12.4592 7.72937ZM13.7473 7.09625C13.7035 6.50813 13.476 5.97125 13.0629 5.515C12.891 5.32375 12.6854 5.15563 12.4623 5H17.5373C17.3142 5.15563 17.1085 5.32375 16.9367 5.51437C16.5254 5.96937 16.2979 6.505 16.2542 7.09625C15.8542 6.95437 15.431 6.875 14.9998 6.875C14.5685 6.875 14.1467 6.95437 13.7473 7.09625ZM26.9079 14.3875C25.8242 15.2319 24.5242 15.0487 23.6242 14.7463C20.9448 13.8469 18.3867 10.8956 17.5454 7.7475C17.5167 7.62625 17.5048 7.51312 17.4979 7.4025V7.2925H17.4948C17.4967 6.93563 17.6142 6.62875 17.8642 6.35313C18.6304 5.50563 20.5373 5.02062 22.8685 5H23.1248C23.9042 5.00437 24.7254 5.05625 25.5667 5.1675C27.5423 5.46625 28.2698 7.16063 28.5279 8.14437C29.1354 10.4612 28.4242 13.2031 26.9079 14.3875Z" fill="black"/>
  <path d="M14.9998 25C12.3992 25 9.98165 23.96 8.1929 22.0712L7.2854 22.9306C9.3129 25.0712 12.0529 26.25 14.9998 26.25C17.9473 26.25 20.6879 25.0706 22.7154 22.93L21.8079 22.0706C20.0185 23.9594 17.601 25 14.9998 25Z" fill="black"/>
</svg>