<svg xmlns="http://www.w3.org/2000/svg" width="30" height="30" viewBox="0 0 30 30" fill="none">
  <path d="M7.5 8.75C9.91625 8.75 11.875 6.79125 11.875 4.375C11.875 1.95875 9.91625 0 7.5 0C5.08375 0 3.125 1.95875 3.125 4.375C3.125 6.79125 5.08375 8.75 7.5 8.75ZM7.5 1.25C9.22312 1.25 10.625 2.65188 10.625 4.375C10.625 6.09812 9.22312 7.5 7.5 7.5C5.77688 7.5 4.375 6.09812 4.375 4.375C4.375 2.65188 5.77688 1.25 7.5 1.25Z" fill="black"/>
  <path d="M21.25 8.75C23.6663 8.75 25.625 6.79125 25.625 4.375C25.625 1.95875 23.6663 0 21.25 0C18.8337 0 16.875 1.95875 16.875 4.375C16.875 6.79125 18.8337 8.75 21.25 8.75ZM21.25 1.25C22.9731 1.25 24.375 2.65188 24.375 4.375C24.375 6.09812 22.9731 7.5 21.25 7.5C19.5269 7.5 18.125 6.09812 18.125 4.375C18.125 2.65188 19.5269 1.25 21.25 1.25Z" fill="black"/>
  <path d="M7.5 10C4.73875 10 2.5 12.2387 2.5 15V21.25C2.5 21.9406 3.05937 22.5 3.75 22.5H5V28.75C5 29.4406 5.55938 30 6.25 30H8.75C9.44062 30 10 29.4406 10 28.75V22.5H11.25C11.9406 22.5 12.5 21.9406 12.5 21.25V15C12.5 12.2387 10.2613 10 7.5 10ZM11.25 21.25H8.75V28.75H6.25V21.25H3.75V15C3.75 12.9325 5.4325 11.25 7.5 11.25C9.5675 11.25 11.25 12.9325 11.25 15V21.25Z" fill="black"/>
  <path d="M27.1619 20.9788L25.8131 13.6606C25.3381 11.5219 23.4412 10 21.25 10C19.0588 10 17.1619 11.5219 16.6862 13.6606L15.3375 20.9788C15.1644 21.7594 15.7587 22.5 16.5581 22.5H18.75V28.75C18.75 29.4406 19.3094 30 20 30H22.5C23.1906 30 23.75 29.4406 23.75 28.75V22.5H25.9419C26.7412 22.5 27.3356 21.7594 27.1619 20.9788ZM22.5 21.25V28.75H20V21.25H16.5581L16.5631 21.2275L16.5675 21.205L17.9119 13.9106C18.27 12.3431 19.6394 11.25 21.25 11.25C22.8606 11.25 24.23 12.3431 24.5887 13.9112L25.9331 21.2056L25.9375 21.2281L25.9419 21.25H22.5Z" fill="black"/>
</svg>