<svg xmlns="http://www.w3.org/2000/svg" width="32" height="32" viewBox="0 0 32 32" fill="none">
  <g clip-path="url(#clip0_4_21498)">
    <path d="M31.3228 0H0.677435C0.30969 0 0.0112305 0.298 0.0112305 0.666667V31.3333C0.0112305 31.702 0.30969 32 0.677435 32H31.3228C31.6906 32 31.989 31.702 31.989 31.3333V0.666667C31.989 0.298 31.6906 0 31.3228 0ZM30.6566 30.6667H1.34364V1.33333H30.6566V30.6667Z" fill="#575D9B"/>
    <path d="M19.9974 12C19.9974 9.794 18.2046 8 16.0001 8C13.7957 8 12.0029 9.794 12.0029 12C12.0029 14.206 13.7957 16 16.0001 16C18.2046 16 19.9974 14.206 19.9974 12ZM13.3353 12C13.3353 10.5293 14.5305 9.33333 16.0001 9.33333C17.4698 9.33333 18.6649 10.5293 18.6649 12C18.6649 13.4707 17.4698 14.6667 16.0001 14.6667C14.5305 14.6667 13.3353 13.4707 13.3353 12Z" fill="#575D9B"/>
    <path d="M12.0029 18.672C9.80043 18.672 8.00901 20.4633 8.00568 22.6667H4.67466C4.30691 22.6667 4.00845 22.9647 4.00845 23.3333C4.00845 23.702 4.30691 24 4.67466 24H27.3256C27.6933 24 27.9918 23.702 27.9918 23.3333V4.66667C27.9918 4.298 27.6933 4 27.3256 4H4.67466C4.30691 4 4.00845 4.298 4.00845 4.66667V19.3333C4.00845 19.702 4.30691 20 4.67466 20C5.0424 20 5.34086 19.702 5.34086 19.3333V5.33333H26.6594V22.6667H23.9946C23.9919 20.4633 22.1998 18.672 19.9974 18.672V18.6667H12.0029V18.672ZM22.6615 22.6667H9.33875C9.34142 21.1987 10.5353 20.0053 12.0029 20.0053C12.0122 20.0053 12.0196 20.0007 12.0289 20H19.972C19.9814 20.0007 19.9887 20.0053 19.998 20.0053C21.465 20.0053 22.6588 21.1987 22.6615 22.6667Z" fill="#575D9B"/>
  </g>
  <defs>
    <clipPath id="clip0_4_21498">
      <rect width="31.9778" height="32" fill="white" transform="translate(0.0112305)"/>
    </clipPath>
  </defs>
</svg>