<svg width="16" height="16" viewBox="0 0 16 16" fill="none" xmlns="http://www.w3.org/2000/svg">
<path d="M14.6884 2.2831C13.8141 1.40877 12.6677 0.971436 11.5217 0.971436C10.3757 0.971436 9.22942 1.40877 8.35508 2.2831L8.00008 2.62877L7.64508 2.2831C6.77075 1.40877 5.62442 0.971436 4.47842 0.971436C3.33242 0.971436 2.18608 1.40877 1.31175 2.2831C-0.43725 4.0321 -0.43725 6.86743 1.31175 8.61644L1.66675 8.97143L7.52875 14.8334C7.65908 14.9638 7.82942 15.0288 8.00008 15.0288C8.17075 15.0288 8.34142 14.9638 8.47142 14.8334L14.3334 8.97143L14.6884 8.61644C16.4374 6.86777 16.4374 4.0321 14.6884 2.2831ZM14.2171 8.1451L13.8621 8.5001L8.00008 14.3621L2.13808 8.5001L1.78308 8.1451C1.06308 7.4251 0.66675 6.4681 0.66675 5.44977C0.66675 4.43177 1.06308 3.47444 1.78308 2.75444C2.50308 2.03444 3.46008 1.6381 4.47842 1.6381C5.49642 1.6381 6.45375 2.03444 7.18008 2.76077L7.53508 3.10644L8.00008 3.5591L8.46508 3.10644L8.82642 2.75444C9.54642 2.03444 10.5034 1.6381 11.5217 1.6381C12.5397 1.6381 13.4971 2.03444 14.2171 2.75444C14.9371 3.47444 15.3334 4.43144 15.3334 5.44977C15.3334 6.4681 14.9371 7.4251 14.2171 8.1451Z" fill="white"/>
</svg>
