<?xml version="1.0" encoding="utf-8"?><svg xmlns="http://www.w3.org/2000/svg" xmlns:xlink="http://www.w3.org/1999/xlink"><symbol fill="none" viewBox="0 0 12 12" id="arrow_left" xmlns="http://www.w3.org/2000/svg"><path d="M12 5.5H1.95L6.1 1.35l-.7-.7L.05 6l5.35 5.35.7-.7L1.95 6.5H12v-1z" fill="#555"/></symbol><symbol fill="none" viewBox="0 0 12 12" id="arrow_right" xmlns="http://www.w3.org/2000/svg"><path d="M6.604.646l-.708.707L10.043 5.5H0v1h10.043l-4.146 4.146.707.707L11.957 6 6.603.646z" fill="#555"/></symbol><symbol fill="none" viewBox="0 0 32 32" id="color_distortion" xmlns="http://www.w3.org/2000/svg"><g clip-path="url(#cclip0_3480_2830)"><path d="M17.22.703A1.423 1.423 0 0016 .018c-.501 0-.958.255-1.22.684-2.84 4.635-9.447 15.923-9.447 20.631C5.333 27.215 10.118 32 16 32c5.881 0 10.666-4.785 10.666-10.667 0-4.708-6.606-15.996-9.446-20.63zM16 30.667V1.35c.054 0 .076.036.083.048 4.472 7.297 9.25 16.366 9.25 19.934 0 5.147-4.187 9.334-9.333 9.334z" fill="#222"/></g><defs><clipPath id="cclip0_3480_2830"><path fill="#fff" d="M0 0h32v32H0z"/></clipPath></defs></symbol><symbol fill="none" viewBox="0 0 32 32" id="duration" xmlns="http://www.w3.org/2000/svg"><path d="M16 0C7.178 0 0 7.178 0 16s7.178 16 16 16 16-7.178 16-16S24.822 0 16 0zm0 30.667c-8.087 0-14.667-6.58-14.667-14.667S7.913 1.333 16 1.333 30.667 7.913 30.667 16 24.087 30.667 16 30.667z" fill="#222"/><path d="M16.667 4.667h-1.334v11.609l8.196 8.195.942-.942-7.804-7.805V4.667z" fill="#222"/></symbol><symbol fill="none" viewBox="0 0 32 32" id="eye_comfort" xmlns="http://www.w3.org/2000/svg"><path d="M16 9.334A6.674 6.674 0 009.333 16 6.674 6.674 0 0016 22.667 6.674 6.674 0 0022.667 16 6.674 6.674 0 0016 9.334zm0 12A5.34 5.34 0 0110.667 16 5.34 5.34 0 0116 10.667 5.34 5.34 0 0121.333 16 5.34 5.34 0 0116 21.334z" fill="#222"/><path d="M16 17.334a1.333 1.333 0 100-2.667 1.333 1.333 0 000 2.667z" fill="#222"/><path d="M31.854 15.389C28.801 9.4 22.848 5.334 16 5.334 9.152 5.334 3.199 9.4.146 15.389a1.354 1.354 0 000 1.223C3.199 22.6 9.152 26.667 16 26.667c6.848 0 12.801-4.068 15.854-10.056a1.353 1.353 0 000-1.222zM16 25.334c-6.113 0-11.733-3.575-14.666-9.34C4.267 10.241 9.887 6.667 16 6.667c6.113 0 11.733 3.574 14.666 9.34-2.933 5.752-8.553 9.326-14.666 9.326z" fill="#222"/></symbol><symbol fill="none" viewBox="0 0 32 32" id="eye_strain" xmlns="http://www.w3.org/2000/svg"><g clip-path="url(#fclip0_3480_8288)"><path d="M31.854 15.389c-2.953-5.792-8.622-9.776-15.187-10.031V0h-1.334v5.358C8.768 5.613 3.1 9.597.146 15.388a1.354 1.354 0 000 1.224c2.953 5.791 8.622 9.775 15.187 10.03V32h1.334v-5.358c6.565-.255 12.234-4.239 15.187-10.03a1.353 1.353 0 000-1.223zm-16.52 5.898c-2.627-.33-4.667-2.572-4.667-5.287s2.04-4.957 4.666-5.287v10.574zm1.333-10.574c2.626.33 4.666 2.572 4.666 5.287s-2.04 4.957-4.666 5.287V10.713zM1.334 15.994c2.825-5.543 8.147-9.053 14-9.303v2.676c-3.365.335-6 3.182-6 6.632 0 3.451 2.635 6.298 6 6.633v2.676c-5.853-.249-11.175-3.76-14-9.314zm15.333 9.315v-2.676c3.364-.335 6-3.182 6-6.632 0-3.451-2.636-6.298-6-6.633V6.692c5.852.25 11.174 3.76 13.999 9.315-2.825 5.542-8.147 9.052-14 9.302z" fill="#222"/></g><defs><clipPath id="fclip0_3480_8288"><path fill="#fff" d="M0 0h32v32H0z"/></clipPath></defs></symbol><symbol fill="none" viewBox="0 0 32 32" id="lens_color" xmlns="http://www.w3.org/2000/svg"><g clip-path="url(#gclip0_3480_8929)" fill="#222"><path d="M4.51 11.816l1.28.368c.524-1.821 1.962-4.962 5.7-5.534l-.203-1.319c-3.266.5-5.736 2.863-6.778 6.484z"/><path d="M16.215 1.333c-2.23 0-4.51.16-6.713.455-11.65 1.796-12.03 20.633-4.174 26.937 1.68 1.335 3.632 1.942 5.705 1.942 2.775 0 5.766-1.088 8.613-2.966 0-.035-.005-.07-.005-.105 0-.299.004-.807.259-1.7-2.993 2.207-6.115 3.438-8.867 3.438-1.856 0-3.496-.556-4.871-1.648-4.026-3.232-5.888-10.59-4.238-16.75.692-2.583 2.622-7.034 7.756-7.826a49.308 49.308 0 016.535-.443c6.607 0 11.685 1.425 13.583 3.813.82 1.03 1.056 2.24.722 3.701-.656 2.5-1.696 4.945-3.05 7.23.45.082.878.232 1.27.452 1.331-2.286 2.396-4.77 3.076-7.363 1.52-6.582-6.61-9.166-15.6-9.166z"/><path d="M26.712 20c-.478 0-.955.23-1.243.69-1.303 2.08-3.161 5.324-3.161 6.905a4.405 4.405 0 108.81 0c0-1.58-1.858-4.825-3.16-6.905a1.46 1.46 0 00-1.246-.69zm0 10.667v-9.334c.074 0 .102.045.114.065 2.181 3.482 2.958 5.484 2.958 6.197a3.075 3.075 0 01-3.072 3.072z"/></g><defs><clipPath id="gclip0_3480_8929"><path fill="#fff" d="M0 0h32v32H0z"/></clipPath></defs></symbol><symbol fill="none" viewBox="0 0 32 32" id="lens_contrast" xmlns="http://www.w3.org/2000/svg"><path d="M4.51 11.816l1.28.368c.524-1.821 1.962-4.962 5.7-5.534l-.203-1.319c-3.266.5-5.736 2.863-6.778 6.484z" fill="#222"/><path d="M11.033 29.334c-1.856 0-3.496-.556-4.871-1.648-4.026-3.232-5.888-10.59-4.238-16.75.692-2.583 2.622-7.034 7.756-7.826a49.308 49.308 0 016.535-.443c6.607 0 11.685 1.425 13.583 3.813.82 1.03 1.056 2.24.722 3.701a28.398 28.398 0 01-3.078 7.28c.46.076.906.186 1.338.331 1.312-2.267 2.362-4.726 3.035-7.292 1.52-6.582-6.61-9.166-15.6-9.166-2.23 0-4.51.158-6.713.454-11.65 1.796-12.03 20.633-4.174 26.937 1.68 1.335 3.632 1.942 5.705 1.942 2.185 0 4.505-.678 6.782-1.882a8.563 8.563 0 01-.334-1.33c-2.217 1.219-4.432 1.879-6.448 1.879z" fill="#222"/><path d="M20.666 26.674a.667.667 0 100-1.334.667.667 0 000 1.334zM20.8 23.007a.671.671 0 00.24.913.672.672 0 00.913-.247.668.668 0 00-.247-.913.664.664 0 00-.906.247zM23.666 30.04a.674.674 0 00-.913.247.674.674 0 00.247.913.672.672 0 00.913-.247.674.674 0 00-.247-.913zM23.326 22.053a.613.613 0 00.334-.094h-.007a.66.66 0 00.247-.905.673.673 0 00-.914-.247.666.666 0 00-.24.913c.12.213.347.334.58.334zM21.046 28.093a.666.666 0 00.667 1.154.665.665 0 10-.667-1.153zM26 20a.666.666 0 00-.667.667v10.666c0 .37.299.667.667.667 3.308 0 6-2.691 6-6 0-3.308-2.692-6-6-6zm.666 10.62v-9.24c2.26.325 4 2.273 4 4.62a4.674 4.674 0 01-4 4.62z" fill="#222"/></symbol><symbol fill="none" viewBox="0 0 32 31" id="lens_scratch" xmlns="http://www.w3.org/2000/svg"><path d="M4.51 10.815l1.28.369c.525-1.822 1.962-4.963 5.7-5.535l-.203-1.318c-3.266.5-5.736 2.863-6.778 6.484z" fill="#222"/><path d="M6.162 26.685C2.136 23.454.274 16.096 1.924 9.935 2.616 7.353 4.547 2.902 9.68 2.11a49.307 49.307 0 016.535-.443c6.607 0 11.685 1.426 13.584 3.814.818 1.029 1.055 2.24.722 3.701-.65 2.471-1.676 4.889-3.008 7.152h1.532a29.45 29.45 0 002.771-6.834c1.52-6.582-6.61-9.166-15.6-9.166-2.23 0-4.511.159-6.714.455-11.65 1.796-12.03 20.632-4.174 26.936 1.68 1.336 3.633 1.942 5.705 1.942 2.032 0 4.179-.584 6.3-1.632v-1.5c-2.167 1.168-4.328 1.799-6.3 1.799-1.856 0-3.496-.556-4.871-1.648zM31.057 19L20 30.056l.943.943L32 19.943 31.057 19zM31.034 24.361l-5.672 5.673.942.943 5.673-5.673-.943-.943z" fill="#222"/><path d="M25.715 19.042l-5.673 5.672.943.943 5.672-5.672-.942-.943z" fill="#222"/></symbol><symbol fill="none" viewBox="0 0 32 32" id="lens_thinner" xmlns="http://www.w3.org/2000/svg"><path d="M17.333 0h-2.667c-1.552 0-3.333 1.819-3.333 16 0 14.181 1.781 16 3.333 16h2.667c1.552 0 3.333-1.819 3.333-16 0-14.181-1.781-16-3.333-16zm-4.667 16c0-14.5 1.918-14.667 2-14.667h.926C14.693 3.117 14 7.153 14 16s.693 12.883 1.592 14.667h-.926c-.082 0-2-.167-2-14.667zm4.667 14.667c-.082 0-2-.167-2-14.667s1.918-14.667 2-14.667c.082 0 2 .167 2 14.667s-1.918 14.667-2 14.667z" fill="#222"/></symbol><symbol fill="none" viewBox="0 0 32 32" id="lens_uv" xmlns="http://www.w3.org/2000/svg"><g clip-path="url(#kclip0_3480_9178)" fill="#222"><path d="M4.51 11.816l1.28.368c.524-1.821 1.962-4.962 5.7-5.534l-.203-1.319c-3.266.5-5.736 2.863-6.778 6.484z"/><path d="M11.033 29.334c-1.856 0-3.496-.556-4.871-1.648-4.026-3.232-5.888-10.59-4.238-16.75.692-2.583 2.622-7.034 7.756-7.826a49.308 49.308 0 016.535-.443c6.607 0 11.685 1.425 13.583 3.813.82 1.03 1.056 2.24.722 3.701-.66 2.519-1.71 4.983-3.078 7.283.458.076.905.187 1.336.334 1.314-2.27 2.365-4.73 3.038-7.297 1.52-6.583-6.61-9.168-15.6-9.168-2.23 0-4.512.16-6.714.455-11.65 1.796-12.03 20.633-4.174 26.937 1.68 1.335 3.632 1.942 5.705 1.942 2.18 0 4.495-.676 6.769-1.875a8.594 8.594 0 01-.336-1.33c-2.212 1.215-4.422 1.872-6.433 1.872z"/><path d="M26.666 20h-1.333v1.334h1.333V20zM22.228 21.286l-.943.943.943.943.943-.943-.943-.943zM21.333 25.334H20v1.333h1.333v-1.334zM22.228 28.829l-.943.943.943.942.943-.942-.943-.943zM26.666 30.667h-1.333V32h1.333v-1.333zM29.77 28.829l-.942.942.942.943.943-.943-.943-.942zM32 25.334h-1.334v1.333H32v-1.334zM29.77 21.286l-.942.943.943.943.943-.943-.943-.943zM26 22.667a3.334 3.334 0 100 6.667 3.334 3.334 0 000-6.667zM26 28c-1.103 0-2-.897-2-2 0-1.102.897-2 2-2 1.102 0 2 .898 2 2 0 1.103-.898 2-2 2z"/></g><defs><clipPath id="kclip0_3480_9178"><path fill="#fff" d="M0 0h32v32H0z"/></clipPath></defs></symbol><symbol fill="none" viewBox="0 0 32 32" id="sun" xmlns="http://www.w3.org/2000/svg"><path d="M16 6.667c-5.147 0-9.333 4.186-9.333 9.333s4.186 9.333 9.333 9.333 9.333-4.186 9.333-9.333S21.147 6.667 16 6.667zM16 24c-4.411 0-8-3.589-8-8s3.589-8 8-8 8 3.589 8 8-3.589 8-8 8zM16.667 0h-1.334v4h1.334V0zM26.842 4.215l-2.828 2.829.942.943 2.829-2.829-.943-.943zM32 15.333h-4v1.334h4v-1.334zM24.956 24.014l-.943.943 2.829 2.828.943-.943-2.829-2.828zM16.667 28h-1.334v4h1.334v-4zM7.043 24.014l-2.828 2.828.942.943 2.829-2.829-.943-.942zM4 15.333H0v1.334h4v-1.334zM5.158 4.215l-.943.943 2.829 2.828.942-.943-2.828-2.828z" fill="#222"/></symbol><symbol fill="none" viewBox="0 0 32 32" id="sun_cloud" xmlns="http://www.w3.org/2000/svg"><path d="M4 14H0v1.334h4V14zM4.376 4.767l-.942.943L6.262 8.54l.943-.943-2.829-2.829zM14 1.333h-1.333v4H14v-4zM22.29 4.767L19.46 7.596l.943.942 2.829-2.828-.943-.943zM29.036 24.02a9.53 9.53 0 00.297-2.353c0-4.91-3.684-8.969-8.431-9.579a8.022 8.022 0 00-7.569-5.421c-4.411 0-8 3.588-8 8a7.94 7.94 0 002.076 5.368 5.34 5.34 0 00-4.742 5.299A5.34 5.34 0 008 30.666h20.667A3.337 3.337 0 0032 27.333c0-1.713-1.3-3.128-2.964-3.313zM13.333 8a6.687 6.687 0 016.112 4.01c-4.775.112-8.752 3.754-9.358 8.416-.092-.04-.187-.07-.28-.103a6.63 6.63 0 01-3.14-5.656A6.674 6.674 0 0113.333 8zm15.334 21.334H8c-2.206 0-4-1.794-4-4s1.794-4 4-4c.823 0 1.615.25 2.292.724l1.05-.535c.075-4.515 3.81-8.19 8.325-8.19 4.595 0 8.333 3.739 8.333 8.334 0 .952-.17 1.904-.504 2.83l.763.878a1.999 1.999 0 11.408 3.959z" fill="#222"/></symbol><symbol fill="none" viewBox="0 0 32 32" id="visual_clarity" xmlns="http://www.w3.org/2000/svg"><path d="M25.333 16c0-4.921-3.83-8.955-8.666-9.3V0h-1.334v32h1.334v-6.7c4.835-.345 8.666-4.379 8.666-9.3zm-8.666-3.94A4.003 4.003 0 0120 16a4.003 4.003 0 01-3.333 3.94v-7.88zm0 11.906v-2.68c2.626-.33 4.666-2.572 4.666-5.287 0-2.714-2.04-4.957-4.666-5.287v-2.68C20.767 8.374 24 11.813 24 16c0 4.186-3.234 7.626-7.333 7.967zM8.593 20.553a.656.656 0 00-.146.927.647.647 0 00.927.147.663.663 0 10-.78-1.074zM7.553 13.953a.525.525 0 00.2.034c.28 0 .547-.18.64-.46a.67.67 0 00-1.273-.413.666.666 0 00.433.84zM8.387 18.473a.666.666 0 00-.84-.433.67.67 0 00-.427.84.67.67 0 00.84.427.663.663 0 00.427-.834zM7.333 16.667a.667.667 0 100-1.334.667.667 0 000 1.334zM10.513 8.453a.655.655 0 00-.146.927.673.673 0 00.933.147.665.665 0 10-.787-1.073zM13.113 7.12a.66.66 0 00-.426.84.662.662 0 00.84.433v-.006a.663.663 0 00.426-.834.669.669 0 00-.84-.433zM8.447 10.513a.676.676 0 00.146.934.674.674 0 00.934-.147.67.67 0 00-.147-.933.67.67 0 00-.933.146zM13.52 23.607a.667.667 0 00-.84.426.662.662 0 00.427.84.67.67 0 00.84-.427.67.67 0 00-.427-.84zM11.293 22.473a.669.669 0 00-.933.14.676.676 0 00.147.934.674.674 0 00.933-.147.67.67 0 00-.147-.933v.006z" fill="#222"/></symbol></svg>