<svg width="24" height="24" viewBox="0 0 24 24" fill="none" xmlns="http://www.w3.org/2000/svg">
<path d="M18.5 8C15.384 8 13.948 8.0025 13.358 9.33C12.5135 8.9085 11.4865 8.908 10.6415 9.3295C10.052 8.0025 8.6155 8 5.5 8C1 8 0 8 0 12C0 16 1 16 5.5 16C10 16 11 16 11 12C11 11.339 10.969 10.796 10.903 10.3355C11.559 9.9055 12.441 9.9055 13.097 10.3355C13.031 10.796 13 11.339 13 12C13 16 14 16 18.5 16C23 16 24 16 24 12C24 8 23 8 18.5 8ZM9.4135 14.6485C8.842 15 7.44 15 5.5 15C3.56 15 2.158 15 1.5865 14.6485C1.282 14.461 1 14.0105 1 12C1 9.9895 1.282 9.539 1.5865 9.3515C2.158 9 3.56 9 5.5 9C7.44 9 8.842 9 9.4135 9.3515C9.718 9.539 10 9.9895 10 12C10 14.0105 9.718 14.461 9.4135 14.6485ZM22.4135 14.6485C21.842 15 20.44 15 18.5 15C16.56 15 15.158 15 14.5865 14.6485C14.282 14.461 14 14.0105 14 12C14 9.9895 14.282 9.539 14.5865 9.3515C15.158 9 16.56 9 18.5 9C20.44 9 21.842 9 22.4135 9.3515C22.718 9.539 23 9.9895 23 12C23 14.0105 22.718 14.461 22.4135 14.6485Z" fill="#222222"/>
</svg>
