<svg width="40" height="40" viewBox="0 0 40 40" fill="none" xmlns="http://www.w3.org/2000/svg">
<path d="M36.6667 5H3.33333C1.4925 5 0 6.4925 0 8.33333V31.6667C0 33.5075 1.4925 35 3.33333 35H25V33.3333H3.33333C2.41417 33.3333 1.66667 32.5858 1.66667 31.6667V16.6667H38.3333V23.3333H40V8.33333C40 6.4925 38.5075 5 36.6667 5ZM38.3333 15H1.66667V11.6667H38.3333V15ZM38.3333 10H1.66667V8.33333C1.66667 7.41417 2.41417 6.66667 3.33333 6.66667H36.6667C37.5858 6.66667 38.3333 7.41417 38.3333 8.33333V10Z" fill="black"/>
<path d="M38.3333 29.6083H38V28.6667C38 26.6417 36.3583 25 34.3333 25C32.3083 25 30.6667 26.6417 30.6667 28.6667V29.6083H30.3333C29.4167 29.6083 28.6667 30.3583 28.6667 31.275V38.3333C28.6667 39.25 29.4167 40 30.3333 40H38.3333C39.25 40 40 39.25 40 38.3333V31.275C40 30.3583 39.25 29.6083 38.3333 29.6083ZM32.3333 28.6667C32.3333 27.5667 33.2333 26.6667 34.3333 26.6667C35.4333 26.6667 36.3333 27.5667 36.3333 28.6667V29.6083H32.3333V28.6667ZM38.3333 38.3333H30.3333V31.275H38.3333V38.3333Z" fill="black"/>
<path d="M9.16667 30.8333C10.0717 30.8333 10.9483 30.5308 11.6667 29.985C12.385 30.5308 13.2617 30.8333 14.1667 30.8333C16.4642 30.8333 18.3333 28.9642 18.3333 26.6667C18.3333 24.3692 16.4642 22.5 14.1667 22.5C13.2617 22.5 12.385 22.8025 11.6667 23.3483C10.9483 22.8025 10.0717 22.5 9.16667 22.5C6.86917 22.5 5 24.3692 5 26.6667C5 28.9642 6.86917 30.8333 9.16667 30.8333ZM9.16667 24.1667C9.88667 24.1667 10.5517 24.4742 11.04 25.0317H12.2942C12.7817 24.4742 13.4467 24.1667 14.1667 24.1667C15.545 24.1667 16.6667 25.2883 16.6667 26.6667C16.6667 28.045 15.545 29.1667 14.1667 29.1667C13.4467 29.1667 12.7817 28.8592 12.2933 28.3017H11.0392C10.5517 28.8592 9.88667 29.1667 9.16667 29.1667C7.78833 29.1667 6.66667 28.045 6.66667 26.6667C6.66667 25.2883 7.78833 24.1667 9.16667 24.1667Z" fill="black"/>
</svg>
