<svg width="32" height="32" viewBox="0 0 32 32" fill="none" xmlns="http://www.w3.org/2000/svg">
<g clip-path="url(#clip0_7836_78969)">
<path d="M19.2992 21.6427L19.8439 21.098C20.9339 21.968 22.2572 22.4053 23.5819 22.4053C25.1185 22.4053 26.6545 21.8207 27.8245 20.6507C31.7645 16.7107 31.3385 9.59335 31.3179 9.29268C31.2959 8.95935 31.0305 8.69402 30.6972 8.67202C30.3972 8.65068 23.2799 8.22535 19.3392 12.1653C17.1579 14.3467 17.0125 17.8027 18.8992 20.1567L18.3559 20.7C17.6759 21.38 17.1099 22.142 16.6512 22.958C16.5552 19.7773 15.6765 16.732 14.1059 14.0433C15.3452 12.788 16.0285 11.128 16.0285 9.36201C16.0285 7.58135 15.3352 5.90735 14.0759 4.64801C9.67254 0.246015 1.64921 0.662681 1.30921 0.683348C0.971874 0.702681 0.70254 0.972015 0.683207 1.30935C0.663207 1.64868 0.244541 9.67268 4.64854 14.076C5.90787 15.3353 7.58187 16.0287 9.36254 16.0287C10.7005 16.0287 11.9779 15.6373 13.0645 14.9087C14.5412 17.514 15.3325 20.4667 15.3325 23.542V27.346C7.60321 27.484 1.35454 29.9393 1.08454 30.0473L1.57987 31.2854C1.64587 31.2593 8.21787 28.6667 15.9992 28.6667C23.7685 28.6667 30.3525 31.2593 30.4185 31.286L30.9139 30.048C30.6445 29.9407 24.4125 27.4914 16.6979 27.3473C16.8519 25.192 17.7565 23.186 19.2992 21.6427ZM20.2825 13.108C23.1299 10.2607 28.1112 9.98602 29.9245 9.98602C29.9519 9.98602 29.9779 9.98602 30.0032 9.98602C30.0112 11.73 29.7712 16.818 26.8819 19.7073C25.2239 21.3653 22.6225 21.5073 20.7965 20.1447L23.1372 17.804L22.1945 16.8613L19.8525 19.2033C18.4819 17.3773 18.6219 14.7687 20.2825 13.108ZM5.59054 13.134C2.27254 9.81601 1.99854 3.91068 2.00054 2.00135C2.01521 2.00135 2.02987 2.00135 2.04454 2.00135C3.99921 2.00135 9.83387 2.29335 13.1325 5.59201C15.1292 7.58868 15.2032 10.7853 13.3645 12.878C12.7112 11.928 11.9692 11.0287 11.1365 10.196L10.1939 11.1387C11.0085 11.9533 11.7319 12.8347 12.3619 13.7693C10.2879 15.1827 7.42987 14.9733 5.59054 13.134Z" fill="#333333"/>
</g>
<defs>
<clipPath id="clip0_7836_78969">
<rect width="32" height="32" fill="white"/>
</clipPath>
</defs>
</svg>
