<svg width="44" height="44" viewBox="0 0 44 44" fill="none" xmlns="http://www.w3.org/2000/svg">
<path d="M43.6819 24.1524L39.3782 17.4571C38.9941 16.8622 38.3231 16.5001 37.6007 16.5001H31.1667V8.33626C31.1667 7.32335 30.3463 6.50293 29.3333 6.50293H18.3333V8.33626H29.3333V16.5001V33.0001H10.8698C10.4601 31.4234 9.0365 30.2501 7.33333 30.2501C5.63017 30.2501 4.20658 31.4234 3.79683 33.0001H1.83333V23.8334C1.83333 23.1313 1.83883 21.9139 2.52817 20.2933C3.67217 21.1678 5.04258 21.6114 6.41667 21.6114C8.05933 21.6114 9.70292 20.9863 10.9542 19.735C15.0645 15.6247 15.1122 7.75235 15.1122 7.4196C15.1122 7.17668 15.0159 6.94293 14.8436 6.77151C14.6713 6.6001 14.4384 6.50293 14.1955 6.50293C13.8628 6.50293 5.99042 6.5506 1.88008 10.6609C-0.351083 12.8912 -0.586667 16.3663 1.1605 18.8678C0.00275002 21.154 0 22.8874 0 23.8334V33.0001C0 34.013 0.820417 34.8334 1.83333 34.8334H3.79683C4.20658 36.4101 5.63017 37.5834 7.33333 37.5834C9.0365 37.5834 10.4601 36.4101 10.8698 34.8334H29.3333H33.1302C33.5399 36.4101 34.9635 37.5834 36.6667 37.5834C38.3698 37.5834 39.7934 36.4101 40.2032 34.8334H41.9045C43.0623 34.8334 44 33.9213 44 32.7966V25.2323C44 24.8509 43.89 24.4769 43.6819 24.1524ZM3.17533 11.9562C5.97483 9.1576 11.1118 8.52235 13.2367 8.37843C13.0946 10.5023 12.4621 15.6338 9.65708 18.4388C7.94475 20.1512 5.21217 20.2043 3.41458 18.6341C4.04067 17.6551 4.90692 16.5771 6.12975 15.4074L4.86292 14.0828C3.75558 15.1416 2.91042 16.1408 2.25042 17.0767C1.49325 15.3891 1.793 13.3394 3.17533 11.9562ZM9.16667 33.9168C9.16667 34.9278 8.34442 35.7501 7.33333 35.7501C6.32225 35.7501 5.5 34.9278 5.5 33.9168C5.5 32.9057 6.32225 32.0834 7.33333 32.0834C8.34442 32.0834 9.16667 32.9057 9.16667 33.9168ZM36.6667 35.7501C35.6556 35.7501 34.8333 34.9278 34.8333 33.9168C34.8333 32.9057 35.6556 32.0834 36.6667 32.0834C37.6777 32.0834 38.5 32.9057 38.5 33.9168C38.5 34.9278 37.6777 35.7501 36.6667 35.7501ZM42.1667 32.7966C42.1667 32.8947 42.0613 33.0001 41.9045 33.0001H40.2032C39.7934 31.4234 38.3698 30.2501 36.6667 30.2501C34.9635 30.2501 33.5399 31.4234 33.1302 33.0001H31.1667V18.3334H37.6007C37.6979 18.3334 37.7905 18.3783 37.8354 18.4489L42.1392 25.1443C42.1575 25.1727 42.1667 25.202 42.1667 25.2323V32.7966Z" fill="white"/>
</svg>
