<svg width="40" height="40" viewBox="0 0 40 40" fill="none" xmlns="http://www.w3.org/2000/svg">
<path d="M11.667 19.5116L18.0895 25.9341L28.6787 15.3449L27.5003 14.1666L18.0895 23.5774L12.8453 18.3332L11.667 19.5116Z" fill="black"/>
<path d="M35.0003 8.33333C32.3495 8.33333 25.7962 4.13333 20.9903 0.536663C20.3978 0.0933293 19.6028 0.0933293 19.0112 0.536663C14.2045 4.13333 7.65116 8.33333 5.00033 8.33333H4.16699V9.16666C4.16699 35.6225 18.0512 39.5775 19.6345 39.9417C19.7578 39.97 19.8787 39.9842 20.0003 39.9842C20.122 39.9842 20.2437 39.97 20.367 39.9417C21.4495 39.6925 25.2628 38.5417 28.8687 34.1792C33.4903 28.5867 35.8337 20.1717 35.8337 9.16666V8.33333H35.0003ZM20.007 38.3167C18.5703 37.9867 6.08866 34.4058 5.83699 9.92083C9.82949 9.22666 16.9687 4.145 19.9903 1.87083C23.0295 4.145 30.1703 9.22666 34.1628 9.92083C33.912 34.4067 21.4295 37.9867 20.007 38.3167Z" fill="black"/>
</svg>
