<svg width="41" height="40" viewBox="0 0 41 40" fill="none" xmlns="http://www.w3.org/2000/svg">
<rect x="8.59961" y="20" width="23.3333" height="1.66667" fill="black"/>
<path fill-rule="evenodd" clip-rule="evenodd" d="M40.2666 11.6667C40.2666 12.5858 39.5191 13.3333 38.5999 13.3333H36.9333V38.3333H40.2666V40H36.9333H35.2666H31.9333H30.2666H23.5999H21.9333H18.5999H16.9333H10.2666H8.59993H5.2666H3.59993H0.266602V38.3333H3.59993V13.3333H1.93327C1.0141 13.3333 0.266602 12.5858 0.266602 11.6667V8.33333C0.266602 7.41417 1.0141 6.66667 1.93327 6.66667H4.2666L6.5141 1.0475C6.76744 0.415 7.37993 0 8.0616 0H32.4716C33.1533 0 33.7658 0.415 34.0191 1.0475L36.2666 6.66667H38.5999C39.5191 6.66667 40.2666 7.41417 40.2666 8.33333V11.6667ZM32.4716 1.66667H8.0616L6.0616 6.66667H34.4716L32.4716 1.66667ZM1.93327 11.6667V8.33333H3.59993H36.9333H38.5999L38.6008 11.6667H36.9333H3.59993H1.93327ZM10.2666 26.6667V38.3333H16.9333V26.6667H10.2666ZM23.5999 38.3333V26.6667H30.2666V38.3333H23.5999ZM31.9333 38.3333H35.2666V13.3333H5.2666V38.3333H8.59993V26.6667C8.59993 25.7475 9.34743 25 10.2666 25H16.9333C17.8524 25 18.5999 25.7475 18.5999 26.6667V38.3333H21.9333V26.6667C21.9333 25.7475 22.6808 25 23.5999 25H30.2666C31.1858 25 31.9333 25.7475 31.9333 26.6667V38.3333Z" fill="black"/>
</svg>
