<svg width="41" height="40" viewBox="0 0 41 40" fill="none" xmlns="http://www.w3.org/2000/svg">
<path fill-rule="evenodd" clip-rule="evenodd" d="M36.3315 15.87L40.244 21.9567C40.4332 22.2517 40.5332 22.5917 40.5332 22.9383V29.815C40.5332 30.8375 39.6807 31.6667 38.6282 31.6667H37.0815C36.709 33.1 35.4149 34.1667 33.8665 34.1667C32.3182 34.1667 31.024 33.1 30.6515 31.6667H27.1999H10.4149C10.0424 33.1 8.7482 34.1667 7.19987 34.1667C5.65154 34.1667 4.35737 33.1 3.98487 31.6667H2.19987C1.27904 31.6667 0.533203 30.9208 0.533203 30V25.8333H2.19987V30H3.98487C4.35737 28.5667 5.65154 27.5 7.19987 27.5C8.7482 27.5 10.0424 28.5667 10.4149 30H27.1999V15V7.57835H10.5332V5.91168H27.1999C28.1207 5.91168 28.8665 6.65752 28.8665 7.57835V15H34.7157C35.3724 15 35.9824 15.3292 36.3315 15.87ZM5.5332 30.8333C5.5332 31.7525 6.2807 32.5 7.19987 32.5C8.11904 32.5 8.86654 31.7525 8.86654 30.8333C8.86654 29.9142 8.11904 29.1667 7.19987 29.1667C6.2807 29.1667 5.5332 29.9142 5.5332 30.8333ZM33.8665 32.5C32.9474 32.5 32.1999 31.7525 32.1999 30.8333C32.1999 29.9142 32.9474 29.1667 33.8665 29.1667C34.7857 29.1667 35.5332 29.9142 35.5332 30.8333C35.5332 31.7525 34.7857 32.5 33.8665 32.5ZM38.6282 30C38.7707 30 38.8665 29.9042 38.8665 29.815V22.9383C38.8665 22.9117 38.8582 22.8833 38.8415 22.8583L34.929 16.7717C34.8882 16.7075 34.804 16.6667 34.7157 16.6667H28.8665V30H30.6515C31.024 28.5667 32.3182 27.5 33.8665 27.5C35.4149 27.5 36.709 28.5667 37.0815 30H38.6282Z" fill="black"/>
<rect x="7.2002" y="10.8334" width="8.33333" height="1.66667" fill="black"/>
<rect x="3.86621" y="15.8334" width="8.33333" height="1.66667" fill="black"/>
<rect x="0.533203" y="20.8334" width="8.33333" height="1.66667" fill="black"/>
</svg>
