<svg width="48" height="48" viewBox="0 0 48 48" fill="none" xmlns="http://www.w3.org/2000/svg">
<path d="M32.536 20.4638C33.48 21.4088 34 22.6648 34 23.9998C34 25.3348 33.48 26.5908 32.536 27.5358L33.95 28.9498C35.272 27.6268 36 25.8698 36 23.9998C36 22.1308 35.272 20.3728 33.95 19.0498L32.536 20.4638Z" fill="black"/>
<path d="M38.192 14.8076L36.778 16.2216C38.856 18.2996 40 21.0616 40 23.9996C40 26.9376 38.856 29.6996 36.778 31.7776L38.192 33.1916C40.648 30.7356 42 27.4716 42 23.9996C42 20.5276 40.648 17.2636 38.192 14.8076Z" fill="black"/>
<path d="M42.435 10.5649L41.021 11.9789C44.232 15.1899 46 19.4589 46 23.9999C46 28.5409 44.232 32.8099 41.021 36.0209L42.435 37.4349C46.024 33.8469 48 29.0749 48 23.9999C48 18.9249 46.024 14.1529 42.435 10.5649Z" fill="black"/>
<path d="M28.814 0.417826C28.083 0.0908256 27.258 0.221826 26.662 0.757826L8.902 16.7428C8.717 16.9088 8.48 16.9998 8.232 16.9998H2C0.897 16.9998 0 17.8968 0 18.9998V28.9998C0 30.1028 0.897 30.9998 2 30.9998H8.232C8.48 30.9998 8.717 31.0908 8.901 31.2558L26.662 47.2408C27.04 47.5818 27.511 47.7588 27.992 47.7588C28.268 47.7588 28.547 47.7008 28.813 47.5818C29.545 47.2558 30 46.5558 30 45.7538V2.24483C30 1.44383 29.545 0.743826 28.814 0.417826ZM28 45.7548L10.239 29.7698C9.687 29.2728 8.974 28.9998 8.232 28.9998H2V18.9998H8.232C8.974 18.9998 9.687 18.7268 10.238 18.2298L28 2.24483V45.7548Z" fill="black"/>
</svg>
