<svg xmlns="http://www.w3.org/2000/svg" width="35" height="35" viewBox="0 0 35 35">
    <path fill="#000" fill-rule="evenodd" d="M18.106 24.032c-.19.104-.383.208-.576.306l-.034.017-.024-.012a18.723 18.723 0 0 1-1.14-.633 14.678 14.678 0 0 1-2.1-1.51 8.62 8.62 0 0 1-.89-.892 4.96 4.96 0 0 1-.673-.992c-.048-.086-.08-.174-.118-.261-.031-.088-.068-.175-.09-.263-.029-.088-.043-.176-.062-.264-.01-.086-.028-.174-.027-.26l-.003-.066-.002-.033v-5.194l.144-.038c.113-.03.226-.06.338-.094a15.592 15.592 0 0 0 3.835-1.695l.15-.09.026-.018.036-.023v6.122l.017.29c.05.814.187 3.049.209 2.934.143 1.348.41 2.217.664.042.164-1.141.28-2.718.303-2.976l.003-.133.001-7.486V9.702l-.07.051-.142.103-.569.413-.289.209-.144.104-.071.052-.067.045-.519.346-.03.02-.018.01-.035.022-.07.042-.14.086a14.263 14.263 0 0 1-3.621 1.545l-.16.043-.08.02a4.81 4.81 0 0 1-.168.043l-.665.158-.041.01-.02.005c-.01 0-.004.012-.005.018v1.791l-.001 2.742v1.37c0 .117-.002.22.005.372.003.14.025.277.045.414.048.272.127.531.225.779.202.49.474.927.781 1.32.307.392.646.745 1.001 1.072.71.655 1.484 1.208 2.285 1.707.401.248.81.481 1.228.7l.158.081.097.05.153.076.307.153.038.018c.012.005.026-.01.038-.014l.077-.037.153-.077.154-.075.14-.07.157-.08.312-.167a18.12 18.12 0 0 0 2.382-1.537c.379-.29.744-.602 1.09-.941.349-.338.677-.706.968-1.118.074-.1.14-.21.211-.316.064-.11.133-.218.19-.336.122-.228.223-.475.304-.732.083-.256.131-.531.153-.81l.008-.21V15.916l.001-1.993a.36.36 0 0 0-.048-.094c-.518-.63-.954-.249-1.124.016-.03.039-.03.05-.03.078v5.026c0 .11.002.236-.004.31 0 .087-.017.175-.026.263-.02.087-.033.175-.062.262-.097.352-.283.7-.505 1.032-.46.664-1.082 1.257-1.754 1.787a16.43 16.43 0 0 1-2.17 1.429zm7.541-12.887a12.32 12.32 0 0 1-5.189-1.547 12.451 12.451 0 0 1-2.215-1.585l-.253-.229c-.084-.076-.161-.16-.242-.24l-.25-.253h-.002l-.225.226a12.397 12.397 0 0 1-4.56 2.916c-.857.312-1.747.526-2.65.64l-.169.024-.17.016-.34.028-.17.014-.025.002h-.02l-.053.002c-.05 0-.028.002-.033.003v8.022l.008.165.015.33.046.328.022.164.038.161.074.324.102.316c.018.054.032.107.052.159l.064.154c.045.104.083.208.13.31.104.2.194.405.317.597.058.097.11.197.175.291l.193.283c.06.097.135.186.203.277.072.09.137.184.213.27.15.177.297.354.46.52.315.341.66.658 1.015.964l.27.226c.091.076.186.146.278.22.092.072.186.146.28.213l.042.03.164.122c.11.082.225.156.337.235.11.079.225.155.34.229 0 0 .35.273.845.623a54.73 54.73 0 0 0 1.665 1.129c.458.287.756.48.919.615a.824.824 0 0 1 .123.12c-.033-.15-.008-.341.118-.588a.294.294 0 0 1 .066-.079 21.758 21.758 0 0 0 1.747-.837 20.735 20.735 0 0 0 2.154-1.314 14.843 14.843 0 0 0 1.926-1.586c.152-.142.287-.295.43-.444.14-.15.268-.31.401-.464.25-.321.494-.647.694-.995.408-.688.714-1.431.829-2.205.026-.193.06-.385.06-.581l.015-.293V17.549l.001-2.597V11.162c-.001-.001.002-.001-.002-.001l-.026-.001-.052-.001-.026-.001-.159-.013zm-4.603-2.593a11.11 11.11 0 0 0 4.686 1.396l.077.006.038.003c.015.001.02.003.05.003l.299.009.599.016.298.009.02.001c.002.003 0 .013 0 .018v9.16l-.015.356c-.003.239-.042.475-.075.71-.142.943-.51 1.832-.984 2.629a9.946 9.946 0 0 1-.79 1.135c-.148.172-.293.35-.448.517-.157.165-.309.336-.474.49a16.154 16.154 0 0 1-2.079 1.715c-.733.511-1.494.973-2.279 1.39-.6.322-1.214.616-1.845.884-.029.012-.038.016-.087.004-.158-.025-.371-.104-.49-.269a.478.478 0 0 1-.044-.082.071.071 0 0 1-.034.031c-.15.068-.712-.045-1.362-.277.06.042-.709-.251-1.467-.621-.381-.18-.758-.38-1.041-.534-.142-.077-.259-.146-.341-.192l-.13-.075c-.228-.155-.458-.31-.681-.477l-.084-.06-.066-.049c-.098-.07-.191-.146-.287-.22-.384-.293-.75-.613-1.107-.941l-.263-.256-.13-.128-.126-.134-.252-.267-.24-.28c-.164-.183-.307-.387-.46-.582-.073-.1-.14-.204-.21-.306-.07-.103-.143-.204-.204-.314l-.19-.324c-.066-.106-.116-.223-.175-.334-.119-.221-.21-.458-.306-.692-.052-.115-.083-.24-.125-.36-.036-.122-.083-.241-.11-.366-.055-.249-.125-.495-.15-.751-.018-.127-.038-.253-.05-.38l-.019-.384-.008-.192V10.005c-.003-.01 0-.012.009-.011l.074-.002.3-.008.598-.017.15-.004.075-.002h.036l.018-.003.154-.013.307-.026.153-.013.154-.021a11.063 11.063 0 0 0 2.39-.579 11.2 11.2 0 0 0 4.12-2.634l.23-.233.436-.488.216-.244.108-.12.055-.061.028-.03c.003-.01.008.004.012.006l.015.016.432.484.217.243.108.121.054.06.046.051.218.218c.073.073.143.15.219.218l.229.206c.611.55 1.284 1.031 2 1.433zM35 17.285c.006.932-.058 1.874-.198 2.815l-.057.353c-.02.118-.037.236-.063.351l-.149.703-.183.697c-.06.234-.14.462-.21.693a17.503 17.503 0 0 1-4.724 7.412 16.718 16.718 0 0 1-2.382 1.861 17.847 17.847 0 0 1-2.689 1.427l-.353.146c-.12.047-.235.1-.357.139l-.721.255-.736.218c-.121.04-.246.068-.37.099l-.373.09c-1.994.458-4.079.585-6.117.317a17.706 17.706 0 0 1-5.843-1.815 17.545 17.545 0 0 1-6.675-6.05 17.889 17.889 0 0 1-1.394-2.633 17.04 17.04 0 0 1-.922-2.794l-.086-.355c-.026-.119-.046-.239-.07-.357l-.068-.358-.034-.179-.025-.18-.098-.717-.063-.72c-.064-.958-.05-1.912.036-2.85.082-.94.26-1.861.49-2.755a17.573 17.573 0 0 1 2.14-4.945 19.11 19.11 0 0 1 1.545-2.09A19.394 19.394 0 0 1 6.03 4.28l.476-.393c.08-.065.155-.133.238-.194l.245-.182c.164-.12.322-.246.49-.358l.499-.335A17.131 17.131 0 0 1 10.03 1.68l.259-.122.129-.06.131-.054.524-.216c.172-.075.35-.132.524-.195.175-.06.348-.123.522-.182a19.011 19.011 0 0 1 2.079-.534 19.008 19.008 0 0 1 2.021-.27c.33-.016.656-.043.978-.042l.158-.002c.223-.007.415 0 .574.004l.37.011.129.008.315.042c.197.024.47.078.784.137.625.127 1.399.342 2.01.585.26.1.472.19.64.268.168.084.293.156.381.216.177.12.208.195.135.233-.146.078-.696.005-1.353-.08.032.013-.148-.01-.434-.05-.143-.023-.314-.038-.498-.06l-.285-.032-.298-.022-.298-.023c-.099-.007-.196-.008-.29-.012-.19-.006-.366-.018-.518-.015l-.507-.001-.458-.01c-.072-.003-.153-.007-.241-.004l-.137.001-.074.002-.322.004-.424.022c-.286.01-.575.047-.869.072l-.441.059-.223.03-.224.038c-.6.096-1.209.245-1.826.418l-.464.14c-.155.05-.308.108-.463.161-.155.057-.313.105-.467.17l-.465.191c-.077.033-.156.063-.233.098l-.231.108-.465.22c-.153.078-.305.162-.459.243-.153.082-.309.162-.458.256l-.455.274c-.152.092-.297.196-.447.295-.303.193-.587.419-.883.635-.144.113-.284.233-.427.35l-.215.177c-.07.06-.137.124-.207.187l-.415.379-.4.401A15.99 15.99 0 0 0 4.33 7.9c-.057.08-.12.156-.173.239l-.164.245c-.109.166-.228.325-.326.498l-.31.514c-.095.176-.19.353-.287.53-.37.717-.706 1.467-.976 2.251a17.431 17.431 0 0 0-.638 2.43c-.152.835-.233 1.69-.253 2.556 0 .216-.012.433-.002.651l.024.653c.036.435.068.873.136 1.309l.046.328.06.326.063.326.031.163.039.163.158.649c.063.213.128.429.19.643.273.854.61 1.693 1.017 2.506a16.459 16.459 0 0 0 3.267 4.4 16.62 16.62 0 0 0 4.63 3.104 16.39 16.39 0 0 0 5.45 1.37c1.882.15 3.785-.063 5.596-.568.908-.249 1.788-.589 2.632-.992a16.514 16.514 0 0 0 2.411-1.414 16.517 16.517 0 0 0 3.88-3.907 16.697 16.697 0 0 0 2.327-4.854c.244-.855.418-1.722.523-2.588.022-.217.054-.433.067-.65l.04-.65c.007-.432.019-.862-.006-1.29a15.54 15.54 0 0 0-.302-2.52 16.482 16.482 0 0 0-.666-2.39 16.374 16.374 0 0 0-2.254-4.183 15.499 15.499 0 0 0-1.484-1.72 3.45 3.45 0 0 0-.198-.196l-.035-.035-.036-.034-.07-.066c-.182-.179-.36-.333-.517-.472-.154-.14-.299-.254-.418-.35-.234-.197-.383-.304-.398-.316-.022-.017-.03-.023-.042-.069-.051-.145-.087-.36-.013-.55.076-.187.262-.345.677-.356.016 0 .081.006.108.02.015.012.176.129.433.342.129.106.285.23.453.384l.273.24c.094.084.188.178.29.273.025.024.05.05.076.072l.062.06c.148.136.283.287.426.43a17.515 17.515 0 0 1 2.912 4.086c.396.77.737 1.582 1.021 2.424.077.209.132.425.198.639.065.214.13.43.18.649.052.219.109.438.157.66l.128.67c.151.9.241 1.82.258 2.753z"/>
</svg>
