<svg width="24" height="24" viewBox="0 0 24 24" fill="none" xmlns="http://www.w3.org/2000/svg">
<path d="M22 3H8.5H7.5H2C0.8955 3 0 3.8955 0 5V9.5V10.5V19C0 20.1045 0.8955 21 2 21H7.5H8.5H22C23.1045 21 24 20.1045 24 19V10.5V9.5V5C24 3.8955 23.1045 3 22 3ZM7.5 11.5H6C5.173 11.5 4.5 10.827 4.5 10C4.5 9.173 5.173 8.5 6 8.5C6.827 8.5 7.5 9.173 7.5 10V11.5ZM8.5 10C8.5 9.173 9.173 8.5 10 8.5C10.827 8.5 11.5 9.173 11.5 10C11.5 10.827 10.827 11.5 10 11.5H8.5V10ZM1 5C1 4.4485 1.4485 4 2 4H7.5V8.013C7.081 7.6955 6.565 7.5 6 7.5C4.793 7.5 3.783 8.3605 3.5505 9.5H1V5ZM2 20C1.4485 20 1 19.5515 1 19V10.5H3.5505C3.783 11.6395 4.7925 12.5 6 12.5H6.793L4.6465 14.6465L5.3535 15.3535L7.5 13.207V20H2ZM23 19C23 19.5515 22.5515 20 22 20H8.5V13.207L10.6465 15.3535L11.3535 14.6465L9.207 12.5H10C11.207 12.5 12.217 11.6395 12.4495 10.5H23V19ZM12.4495 9.5C12.217 8.3605 11.2075 7.5 10 7.5C9.435 7.5 8.919 7.6955 8.5 8.013V4H22C22.5515 4 23 4.4485 23 5V9.5H12.4495Z" fill="#2D2A26"/>
</svg>
