<svg width="20" height="20" viewBox="0 0 20 20" fill="none" xmlns="http://www.w3.org/2000/svg">
<g clip-path="url(#clip0_38_3059)">
<path d="M2.81818 7.38426L3.61902 7.61467C3.94652 6.47634 4.84485 4.51301 7.18068 4.15551L7.05443 3.33176C5.01319 3.64384 3.46943 5.12092 2.81818 7.38426Z" fill="#2D2A26"/>
<path d="M10.1344 0.833008C8.74069 0.833008 7.31527 0.932174 5.9386 1.11717C-1.34265 2.23967 -1.57973 14.0126 3.32985 17.9526C4.37985 18.7872 5.60027 19.1663 6.89568 19.1663C11.9182 19.1663 18.0749 13.4722 19.8849 6.56176C20.8349 2.44801 15.7536 0.833008 10.1344 0.833008ZM19.0753 6.36301C18.2478 9.51259 16.4524 12.5276 14.019 14.853C11.7053 17.0647 9.1086 18.333 6.89568 18.333C5.73568 18.333 4.71068 17.9855 3.8511 17.303C1.33485 15.2834 0.171101 10.6851 1.20235 6.83467C1.63485 5.22009 2.84152 2.43801 6.04985 1.94301C7.41569 1.75967 8.78985 1.66634 10.1344 1.66634C14.2636 1.66634 17.4374 2.55717 18.624 4.04967C19.1361 4.69301 19.2836 5.45009 19.0753 6.36301Z" fill="#2D2A26"/>
</g>
<defs>
<clipPath id="clip0_38_3059">
<rect width="20" height="20" fill="white"/>
</clipPath>
</defs>
</svg>
