<svg width="20" height="20" viewBox="0 0 20 20" fill="none" xmlns="http://www.w3.org/2000/svg">
<path d="M19.7196 5.32417C19.5608 5.13042 19.3258 5.01917 19.075 5.01917H2.76125L2.20958 2.26125C2.09375 1.67542 1.57833 1.25 0.983333 1.25H0V2.08333H0.983333C1.18417 2.08333 1.3525 2.22292 1.39208 2.42375L3.73792 14.1496L3.23583 15.9067C3.12708 16.2871 3.20125 16.6867 3.43958 17.0025C3.67833 17.3188 4.04208 17.5 4.43792 17.5H4.815C4.67167 17.7463 4.58333 18.0283 4.58333 18.3333C4.58333 19.2525 5.33083 20 6.25 20C7.16917 20 7.91667 19.2525 7.91667 18.3333C7.91667 18.0283 7.82833 17.7463 7.685 17.5H13.5654C13.4217 17.7463 13.3333 18.0283 13.3333 18.3333C13.3333 19.2525 14.0808 20 15 20C15.9192 20 16.6667 19.2525 16.6667 18.3333C16.6667 18.0283 16.5783 17.7463 16.435 17.5H17.5V16.6667H4.43792C4.30625 16.6667 4.185 16.6062 4.10542 16.5008C4.02625 16.3954 4.00125 16.2625 4.0375 16.1358L4.595 14.1842L4.59167 14.1667H17.5754C17.9708 14.1667 18.3146 13.885 18.3925 13.4975L19.8921 6.01625C19.9412 5.77042 19.8783 5.51792 19.7196 5.32417ZM7.08333 18.3333C7.08333 18.7929 6.70958 19.1667 6.25 19.1667C5.79042 19.1667 5.41667 18.7929 5.41667 18.3333C5.41667 17.8737 5.79042 17.5 6.25 17.5C6.70958 17.5 7.08333 17.8737 7.08333 18.3333ZM15.8333 18.3333C15.8333 18.7929 15.4596 19.1667 15 19.1667C14.5404 19.1667 14.1667 18.7929 14.1667 18.3333C14.1667 17.8737 14.5404 17.5 15 17.5C15.4596 17.5 15.8333 17.8737 15.8333 18.3333ZM17.5754 13.3333H4.425L2.92792 5.85208H19.075L17.5754 13.3333Z" fill="#2D2A26"/>
</svg>
