<svg width="32" height="32" viewBox="0 0 32 32" fill="none" xmlns="http://www.w3.org/2000/svg">
<g clip-path="url(#clip0_3480_2830)">
<path d="M17.2197 0.702733C16.957 0.274066 16.5003 0.0180664 15.9997 0.0180664C15.499 0.0180664 15.0423 0.2734 14.7797 0.702066C11.9397 5.3374 5.33301 16.6254 5.33301 21.3334C5.33301 27.2147 10.1183 32.0001 15.9997 32.0001C21.881 32.0001 26.6663 27.2147 26.6663 21.3334C26.6663 16.6254 20.0597 5.3374 17.2197 0.702733ZM15.9997 30.6667V1.3514C16.0537 1.3514 16.0757 1.3874 16.083 1.39873C20.555 8.69607 25.333 17.7647 25.333 21.3334C25.333 26.4801 21.1463 30.6667 15.9997 30.6667Z" fill="#222222"/>
</g>
<defs>
<clipPath id="clip0_3480_2830">
<rect width="32" height="32" fill="white"/>
</clipPath>
</defs>
</svg>
