<svg width="32" height="31" viewBox="0 0 32 31" fill="none" xmlns="http://www.w3.org/2000/svg">
<path d="M4.50934 10.815L5.79067 11.1837C6.31467 9.36234 7.75201 6.22101 11.4893 5.64901L11.2873 4.33101C8.02134 4.83034 5.55134 7.19367 4.50934 10.815Z" fill="#222222"/>
<path d="M6.16201 26.685C2.13601 23.4537 0.274006 16.0963 1.92401 9.93567C2.61601 7.35234 4.54667 2.90101 9.68001 2.10901C11.8653 1.81567 14.064 1.66634 16.2153 1.66634C22.822 1.66634 27.9 3.09167 29.7987 5.47967C30.6173 6.50901 30.854 7.72034 30.5207 9.18101C29.8713 11.6523 28.8453 14.0697 27.5133 16.333H29.0453C30.2353 14.1943 31.1893 11.893 31.816 9.49901C33.336 2.91701 25.206 0.333008 16.2153 0.333008C13.9853 0.333008 11.7047 0.491674 9.50201 0.787674C-2.14799 2.58367 -2.52733 21.4203 5.32801 27.7243C7.00801 29.0597 8.96067 29.6663 11.0333 29.6663C13.0647 29.6663 15.212 29.0823 17.3333 28.0337V26.5343C15.166 27.7023 13.0047 28.333 11.0333 28.333C9.17734 28.333 7.53667 27.777 6.16201 26.685Z" fill="#222222"/>
<path d="M31.0569 18.9997L20.0002 30.0564L20.943 30.9992L31.9997 19.9425L31.0569 18.9997Z" fill="#222222"/>
<path d="M31.0339 24.3613L25.3616 30.0337L26.3044 30.9765L31.9767 25.3041L31.0339 24.3613Z" fill="#222222"/>
<path d="M25.7147 19.0419L20.0423 24.7143L20.9851 25.6571L26.6575 19.9847L25.7147 19.0419Z" fill="#222222"/>
</svg>
