<svg width="32" height="32" viewBox="0 0 32 32" fill="none" xmlns="http://www.w3.org/2000/svg">
<path d="M17.333 0H14.6663C13.1143 0 11.333 1.81867 11.333 16C11.333 30.1813 13.1143 32 14.6663 32H17.333C18.885 32 20.6663 30.1813 20.6663 16C20.6663 1.81867 18.885 0 17.333 0ZM12.6663 16C12.6663 1.5 14.5843 1.33333 14.6663 1.33333H15.5917C14.693 3.11733 13.9997 7.15267 13.9997 16C13.9997 24.8473 14.693 28.8827 15.5917 30.6667H14.6663C14.5843 30.6667 12.6663 30.5 12.6663 16ZM17.333 30.6667C17.251 30.6667 15.333 30.5 15.333 16C15.333 1.5 17.251 1.33333 17.333 1.33333C17.415 1.33333 19.333 1.5 19.333 16C19.333 30.5 17.415 30.6667 17.333 30.6667Z" fill="#222222"/>
</svg>
