<svg width="32" height="32" viewBox="0 0 32 32" fill="none" xmlns="http://www.w3.org/2000/svg">
<g clip-path="url(#clip0_3480_9178)">
<path d="M4.5091 11.8155L5.79043 12.1842C6.31443 10.3628 7.75176 7.2215 11.4891 6.6495L11.2871 5.3315C8.0211 5.83083 5.5511 8.19416 4.5091 11.8155Z" fill="#222222"/>
<path d="M11.0331 29.3335C9.1771 29.3335 7.5371 28.7775 6.16176 27.6855C2.13576 24.4542 0.273762 17.0968 1.92376 10.9362C2.61576 8.35283 4.54643 3.9015 9.67976 3.1095C11.8651 2.81616 14.0638 2.66683 16.2151 2.66683C22.8218 2.66683 27.8998 4.09216 29.7984 6.48016C30.6171 7.5095 30.8538 8.72083 30.5204 10.1815C29.8591 12.6995 28.8104 15.1635 27.4418 17.4635C27.9004 17.5402 28.3471 17.6508 28.7784 17.7975C30.0918 15.5288 31.1431 13.0688 31.8158 10.5008C33.3358 3.9175 25.2058 1.3335 16.2151 1.3335C13.9851 1.3335 11.7044 1.49216 9.50176 1.78816C-2.14824 3.58416 -2.52757 22.4208 5.32776 28.7248C7.00776 30.0602 8.96043 30.6668 11.0331 30.6668C13.2138 30.6668 15.5284 29.9915 17.8018 28.7922C17.6558 28.3628 17.5438 27.9188 17.4664 27.4628C15.2538 28.6768 13.0444 29.3335 11.0331 29.3335Z" fill="#222222"/>
<path d="M26.6664 20.0002H25.3331V21.3335H26.6664V20.0002Z" fill="#222222"/>
<path d="M22.2283 21.2861L21.2855 22.2289L22.2283 23.1717L23.1711 22.2289L22.2283 21.2861Z" fill="#222222"/>
<path d="M21.3331 25.3335H19.9998V26.6668H21.3331V25.3335Z" fill="#222222"/>
<path d="M22.228 28.8288L21.2852 29.7716L22.228 30.7144L23.1708 29.7716L22.228 28.8288Z" fill="#222222"/>
<path d="M26.6664 30.6668H25.3331V32.0002H26.6664V30.6668Z" fill="#222222"/>
<path d="M29.7705 28.8286L28.8277 29.7714L29.7705 30.7142L30.7133 29.7714L29.7705 28.8286Z" fill="#222222"/>
<path d="M31.9998 25.3335H30.6664V26.6668H31.9998V25.3335Z" fill="#222222"/>
<path d="M29.7708 21.2859L28.828 22.2287L29.7708 23.1715L30.7136 22.2287L29.7708 21.2859Z" fill="#222222"/>
<path d="M25.9998 22.6668C24.1591 22.6668 22.6664 24.1595 22.6664 26.0002C22.6664 27.8408 24.1591 29.3335 25.9998 29.3335C27.8404 29.3335 29.3331 27.8408 29.3331 26.0002C29.3331 24.1595 27.8404 22.6668 25.9998 22.6668ZM25.9998 28.0002C24.8971 28.0002 23.9998 27.1028 23.9998 26.0002C23.9998 24.8975 24.8971 24.0002 25.9998 24.0002C27.1024 24.0002 27.9998 24.8975 27.9998 26.0002C27.9998 27.1028 27.1024 28.0002 25.9998 28.0002Z" fill="#222222"/>
</g>
<defs>
<clipPath id="clip0_3480_9178">
<rect width="32" height="32" fill="white"/>
</clipPath>
</defs>
</svg>
