<svg width="32" height="32" viewBox="0 0 32 32" fill="none" xmlns="http://www.w3.org/2000/svg">
<path d="M16 6.66667C10.8533 6.66667 6.66667 10.8533 6.66667 16C6.66667 21.1467 10.8533 25.3333 16 25.3333C21.1467 25.3333 25.3333 21.1467 25.3333 16C25.3333 10.8533 21.1467 6.66667 16 6.66667ZM16 24C11.5887 24 8 20.4113 8 16C8 11.5887 11.5887 8 16 8C20.4113 8 24 11.5887 24 16C24 20.4113 20.4113 24 16 24Z" fill="#222222"/>
<path d="M16.6667 0H15.3333V4H16.6667V0Z" fill="#222222"/>
<path d="M26.8421 4.2153L24.0137 7.0437L24.9565 7.9865L27.7849 5.1581L26.8421 4.2153Z" fill="#222222"/>
<path d="M32 15.3333H28V16.6667H32V15.3333Z" fill="#222222"/>
<path d="M24.9561 24.014L24.0133 24.9568L26.8417 27.7852L27.7845 26.8424L24.9561 24.014Z" fill="#222222"/>
<path d="M16.6667 28H15.3333V32H16.6667V28Z" fill="#222222"/>
<path d="M7.043 24.0135L4.2146 26.8419L5.1574 27.7847L7.9858 24.9563L7.043 24.0135Z" fill="#222222"/>
<path d="M4 15.3333H0V16.6667H4V15.3333Z" fill="#222222"/>
<path d="M5.1579 4.2148L4.2151 5.1576L7.0435 7.986L7.9863 7.0432L5.1579 4.2148Z" fill="#222222"/>
</svg>
