<svg width="22" height="22" viewBox="0 0 22 22" fill="none" xmlns="http://www.w3.org/2000/svg">
<path d="M9.61424 8.14397V9.55393H7.96317V11.4663H9.61424V16.3725H11.5889V11.4663H13.2359L13.4824 9.55393H11.5889V8.3331C11.5889 7.77961 11.7426 7.40224 12.5363 7.40224L13.5488 7.40179V5.69156C13.374 5.66825 12.773 5.61626 12.0738 5.61626C10.6137 5.61626 9.61424 6.50724 9.61424 8.14397Z" fill="black"/>
<path d="M10.7562 0.238159C4.81564 0.238159 0 5.0538 0 10.9944C0 16.9354 4.81564 21.7506 10.7562 21.7506C16.6968 21.7506 21.5124 16.9349 21.5124 10.9944C21.5124 5.0538 16.6968 0.238159 10.7562 0.238159ZM10.7562 20.8542C5.31939 20.8542 0.89635 16.4312 0.89635 10.9944C0.89635 5.55755 5.31939 1.13451 10.7562 1.13451C16.193 1.13451 20.6161 5.55755 20.6161 10.9944C20.6161 16.4312 16.193 20.8542 10.7562 20.8542Z" fill="black"/>
</svg>
