<svg width="30" height="20" viewBox="0 0 30 20" fill="none" xmlns="http://www.w3.org/2000/svg">
<rect x="0.542318" y="0.208333" width="28.75" height="19.5833" rx="2.29167" fill="#1F72CD" stroke="#D8D8D8" stroke-width="0.416667"/>
<path fill-rule="evenodd" clip-rule="evenodd" d="M5.5619 7.08301L2.83301 13.122H6.09988L6.50487 12.1591H7.43061L7.8356 13.122H11.4315V12.3871L11.7519 13.122H13.612L13.9324 12.3715V13.122H21.4109L22.3203 12.1841L23.1718 13.122L27.0129 13.1297L24.2754 10.1193L27.0129 7.08301H23.2313L22.3461 8.00353L21.5215 7.08301H13.3858L12.6872 8.64171L11.9722 7.08301H8.71218V7.79289L8.34952 7.08301H5.5619ZM6.19364 7.94055H7.78606L9.59614 12.0356V7.94055H11.3406L12.7386 10.8767L14.0271 7.94055H15.7629V12.2739H14.7067L14.6981 8.87831L13.1583 12.2739H12.2136L10.6652 8.87831V12.2739H8.49244L8.08053 11.3024H5.85513L5.44408 12.273H4.27995L6.19364 7.94055ZM21.024 7.94055H16.7295V12.2713H20.9575L22.3203 10.836L23.6338 12.2713H25.0068L23.0111 10.1185L25.0068 7.94055H23.6933L22.3375 9.35936L21.024 7.94055ZM6.96788 8.67379L6.2347 10.4044H7.70021L6.96788 8.67379ZM17.7907 9.62876V8.83771V8.83695H20.4703L21.6396 10.102L20.4185 11.3741H17.7907V10.5105H20.1335V9.62876H17.7907Z" fill="white"/>
</svg>
