<svg width="30" height="20" viewBox="0 0 30 20" fill="none" xmlns="http://www.w3.org/2000/svg">
<rect x="0.710286" y="0.208333" width="28.75" height="19.5833" rx="2.29167" fill="white" stroke="#D8D8D8" stroke-width="0.416667"/>
<path d="M12.7939 19.5837L29.2523 14.792V17.5003C29.2523 18.6509 28.3195 19.5837 27.169 19.5837H12.7939Z" fill="#FD6020"/>
<path fill-rule="evenodd" clip-rule="evenodd" d="M26.1273 8.00936C27.0327 8.00936 27.5307 8.41231 27.5307 9.17344C27.576 9.75548 27.1686 10.248 26.6253 10.3375L27.8477 11.9941H26.8969L25.8556 10.3823H25.7651V11.9941H24.9954V8.00936H26.1273ZM25.7646 9.84529H25.991C26.489 9.84529 26.7154 9.62143 26.7154 9.21848C26.7154 8.8603 26.489 8.63643 25.991 8.63643H25.7646V9.84529ZM22.3229 11.9941H24.496V11.3225H23.0926V10.248H24.4508V9.57639H23.0926V8.68095H24.496V8.00936H22.3229V11.9941ZM20.0597 10.6957L19.0184 8.00936H18.2035L19.8786 12.0837H20.286L21.9611 8.00936H21.1462L20.0597 10.6957ZM10.8695 10.0241C10.8695 11.1434 11.7749 12.0837 12.9068 12.0837C13.2689 12.0837 13.5859 11.9941 13.9028 11.8598V10.9643C13.6764 11.233 13.3595 11.4121 12.9973 11.4121C12.2729 11.4121 11.6844 10.8748 11.6844 10.1584V10.0689C11.6391 9.35254 12.2277 8.72573 12.952 8.68095C13.3142 8.68095 13.6764 8.86004 13.9028 9.12868V8.23323C13.6311 8.05414 13.2689 8.00937 12.952 8.00937C11.7749 7.91982 10.8695 8.86004 10.8695 10.0241ZM9.46605 9.53163C9.01331 9.35254 8.87749 9.26299 8.87749 9.03913C8.92277 8.7705 9.14913 8.54663 9.42077 8.59141C9.64714 8.59141 9.8735 8.72572 10.0546 8.90481L10.4621 8.36754C10.1451 8.09891 9.73768 7.91982 9.33023 7.91982C8.6964 7.87505 8.15312 8.36754 8.10785 8.99436V9.03913C8.10785 9.5764 8.33422 9.88981 9.05859 10.1137C9.23968 10.1584 9.42077 10.248 9.60187 10.3375C9.73768 10.4271 9.82823 10.5614 9.82823 10.7405C9.82823 11.0539 9.55659 11.3225 9.28495 11.3225H9.23968C8.87749 11.3225 8.56058 11.0987 8.42476 10.7853L7.92676 11.2778C8.1984 11.7703 8.74167 12.0389 9.28495 12.0389C10.0093 12.0837 10.5979 11.5464 10.6431 10.83V10.6957C10.5979 10.1584 10.3715 9.88981 9.46605 9.53163ZM6.83952 11.9941H7.60916V8.00936H6.83952V11.9941ZM3.26172 8.0096H4.39355H4.61991C5.70647 8.05438 6.56666 8.94982 6.52139 10.0244C6.52139 10.6064 6.24975 11.1437 5.79702 11.5466C5.38956 11.86 4.89155 12.0391 4.39355 11.9944H3.26172V8.0096ZM4.25794 11.3228C4.62013 11.3676 5.02759 11.2333 5.29922 11.0094C5.57086 10.7408 5.70668 10.3826 5.70668 9.97963C5.70668 9.62145 5.57086 9.26327 5.29922 8.99463C5.02759 8.77077 4.62013 8.63645 4.25794 8.68123H4.03158V11.3228H4.25794Z" fill="black"/>
<path fill-rule="evenodd" clip-rule="evenodd" d="M16.2144 7.91699C15.0826 7.91699 14.1318 8.81244 14.1318 9.97653C14.1318 11.0958 15.0373 12.0361 16.2144 12.0808C17.3915 12.1256 18.297 11.1854 18.3422 10.0213C18.297 8.85721 17.3915 7.91699 16.2144 7.91699V7.91699Z" fill="#FD6020"/>
</svg>
