<svg width="30" height="20" viewBox="0 0 30 20" fill="none" xmlns="http://www.w3.org/2000/svg">
<rect x="0.378255" y="0.208333" width="28.75" height="19.5833" rx="2.29167" fill="white" stroke="#D8D8D8" stroke-width="0.416667"/>
<path fill-rule="evenodd" clip-rule="evenodd" d="M9.02528 13.5481H7.25835L5.93336 8.49324C5.87047 8.26072 5.73694 8.05515 5.54052 7.95827C5.05032 7.71479 4.51016 7.52102 3.9209 7.42329V7.22868H6.76729C7.16013 7.22868 7.45477 7.52102 7.50387 7.86054L8.19135 11.5068L9.95742 7.22868H11.6753L9.02528 13.5481ZM12.6567 13.5481H10.988L12.362 7.22868H14.0308L12.6567 13.5481ZM16.1905 8.97944C16.2396 8.63907 16.5343 8.44446 16.878 8.44446C17.4182 8.3956 18.0066 8.49332 18.4976 8.73596L18.7923 7.37535C18.3012 7.18074 17.761 7.08301 17.2708 7.08301C15.6512 7.08301 14.4727 7.95835 14.4727 9.17321C14.4727 10.0974 15.3075 10.5827 15.8968 10.875C16.5343 11.1665 16.7798 11.3611 16.7307 11.6526C16.7307 12.0899 16.2396 12.2845 15.7494 12.2845C15.1602 12.2845 14.5709 12.1387 14.0316 11.8953L13.737 13.2567C14.3262 13.4994 14.9638 13.5971 15.553 13.5971C17.3691 13.6451 18.4976 12.7706 18.4976 11.458C18.4976 9.80507 16.1905 9.70818 16.1905 8.97944ZM24.3381 13.5481L23.0131 7.22868H21.5899C21.2953 7.22868 21.0007 7.42329 20.9024 7.71479L18.4489 13.5481H20.1667L20.5096 12.6248H22.6203L22.8167 13.5481H24.3381ZM21.8344 8.93054L22.3246 11.3122H20.9505L21.8344 8.93054Z" fill="#172B85"/>
</svg>
