<svg width="18" height="18" viewBox="0 0 18 18" fill="none" xmlns="http://www.w3.org/2000/svg">
<path d="M17.7476 4.16675C17.6047 3.99237 17.3932 3.89225 17.1675 3.89225H2.48513L1.98863 1.41012C1.88437 0.882875 1.4205 0.5 0.885 0.5H0V1.25H0.885C1.06575 1.25 1.21725 1.37562 1.25288 1.55637L3.36412 12.1096L2.91225 13.691C2.81437 14.0334 2.88112 14.393 3.09562 14.6772C3.3105 14.9619 3.63788 15.125 3.99412 15.125H4.3335C4.2045 15.3466 4.125 15.6005 4.125 15.875C4.125 16.7022 4.79775 17.375 5.625 17.375C6.45225 17.375 7.125 16.7022 7.125 15.875C7.125 15.6005 7.0455 15.3466 6.9165 15.125H12.2089C12.0795 15.3466 12 15.6005 12 15.875C12 16.7022 12.6727 17.375 13.5 17.375C14.3273 17.375 15 16.7022 15 15.875C15 15.6005 14.9205 15.3466 14.7915 15.125H15.75V14.375H3.99412C3.87562 14.375 3.7665 14.3206 3.69487 14.2257C3.62362 14.1309 3.60112 14.0112 3.63375 13.8972L4.1355 12.1407L4.1325 12.125H15.8179C16.1737 12.125 16.4831 11.8715 16.5532 11.5227L17.9029 4.78962C17.9471 4.56837 17.8905 4.34112 17.7476 4.16675ZM6.375 15.875C6.375 16.2886 6.03863 16.625 5.625 16.625C5.21137 16.625 4.875 16.2886 4.875 15.875C4.875 15.4614 5.21137 15.125 5.625 15.125C6.03863 15.125 6.375 15.4614 6.375 15.875ZM14.25 15.875C14.25 16.2886 13.9136 16.625 13.5 16.625C13.0864 16.625 12.75 16.2886 12.75 15.875C12.75 15.4614 13.0864 15.125 13.5 15.125C13.9136 15.125 14.25 15.4614 14.25 15.875ZM15.8179 11.375H3.9825L2.63512 4.64187H17.1675L15.8179 11.375Z" fill="#222222"/>
</svg>
