<svg width="24" height="24" viewBox="0 0 24 24" fill="none" xmlns="http://www.w3.org/2000/svg">
<path d="M10.7268 8.82V10.393H8.88477V12.5265H10.7268V18H12.9298V12.5265H14.7673L15.0423 10.393H12.9298V9.031C12.9298 8.4135 13.1013 7.9925 13.9868 7.9925L15.1163 7.992V6.084C14.9213 6.058 14.2508 6 13.4708 6C11.8418 6 10.7268 6.994 10.7268 8.82Z" fill="white"/>
<path d="M12 0C5.3725 0 0 5.3725 0 12C0 18.628 5.3725 24 12 24C18.6275 24 24 18.6275 24 12C24 5.3725 18.6275 0 12 0ZM12 23C5.9345 23 1 18.0655 1 12C1 5.9345 5.9345 1 12 1C18.0655 1 23 5.9345 23 12C23 18.0655 18.0655 23 12 23Z" fill="white"/>
</svg>
