<svg xmlns="http://www.w3.org/2000/svg" xmlns:xlink="http://www.w3.org/1999/xlink" width="21" height="21" viewBox="0 0 21 21">
    <defs>
        <filter id="ziwgemqyva" width="129.4%" height="129.4%" x="-14.7%" y="-14.7%" filterUnits="objectBoundingBox">
            <feOffset in="SourceAlpha" result="shadowOffsetOuter1"/>
            <feGaussianBlur in="shadowOffsetOuter1" result="shadowBlurOuter1" stdDeviation=".5"/>
            <feColorMatrix in="shadowBlurOuter1" result="shadowMatrixOuter1" values="0 0 0 0 0 0 0 0 0 0 0 0 0 0 0 0 0 0 0.265187937 0"/>
            <feMerge>
                <feMergeNode in="shadowMatrixOuter1"/>
                <feMergeNode in="SourceGraphic"/>
            </feMerge>
        </filter>
        <path id="q3s9hykn5b" d="M0 0.048L16.83 0.048 16.83 16.896 0 16.896z"/>
    </defs>
    <g fill="none" fill-rule="evenodd">
        <g>
            <g>
                <g filter="url(#ziwgemqyva)" transform="translate(-1017 -222) translate(1018 64) translate(1 160)">
                    <path fill="#1BD741" d="M12.705 10.602l-.087.406c-.098.46-.37.865-.766 1.118-.5.32-1.146.476-1.969.243-2.552-.721-3.995-2.41-4.77-3.467-.774-1.056-1.073-2.112-.88-2.974.13-.579.553-1.022.818-1.252.13-.112.297-.17.469-.16l.545.03c.107.005.202.072.244.17l.795 1.86c.042.098.024.213-.046.295l-.692.8c-.056.065-.066.157-.026.233.91 1.754 2.57 2.45 3.066 2.624.084.03.178.001.232-.07l.724-.938c.08-.104.222-.139.342-.084l1.843.85c.12.055.186.186.158.316m-4.28-9.124c-3.847 0-6.978 3.13-6.978 6.979 0 1.34.381 2.643 1.102 3.765l.173.27-.678 2.41 2.494-.641.257.157c1.09.665 2.346 1.017 3.63 1.017 3.849 0 6.979-3.13 6.979-6.978s-3.13-6.979-6.978-6.979"/>
                    <g transform="translate(0 .005)">
                        <mask id="dq22t1o8xc" fill="#fff">
                            <use xlink:href="#q3s9hykn5b"/>
                        </mask>
                        <path fill="#FFF" d="M8.426 15.43c-1.285 0-2.54-.351-3.631-1.017l-.257-.157-2.494.642.678-2.41-.173-.27c-.72-1.123-1.102-2.425-1.102-3.766 0-3.848 3.13-6.978 6.979-6.978 3.848 0 6.978 3.13 6.978 6.978s-3.13 6.979-6.978 6.979m0-15.383C3.792.048.022 3.818.022 8.452c0 1.505.399 2.97 1.157 4.258L0 16.896l4.317-1.111c1.25.702 2.665 1.071 4.109 1.071 4.634 0 8.404-3.77 8.404-8.404S13.06.048 8.426.048" mask="url(#dq22t1o8xc)"/>
                    </g>
                    <path fill="#FFF" d="M12.547 10.286l-1.843-.85c-.12-.055-.262-.02-.342.084l-.724.938c-.054.071-.148.1-.232.07-.496-.175-2.155-.87-3.066-2.624-.04-.076-.03-.168.026-.233l.692-.8c.07-.082.088-.197.046-.296l-.795-1.859c-.042-.098-.137-.165-.244-.17l-.545-.03c-.172-.01-.34.047-.47.16-.264.23-.686.673-.816 1.252-.194.862.105 1.918.88 2.974.774 1.056 2.217 2.746 4.77 3.467.822.233 1.469.076 1.968-.243.395-.253.668-.659.766-1.118l.087-.406c.028-.13-.038-.26-.158-.316"/>
                </g>
            </g>
        </g>
    </g>
</svg>
