<svg width="24" height="24" viewBox="0 0 24 24" fill="none" xmlns="http://www.w3.org/2000/svg">
<g clip-path="url(#clip0_433_18820)">
<path d="M23.4821 6.28552C23.2076 5.26452 22.4001 4.45702 21.3641 4.18252C19.4901 3.69502 11.9931 3.69502 11.9931 3.69502C11.9931 3.69502 11.9021 3.69452 11.7381 3.69452C10.4256 3.69452 4.4251 3.71852 2.7591 4.15202C1.7231 4.42652 0.7326 5.26452 0.4581 6.28502C-0.0449002 8.14402 0.00109977 11.999 0.00109977 11.999C0.00109977 11.999 -0.0444002 15.854 0.4581 17.713C0.7326 18.734 1.7381 19.572 2.7591 19.846C4.3451 20.2715 9.8581 20.304 11.5171 20.304C11.8186 20.304 11.9931 20.303 11.9931 20.303C11.9931 20.303 12.0841 20.3035 12.2481 20.3035C13.5606 20.3035 19.5611 20.2795 21.2271 19.846C22.2631 19.5715 23.2231 18.7335 23.4976 17.713C24.0001 15.87 24.0001 11.9995 24.0001 11.9995C24.0001 11.9995 23.9851 8.14452 23.4821 6.28552ZM22.5316 17.454C22.3621 18.086 21.7056 18.6855 20.9751 18.879C19.7686 19.193 15.5196 19.3045 12.2481 19.3045L11.9871 19.304C11.9851 19.304 11.8136 19.305 11.5176 19.305C8.1731 19.305 4.1841 19.1935 3.0191 18.881C2.2751 18.681 1.5896 18.0675 1.4241 17.4525C1.0421 16.0395 0.9896 13.0455 1.0016 11.988C0.9896 10.9535 1.0421 7.95952 1.4246 6.54502C1.5901 5.92852 2.2741 5.31502 3.0116 5.12002C4.2176 4.80652 8.4661 4.69502 11.7381 4.69502L11.9931 4.69552C14.0426 4.69552 19.6766 4.77752 21.1081 5.15002C21.7941 5.33152 22.3336 5.86652 22.5166 6.54702C22.9791 8.25702 23.0001 11.9665 23.0001 11.9995C23.0001 13.039 22.9161 16.044 22.5316 17.454Z" fill="white"/>
<path d="M9.00586 15.6875L14.9939 12L9.00586 8.3125V15.6875Z" fill="white"/>
</g>
<defs>
<clipPath id="clip0_433_18820">
<rect width="24" height="24" fill="white"/>
</clipPath>
</defs>
</svg>
