<svg width="200" height="100" viewBox="0 0 200 100" fill="none" xmlns="http://www.w3.org/2000/svg">
<path fill-rule="evenodd" clip-rule="evenodd" d="M100.075 62.1696H98.9691V16H100.075V62.1696ZM125.523 37.0577L135.477 52.2862H130.167L122.791 41.0018L114.974 52.2862H113.425L122.039 39.8515L112.909 25.8828H118.219L124.771 35.9073L131.716 25.8828H133.265L125.523 37.0577ZM80.8993 52.287H85.6194L75.3731 25.2198H74.6847L64.3295 52.287H65.7553L68.4689 45.1945H78.2143L80.8993 52.287ZM34.3639 83.8773H32.5096L31.4548 81.0909H27.6261L26.5601 83.8773H26L30.0682 73.2436H30.3387L34.3639 83.8773ZM68.9023 44.0632L73.3683 32.3898L77.7872 44.0632H68.9023ZM29.5507 76.0606L27.7963 80.6465H31.2866L29.5507 76.0606ZM66.0302 83.8773H67.8845L63.8593 73.2436H63.5888L59.5206 83.8773H60.0808L61.1467 81.0909H64.9755L66.0302 83.8773ZM63.0713 76.0606L61.3169 80.6465H64.8073L63.0713 76.0606ZM140.446 83.8773H142.3L138.275 73.2436H138.005L133.936 83.8773H134.497L135.563 81.0909H139.391L140.446 83.8773ZM137.487 76.0606L135.733 80.6465H139.223L137.487 76.0606ZM111.243 83.8468L107.328 77.8571L110.372 73.4618H109.763L107.032 77.4046L104.455 73.4618H102.366L105.957 78.9559L102.569 83.8468H103.178L106.253 79.4084L109.154 83.8468H111.243ZM41.4431 78.6745H41.4553L44.2825 83.877H42.3527L39.5255 78.6745H39.0461V83.8711H37.2268V73.478H40.2752V73.4815C42.3145 73.5427 43.7724 74.4801 43.7724 76.0717C43.7724 78.1595 41.7795 78.6083 41.4431 78.6693V78.6745ZM39.045 78.2477V73.9454H39.85C41.8906 73.9454 42.0024 75.5249 42.0024 76.0966C42.0024 78.0618 40.5266 78.2358 40.1395 78.2477H39.045ZM77.6744 73.478H78.1906V83.8711H77.8402L70.9997 74.58V83.8711H70.4835V73.478H72.3641L77.6744 80.6906V73.478ZM152.673 73.478H152.157V80.6906L146.847 73.478H144.966V83.8711H145.482V74.58L152.323 83.8711H152.673V73.478ZM83.573 83.8711H81.6738V73.478H83.573V83.8711ZM55.0314 73.478L52.2581 80.9561L49.2787 73.478H47.3058V83.877H47.8775V74.9127L51.3069 83.5207H51.8231L55.1235 74.6216V83.877H56.8751V73.478H55.0314ZM100.236 73.478V73.9698H95.6511V78.0877H98.8962V78.6539H95.6511V83.2749H100.236V83.8465H93.8932V73.478H100.236ZM173.546 73.9698V73.478H167.203V83.8465H173.546V83.2749H168.961V78.6539H172.206V78.0877H168.961V73.9698H173.546ZM129.442 78.2719V73.478H131.225V83.9997H129.442V78.8005H125.226V83.9997H123.444V73.478H125.226V78.2719H129.442ZM120.048 82.0271C119.321 82.985 118.341 83.5825 117.416 83.5825C115.474 83.5823 114.532 81.3867 114.532 78.6541C114.532 75.9218 115.54 73.6873 117.416 73.6873C118.263 73.6873 119.272 74.3206 120.03 75.325L120.383 75.0465C119.707 73.9208 118.507 73.2325 117.168 73.2325C114.694 73.2325 112.688 75.6428 112.688 78.6161C112.688 81.5896 114.694 84 117.168 84C118.467 84 119.636 83.3351 120.455 82.2741L120.048 82.0271ZM160.839 80.1561V79.6674H163.937V81.714C163.937 81.714 163.507 82.3332 163.304 82.6138C162.56 83.6439 161.415 84 160.412 84C157.937 84 155.931 81.5896 155.931 78.6161C155.931 75.6428 157.937 73.2325 160.412 73.2325C161.75 73.2325 162.95 73.9208 163.627 75.0465L163.274 75.325C162.515 74.3206 161.507 73.6873 160.66 73.6873C158.783 73.6873 157.775 75.9218 157.775 78.6541C157.775 81.3867 158.718 83.6031 160.66 83.5825C161.222 83.5764 161.728 83.3373 162.198 82.6128V80.1561H160.839Z" fill="black"/>
</svg>
