<svg width="200" height="100" viewBox="0 0 200 100" fill="none" xmlns="http://www.w3.org/2000/svg">
<g id="Brand=Acuvue, Color=Color, Type=Contact lenses  Brands">
<g id="Acuvue_logo 1">
<g id="EER US CL NR">
<g id="LC EDM EER US CL NR">
<g id="Group 5">
<g id="Acuvue logo">
<path id="path12433" d="M10.6091 71.1009C10.6091 70.5428 10.1495 70.2159 9.24229 70.2159H7.48066V72.0154H9.33704C10.1266 72.0154 10.6091 71.6867 10.6091 71.1009ZM11.1267 68.465C11.1267 69.1953 10.697 69.5691 10.2529 69.7778C10.9372 69.9951 11.4496 70.3828 11.4496 71.1739C11.4496 72.1876 10.6056 72.7526 9.32824 72.7526H6.65771V67.015H9.23175C10.3863 67.015 11.1267 67.5766 11.1267 68.465ZM10.2863 68.5937C10.2863 68.0721 9.87743 67.7522 9.13526 67.7522H7.48066V69.5013H9.07383C9.79497 69.5013 10.2863 69.2006 10.2863 68.5937Z" fill="#01488A"/>
<path id="path12437" d="M20.1668 72.7534L18.614 70.6392H17.1507V72.7534H16.3154V67.0157H18.8509C20.1528 67.0157 20.9721 67.7025 20.9721 68.7823C20.9721 69.7368 20.3546 70.3019 19.4965 70.4966L21.1669 72.7534H20.1668ZM18.7842 67.7738H17.1507V69.9002H18.7824C19.5843 69.9002 20.1247 69.4917 20.1247 68.824C20.1247 68.1511 19.6283 67.7738 18.7842 67.7738Z" fill="#01488A"/>
<path id="path12441" d="M31.4073 72.7535H30.516L29.8843 71.3034H26.9383L26.2979 72.7535H25.4417L28.0349 66.9724H28.8122L31.4073 72.7535ZM28.4104 67.953L27.2524 70.568H29.5702L28.4104 67.953Z" fill="#01488A"/>
<path id="path12445" d="M40.2659 67.016H41.0853V72.7537H40.3993L36.9322 68.3582V72.7537H36.1128V67.016H36.8901L40.2659 71.3001V67.016Z" fill="#01488A"/>
<path id="path12449" d="M48.376 72.7534H46.2915V67.0157H48.376C50.1955 67.0157 51.4535 68.2537 51.4535 69.8777C51.4535 71.5016 50.1955 72.7534 48.376 72.7534ZM48.376 67.7738H47.1267V71.9954H48.376C49.7182 71.9954 50.5815 71.0965 50.5815 69.8933C50.5815 68.6884 49.7182 67.7738 48.376 67.7738Z" fill="#01488A"/>
<path id="path12453" d="M65.1969 72.8514C63.516 72.8514 62.2703 71.5491 62.2703 69.8921C62.2703 68.2526 63.5002 66.9138 65.2285 66.9138C66.2883 66.9138 66.9235 67.2859 67.4937 67.8179L66.941 68.4299C66.4655 67.9849 65.9444 67.6788 65.2215 67.6788C64.0248 67.6788 63.1423 68.6438 63.1423 69.8782C63.1423 71.1093 64.0284 72.0881 65.2215 72.0881C65.9742 72.0881 66.462 71.7959 66.9866 71.3023L67.5288 71.8412C66.9234 72.455 66.262 72.8514 65.1969 72.8514Z" fill="#01488A"/>
<path id="path12457" d="M74.8339 72.8514C73.0635 72.8514 71.8528 71.5004 71.8528 69.8921C71.8528 68.2856 73.0828 66.9138 74.8514 66.9138C76.6235 66.9138 77.8342 68.2682 77.8342 69.8782C77.8342 71.483 76.606 72.8514 74.8339 72.8514ZM74.8339 67.6788C73.5986 67.6788 72.7231 68.6594 72.7231 69.8782C72.7231 71.0936 73.6144 72.0881 74.8514 72.0881C76.0884 72.0881 76.9622 71.1093 76.9622 69.8921C76.9622 68.6751 76.0709 67.6788 74.8339 67.6788Z" fill="#01488A"/>
<path id="path12461" d="M86.936 67.016H87.7537V72.7537H87.0677L83.6023 68.3582V72.7537H82.7847V67.016H83.5584L86.936 71.3001V67.016Z" fill="#01488A"/>
<path id="path12465" d="M95.2806 72.7534H94.4366V67.7808H92.5435V67.0157H97.1703V67.7808H95.2806V72.7534Z" fill="#01488A"/>
<path id="path12469" d="M106.688 72.7535H105.796L105.161 71.3034H102.219L101.576 72.7535H100.72L103.315 66.9724H104.091L106.688 72.7535ZM103.691 67.953L102.533 70.568H104.849L103.691 67.953Z" fill="#01488A"/>
<path id="path12473" d="M113.716 72.8514C112.033 72.8514 110.789 71.5491 110.789 69.8921C110.789 68.2526 112.019 66.9138 113.748 66.9138C114.806 66.9138 115.442 67.2859 116.009 67.8179L115.46 68.4299C114.987 67.9849 114.463 67.6788 113.741 67.6788C112.542 67.6788 111.663 68.6438 111.663 69.8782C111.663 71.1093 112.547 72.0881 113.741 72.0881C114.492 72.0881 114.981 71.7959 115.506 71.3023L116.048 71.8412C115.442 72.455 114.783 72.8514 113.716 72.8514Z" fill="#01488A"/>
<path id="path12477" d="M123.115 72.7534H122.271V67.7808H120.379V67.0157H125.001V67.7808H123.115V72.7534Z" fill="#01488A"/>
<path id="path12481" d="M135.923 67.016H136.758V71.9956H139.908V72.7537H135.923V67.016Z" fill="#01488A"/>
<path id="path12485" d="M148.926 67.7599H145.522V69.4881H148.554V70.2323H145.522V72.0075H148.965V72.7534H144.686V67.0157H148.926V67.7599Z" fill="#01488A"/>
<path id="path12489" d="M158.021 67.016H158.843V72.7537H158.157L154.691 68.3582V72.7537H153.87V67.016H154.646L158.021 71.3001V67.016Z" fill="#01488A"/>
<path id="path12493" d="M166.203 69.4979C167.46 69.7848 168.074 70.2369 168.074 71.1567C168.074 72.1947 167.235 72.8345 166.052 72.8345C165.152 72.8345 164.356 72.5338 163.663 71.9182L164.171 71.3201C164.75 71.8261 165.319 72.0973 166.077 72.0973C166.782 72.0973 167.235 71.7513 167.235 71.2419C167.235 70.7603 166.973 70.5047 165.83 70.2508C164.549 69.9654 163.894 69.5658 163.894 68.5556C163.894 67.5958 164.708 66.9316 165.833 66.9316C166.679 66.9316 167.316 67.18 167.903 67.6462L167.438 68.2774C166.909 67.8668 166.38 67.6723 165.819 67.6723C165.143 67.6723 164.729 68.0252 164.729 68.4843C164.729 68.9816 165.012 69.2267 166.203 69.4979" fill="#01488A"/>
<path id="path12497" d="M177.223 67.7599H173.822V69.4881H176.852V70.2323H173.822V72.0075H177.265V72.7534H172.982V67.0157H177.223V67.7599Z" fill="#01488A"/>
<path id="path12501" d="M184.325 69.4979C185.58 69.7848 186.195 70.2369 186.195 71.1567C186.195 72.1947 185.357 72.8345 184.174 72.8345C183.272 72.8345 182.478 72.5338 181.784 71.9182L182.293 71.3201C182.872 71.8261 183.441 72.0973 184.199 72.0973C184.904 72.0973 185.357 71.7513 185.357 71.2419C185.357 70.7603 185.095 70.5047 183.951 70.2508C182.667 69.9654 182.014 69.5658 182.014 68.5556C182.014 67.5958 182.827 66.9316 183.958 66.9316C184.799 66.9316 185.436 67.18 186.025 67.6462L185.559 68.2774C185.031 67.8668 184.502 67.6723 183.939 67.6723C183.264 67.6723 182.851 68.0252 182.851 68.4843C182.851 68.9816 183.134 69.2267 184.325 69.4979" fill="#01488A"/>
<path id="path12505" d="M193.415 29.9677C193.415 28.681 192.44 27.6517 191.068 27.6517C189.706 27.6517 188.743 28.6741 188.743 29.9624C188.743 31.2456 189.724 32.2819 191.092 32.2819C192.459 32.2819 193.415 31.2543 193.415 29.9677ZM193.145 29.9677C193.145 31.1135 192.317 32.035 191.092 32.035C189.861 32.035 189.018 31.1082 189.018 29.9624C189.018 28.8202 189.829 27.9004 191.062 27.9004C192.299 27.9004 193.145 28.8271 193.145 29.9677ZM191.487 30.1313C191.817 30.0687 192.063 29.7819 192.063 29.448C192.063 29.0325 191.803 28.7438 191.282 28.7438H190.192V31.1311H190.545V30.1678H191.129L191.715 31.1311H192.101L191.487 30.1313ZM191.694 29.4567C191.694 29.6967 191.555 29.848 191.285 29.848H190.545V29.0639H191.292C191.552 29.0639 191.694 29.2167 191.694 29.4567" fill="#01488A"/>
<path id="path12509" d="M55.4609 57.9169C58.3666 57.9416 62.1723 57.4058 64.3568 55.1246L64.4234 55.1907V59.1253C61.7582 59.8817 58.0787 60.5858 55.2661 60.5755C46.3667 60.5409 37.7534 55.4289 37.7534 44.4091C37.7534 36.1294 44.3683 27.9819 55.4749 27.9819C57.9524 27.9819 61.516 28.6739 63.5654 29.4267V32.6242L63.4794 32.6922C61.409 30.8805 57.8629 30.2215 54.859 30.2215C47.7774 30.2215 42.1434 35.5541 42.1434 43.9433C42.1434 53.9442 48.2898 57.8545 55.4608 57.9171" fill="#01488A"/>
<path id="path12513" d="M169.935 57.1091V44.5244H183.544V42.0955H169.935V31.2026H185.229V28.7094H165.919V59.8388H186.183V57.1091H169.935Z" fill="#01488A"/>
<path id="path12517" d="M92.7638 28.7093V48.5095C92.7638 54.2941 89.909 58.2044 83.2889 58.2044C76.2494 58.2044 74.7773 53.3187 74.7773 48.772V28.7093H70.6206V48.9824C70.6206 55.8502 75.444 60.576 83.3047 60.576C91.1636 60.576 95.6518 55.1965 95.6518 48.4278V28.7093H92.7638Z" fill="#01488A"/>
<path id="path12521" d="M126.223 28.7087L115.686 55.1716L104.894 28.7087H100.297L113.339 59.9791H116.392L129.274 28.7087H126.223Z" fill="#01488A"/>
<path id="path12525" d="M32.3717 59.8431H37.0688L22.774 28.4841H17.9085V28.7256C19.3648 29.6696 19.4736 30.9737 18.5963 33.1679L6.65796 59.8431H9.95486L13.9396 50.4487H28.3256L32.3717 59.8431ZM14.9643 48.0304L21.0756 33.615L27.2851 48.0304H14.9643Z" fill="#01488A"/>
<path id="path12529" d="M155.881 28.7093V48.5095C155.881 54.2941 153.026 58.2044 146.406 58.2044C139.369 58.2044 137.893 53.3187 137.893 48.772V28.7093H133.736V48.9824C133.736 55.8502 138.56 60.576 146.419 60.576C154.281 60.576 158.769 55.1965 158.769 48.4278V28.7093H155.881Z" fill="#01488A"/>
</g>
</g>
</g>
</g>
</g>
</g>
</svg>
