<svg width="200" height="100" viewBox="0 0 200 100" fill="none" xmlns="http://www.w3.org/2000/svg">
<path fill-rule="evenodd" clip-rule="evenodd" d="M159.56 40V60H180V55.5427H165.06V52.1282H176.821V47.8714H165.06V44.4573H180V40H159.56ZM119.953 40V44.4286H127.861V60H133.443V44.4286H143.896V60H149.478V44.4286H157.441V40H119.953ZM97.3936 40V60H117.834V55.5427H102.894V52.1282H114.655V47.8714H102.894V44.4573H117.834V40H97.3936ZM88.8239 40V52.2286L77.468 40H71.5581V60H76.9482V46.8573L89.3168 60H94.2144V40H88.8239ZM47.3 40V60H52.8551L52.8539 53.7145H58.5152L63.5538 60H70.039L64.7214 53.5855C67.4503 52.7204 69.4084 50.0745 69.4084 46.9427C69.4084 43.1082 66.46 40 62.7879 40H47.3ZM52.8278 44.4286H61.5837C62.9136 44.4286 63.9816 45.5541 63.9816 46.9427C63.9816 48.3314 62.9136 49.4573 61.5837 49.4573H52.8278V44.4286ZM29.9052 40L20 60H25.8441L27.5413 56.3855H34.2916L36.2905 52.1294L39.9869 60H45.8306L35.9255 40H29.9052ZM32.9157 44.9427L36.2901 52.1282H29.5409L32.9157 44.9427Z" fill="black"/>
</svg>
