<svg width="200" height="100" viewBox="0 0 200 100" fill="none" xmlns="http://www.w3.org/2000/svg">
<g clip-path="url(#clip0_903_1428)">
<path d="M73.4471 50.3046C73.6752 43.6518 63.9431 38.0001 52.7251 38.0001C41.5072 38.0001 32 43.6233 32 50.3046C32 56.986 41.504 62.6092 52.7251 62.6092C57.5278 62.6092 62.0011 61.5701 65.5619 59.872C64.0591 60.1744 62.5297 60.3251 60.9968 60.3219C54.1602 60.3219 48.6194 57.4897 48.6194 54.008C48.6194 50.5264 54.1602 47.6878 60.9968 47.6878C64.0096 47.6878 66.6992 48.1282 68.9169 49.1515C69.164 49.2655 69.956 49.6995 70.1555 50.1019C69.6107 49.86 69.0332 49.6999 68.4417 49.6267C65.2736 49.2877 63.81 50.4693 63.3728 51.4799C62.7392 52.9404 63.8702 54.7873 66.6866 55.044C69.7722 55.3227 71.578 54.366 72.6361 52.9119C73.1505 52.1384 73.432 51.2334 73.4471 50.3046Z" fill="black"/>
<path fill-rule="evenodd" clip-rule="evenodd" d="M109.626 44.8904H104.592C104.552 44.8859 104.512 44.8898 104.475 44.9018C104.437 44.9137 104.402 44.9334 104.372 44.9597C104.342 44.9859 104.318 45.0181 104.301 45.0542C104.285 45.0903 104.276 45.1294 104.275 45.1692V55.7408C104.276 55.7803 104.285 55.8191 104.302 55.8548C104.319 55.8905 104.343 55.9223 104.373 55.9482C104.403 55.9741 104.438 55.9935 104.475 56.0053C104.513 56.017 104.553 56.0208 104.592 56.0164H109.626C109.665 56.0208 109.705 56.017 109.743 56.0053C109.78 55.9935 109.815 55.9741 109.845 55.9482C109.875 55.9223 109.899 55.8905 109.916 55.8548C109.932 55.8191 109.942 55.7803 109.943 55.7408V45.1692C109.942 45.1294 109.933 45.0903 109.916 45.0542C109.9 45.0181 109.876 44.9859 109.846 44.9597C109.816 44.9334 109.781 44.9137 109.743 44.9018C109.705 44.8898 109.665 44.8859 109.626 44.8904ZM111.08 59.6691H103.141C101.17 59.6691 99.5928 58.3132 99.5928 56.6247V44.2694C99.5928 42.5841 101.177 41.2281 103.141 41.2281H111.08C113.047 41.2281 114.628 42.5841 114.628 44.2694V56.6247C114.625 58.3132 113.044 59.6691 111.08 59.6691Z" fill="black"/>
<path fill-rule="evenodd" clip-rule="evenodd" d="M162.642 59.6689H167.417L162.896 41.2374H153.93L149.413 59.6689H154.19L155.068 55.6804H161.768L162.642 59.6689ZM155.85 52.1449L157.456 44.8585H159.357L160.97 52.1449H155.85Z" fill="black"/>
<path fill-rule="evenodd" clip-rule="evenodd" d="M95.3382 52.7787V56.612C95.3382 58.3005 93.7541 59.6564 91.7868 59.6564H84.4022C82.4348 59.6564 80.8508 58.3005 80.8508 56.612V44.2567C80.8508 42.5714 82.4348 41.2155 84.4022 41.2155H91.7868C93.7541 41.2155 95.3382 42.5714 95.3382 44.2567V47.6909H90.7572V45.1565C90.7566 45.1167 90.7476 45.0776 90.731 45.0415C90.7143 45.0054 90.6903 44.9732 90.6605 44.947C90.6306 44.9207 90.5957 44.901 90.5578 44.8891C90.5199 44.8771 90.4799 44.8733 90.4404 44.8777H85.8531C85.8136 44.8733 85.7737 44.8771 85.7358 44.8891C85.6979 44.901 85.6629 44.9207 85.633 44.947C85.6032 44.9732 85.5792 45.0054 85.5625 45.0415C85.5459 45.0776 85.537 45.1167 85.5363 45.1565V55.7281C85.5374 55.7676 85.5466 55.8064 85.5635 55.8421C85.5803 55.8778 85.6044 55.9096 85.6342 55.9355C85.664 55.9614 85.6988 55.9808 85.7365 55.9926C85.7742 56.0043 85.8139 56.0081 85.8531 56.0037H90.4341C90.4733 56.0081 90.513 56.0043 90.5507 55.9926C90.5884 55.9808 90.6232 55.9614 90.653 55.9355C90.6828 55.9096 90.7069 55.8778 90.7237 55.8421C90.7405 55.8064 90.7498 55.7676 90.7509 55.7281V52.7787H95.3382Z" fill="black"/>
<path fill-rule="evenodd" clip-rule="evenodd" d="M133.291 52.335C133.291 50.6464 132.223 49.8988 130.386 49.4552C126.128 48.432 124.29 47.9885 123.967 47.9061C123.771 47.8491 123.612 47.7667 123.612 47.5449V45.1689C123.613 45.1292 123.622 45.09 123.639 45.054C123.655 45.0179 123.679 44.9857 123.709 44.9595C123.739 44.9332 123.774 44.9135 123.812 44.9015C123.85 44.8896 123.89 44.8857 123.929 44.8901H128.25C128.29 44.8857 128.33 44.8896 128.368 44.9015C128.406 44.9135 128.441 44.9332 128.47 44.9595C128.5 44.9857 128.524 45.0179 128.541 45.054C128.558 45.09 128.567 45.1292 128.567 45.1689V46.7181H133.161V44.2787C133.161 42.5933 131.577 41.2374 129.613 41.2374H122.516C120.546 41.2374 118.965 42.5933 118.965 44.2787V48.3971C118.965 50.0825 120.064 50.8017 121.968 51.2737C125.966 52.2399 127.671 52.6581 128.225 52.7943C128.482 52.8514 128.646 52.9622 128.646 53.1555V55.7311C128.645 55.7704 128.635 55.809 128.618 55.8444C128.601 55.8799 128.577 55.9115 128.548 55.9373C128.518 55.9632 128.483 55.9826 128.446 55.9946C128.408 56.0065 128.369 56.0106 128.33 56.0067H123.806C123.766 56.0111 123.727 56.0073 123.689 55.9956C123.651 55.9838 123.617 55.9644 123.587 55.9385C123.557 55.9125 123.533 55.8807 123.516 55.845C123.499 55.8093 123.49 55.7705 123.489 55.7311V54.1471H118.902V56.6118C118.902 58.3003 120.486 59.6562 122.453 59.6562H129.739C131.707 59.6562 133.288 58.3003 133.288 56.6118L133.291 52.335Z" fill="black"/>
<path fill-rule="evenodd" clip-rule="evenodd" d="M135.119 44.8901H140.067V59.6689H144.743V44.8901H149.692V41.2374H135.119V44.8901Z" fill="black"/>
<path d="M166.878 42.2291C166.878 42.4901 166.775 42.7406 166.591 42.9257C166.407 43.1109 166.157 43.2158 165.896 43.2175C165.633 43.2166 165.381 43.1119 165.196 42.9261C165.01 42.7403 164.905 42.4886 164.904 42.2259C164.906 41.9632 165.012 41.7118 165.198 41.5266C165.384 41.3414 165.636 41.2375 165.899 41.2375C166.028 41.2363 166.157 41.2615 166.276 41.3116C166.395 41.3617 166.503 41.4357 166.593 41.5289C166.686 41.6199 166.759 41.729 166.808 41.8494C166.857 41.9699 166.881 42.0991 166.878 42.2291ZM166.704 42.2291C166.705 42.1205 166.685 42.0127 166.644 41.912C166.603 41.8114 166.543 41.7199 166.466 41.643C166.391 41.5651 166.301 41.5037 166.201 41.4628C166.102 41.4219 165.994 41.4023 165.886 41.4054C165.779 41.404 165.672 41.4249 165.573 41.4669C165.473 41.5089 165.384 41.571 165.31 41.6493C165.157 41.8066 165.071 42.0175 165.071 42.237C165.071 42.4565 165.157 42.6673 165.31 42.8246C165.383 42.9017 165.472 42.963 165.57 43.0049C165.668 43.0468 165.773 43.0684 165.88 43.0684C165.987 43.0684 166.092 43.0468 166.19 43.0049C166.288 42.963 166.377 42.9017 166.45 42.8246C166.532 42.7481 166.597 42.6552 166.64 42.5521C166.684 42.449 166.706 42.3379 166.704 42.2259V42.2291ZM166.387 42.7993H166.13L165.947 42.3399H165.671V42.7993H165.427V41.6588H165.956C166.07 41.6524 166.182 41.686 166.273 41.7539C166.307 41.7845 166.334 41.8222 166.352 41.8644C166.37 41.9065 166.379 41.952 166.377 41.9978C166.378 42.0634 166.358 42.1277 166.321 42.1816C166.283 42.2355 166.23 42.2764 166.168 42.2988L166.387 42.7993ZM165.671 42.1657H165.921C166.064 42.1657 166.137 42.1118 166.137 42.001C166.137 41.8901 166.07 41.8457 165.94 41.8457H165.671V42.1657Z" fill="black"/>
</g>
<defs>
<clipPath id="clip0_903_1428">
<rect width="135.417" height="24.6091" fill="white" transform="translate(32 38.0001)"/>
</clipPath>
</defs>
</svg>
