<svg width="200" height="100" viewBox="0 0 200 100" fill="none" xmlns="http://www.w3.org/2000/svg">
<path fill-rule="evenodd" clip-rule="evenodd" d="M41.1008 44.5688V44.5228L41.6762 44.5162V52.5572H41.1188L37.6305 50.4944C35.4839 52.1147 32.9238 52.9473 30.3183 52.8725C18.8945 52.8725 12.8589 49.1739 12.8589 42.171C12.8589 38.7483 14.657 35.93 18.0973 34.0249C21.0402 32.3891 25.0259 31.4891 29.3353 31.4891C31.4043 31.4818 33.4566 31.8938 35.3889 32.7044C36.1468 33.0149 36.8722 33.4135 37.5526 33.8935L41.1488 31.7979H41.6882V39.8388H41.0888V39.7928C40.469 37.9755 39.4129 36.3754 38.0321 35.1614C35.9092 33.2534 33.2371 32.2337 30.4921 32.284C26.2426 32.284 21.7294 35.7527 21.7294 42.1841C21.7173 44.5151 22.3944 46.7877 23.6594 48.6615C25.2177 50.882 27.5792 52.0579 30.4921 52.0579C34.8135 52.0579 37.4687 50.0214 38.9311 48.3133C39.8704 47.2323 40.6075 45.9602 41.1008 44.5688ZM55.4155 42.1709C55.4155 49.9696 60.8019 52.0548 64.0153 52.0578C70.1694 52.054 73.1626 48.8546 73.1626 42.2037C73.1626 36.0088 69.7403 32.3168 64.0044 32.3168C59.7309 32.3168 55.4155 35.3387 55.4155 42.1709ZM64.0224 31.489C69.0091 31.489 73.6841 32.7241 77.2083 34.9774V35.0102C79.7736 36.6985 81.248 39.3329 81.248 42.2366C81.248 45.1402 79.7736 47.768 77.2083 49.43C73.6901 51.6834 69.033 52.9184 64.0224 52.9184C59.0117 52.9184 54.3367 51.6834 50.8364 49.43C48.2711 47.7286 46.8027 45.1468 46.8027 42.2037C46.8027 39.2606 48.2711 36.6394 50.8364 34.9774C54.3547 32.7241 59.0357 31.489 64.0224 31.489ZM188 31.7973V32.5922H184.889V51.7683H188V52.5566L187.94 52.5632H173.759V51.7683H176.858V42.0455H164.607V51.7683H167.712V52.5632H153.477V51.7683H156.581V32.5922H153.477V31.7973H167.706L167.712 31.863V32.5922L164.607 32.5856V41.2506H176.858V32.5922H173.759V31.7973H188ZM101.035 45.8957H88.6405L94.4004 38.111L101.035 45.8957ZM98.8836 31.489H98.4521L83.3242 51.7688H79.9138V52.5637H88.4487V51.7688H84.2532L88.0591 46.6972H101.689L105.944 51.7819H101.868V52.5768H119.747V51.7688H115.792L98.8836 31.489ZM136.85 32.2841C139.599 32.2329 142.275 33.2526 144.402 35.1615C145.78 36.3774 146.834 37.9771 147.453 39.7929V39.8389H148.052V31.7979H147.519L143.959 33.8936C143.276 33.4143 142.549 33.0157 141.789 32.7045C139.855 31.8916 137.801 31.4795 135.729 31.4892C131.426 31.4892 127.434 32.3892 124.497 34.025C121.069 35.9301 119.253 38.7484 119.253 42.171C119.253 49.174 125.295 52.8726 136.718 52.8726C139.322 52.9483 141.881 52.1155 144.025 50.4945L147.513 52.5573H148.076V44.5229H147.477V44.5689C146.988 45.9609 146.252 47.2334 145.313 48.3134C143.845 50.0215 141.19 52.058 136.874 52.058C133.961 52.058 131.594 50.8821 130.036 48.6616C128.773 46.7862 128.096 44.5146 128.106 42.1842C128.063 40.898 128.258 39.6157 128.678 38.4141C129.099 37.2125 129.737 36.1165 130.553 35.1919C131.37 34.2672 132.349 33.533 133.431 33.0333C134.513 32.5336 135.676 32.2788 136.85 32.2841ZM131.509 62.9292L132.779 62.9226L129.219 65.4912L132.564 69.4263H131.557L128.572 65.9314L126.534 67.3964V69.4263H125.749V62.9226H126.534V66.4569L131.509 62.9292ZM122.717 64.9516C122.717 65.418 122.513 66.2129 121.134 66.2129H117.982V63.6771H121.134C122.201 63.6771 122.717 64.091 122.717 64.9384V64.9516ZM123.556 64.9516C123.556 63.7034 122.633 62.9282 121.158 62.9282H117.215V69.4253H117.988V66.9618H120.877L122.723 69.4122H123.658L121.794 66.9618C122.258 66.9313 122.696 66.7127 123.021 66.3485C123.347 65.9843 123.537 65.5005 123.556 64.991V64.9516ZM68.786 62.9226L74.0605 68.2767V62.9226H74.8456V69.4263H74.0605L68.858 64.1182V69.4263H68.0788V62.9226H68.786ZM77.6704 69.4253H83.7V68.6567H78.4496V66.4823H83.3104V65.7136H78.4496V63.6903H83.7V62.9282H77.6704V69.4253ZM100.679 62.9226L103.226 66.227L105.767 62.9292H106.738L103.616 66.9365V69.4263H102.837V66.9431L99.7079 62.9292L100.679 62.9226ZM111.241 68.7486C109.478 68.7486 107.992 67.5726 107.992 66.1734C107.992 64.7741 109.478 63.5982 111.241 63.5982C113.003 63.5982 114.483 64.7807 114.483 66.1734C114.483 67.5661 112.997 68.7486 111.241 68.7486ZM111.241 62.8361C108.993 62.8361 107.171 64.3339 107.171 66.1734C107.171 68.0128 108.969 69.5106 111.241 69.5106C113.512 69.5106 115.31 68.0128 115.31 66.1734C115.31 64.3339 113.482 62.8361 111.241 62.8361ZM91.243 62.9282L93.4067 68.3348L95.3966 62.9282H96.2657L93.7843 69.4253H92.9992L90.8654 64.1041L88.7317 69.4253H87.9466L85.4652 62.9282H86.3343L88.3182 68.3348L90.4819 62.9282H91.243Z" fill="#222222"/>
</svg>
