<svg width="200" height="100" viewBox="0 0 200 100" fill="none" xmlns="http://www.w3.org/2000/svg">
<g id="Brand=Dailies, Color=Color, Type=Contact lenses  Brands">
<g id="dailies-logo 1">
<g id="EER US CL NR">
<g id="LC EDM EER US CL NR">
<g id="Group 5">
<g id="dailies logo">
<path id="Shape" d="M41.8241 52.4731C38.3831 55.7173 34.3673 56.5467 28.8315 56.5467H19V25.9615H29.8222C35.1161 25.9615 38.6629 26.9597 41.5595 29.558C44.456 32.1564 46.3769 36.3621 46.3769 41.177C46.4772 45.3818 44.8375 49.4503 41.8241 52.4731ZM37.5437 32.2004C34.8211 29.4333 31.1835 29.169 27.9845 29.169H24.1502V53.2584H28.4307C31.9624 53.2584 34.4808 52.8254 36.6891 51.0932C38.8974 49.361 41.0149 46.3149 41.0149 41.3825C41.1249 38.0013 39.8807 34.7103 37.5437 32.2004ZM69.5111 56.5467L66.0701 48.6637H53.4782L50.1355 56.5467H45.5525L59.5057 25.9615H61.6005L75.2133 56.554L69.5111 56.5467ZM59.7326 34.0574L54.8622 45.4121H64.6407L59.7326 34.0574ZM79.2367 56.5467V25.9615H84.4171V56.5467H79.2367ZM92.01 56.5467V25.9615H97.1905V53.2144H112.104V56.554L92.01 56.5467ZM115.038 56.5467V25.9615H120.219V56.5467H115.038ZM127.812 56.5467V25.9615H147.853V29.2571H132.939V38.9751H145.569V42.2266H132.939V53.2144H148.821V56.554L127.812 56.5467ZM162.487 57.4128C156.686 57.4128 152.655 54.6383 151.059 49.3389L152.398 48.9059C154.326 52.2744 158.051 54.2951 162.018 54.1245C166.17 54.1245 168.627 51.6143 168.627 48.5389C168.627 45.4635 166.843 44.2011 162.577 43.2542C161.549 43.0414 159.764 42.601 158.962 42.3881C154.584 41.177 151.551 38.6228 151.506 34.1161C151.43 29.0369 156.104 25.0294 162.222 25.0294C168.159 24.9853 171.509 28.1488 172.311 32.6555L170.972 33.1326C169.497 30.1966 167.085 27.9947 163.024 28.2369C159.318 28.413 156.868 30.2333 156.686 32.6408C156.505 35.0483 156.951 36.7584 160.929 37.9255C161.776 38.1824 164.362 38.7035 165.618 38.9677C171.781 40.355 173.649 43.6065 173.785 47.6728C173.959 53.4272 169.323 57.4128 162.487 57.4128ZM177.68 31.4591C175.842 31.4631 174.349 30.0205 174.345 28.2369C174.341 26.4533 175.827 25.0041 177.665 25C179.503 24.996 180.996 26.4386 181 28.2222C180.988 29.9992 179.511 31.4391 177.68 31.4591ZM177.68 25.734C176.639 25.734 175.701 26.3428 175.304 27.2762C174.906 28.2097 175.128 29.2836 175.864 29.9968C176.601 30.7099 177.709 30.9216 178.669 30.533C179.63 30.1444 180.254 29.2322 180.251 28.2222C180.223 26.8616 179.082 25.771 177.68 25.7633V25.734ZM178.217 29.7048C178.149 29.5213 177.846 28.758 177.748 28.5084H177.211V29.7048H176.5V26.5707H177.635C178.542 26.5707 178.928 26.8937 178.928 27.4662C178.928 28.0387 178.701 28.2442 178.451 28.3176C178.504 28.4571 178.943 29.5727 178.996 29.6975L178.217 29.7048ZM177.68 27.1506H177.219V27.9286H177.695C177.967 27.9286 178.225 27.8258 178.232 27.4882C178.24 27.1506 177.899 27.1432 177.68 27.1432V27.1506ZM81.445 62.6461H82.7382V68.3345C83.0762 67.9385 83.4962 67.616 83.9709 67.3876C84.442 67.1648 84.9594 67.0493 85.4835 67.05C86.0524 67.042 86.6176 67.1417 87.1472 67.3436C87.6309 67.5296 88.0689 67.8122 88.4329 68.173C88.7899 68.5348 89.07 68.9613 89.2572 69.4281C89.6571 70.4419 89.6571 71.5632 89.2572 72.5769C89.0707 73.0424 88.7934 73.4685 88.4405 73.832C88.0918 74.1869 87.6724 74.4691 87.2077 74.6614C86.7297 74.8591 86.2148 74.9591 85.6952 74.955C85.0556 74.9694 84.4237 74.8173 83.865 74.5146C83.4111 74.2672 83.0328 73.9076 82.7685 73.4724V74.8082H81.445V62.6461ZM82.7382 71.0282C82.7335 71.4032 82.7975 71.776 82.9273 72.1292C83.1724 72.7878 83.6869 73.319 84.3491 73.5972C85.0759 73.8867 85.891 73.8867 86.6179 73.5972C87.2801 73.319 87.7945 72.7878 88.0396 72.1292C88.2932 71.4158 88.2932 70.6406 88.0396 69.9272C87.7945 69.2686 87.2801 68.7374 86.6179 68.4593C85.891 68.1697 85.0759 68.1697 84.3491 68.4593C83.6869 68.7374 83.1724 69.2686 82.9273 69.9272C82.7984 70.2781 82.7344 70.6484 82.7382 71.0209V71.0282ZM91.6243 69.0685V67.2849H92.8495V68.518C92.9459 68.3253 93.0707 68.1472 93.2201 67.9895C93.3867 67.8132 93.5775 67.6601 93.7873 67.5344C94.0229 67.3937 94.2774 67.2851 94.5435 67.2115C94.8335 67.1305 95.1342 67.0909 95.4359 67.0941H95.7006C95.7912 67.106 95.88 67.1281 95.9653 67.1601L95.8821 68.4299C95.6563 68.3652 95.4218 68.3331 95.1864 68.3345C94.5176 68.2748 93.864 68.5518 93.4545 69.0685C93.0639 69.6817 92.8764 70.3964 92.9176 71.1163V74.7862H91.6243V69.0685ZM97.3417 68.2317C97.7366 67.8377 98.2209 67.5386 98.7559 67.3583C99.29 67.1737 99.8528 67.0794 100.42 67.0794C101.323 66.9963 102.221 67.2807 102.9 67.8647C103.458 68.5396 103.728 69.3955 103.657 70.2575V74.1403C103.657 74.3752 103.709 74.5807 103.74 74.7715H102.499C102.453 74.5839 102.428 74.392 102.424 74.199V73.6485C102.165 74.0379 101.815 74.3624 101.403 74.5954C100.942 74.8482 100.419 74.975 99.8903 74.9624C99.512 74.9645 99.1353 74.9151 98.7711 74.8156C98.4444 74.7283 98.1369 74.584 97.8635 74.3899C97.6018 74.1944 97.3897 73.9433 97.2434 73.6559C97.0805 73.3752 96.9897 73.0604 96.9787 72.7384C96.9459 72.2052 97.1245 71.6799 97.4779 71.2704C97.8157 70.914 98.2392 70.6442 98.7106 70.4851C99.2226 70.3087 99.7568 70.2001 100.299 70.1621C100.868 70.1181 101.39 70.0961 101.864 70.0961H102.363V69.8685C102.396 69.4042 102.21 68.9506 101.857 68.6354C101.452 68.3356 100.95 68.1871 100.442 68.217C100.023 68.2163 99.6064 68.2833 99.2097 68.4152C98.8135 68.5456 98.4501 68.7557 98.1434 69.0318L97.3417 68.2317ZM101.078 71.1677C100.405 71.1403 99.7338 71.2555 99.1114 71.5053C98.6415 71.6804 98.3378 72.1254 98.3551 72.6136C98.3178 73.0107 98.5062 73.396 98.8467 73.6192C99.216 73.8262 99.6381 73.9279 100.064 73.9128C100.402 73.9201 100.737 73.8576 101.047 73.7293C101.315 73.6155 101.555 73.4479 101.751 73.2375C101.944 73.0234 102.09 72.7738 102.182 72.5035C102.283 72.2222 102.339 71.9277 102.348 71.6301V71.1456L101.078 71.1677ZM106.054 69.0685V67.2849H107.279V68.518C107.375 68.3253 107.5 68.1472 107.65 67.9895C107.816 67.8132 108.007 67.6601 108.217 67.5344C108.453 67.3937 108.707 67.2851 108.973 67.2115C109.263 67.1305 109.564 67.0909 109.866 67.0941C110.315 67.0847 110.763 67.1621 111.181 67.3216C111.531 67.4592 111.844 67.6726 112.096 67.9455C112.346 68.2265 112.53 68.5572 112.633 68.9143C112.753 69.3199 112.812 69.7402 112.807 70.1621V74.8009H111.514V70.2722C111.539 69.7504 111.388 69.235 111.083 68.8042C110.754 68.4234 110.255 68.2209 109.745 68.2611C109.373 68.2513 109.003 68.3215 108.663 68.4666C108.362 68.5982 108.102 68.803 107.907 69.0611C107.704 69.3374 107.558 69.6488 107.476 69.9786C107.377 70.3626 107.329 70.7572 107.332 71.153V74.8229H106.054V69.0685ZM121.663 73.4724C121.391 73.9306 120.993 74.3066 120.514 74.5587C119.955 74.8614 119.323 75.0134 118.684 74.9991C118.164 75.0031 117.649 74.9032 117.171 74.7055C116.685 74.5108 116.246 74.2181 115.885 73.8467C115.533 73.4832 115.255 73.0571 115.069 72.5916C114.669 71.5779 114.669 70.4565 115.069 69.4428C115.254 68.9792 115.532 68.5553 115.885 68.195C116.249 67.8342 116.687 67.5516 117.171 67.3656C117.701 67.1638 118.266 67.064 118.835 67.072C119.359 67.0716 119.876 67.187 120.347 67.4097C120.836 67.6263 121.272 67.9416 121.625 68.3345V62.6461H122.919V74.7789H121.625L121.663 73.4724ZM121.663 71.0502C121.668 70.6753 121.604 70.3026 121.474 69.9493C121.229 69.2906 120.715 68.7594 120.052 68.4813C119.326 68.1917 118.51 68.1917 117.784 68.4813C117.121 68.7594 116.607 69.2906 116.362 69.9493C116.108 70.6626 116.108 71.4378 116.362 72.1512C116.606 72.8103 117.121 73.3418 117.784 73.6192C118.51 73.9088 119.326 73.9088 120.052 73.6192C120.715 73.3418 121.23 72.8103 121.474 72.1512C121.607 71.7886 121.671 71.4056 121.663 71.0209V71.0502ZM130.05 62.6461H131.343V74.7789H130.05V62.6461ZM140.842 73.4137C140.452 73.935 139.931 74.3517 139.33 74.6247C138.72 74.8656 138.067 74.983 137.409 74.9697C136.845 74.9779 136.286 74.8704 135.768 74.6541C135.301 74.4583 134.881 74.1709 134.535 73.81C134.199 73.4448 133.942 73.018 133.779 72.5549C133.595 72.0607 133.503 71.5389 133.506 71.0135C133.499 70.4668 133.599 69.9238 133.801 69.4134C133.986 68.9453 134.266 68.5183 134.626 68.1583C134.983 67.809 135.41 67.5342 135.881 67.3509C136.386 67.1557 136.926 67.0585 137.469 67.0647C137.986 67.0558 138.5 67.1455 138.982 67.3289C139.42 67.4887 139.818 67.7392 140.146 68.0629C140.484 68.4185 140.742 68.8384 140.903 69.296C141.087 69.8305 141.176 70.3914 141.167 70.9548V71.3585H134.913C134.935 71.6785 135.017 71.992 135.155 72.2833C135.29 72.5557 135.472 72.8039 135.692 73.0173C135.908 73.2356 136.165 73.4124 136.448 73.5384C136.756 73.6682 137.088 73.7333 137.424 73.7293C137.915 73.745 138.402 73.6469 138.846 73.443C139.252 73.2342 139.607 72.9439 139.889 72.5916L140.842 73.4137ZM139.731 70.3456C139.732 69.77 139.501 69.2167 139.088 68.8042C138.628 68.3993 138.021 68.1904 137.401 68.2244C136.101 68.14 134.972 69.0851 134.868 70.3456H139.731ZM143.111 69.0685V67.2849H144.336V68.518C144.433 68.3253 144.557 68.1472 144.707 67.9895C144.873 67.8132 145.064 67.6601 145.274 67.5344C145.51 67.3937 145.764 67.2851 146.03 67.2115C146.32 67.1305 146.621 67.0909 146.923 67.0941C147.372 67.0847 147.82 67.1621 148.239 67.3216C148.588 67.4592 148.901 67.6726 149.154 67.9455C149.403 68.2265 149.587 68.5572 149.691 68.9143C149.81 69.3199 149.869 69.7402 149.864 70.1621V74.8009H148.571V70.2722C148.596 69.7504 148.445 69.235 148.14 68.8042C147.811 68.4234 147.312 68.2209 146.802 68.2611C146.43 68.2513 146.061 68.3215 145.72 68.4666C145.419 68.5982 145.159 68.803 144.964 69.0611C144.761 69.3374 144.615 69.6488 144.533 69.9786C144.434 70.3626 144.386 70.7572 144.389 71.153V74.8229H143.111V69.0685ZM152.466 72.8045C152.7 73.0947 152.984 73.3431 153.305 73.5384C153.655 73.7316 154.053 73.8257 154.455 73.81C154.659 73.809 154.861 73.7869 155.06 73.744C155.254 73.7052 155.441 73.6358 155.612 73.5384C155.769 73.4483 155.903 73.3254 156.005 73.1788C156.109 73.0238 156.161 72.8422 156.157 72.6577C156.164 72.4808 156.114 72.3062 156.013 72.1586C155.914 72.0246 155.788 71.9121 155.642 71.8283C155.477 71.7316 155.299 71.6575 155.113 71.6081L154.5 71.4613C154.137 71.3879 153.79 71.3022 153.457 71.2044C153.15 71.1197 152.857 70.9937 152.587 70.83C152.341 70.6786 152.136 70.4722 151.99 70.2282C151.828 69.938 151.75 69.611 151.763 69.2813C151.757 68.945 151.843 68.6132 152.012 68.3198C152.177 68.0434 152.404 67.8074 152.678 67.6299C152.961 67.4441 153.272 67.3029 153.6 67.2115C153.944 67.1141 154.301 67.0647 154.659 67.0647C155.182 67.0631 155.698 67.1734 156.172 67.3876C156.646 67.6081 157.031 67.9746 157.268 68.4299L156.194 69.1198C156.034 68.8553 155.811 68.6315 155.544 68.4666C155.248 68.2935 154.907 68.2069 154.561 68.217C154.38 68.2182 154.2 68.2404 154.024 68.2831C153.851 68.3211 153.685 68.3855 153.532 68.4739C153.391 68.558 153.27 68.6707 153.177 68.8042C153.082 68.9381 153.032 69.0969 153.033 69.2593C153.029 69.4111 153.086 69.5584 153.192 69.6703C153.315 69.7941 153.461 69.8937 153.623 69.9639C153.825 70.0581 154.035 70.1343 154.251 70.1915C154.5 70.2579 154.752 70.3118 155.007 70.3529C155.338 70.4148 155.664 70.4982 155.983 70.6025C156.274 70.6962 156.547 70.835 156.792 71.0135C157.023 71.1848 157.209 71.406 157.336 71.6594C157.477 71.9559 157.544 72.2801 157.533 72.6063C157.544 72.9869 157.453 73.3637 157.268 73.6999C157.097 73.9953 156.856 74.2468 156.565 74.4339C156.262 74.6262 155.927 74.7654 155.574 74.8449C155.206 74.9185 154.831 74.9505 154.455 74.9403C153.871 74.9546 153.29 74.8547 152.746 74.6468C152.214 74.4066 151.763 74.0249 151.445 73.5458L152.466 72.8045ZM166.26 73.4137C165.87 73.935 165.349 74.3517 164.748 74.6247C164.138 74.8656 163.485 74.983 162.827 74.9697C162.263 74.9779 161.704 74.8704 161.186 74.6541C160.719 74.4583 160.3 74.1709 159.953 73.81C159.617 73.4448 159.36 73.018 159.197 72.5549C159.013 72.0607 158.921 71.5389 158.925 71.0135C158.917 70.4668 159.017 69.9238 159.22 69.4134C159.404 68.9453 159.684 68.5183 160.044 68.1583C160.401 67.809 160.828 67.5342 161.299 67.3509C161.804 67.1557 162.344 67.0585 162.887 67.0647C163.405 67.0558 163.918 67.1455 164.4 67.3289C164.838 67.4887 165.236 67.7392 165.565 68.0629C165.902 68.4185 166.16 68.8384 166.321 69.296C166.505 69.8305 166.594 70.3914 166.586 70.9548V71.3585H160.331C160.353 71.6785 160.435 71.992 160.573 72.2833C160.708 72.5557 160.89 72.8039 161.11 73.0173C161.326 73.2356 161.583 73.4124 161.866 73.5384C162.174 73.6682 162.507 73.7333 162.842 73.7293C163.333 73.745 163.82 73.6469 164.264 73.443C164.67 73.2342 165.026 72.9439 165.307 72.5916L166.26 73.4137ZM165.149 70.3456C165.15 69.77 164.919 69.2167 164.506 68.8042C164.046 68.3993 163.439 68.1904 162.819 68.2244C161.519 68.14 160.39 69.0851 160.286 70.3456H165.149ZM168.711 72.8045C168.944 73.0947 169.228 73.3431 169.55 73.5384C169.9 73.7316 170.298 73.8257 170.7 73.81C170.903 73.809 171.106 73.7869 171.305 73.744C171.499 73.7052 171.686 73.6358 171.857 73.5384C172.014 73.4483 172.148 73.3254 172.25 73.1788C172.353 73.0238 172.406 72.8422 172.401 72.6577C172.408 72.4808 172.358 72.3062 172.258 72.1586C172.159 72.0246 172.033 71.9121 171.887 71.8283C171.722 71.7316 171.544 71.6575 171.358 71.6081L170.745 71.4613C170.382 71.3879 170.034 71.3022 169.701 71.2044C169.395 71.1197 169.102 70.9937 168.832 70.83C168.586 70.6786 168.381 70.4722 168.234 70.2282C168.073 69.938 167.994 69.611 168.007 69.2813C168.001 68.945 168.088 68.6132 168.257 68.3198C168.421 68.0434 168.649 67.8074 168.922 67.6299C169.205 67.4441 169.517 67.3029 169.845 67.2115C170.189 67.1141 170.546 67.0647 170.904 67.0647C171.426 67.0631 171.943 67.1734 172.416 67.3876C172.89 67.6081 173.276 67.9746 173.513 68.4299L172.439 69.1198C172.278 68.8553 172.056 68.6315 171.789 68.4666C171.492 68.2935 171.151 68.2069 170.806 68.217C170.624 68.2182 170.444 68.2404 170.269 68.2831C170.095 68.3211 169.929 68.3855 169.777 68.4739C169.635 68.558 169.514 68.6707 169.422 68.8042C169.327 68.9381 169.277 69.0969 169.278 69.2593C169.274 69.4111 169.331 69.5584 169.437 69.6703C169.56 69.7941 169.706 69.8937 169.868 69.9639C170.069 70.0581 170.28 70.1343 170.495 70.1915C170.744 70.2579 170.997 70.3118 171.252 70.3529C171.582 70.4148 171.908 70.4982 172.227 70.6025C172.518 70.6962 172.791 70.835 173.037 71.0135C173.267 71.1848 173.454 71.406 173.581 71.6594C173.721 71.9559 173.789 72.2801 173.778 72.6063C173.788 72.9869 173.697 73.3637 173.513 73.6999C173.342 73.9953 173.101 74.2468 172.81 74.4339C172.507 74.6262 172.171 74.7654 171.819 74.8449C171.447 74.9319 171.067 74.9763 170.685 74.9771C170.1 74.9913 169.519 74.8914 168.975 74.6835C168.443 74.4433 167.992 74.0616 167.675 73.5825L168.711 72.8045Z" fill="black"/>
</g>
</g>
</g>
</g>
</g>
</g>
</svg>
