<svg width="200" height="100" viewBox="0 0 200 100" fill="none" xmlns="http://www.w3.org/2000/svg">
<g clip-path="url(#clip0_903_1412)">
<path d="M169.655 53.1524L172.311 45.4467L174.894 53.1524H169.655ZM141.053 49.7731H139.62V42.4032H140.812C142.922 42.4032 144.338 43.7635 144.338 46.2776C144.338 47.6551 143.257 49.7774 141.053 49.7774V49.7731ZM124.966 53.1524L127.622 45.4467L130.205 53.1524H124.966ZM200.013 42.3903V41.7617H191.076V42.3903H192.462V54.5601L184.141 41.7617H180.266V42.3903H181.648V58.71H179.251L173.224 40.9869L166.999 58.71H164.691V42.4032H166.078V41.7747H162.414L157.804 55.1413L152.961 41.7747H149.37V42.4032H150.757V58.7229H148.01C147.231 58.7229 146.551 58.0255 146.551 56.8503V54.2674C146.551 52.2958 145.909 50.6427 143.938 50.0831C144.775 49.8214 145.508 49.3014 146.031 48.5977C146.555 47.894 146.842 47.0427 146.852 46.1656C146.852 43.6645 144.988 41.7661 141.381 41.7661H135.965V42.3946H137.347V58.7143H134.553L128.526 40.9912L122.301 58.7143H121.074V59.3428H124.553V58.7143H123.012L124.734 53.7637H130.39L132.043 58.7143H129.921V59.3428H141.734V58.7143H139.581V50.4059H141.053C143.15 50.4059 144.205 51.2669 144.205 53.2988V54.8055C144.205 58.3915 146.564 59.3515 147.851 59.3515H152.909V58.7229H151.385V44.2715L157.059 59.5409L162.423 43.8195V58.7229H161.037V59.3515H169.25V58.7229H167.709L169.431 53.7723H175.105L176.758 58.7229H174.631V59.3515H183.672V58.7229H182.281V43.3072L193.091 59.9283V42.4032H196.349V58.7229H194.963V59.3515H199.996V58.7229H198.61V42.4032H199.996" fill="black"/>
<path d="M63.2256 49.7733H61.7921V42.4077H62.9802C65.0896 42.4077 66.5059 43.7637 66.5059 46.282C66.5059 47.6596 65.4254 49.7819 63.2256 49.7819V49.7733ZM71.5426 42.4077H72.9288V58.7231H70.1909C69.4117 58.7231 68.7316 58.0257 68.7316 56.8505V54.2676C68.7316 52.2959 68.0944 50.6472 66.1185 50.0832C66.9564 49.8223 67.6902 49.3027 68.2145 48.5989C68.7389 47.8951 69.0269 47.0434 69.0372 46.1658C69.0372 43.6647 67.1732 41.7662 63.5657 41.7662H58.1459V42.3991H59.5277V58.7145H58.1459V59.3473H63.9316V58.7145H61.7792V50.4061H63.2127C65.3049 50.4061 66.3596 51.2671 66.3596 53.299V54.8057C66.3596 58.3916 68.7229 59.3559 70.0101 59.3559H76.5621V58.7231H75.1889V42.4077H76.575V41.7748H71.5426V42.4077Z" fill="black"/>
<path d="M84.8706 59.1709C80.4279 59.1709 80.1783 53.3464 80.1783 50.5612C80.1783 47.7759 80.5097 41.9514 84.8706 41.9514C89.2314 41.9514 89.6059 47.7974 89.6059 50.5612C89.6059 53.3249 89.3218 59.1709 84.8706 59.1709ZM84.8706 41.353C80.2342 41.353 77.238 46.4974 77.238 50.5784C77.238 55.0296 80.4839 59.7779 84.8706 59.7779C89.2572 59.7779 92.5074 55.318 92.5074 50.5784C92.5074 46.4931 89.2615 41.353 84.8706 41.353Z" fill="black"/>
<path d="M49.8289 59.1709C45.3863 59.1709 45.1366 53.3464 45.1366 50.5612C45.1366 47.7759 45.4681 41.9514 49.8289 41.9514C54.1898 41.9514 54.5643 47.7974 54.5643 50.5612C54.5643 53.3249 54.2802 59.1709 49.8289 59.1709ZM49.8289 41.353C45.1926 41.353 42.1964 46.4974 42.1964 50.5784C42.1964 55.0296 45.4423 59.7779 49.8289 59.7779C54.2156 59.7779 57.4658 55.318 57.4658 50.5784C57.4658 46.4931 54.2199 41.353 49.8289 41.353Z" fill="black"/>
<path d="M31.4083 58.7231H28.0892V42.4076H31.4083V58.7231ZM33.6942 42.4076H34.5551C36.9788 42.4076 38.4941 43.6302 38.4941 47.0268C38.4941 50.0961 37.3275 51.5512 34.5551 51.5512H33.6942V42.4076ZM35.0588 52.1797C39.0796 52.1797 41.0641 49.9282 41.0641 47.0138C41.0641 44.22 39.3422 41.7619 35.0588 41.7619H25.8163L21.2014 55.1285L16.3628 41.7619H12.7682V42.3947H14.1544V58.7102H12.7682V59.343H16.2939V58.7102H14.7872V44.2716L20.4653 59.541L25.8292 43.8196V58.7231H24.443V59.3559H35.0803V58.7231H33.6942V52.1797H35.0588Z" fill="black"/>
<path d="M11.6748 46.5403H11.0678C11.0678 44.0306 10.4006 42.4077 7.5077 42.4077H3.63331V50.1564H4.71384C6.60367 50.1564 7.38716 49.1921 7.38716 47.5046H8.03289V53.4367H7.40007C7.40007 51.7708 6.61659 50.7849 4.72675 50.7849H3.64623V58.7145H6.31094C10.4221 58.7145 11.0721 56.7127 11.0721 54.0954H11.6791V59.3473H0V58.7145H1.38617V42.3991H0V41.7662H11.6748V46.5317" fill="black"/>
<path d="M110.635 43.8882C110.747 43.4577 111.066 43.4577 111.574 43.4577H112.809C112.701 42.4073 111.518 41.7358 111.023 41.7358H106.124C106.042 41.7358 105.999 41.7961 105.96 41.8606C105.587 42.4415 105.385 43.116 105.379 43.8064V43.8624H110.635" fill="black"/>
<path d="M99.0724 41.7706H90.256C90.2355 41.8828 90.2254 41.9966 90.2258 42.1107C90.2258 43.2859 91.4786 43.8886 91.4786 43.8886H100.846L99.0724 41.7706Z" fill="black"/>
<path d="M101.659 44.8611H92.8388C92.815 44.9714 92.8035 45.084 92.8044 45.1969C92.8044 46.3764 94.0614 46.9791 94.0614 46.9791H103.416L101.642 44.8611" fill="black"/>
<path d="M126.817 41.7706H118.009L116.236 43.8886H125.595C125.595 43.8886 126.852 43.2859 126.852 42.1107C126.853 41.9964 126.841 41.8823 126.817 41.7706Z" fill="black"/>
<path d="M115.426 44.8611L113.649 46.9791H123.007C123.007 46.9791 124.264 46.3635 124.264 45.1969C124.263 45.0841 124.252 44.9717 124.23 44.8611H115.426Z" fill="black"/>
<path d="M98.0305 51.0389C98.0066 51.1507 97.9951 51.2648 97.996 51.379C97.996 52.5543 99.2487 53.1613 99.2487 53.1613H103.635C103.833 52.717 104.152 52.3374 104.555 52.0663C104.959 51.7952 105.431 51.6435 105.917 51.6287C106.194 51.63 106.467 51.7059 106.705 51.8483C106.782 51.8969 106.868 51.9291 106.959 51.943C106.998 51.949 107.038 51.9468 107.077 51.9363C107.115 51.9259 107.151 51.9075 107.182 51.8823C107.213 51.8572 107.238 51.8258 107.256 51.7903C107.274 51.7547 107.284 51.7158 107.286 51.6761V51.6502H107.527V53.1613H110.187L110.76 51.5297L110.79 51.4479C110.79 51.4479 111.04 52.1927 111.371 53.1699H117.829C117.829 53.1699 119.081 52.5629 119.081 51.3876C119.082 51.2736 119.071 51.1598 119.051 51.0476H98.0305" fill="black"/>
<path d="M105.921 51.8998C105.06 51.8998 104.656 52.4896 104.458 53.1611H107.204C106.98 52.3001 106.425 51.8998 105.913 51.8998" fill="black"/>
<path d="M104.277 54.7928C104.268 55.2813 104.313 55.7692 104.41 56.2479H106.955V55.4687H106.404V55.1932H108.255V55.4687H107.785V56.2651H109.107L109.852 54.1471H104.298C104.277 54.414 104.277 54.6508 104.277 54.81" fill="black"/>
<path d="M115.25 56.2651C115.25 56.2651 116.507 55.6624 116.507 54.4872C116.506 54.373 116.494 54.2592 116.473 54.1471H111.707C111.957 54.8832 112.215 55.6495 112.426 56.2651H115.25Z" fill="black"/>
<path d="M103.291 54.1125H100.613C100.592 54.2246 100.58 54.3385 100.579 54.4526C100.579 55.6279 101.836 56.2306 101.836 56.2306H103.558C103.342 55.7752 103.226 55.2792 103.218 54.7755C103.22 54.5526 103.244 54.3305 103.291 54.1125Z" fill="black"/>
<path d="M105.809 57.6857C105.989 57.689 106.166 57.6489 106.327 57.5687C106.487 57.4884 106.626 57.3706 106.731 57.2251H104.819C104.936 57.3749 105.087 57.4948 105.259 57.5749C105.431 57.655 105.62 57.693 105.809 57.6857Z" fill="black"/>
<path d="M113.528 57.5562V57.8274H111.242V57.5562H111.952L111.849 57.2463H109.068C109.008 57.4142 108.965 57.539 108.956 57.5562H109.469V57.8274H108.229V57.5562H108.659C108.659 57.5562 108.698 57.4357 108.767 57.2463H107.79V57.8274H107.514V57.8016C107.493 57.5993 107.394 57.4658 107.256 57.4658C107.069 57.4763 106.891 57.5473 106.748 57.6682C106.482 57.8756 106.151 57.9837 105.814 57.9738C105.511 57.9687 105.213 57.9015 104.937 57.7764C104.662 57.6512 104.415 57.4708 104.212 57.2463H103.209C103.185 57.3566 103.174 57.4692 103.175 57.5821C103.175 58.7616 104.432 59.3643 104.432 59.3643H112.641C112.641 59.3643 113.933 58.7401 113.933 57.5562C113.931 57.4435 113.92 57.3311 113.898 57.2205H112.775C112.839 57.4099 112.878 57.5261 112.882 57.5304H113.545" fill="black"/>
<path d="M110.269 44.857H110.17H105.375L105.289 46.975H110.872L110.269 44.857Z" fill="black"/>
<path d="M112.839 47.9478L111.978 48.9594L111.117 47.9478H105.245L105.095 48.9551L104.234 47.9478H95.4218C95.3999 48.0598 95.3883 48.1737 95.3873 48.2878C95.3873 49.4631 96.6443 50.0658 96.6443 50.0658H120.407C120.407 50.0658 121.664 49.4631 121.664 48.2878C121.663 48.1737 121.652 48.0598 121.63 47.9478H112.839Z" fill="black"/>
<path d="M110.812 54.1299H110.14L109.679 55.4645H111.259L110.812 54.1299Z" fill="black"/>
<path d="M111.522 56.2476L111.35 55.7354H109.585L109.408 56.2476H111.522Z" fill="black"/>
</g>
<defs>
<clipPath id="clip0_903_1412">
<rect width="200" height="18.9285" fill="white" transform="translate(0 40.9999)"/>
</clipPath>
</defs>
</svg>
