<svg width="200" height="100" viewBox="0 0 200 100" fill="none" xmlns="http://www.w3.org/2000/svg">
<path fill-rule="evenodd" clip-rule="evenodd" d="M98.4321 29C77.9461 29 60.9324 34.6151 60.9324 41.9685C60.9324 49.3079 77.9461 54.9321 98.4321 54.9321C118.916 54.9321 135.93 49.3079 135.93 41.9668C135.93 34.6179 118.916 29 98.4321 29ZM47.7608 68.7489V68.9081C47.7608 69.5113 48.2796 69.637 49.0745 69.637C50.042 69.637 50.536 69.5261 50.536 68.9881V68.8455V61.5221V61.364C50.536 60.9052 49.9418 60.7923 49.0993 60.7923C48.2057 60.7923 47.7608 60.9052 47.7608 61.3958V61.5541V68.7489ZM55.3216 69.0187V69.1293C55.3216 70.2233 53.6616 70.6516 49.0746 70.6516C45.4044 70.6516 43.4959 70.3025 43.0983 69.511C43.0493 69.3992 43 69.1611 43 68.8286V68.6854V61.8859V61.712C43 60.7771 43.3958 60.4133 44.5617 60.1431C45.5539 59.9058 47.1893 59.7791 49.0994 59.7791C50.909 59.7791 52.5711 59.9058 53.6369 60.1113C54.926 60.365 55.3216 60.7139 55.3216 61.601V61.7593V69.0187ZM71.1711 70.462L70.3023 67.8309H67.0557L66.3099 70.462H62.6165L66.4348 59.9061H72.4601L76.6003 70.462H71.1711ZM68.5418 62.442L69.9804 66.6102H67.3017L68.5418 62.442ZM89.7512 59.9059V64.1998L93.7188 59.9059H98.1807L94.1388 64.2632L97.9324 70.4601H92.4299L89.7512 65.8169V70.4601H84.5945V59.9059H89.7512ZM111.149 69.0654V59.9059H105.991L105.993 70.4601H116.256V69.0654H111.149ZM134.018 61.2361H129.083V64.5013H132.878L132.902 65.7376H129.109V69.1293H133.995V70.4598H123.926V59.9058L134.018 59.9039V61.2361ZM144.48 70.46H149.661V66.5449L154.1 59.9041H150.084L147.777 63.8506L145.497 59.9041H139.992L144.48 66.5449V70.46ZM75.6722 41.8631C75.6722 47.7741 86.4953 52.1602 98.5215 52.1602C110.542 52.1602 121.366 47.7741 121.366 41.8631C121.366 35.95 110.542 31.5587 98.5215 31.5587C86.5037 31.5587 75.6722 35.95 75.6722 41.8631ZM157.583 60.7324C157.583 61.1637 157.097 61.5062 156.481 61.5062C155.865 61.5062 155.375 61.1637 155.375 60.7324C155.375 60.3021 155.865 59.9654 156.488 59.9654C157.097 59.9654 157.583 60.3021 157.583 60.7324ZM156.487 61.3451C156.01 61.3451 155.648 61.0747 155.648 60.7323C155.648 60.3967 156.01 60.1194 156.473 60.1194C156.952 60.1194 157.305 60.3967 157.305 60.7372C157.305 61.0747 156.952 61.352 156.487 61.3451ZM156.312 61.1306H156.063V60.3623L156.103 60.3587C156.197 60.35 156.32 60.3387 156.474 60.3387C156.679 60.3387 156.77 60.3623 156.842 60.4002C156.907 60.4345 156.953 60.4893 156.953 60.5646C156.953 60.6569 156.854 60.7186 156.731 60.7459V60.756C156.835 60.78 156.888 60.84 156.92 60.9447C156.953 61.0603 156.981 61.1016 157 61.1305L157 61.1306H156.737C156.707 61.1048 156.688 61.0498 156.662 60.9728L156.652 60.9447C156.631 60.8636 156.566 60.8264 156.429 60.8264H156.312V61.1306ZM156.436 60.7001H156.315V60.4788C156.343 60.4754 156.389 60.4699 156.454 60.4699C156.612 60.4699 156.683 60.5165 156.683 60.5883C156.683 60.6668 156.572 60.7001 156.436 60.7001ZM131.585 52.3292C131.585 52.7604 131.098 53.1027 130.482 53.1027C129.866 53.1027 129.376 52.7604 129.376 52.3292C129.376 51.8986 129.866 51.5619 130.489 51.5619C131.098 51.5619 131.585 51.8986 131.585 52.3292ZM130.488 52.9419C130.011 52.9419 129.649 52.6715 129.649 52.3294C129.649 51.9936 130.011 51.7163 130.474 51.7163C130.953 51.7163 131.306 51.9936 131.306 52.3342C131.306 52.6715 130.953 52.9489 130.488 52.9419ZM130.312 52.7276H130.063V51.9593L130.103 51.9557C130.197 51.947 130.32 51.9357 130.473 51.9357C130.679 51.9357 130.77 51.9593 130.842 51.9972C130.907 52.0317 130.953 52.0863 130.953 52.1616C130.953 52.2539 130.854 52.3156 130.73 52.3429V52.353C130.835 52.377 130.888 52.4371 130.92 52.5417C130.952 52.6568 130.98 52.6982 131 52.7271L131 52.7276H130.737C130.707 52.702 130.688 52.6477 130.662 52.5712L130.652 52.5417C130.631 52.4606 130.566 52.4234 130.429 52.4234H130.312V52.7276ZM130.437 52.2969H130.316V52.0756C130.344 52.0722 130.39 52.0669 130.455 52.0669C130.613 52.0669 130.684 52.1133 130.684 52.1853C130.684 52.2636 130.573 52.2969 130.437 52.2969Z" fill="black"/>
</svg>
