<svg width="200" height="100" viewBox="0 0 200 100" fill="none" xmlns="http://www.w3.org/2000/svg">
<g clip-path="url(#clip0_906_26)">
<path d="M25.2196 53.4602C25.2196 53.9892 25.3199 54.1807 25.9156 54.1807V54.5181H21V54.1777C21.5956 54.1777 21.696 53.9861 21.696 53.4572V38.0661C21.696 37.5341 21.5956 37.3426 21 37.3426V37.0051H32.9754C37.2922 37.0051 39.5744 39.2212 39.5744 42.0362C39.5744 44.8998 37.7624 46.7025 34.7121 47.1615L39.3017 53.4663C39.6496 53.9466 39.8471 54.1868 40.3707 54.1868V54.5242H34.8563V54.1777C35.1698 54.1777 35.2043 54.0804 35.2043 53.9861C35.2043 53.7946 35.1291 53.6821 34.8908 53.3356L30.3327 47.0581H25.2196V53.4602ZM25.2948 44.2189H32.8186C34.6056 44.2189 36.0445 43.544 36.0445 42.0301C36.0445 40.5162 34.6056 39.8383 32.8186 39.8383H25.2948V44.2189Z" fill="#1A1A18"/>
<path d="M55.3434 54.5191V54.1786C55.7917 54.1543 55.939 54.0357 56.2839 53.2666L63.071 38.4926C63.2123 38.2733 63.3051 38.028 63.3437 37.7721C63.3437 37.5077 63.1462 37.3861 62.8233 37.3374V37H68.2342V37.3374C67.8611 37.3861 67.7106 37.529 67.7106 37.6992C67.7364 37.9217 67.8135 38.1358 67.9364 38.3254L75.1216 53.2666C75.4696 54.0145 75.5699 54.1786 76.0903 54.1786V54.516H71.1528V54.1786C71.4663 54.1786 71.5979 54.0601 71.5979 53.9385C71.5979 53.674 71.3754 53.3305 69.717 49.8954H61.19C59.7479 53.0234 59.378 53.5037 59.378 53.8169C59.3767 53.8644 59.3854 53.9118 59.4035 53.956C59.4216 54.0003 59.4488 54.0405 59.4833 54.0743C59.5179 54.1081 59.5592 54.1348 59.6046 54.1527C59.6501 54.1706 59.6989 54.1794 59.7479 54.1786V54.516L55.3434 54.5191ZM68.2718 47.1564L65.2968 40.8516L62.3687 47.1564H68.2718Z" fill="#1A1A18"/>
<path d="M92.2694 54.1789C92.8149 54.1789 92.9152 53.9874 92.9152 53.4584V38.0673C92.9152 37.5353 92.8149 37.3438 92.2694 37.3438V37.0063H97.1818V37.3438C96.536 37.3438 96.4388 37.5353 96.4388 38.0673V51.6861H107.9C108.496 51.6861 108.743 51.4946 108.743 51.1085H109.091V55.0604H108.747C108.747 54.723 108.499 54.5315 107.903 54.5315H92.2694V54.1789Z" fill="#1A1A18"/>
<path d="M129.318 53.4614C129.318 53.9904 129.415 54.1819 130.011 54.1819V54.5193H125.098V54.1789C125.694 54.1789 125.794 53.9874 125.794 53.4584V38.0673C125.794 37.5353 125.694 37.3438 125.098 37.3438V37.0063H136.986C140.905 37.0063 142.892 38.9337 142.892 41.9888C142.892 45.0439 141.303 46.9682 136.986 46.9682H129.318V53.4614ZM129.318 44.1228H136.936C138.817 44.1228 139.369 43.5452 139.369 41.9949C139.369 40.4445 138.82 39.8517 136.936 39.8517H129.318V44.1228Z" fill="#1A1A18"/>
<path d="M174.63 43.8431V38.0673C174.63 37.5353 174.529 37.3438 173.884 37.3438V37.0063H178.846V37.3438C178.276 37.3438 178.153 37.5353 178.153 38.0673V53.4675C178.153 53.9965 178.276 54.188 178.846 54.188V54.5254H173.884V54.1789C174.529 54.1789 174.63 53.9874 174.63 53.4584V46.8831H163.463V53.4766C163.463 54.0056 163.585 54.1971 164.181 54.1971V54.5345H159.193V54.1789C159.839 54.1789 159.939 53.9874 159.939 53.4584V38.0673C159.939 37.5353 159.839 37.3438 159.193 37.3438V37.0063H164.181V37.3438C163.585 37.3438 163.463 37.5353 163.463 38.0673V43.8431H174.63Z" fill="#1A1A18"/>
<path d="M22.0031 60.1524V61.7514C22.0031 61.9368 22.0846 61.9855 22.1786 61.9855V62.0584H21.0908V61.9855C21.1849 61.9855 21.2664 61.9368 21.2664 61.7514V57.9302C21.2664 57.7478 21.1849 57.6992 21.1159 57.6992V57.6262H23.2006C24.2069 57.6262 24.6646 58.1613 24.6646 58.7814C24.6646 59.5839 24.301 60.0186 23.6332 60.1281L24.511 61.7788C24.5323 61.8422 24.5745 61.8972 24.6311 61.9351C24.6878 61.973 24.7558 61.9918 24.8245 61.9885V62.0615H23.6082V61.9885C23.6409 61.9885 23.6723 61.9761 23.6957 61.954C23.7192 61.9318 23.7327 61.9017 23.7336 61.87C23.7326 61.8222 23.7174 61.7757 23.6897 61.7362L22.8558 60.1554L22.0031 60.1524ZM22.0031 59.5779H23.1317C23.7336 59.5779 23.9185 59.3651 23.9185 58.9151C23.9185 58.3558 23.6458 58.1977 22.978 58.1977H22.0031V59.5779Z" fill="#1A1A18"/>
<path d="M30.3762 60.866L30.0627 61.7354C30.0476 61.7809 30.0371 61.8277 30.0313 61.8752C30.0321 61.9046 30.043 61.9329 30.0623 61.9555C30.0817 61.9781 30.1083 61.9937 30.1379 61.9999V62.0728H29.2131V61.9999C29.3197 61.9999 29.3699 61.9573 29.4451 61.7293L30.7242 57.9932C30.7425 57.9465 30.7531 57.8973 30.7555 57.8473C30.7555 57.7744 30.7304 57.7257 30.6489 57.7136V57.6406H31.8371V57.7136C31.8079 57.7178 31.7808 57.731 31.76 57.7513C31.7391 57.7715 31.7254 57.7977 31.7211 57.8261C31.7236 57.876 31.7342 57.9252 31.7524 57.972L33.0064 61.7445C33.0377 61.8418 33.0754 61.9725 33.1757 61.9725V62.0455H32.16V61.9725C32.2477 61.9725 32.2728 61.9178 32.2728 61.8357C32.2673 61.7613 32.2526 61.6878 32.2289 61.6168L31.9656 60.866H30.3762ZM30.5831 60.258H31.765L31.2007 58.4675L30.5831 60.258Z" fill="#1A1A18"/>
<path d="M37.9281 57.9302C37.9281 57.7478 37.8466 57.6992 37.7526 57.6992V57.6262H38.8467V57.6992C38.7526 57.6992 38.6711 57.7478 38.6711 57.9302V61.4474H40.7872C40.9439 61.4474 40.9753 61.3866 40.9753 61.3015H41.0505V62.2135H40.9753C40.9753 62.1283 40.9439 62.0676 40.7872 62.0676H37.7526V61.9946C37.8466 61.9946 37.9281 61.946 37.9281 61.7605V57.9302Z" fill="#1A1A18"/>
<path d="M46.6495 61.7514C46.6495 61.9368 46.731 61.9855 46.8251 61.9855V62.0584H45.7341V61.9855C45.8282 61.9855 45.9097 61.9368 45.9097 61.7514V57.9302C45.9097 57.7478 45.8282 57.6992 45.7341 57.6992V57.6262H47.7091C48.7123 57.6262 49.17 58.1065 49.17 58.8908C49.17 59.5961 48.775 60.122 47.7718 60.122H46.6527L46.6495 61.7514ZM47.6433 59.5475C48.2076 59.5475 48.427 59.2921 48.427 58.8908C48.427 58.4044 48.1574 58.1977 47.5054 58.1977H46.6495V59.5475H47.6433Z" fill="#1A1A18"/>
<path d="M54.6318 60.0369V61.7514C54.6318 61.9368 54.7133 61.9855 54.8073 61.9855V62.0584H53.7133V61.9855C53.8073 61.9855 53.8888 61.9368 53.8888 61.7514V57.9302C53.8888 57.7478 53.8073 57.6992 53.7133 57.6992V57.6262H54.8073V57.6992C54.7133 57.6992 54.6318 57.7478 54.6318 57.9302V59.4259H56.6789V57.9302C56.6789 57.7478 56.5942 57.6992 56.5002 57.6992V57.6262H57.5943V57.6992C57.5002 57.6992 57.4187 57.7478 57.4187 57.9302V61.7514C57.4187 61.9368 57.5002 61.9855 57.5943 61.9855V62.0584H56.4877V61.9855C56.5817 61.9855 56.6664 61.9368 56.6664 61.7514V60.0369H54.6318Z" fill="#1A1A18"/>
<path d="M68.8171 57.9302C68.8171 57.7478 68.7356 57.6992 68.6416 57.6992V57.6262H69.7325V57.6992C69.6385 57.6992 69.557 57.7478 69.557 57.9302V61.4474H71.673C71.8298 61.4474 71.8611 61.3866 71.8611 61.3015H71.9364V62.2135H71.8486C71.8486 62.1283 71.8172 62.0676 71.6605 62.0676H68.629V61.9946C68.7231 61.9946 68.8046 61.946 68.8046 61.7605L68.8171 57.9302Z" fill="#1A1A18"/>
<path d="M77.5761 60.866L77.2626 61.7354C77.2475 61.7809 77.237 61.8277 77.2313 61.8752C77.2322 61.905 77.2435 61.9336 77.2635 61.9563C77.2834 61.979 77.3108 61.9943 77.341 61.9999V62.0728H76.4005V61.9999C76.5071 61.9999 76.5573 61.9573 76.6325 61.7293L77.9147 57.9932C77.933 57.9465 77.9436 57.8973 77.946 57.8473C77.946 57.7744 77.9209 57.7257 77.8394 57.7136V57.6406H79.0244V57.7136C78.9912 57.7195 78.9614 57.737 78.9406 57.7627C78.9198 57.7885 78.9095 57.8208 78.9116 57.8534C78.9141 57.9033 78.9247 57.9526 78.9429 57.9993L80.1969 61.7719C80.2283 61.8692 80.2659 61.9999 80.3662 61.9999V62.0728H79.3724V61.9999C79.4602 61.9999 79.4853 61.9452 79.4853 61.8631C79.4797 61.7887 79.465 61.7152 79.4414 61.6442L79.1781 60.866H77.5761ZM77.783 60.258H78.9617L78.3975 58.4675L77.783 60.258Z" fill="#1A1A18"/>
<path d="M88.6297 60.6935C88.6297 61.5021 88.0968 62.1192 86.893 62.1192C85.6892 62.1192 85.1531 61.5112 85.1531 60.6935V57.9302C85.1531 57.7478 85.0716 57.6992 84.9775 57.6992V57.6262H86.0309V57.6992C85.9368 57.6992 85.8553 57.7478 85.8553 57.9302V60.6661C85.8553 61.1404 86.1688 61.5112 86.893 61.5112C87.6171 61.5112 87.9275 61.1404 87.9275 60.6661V57.9302C87.9275 57.7478 87.846 57.6992 87.7519 57.6992V57.6262H88.8053V57.6992C88.7112 57.6992 88.6297 57.7478 88.6297 57.9302V60.6935Z" fill="#1A1A18"/>
<path d="M94.5454 60.1524V61.7514C94.5454 61.9368 94.6269 61.9855 94.7209 61.9855V62.0584H93.6268V61.9855C93.724 61.9855 93.8055 61.9368 93.8055 61.7514V57.9302C93.8055 57.7478 93.724 57.6992 93.6519 57.6992V57.6262H95.7366C96.7429 57.6262 97.2006 58.1613 97.2006 58.7814C97.2006 59.5839 96.837 60.0186 96.1724 60.1281L97.0314 61.7757C97.0526 61.8392 97.0948 61.8941 97.1515 61.9321C97.2081 61.97 97.2761 61.9887 97.3448 61.9855V62.0584H96.1536V61.9855C96.1863 61.9855 96.2177 61.9731 96.2412 61.9509C96.2646 61.9288 96.2782 61.8986 96.279 61.8669C96.278 61.8191 96.2628 61.7727 96.2351 61.7332L95.3981 60.1524H94.5454ZM94.5454 59.5779H95.6739C96.279 59.5779 96.4608 59.3651 96.4608 58.9151C96.4608 58.3558 96.1912 58.1977 95.536 58.1977H94.5454V59.5779Z" fill="#1A1A18"/>
<path d="M102.135 57.9299C102.135 57.7475 102.053 57.6989 101.959 57.6989V57.6259H104.897C105.054 57.6259 105.085 57.5651 105.085 57.48H105.16V58.392H105.079C105.079 58.3068 105.047 58.246 104.891 58.246H102.884V59.4985H104.191C104.348 59.4985 104.38 59.4377 104.38 59.3526H104.452V60.2646H104.376C104.376 60.1794 104.345 60.1186 104.188 60.1186H102.884V61.4684H104.975C105.132 61.4684 105.163 61.4076 105.163 61.3224H105.238V62.2344H105.163C105.163 62.1493 105.132 62.0885 104.975 62.0885H101.969V62.0155C102.063 62.0155 102.144 61.9669 102.144 61.7815L102.135 57.9299Z" fill="#1A1A18"/>
<path d="M113.605 61.7514C113.605 61.9368 113.687 61.9855 113.781 61.9855V62.0584H112.796V61.9855C112.872 61.9855 112.897 61.9855 112.897 61.9308C112.885 61.8623 112.855 61.7982 112.809 61.7453L110.806 58.599V61.7514C110.806 61.9368 110.887 61.9855 110.981 61.9855V62.0584H109.988V61.9855C110.082 61.9855 110.166 61.9368 110.166 61.7514V57.9302C110.166 57.7478 110.082 57.6992 109.988 57.6992V57.6262H111.151V57.6992C111.088 57.7174 111.063 57.7357 111.063 57.7904C111.063 57.8451 111.094 57.8877 111.144 57.9667L112.966 60.7908V57.9302C112.966 57.7478 112.884 57.6992 112.79 57.6992V57.6262H113.781V57.6992C113.687 57.6992 113.605 57.7478 113.605 57.9302V61.7514Z" fill="#1A1A18"/>
<path d="M125.041 57.9299C125.041 57.7475 124.96 57.6989 124.866 57.6989V57.6259H127.803C127.96 57.6259 127.991 57.5651 127.991 57.48H128.067V58.392H127.991C127.991 58.3068 127.96 58.246 127.803 58.246H125.769V59.4985H127.076C127.233 59.4985 127.264 59.4377 127.264 59.3526H127.339V60.2646H127.264C127.264 60.1794 127.233 60.1186 127.076 60.1186H125.769V61.4684H127.86C128.017 61.4684 128.048 61.4076 128.048 61.3224H128.123V62.2344H128.048C128.048 62.1493 128.017 62.0885 127.86 62.0885H124.853V62.0155C124.947 62.0155 125.029 61.9669 125.029 61.7815L125.041 57.9299Z" fill="#1A1A18"/>
<path d="M133.688 57.6262V57.6992C133.607 57.6992 133.575 57.7296 133.575 57.7782C133.584 57.8263 133.603 57.872 133.632 57.912L134.51 59.4319L135.34 57.8633C135.355 57.8394 135.361 57.8119 135.359 57.7843C135.359 57.7478 135.334 57.7174 135.268 57.7053V57.6323H136.274V57.7053C136.093 57.76 136.055 57.8451 135.961 58.0336L134.861 60.0855V61.7514C134.861 61.9368 134.942 61.9855 135.036 61.9855V62.0584H133.92V61.9855C134.014 61.9855 134.096 61.9368 134.096 61.7514V60.0855L132.814 57.8877C132.793 57.8409 132.761 57.7996 132.72 57.7669C132.68 57.7342 132.633 57.711 132.582 57.6992V57.6262H133.688Z" fill="#1A1A18"/>
<path d="M141.001 57.9299C141.001 57.7475 140.92 57.6989 140.826 57.6989V57.6259H143.763C143.92 57.6259 143.951 57.5651 143.951 57.48H144.027V58.392H143.951C143.951 58.3068 143.92 58.246 143.763 58.246H141.757V59.4985H143.064C143.221 59.4985 143.252 59.4377 143.252 59.3526H143.324V60.2646H143.249C143.249 60.1794 143.218 60.1186 143.061 60.1186H141.757V61.4684H143.848C144.005 61.4684 144.036 61.4076 144.036 61.3224H144.111V62.2344H144.036C144.036 62.1493 144.005 62.0885 143.848 62.0885H140.817V62.0155C140.911 62.0155 140.992 61.9669 140.992 61.7815L141.001 57.9299Z" fill="#1A1A18"/>
<path d="M149.635 57.6257V57.6987C149.553 57.6987 149.497 57.7595 149.497 57.8263C149.502 57.8735 149.51 57.9202 149.522 57.9662L150.306 61.0061L151.021 57.9267C151.024 57.8943 151.024 57.8617 151.021 57.8294C151.021 57.7747 150.989 57.7321 150.901 57.7078V57.6348H152.008V57.7078C151.914 57.7078 151.889 57.7686 151.889 57.8172C151.895 57.8831 151.907 57.9483 151.927 58.0118L152.66 61.0061L153.419 57.8963C153.42 57.872 153.42 57.8476 153.419 57.8233C153.421 57.8087 153.419 57.794 153.415 57.78C153.41 57.766 153.402 57.7531 153.392 57.7422C153.382 57.7313 153.37 57.7226 153.356 57.7166C153.342 57.7107 153.327 57.7077 153.312 57.7078V57.6348H154.253V57.7078C154.207 57.7244 154.166 57.7521 154.134 57.7883C154.102 57.8245 154.081 57.8679 154.071 57.9145L153.074 61.7782C153.068 61.8155 153.068 61.8534 153.074 61.8907C153.074 61.9758 153.118 61.988 153.206 61.988V62.061H152.133V61.988C152.221 61.988 152.246 61.9394 152.246 61.8755C152.246 61.8363 152.24 61.7973 152.228 61.76L151.475 58.7383L150.767 61.7934C150.762 61.8288 150.762 61.8645 150.767 61.8998C150.767 61.9363 150.792 61.9789 150.879 61.9789V62.0518H149.82V61.9789C149.901 61.9789 149.926 61.9424 149.926 61.8938C149.924 61.8349 149.913 61.7767 149.895 61.7205L148.807 57.8993C148.8 57.8516 148.78 57.8068 148.748 57.7702C148.715 57.7336 148.673 57.7066 148.625 57.6926V57.6196L149.635 57.6257Z" fill="#1A1A18"/>
<path d="M159.053 57.9299C159.053 57.7475 158.971 57.6989 158.877 57.6989V57.6259H161.821C161.978 57.6259 162.009 57.5651 162.009 57.48H162.084V58.392H162.009C162.009 58.3068 161.978 58.246 161.821 58.246H159.799V59.4985H161.106C161.263 59.4985 161.294 59.4377 161.294 59.3526H161.37V60.2646H161.294C161.294 60.1794 161.263 60.1186 161.106 60.1186H159.799V61.4684H161.89C162.047 61.4684 162.078 61.4076 162.078 61.3224H162.134V62.2344H162.059C162.059 62.1493 162.028 62.0885 161.871 62.0885H158.865V62.0155C158.959 62.0155 159.04 61.9669 159.04 61.7815L159.053 57.9299Z" fill="#1A1A18"/>
<path d="M167.808 60.866L167.495 61.7354C167.479 61.7809 167.469 61.8277 167.463 61.8752C167.464 61.9046 167.475 61.9329 167.494 61.9555C167.514 61.9781 167.54 61.9937 167.57 61.9999V62.0728H166.629V61.9999C166.736 61.9999 166.786 61.9573 166.861 61.7293L168.144 57.9932C168.162 57.9465 168.172 57.8973 168.175 57.8473C168.175 57.7744 168.15 57.7257 168.065 57.7136V57.6406H169.253V57.7136C169.22 57.7195 169.19 57.737 169.17 57.7627C169.149 57.7885 169.138 57.8208 169.14 57.8534C169.143 57.9033 169.154 57.9526 169.172 57.9993L170.426 61.7719C170.457 61.8692 170.495 61.9999 170.595 61.9999V62.0728H169.576V61.9999C169.664 61.9999 169.689 61.9452 169.689 61.8631C169.684 61.7887 169.669 61.7152 169.645 61.6442L169.382 60.866H167.808ZM168.015 60.258H169.197L168.633 58.4675L168.015 60.258Z" fill="#1A1A18"/>
<path d="M176.104 60.1524V61.7514C176.104 61.9368 176.185 61.9855 176.279 61.9855V62.0584H175.188V61.9855C175.282 61.9855 175.364 61.9368 175.364 61.7514V57.9302C175.364 57.7478 175.282 57.6992 175.213 57.6992V57.6262H177.298C178.301 57.6262 178.759 58.1613 178.759 58.7814C178.759 59.5839 178.395 60.0186 177.731 60.1281L178.59 61.7757C178.611 61.8392 178.653 61.8941 178.71 61.9321C178.766 61.97 178.834 61.9887 178.903 61.9855V62.0584H177.712V61.9855C177.744 61.9855 177.776 61.9731 177.799 61.9509C177.823 61.9288 177.836 61.8986 177.837 61.8669C177.836 61.8191 177.821 61.7727 177.793 61.7332L176.956 60.1524H176.104ZM176.104 59.5779H177.235C177.837 59.5779 178.019 59.3651 178.019 58.9151C178.019 58.3558 177.749 58.1977 177.094 58.1977H176.104V59.5779Z" fill="#1A1A18"/>
</g>
<defs>
<clipPath id="clip0_906_26">
<rect width="158" height="25.5354" fill="white" transform="translate(21 37)"/>
</clipPath>
</defs>
</svg>
