<svg width="200" height="100" viewBox="0 0 200 100" fill="none" xmlns="http://www.w3.org/2000/svg">
<g clip-path="url(#clip0_903_1422)">
<path d="M98.8792 53.1619C97.0436 53.1619 95.5126 60.3596 94.0168 60.2868C92.7535 60.2266 93.8084 55.3215 91.8734 55.3088C90.6871 55.3009 90.3312 57.269 89.7893 58.9505C89.7588 59.0471 88.8819 62.4464 87.5449 62.4464C86.6968 62.4464 85.9562 61.7767 85.9562 59.7944C85.9562 58.8681 85.9097 57.4875 84.7875 57.2611C82.8444 56.8637 83.2885 58.8349 81.5811 58.5166C76.9721 57.6585 73.4836 67.0064 76.2907 68.2588C79.6574 69.7582 82.1022 63.8683 83.1057 64.0313C83.8721 64.1548 83.3751 66.6913 85.7862 66.5298C87.7533 66.3984 89.3035 62.3878 90.0698 62.4353C90.748 62.4765 90.1564 64.8483 91.8526 64.937C93.8389 65.0399 94.6581 61.7846 95.5623 61.7704C95.7899 61.7704 95.8829 61.9287 95.8685 62.7362C95.8428 63.8239 95.6953 77.6194 95.6729 78.0722C95.6312 78.9224 96.048 78.9937 96.2356 78.9937C96.3638 78.9937 98.2716 78.9541 98.6403 78.9398C99.009 78.9256 99.0716 78.5836 99.0668 78.3778C99.0668 78.2938 99.3313 58.2902 99.3505 53.9583C99.3585 53.1619 99.0187 53.1619 98.8792 53.1619ZM82.5174 61.3951C82.0573 63.0259 80.1912 65.7081 79.3111 65.7904C79.0514 65.8157 78.6698 65.6796 78.6875 65.0906C78.7211 63.7131 80.8998 60.5892 81.7992 60.3517C82.418 60.1902 82.6905 60.7824 82.5174 61.3983V61.3951Z" fill="black"/>
<path d="M156.279 44.2668C152.697 46.5009 153.393 38.2375 151.208 38.2375C148.83 38.2375 148.136 43.1363 147.29 43.2187C146.252 43.32 147.676 39.6277 145.621 39.71C143.355 39.8019 142.094 47.9132 140.444 47.2862C138.756 46.6418 139.963 42.3557 138.067 42.0423C137.089 41.8839 136.887 42.655 136.303 43.0287C135.43 43.5876 133.862 42.6154 131.399 45.4495C128.613 48.6526 127.762 53.8269 129.886 54.1736C132.744 54.6486 135.349 49.829 136.01 49.2099C136.93 48.3454 136.417 51.7052 138.896 51.7543C141.517 51.8066 142.304 47.5348 143.064 47.5759C143.718 47.6124 142.96 49.8163 144.208 49.9747C146.913 50.3151 148.394 43.3137 149.508 43.4672C150.623 43.6208 150.203 47.796 152.875 48.0588C155.15 48.2821 156.708 45.2089 156.92 44.7608C157.131 44.3127 156.779 43.9549 156.279 44.2668ZM135.899 46.4692C135.381 47.9243 133.884 50.2692 132.964 50.4275C132.643 50.4829 132.265 50.1757 132.289 49.6358C132.347 48.385 134.469 45.7298 135.335 45.5335C135.918 45.3973 136.112 45.8755 135.899 46.4692Z" fill="black"/>
<path d="M83.8352 73.3317C84.4765 73.6373 85.3598 74.2057 84.9061 75.2317C84.5855 75.9585 84.2729 76.5269 84.2055 76.6409C83.8112 77.3059 82.8573 77.7049 81.7158 77.1729C79.8914 76.321 70.0898 71.6993 69.7787 71.5553C69.4325 71.3969 68.873 71.5125 68.8714 72.4625C68.8698 73.4125 68.8714 74.7441 68.8714 75.0401C68.8714 75.3885 68.9195 76.2466 68.198 76.7517C67.4317 77.2884 66.1781 78.0184 65.9536 78.1355C65.633 78.2939 64.8314 78.9129 64.8218 77.6209C64.8009 75.0528 64.7993 70.287 64.8009 70.021C64.8026 69.755 64.8603 69.2484 64.0859 68.9C63.3902 68.5834 58.9558 66.5251 58.6785 66.3921C58.3226 66.2337 58.0549 65.6004 58.7811 65.1682C59.6436 64.6536 63.9577 62.1599 64.2559 61.9525C64.7561 61.5994 64.7561 61.2621 64.7609 60.2361C64.7609 59.0803 64.6951 44.061 64.7032 43.8188C64.7176 43.4277 64.6647 43.1031 65.3444 42.6756L67.1977 41.4897C67.6193 41.219 68.9146 40.6822 68.8938 42.123C68.881 43.0936 68.8938 56.8336 68.8938 57.1993C68.8938 57.7013 69.1375 58.466 69.9583 57.8691C79.7744 50.7078 81.0778 44.6532 79.1219 40.649C75.1269 32.4696 54.3708 45.5256 45.3899 52.8405C43.9792 53.9884 44.0128 53.4738 44.0112 52.926C44.0112 52.2705 44.0401 49.8417 44.093 49.3936C44.1715 48.7492 44.3335 46.6561 46.2749 45.2643C48.1538 43.9185 73.8892 27.5454 81.368 38.0682C85.0151 43.1997 82.7884 51.2999 69.8252 60.7096C69.0333 61.2843 68.8874 61.4727 68.8874 62.5114C68.8874 63.55 68.8633 65.1159 68.8874 65.4136C68.9114 65.7112 68.9419 66.3382 69.5671 66.6517C70.1924 66.9652 83.2982 73.0737 83.8352 73.3317Z" fill="black"/>
<path d="M108.487 52.3529C107.533 51.2968 105.622 51.3142 104.158 52.2088C102.219 53.3884 101.702 55.2329 102.655 56.289C103.607 57.3451 105.887 57.1218 107.283 56.2051C108.873 55.1569 109.439 53.409 108.487 52.3529Z" fill="black"/>
<path d="M123.01 24.2061C127.574 28.6394 119.804 37.0547 117.923 39.2191C117.08 40.1897 116.299 41.6353 117.622 43.0191C118.944 44.4029 120.36 45.7281 121.511 46.781C122.931 48.0793 122.51 50.5097 121.61 51.827C121.012 52.701 119.672 54.2464 118.13 56.1938C116.588 58.1413 115.18 59.9289 115.023 60.1252C114.589 60.6465 114.333 61.2899 114.291 61.9634C114.25 62.637 114.424 63.3064 114.79 63.8761C116.451 66.4189 116.61 66.3809 117.668 64.5664C119.432 61.5439 121.753 58.7351 123.521 56.7448C124.486 55.67 125.382 54.5373 126.205 53.3534C127.808 51.0971 127.957 48.6873 126.341 47.2988C124.201 45.459 121.726 43.8519 119.682 42.3113C118.5 41.4231 119.319 40.3274 120.583 39.3933C125.072 36.0683 131.351 30.5093 128.473 23.8135C125.69 17.3361 112.585 22.3331 112.054 35.7342C111.865 40.5143 112.506 53.7318 112.147 57.0393C111.937 58.9646 112.679 58.7493 113.391 58.4643C114.042 58.1983 116.544 56.9902 116.414 53.8426C116.285 50.695 115.994 37.0262 115.898 35.6092C115.417 28.2341 120.047 21.3245 123.01 24.2061Z" fill="black"/>
</g>
<defs>
<clipPath id="clip0_903_1422">
<rect width="113" height="58" fill="white" transform="translate(44 21)"/>
</clipPath>
</defs>
</svg>
