<svg width="200" height="100" viewBox="0 0 200 100" fill="none" xmlns="http://www.w3.org/2000/svg">
<path d="M43.4107 34.9727L48.5024 23.4688H51.7693L43.4107 41.6978L35 23.4688H38.3191L43.4107 34.9727Z" fill="black"/>
<path d="M61.9532 32.0537C61.9532 27.0316 65.9327 23 70.9374 23C75.9596 23 79.9217 27.0316 79.9217 32.0537C79.9217 37.0758 75.9248 41.0379 70.9374 41.0379C65.9675 41.0379 61.9532 37.0758 61.9532 32.0537ZM64.8727 32.019C64.8727 35.5118 67.3403 38.3444 70.9548 38.3444C74.552 38.3444 77.037 35.5118 77.037 32.019C77.037 28.5608 74.5694 25.6935 70.9548 25.6935C67.3403 25.6935 64.8727 28.5608 64.8727 32.019Z" fill="black"/>
<path d="M108.281 39.7346C108.281 42.4629 108.281 44.8262 106.543 47.0853C104.944 49.1185 102.476 50.109 99.922 50.109C95.1605 50.109 91.6329 47.0853 91.5112 42.2543H94.4133C94.448 45.4171 96.7419 47.4155 99.8698 47.4155C104.388 47.4155 105.361 44.0964 105.361 40.2559V38.2054H105.292C103.901 39.9953 101.66 41.0379 99.3659 41.0379C94.3785 41.0379 91.2158 36.8499 91.2158 32.0885C91.2158 27.2923 94.4133 23 99.4702 23C101.834 23 103.901 24.06 105.292 25.9021H105.361V23.4692H108.263V39.7346H108.281ZM94.1874 31.8452C94.1874 35.199 96.151 38.3618 99.783 38.3618C103.537 38.3618 105.5 35.3381 105.5 31.8799C105.5 28.4566 103.345 25.6935 99.7482 25.6935C96.377 25.6935 94.1874 28.6303 94.1874 31.8452Z" fill="black"/>
<path d="M125.554 33.009C125.554 35.8763 125.884 38.3613 129.412 38.3613C132.94 38.3613 133.27 35.8937 133.27 33.009V23.4688H136.172V33.3218C136.172 37.8747 134.469 41.0375 129.412 41.0375C124.355 41.0375 122.652 37.8747 122.652 33.3218V23.4688H125.554V33.009Z" fill="black"/>
<path d="M151.864 32.6445C151.899 35.8073 154.158 38.3618 157.46 38.3618C159.927 38.3618 161.526 36.8673 162.656 34.8341L165.123 36.2591C163.49 39.3175 160.727 41.0553 157.234 41.0553C152.142 41.0553 148.875 37.1627 148.875 32.2449C148.875 27.188 151.829 23 157.164 23C162.656 23 165.575 27.5529 165.28 32.6445H151.864ZM162.221 30.1596C161.821 27.6919 159.753 25.6935 157.199 25.6935C154.697 25.6935 152.368 27.6919 152.003 30.1596H162.221Z" fill="black"/>
<path d="M56.2887 69.3111C56.306 70.875 57.4008 72.1436 58.9995 72.1436C60.1986 72.1436 60.9632 71.4137 61.5193 70.3885L62.7183 71.0836C61.919 72.5954 60.5983 73.4643 58.8953 73.4643C56.4277 73.4643 54.8463 71.5354 54.8463 69.1025C54.8463 66.6002 56.2713 64.5322 58.8605 64.5322C61.5193 64.5322 62.9269 66.7913 62.7879 69.3111H56.2887ZM61.3108 68.0946C61.1196 66.8782 60.1117 65.8703 58.8779 65.8703C57.6615 65.8703 56.5319 66.8608 56.3582 68.0946H61.3108Z" fill="black"/>
<path d="M67.7406 64.7754H69.3741L72.2935 70.8402L74.9697 64.7754H76.5684L70.4689 77.9997H68.8701L71.5463 72.4563L67.7406 64.7754Z" fill="black"/>
<path d="M82.9798 69.3111C82.9972 70.875 84.092 72.1436 85.6907 72.1436C86.8898 72.1436 87.6544 71.4137 88.2105 70.3885L89.4095 71.0836C88.6101 72.5954 87.2895 73.4643 85.5864 73.4643C83.1188 73.4643 81.5375 71.5354 81.5375 69.1025C81.5375 66.6002 82.9624 64.5322 85.5517 64.5322C88.2105 64.5322 89.618 66.7913 89.479 69.3111H82.9798ZM87.9846 68.0946C87.7934 66.8782 86.7855 65.8703 85.5517 65.8703C84.3353 65.8703 83.2057 66.8608 83.0319 68.0946H87.9846Z" fill="black"/>
<path d="M98.5679 70.5099L101.14 64.1323L103.729 70.5099L106.197 64.7753H107.795L103.694 73.829L101.14 67.521L98.5853 73.829L94.5189 64.7753H96.1177L98.5679 70.5099Z" fill="black"/>
<path d="M114.279 69.3111C114.296 70.875 115.391 72.1436 116.989 72.1436C118.188 72.1436 118.953 71.4137 119.509 70.3885L120.708 71.0836C119.909 72.5954 118.588 73.4643 116.885 73.4643C114.418 73.4643 112.836 71.5354 112.836 69.1025C112.836 66.6002 114.261 64.5322 116.85 64.5322C119.509 64.5322 120.917 66.7913 120.778 69.3111H114.279ZM119.283 68.0946C119.092 66.8782 118.084 65.8703 116.85 65.8703C115.634 65.8703 114.504 66.8608 114.331 68.0946H119.283Z" fill="black"/>
<path d="M134.644 73.2386H133.236V72.0743H133.202C132.472 73.0127 131.516 73.4819 130.352 73.4819C127.919 73.4819 126.39 71.3792 126.39 69.0332C126.39 66.6177 127.884 64.5498 130.369 64.5498C131.499 64.5498 132.524 65.0885 133.202 65.9921H133.236V64.7931H134.644V73.2386ZM127.832 68.9116C127.832 70.5624 128.788 72.1438 130.543 72.1438C132.35 72.1438 133.306 70.6493 133.306 68.9289C133.306 67.2433 132.263 65.8705 130.525 65.8705C128.892 65.8705 127.832 67.3302 127.832 68.9116Z" fill="black"/>
<path d="M142.986 65.6967H143.02C143.507 65.0364 143.941 64.5498 144.845 64.5498C145.314 64.5498 145.714 64.7062 146.114 64.9495L145.453 66.2702C145.175 66.079 144.984 65.8879 144.602 65.8879C143.055 65.8879 142.986 67.921 142.986 69.0158V73.256H141.578V64.7931H142.986V65.6967Z" fill="black"/>
</svg>
