<?xml version="1.0" encoding="utf-8"?><svg xmlns="http://www.w3.org/2000/svg" xmlns:xlink="http://www.w3.org/1999/xlink"><symbol fill="none" viewBox="0 0 13 12" id="018-bold" xmlns="http://www.w3.org/2000/svg"><path d="M4.353 11.854l-.707-.707L8.793 6 3.646.853l.707-.707L10.207 6l-5.854 5.854z" fill="#555"/></symbol><symbol fill="none" viewBox="0 0 13 12" id="020-bold" xmlns="http://www.w3.org/2000/svg"><path d="M8.647 11.854L2.793 6 8.647.146l.707.707L4.207 6l5.147 5.146-.707.707z" fill="#555"/></symbol><symbol fill="none" viewBox="0 0 48 48" id="039" xmlns="http://www.w3.org/2000/svg"><path d="M24 0C10.767 0 0 10.767 0 24s10.767 24 24 24 24-10.767 24-24S37.233 0 24 0zm0 46C11.869 46 2 36.131 2 24S11.869 2 24 2s22 9.869 22 22-9.869 22-22 22z"/><path d="M19 14h-2v20h2V14zM31 14h-2v20h2V14z"/></symbol><symbol fill="none" viewBox="0 0 48 48" id="040" xmlns="http://www.w3.org/2000/svg"><path d="M24 0C10.767 0 0 10.767 0 24s10.767 24 24 24 24-10.767 24-24S37.233 0 24 0zm0 46C11.869 46 2 36.131 2 24S11.869 2 24 2s22 9.869 22 22-9.869 22-22 22z"/><path d="M33.286 22.304L19.06 13.412a1.981 1.981 0 00-1.056-.307c-1.042 0-2.004.831-2.004 2.003v17.783c0 1.172.963 2.003 2.004 2.003.354 0 .718-.096 1.056-.307l14.226-8.892c1.254-.782 1.254-2.608 0-3.391zM18 32.891l.008-17.778L32.226 24 18 32.891z"/></symbol></svg>