<svg xmlns="http://www.w3.org/2000/svg" width="512px" height="512px" class="">
  <g id="XMLID_1_">
    <path id="XMLID_5_"
      d="M256,0C114.5,0,0,114.5,0,256s114.5,256,256,256s256-114.5,256-256S397.5,0,256,0z M321.2,349.1L256,283.9
      l-65.2,65.2c-7.4,7.4-20.5,7.4-27.9,0c-3.7-3.7-5.6-9.3-5.6-14c0-4.7,1.9-10.2,5.6-14l65.2-65.2l-65.2-65.2
      c-3.7-3.7-5.6-9.3-5.6-14s1.9-10.2,5.6-14c7.4-7.4,20.5-7.4,27.9,0l65.2,65.2l65.2-65.2c7.4-7.4,20.5-7.4,27.9,0s7.4,20.5,0,27.9
      L283.9,256l65.2,65.2c7.4,7.4,7.4,20.5,0,27.9C340.7,356.5,328.6,356.5,321.2,349.1L321.2,349.1z"
      fill="#767676"
    ></path>
  </g>
</svg>
