<svg width="48" height="48" viewBox="0 0 48 48"  xmlns="http://www.w3.org/2000/svg">
<path d="M28 45.7549L10.239 29.7699C9.687 29.2729 8.974 28.9999 8.232 28.9999H2V18.9999H8.232C8.974 18.9999 9.687 18.7269 10.238 18.2299L28 2.24487V13.9999H30V2.24487C30 1.44387 29.545 0.743872 28.814 0.417872C28.083 0.0918723 27.258 0.221872 26.662 0.757872L8.902 16.7429C8.717 16.9089 8.48 16.9999 8.232 16.9999H2C0.897 16.9999 0 17.8969 0 18.9999V28.9999C0 30.1029 0.897 30.9999 2 30.9999H8.232C8.48 30.9999 8.717 31.0909 8.901 31.2559L26.662 47.2409C27.04 47.5819 27.511 47.7589 27.992 47.7589C28.268 47.7589 28.547 47.7009 28.813 47.5819C29.545 47.2559 30 46.5559 30 45.7539V33.9999H28V45.7549Z" />
<path d="M35.707 18.707L34.293 17.293L29 22.586L23.707 17.293L22.293 18.707L27.586 24L22.293 29.293L23.707 30.707L29 25.414L34.293 30.707L35.707 29.293L30.414 24L35.707 18.707Z" />
</svg>
