<svg width="32" height="32" viewBox="0 0 32 32" fill="none" xmlns="http://www.w3.org/2000/svg">
<path d="M16 0C7.178 0 0 7.178 0 16C0 24.822 7.178 32 16 32C24.822 32 32 24.822 32 16C32 7.178 24.822 0 16 0ZM16 30.6667C7.91267 30.6667 1.33333 24.0873 1.33333 16C1.33333 7.91267 7.91267 1.33333 16 1.33333C24.0873 1.33333 30.6667 7.91267 30.6667 16C30.6667 24.0873 24.0873 30.6667 16 30.6667Z" fill="#222222"/>
<path d="M16.6667 4.66667H15.3333V16.276L23.5287 24.4713L24.4713 23.5287L16.6667 15.724V4.66667Z" fill="#222222"/>
</svg>
