<svg width="32" height="32" viewBox="0 0 32 32" fill="none" xmlns="http://www.w3.org/2000/svg">
<path d="M16 9.3335C12.324 9.3335 9.33333 12.3242 9.33333 16.0002C9.33333 19.6762 12.324 22.6668 16 22.6668C19.676 22.6668 22.6667 19.6762 22.6667 16.0002C22.6667 12.3242 19.676 9.3335 16 9.3335ZM16 21.3335C13.0593 21.3335 10.6667 18.9408 10.6667 16.0002C10.6667 13.0595 13.0593 10.6668 16 10.6668C18.9407 10.6668 21.3333 13.0595 21.3333 16.0002C21.3333 18.9408 18.9407 21.3335 16 21.3335Z" fill="#222222"/>
<path d="M16 17.3335C16.7364 17.3335 17.3333 16.7365 17.3333 16.0002C17.3333 15.2638 16.7364 14.6668 16 14.6668C15.2636 14.6668 14.6667 15.2638 14.6667 16.0002C14.6667 16.7365 15.2636 17.3335 16 17.3335Z" fill="#222222"/>
<path d="M31.854 15.3888C28.8013 9.40083 22.848 5.3335 16 5.3335C9.152 5.3335 3.19867 9.40083 0.146 15.3888C-0.0486667 15.7702 -0.0486667 16.2308 0.146 16.6122C3.19867 22.5995 9.152 26.6668 16 26.6668C22.848 26.6668 28.8013 22.5995 31.854 16.6115C32.0487 16.2302 32.0487 15.7702 31.854 15.3888ZM16 25.3335C9.88667 25.3335 4.26667 21.7595 1.334 15.9942C4.26667 10.2408 9.88667 6.66683 16 6.66683C22.1133 6.66683 27.7333 10.2408 30.666 16.0062C27.7333 21.7595 22.1133 25.3335 16 25.3335Z" fill="#222222"/>
</svg>
