<svg width="32" height="32" viewBox="0 0 32 32" fill="none" xmlns="http://www.w3.org/2000/svg">
<g clip-path="url(#clip0_3480_8288)">
<path d="M31.854 15.3887C28.9013 9.59667 23.232 5.61333 16.6667 5.358V0H15.3333V5.358C8.768 5.61333 3.09867 9.59667 0.146 15.3887C-0.0486667 15.77 -0.0486667 16.2307 0.146 16.612C3.09867 22.4033 8.768 26.3867 15.3333 26.642V32H16.6667V26.642C23.232 26.3867 28.9013 22.4033 31.854 16.6113C32.0487 16.23 32.0487 15.77 31.854 15.3887ZM15.3333 21.2873C12.7067 20.9573 10.6667 18.7147 10.6667 16C10.6667 13.2853 12.7067 11.0427 15.3333 10.7127V21.2873ZM16.6667 10.7127C19.2933 11.0427 21.3333 13.2853 21.3333 16C21.3333 18.7147 19.2933 20.9573 16.6667 21.2873V10.7127ZM1.334 15.994C4.15933 10.4507 9.48067 6.94067 15.3333 6.69067V9.36667C11.9693 9.702 9.33333 12.5487 9.33333 15.9993C9.33333 19.45 11.9693 22.2967 15.3333 22.632V25.308C9.48067 25.0593 4.15933 21.5487 1.334 15.994ZM16.6667 25.3093V22.6333C20.0307 22.298 22.6667 19.4513 22.6667 16.0007C22.6667 12.55 20.0307 9.70333 16.6667 9.368V6.692C22.5193 6.942 27.8407 10.4527 30.666 16.0073C27.8407 21.5493 22.5193 25.0593 16.6667 25.3093Z" fill="#222222"/>
</g>
<defs>
<clipPath id="clip0_3480_8288">
<rect width="32" height="32" fill="white"/>
</clipPath>
</defs>
</svg>
