<svg width="32" height="32" viewBox="0 0 32 32" fill="none" xmlns="http://www.w3.org/2000/svg">
<path d="M4.5091 11.8155L5.79043 12.1842C6.31443 10.3628 7.75176 7.2215 11.4891 6.6495L11.2871 5.3315C8.0211 5.83083 5.5511 8.19416 4.5091 11.8155Z" fill="#222222"/>
<path d="M11.0331 29.3335C9.1771 29.3335 7.5371 28.7775 6.16176 27.6855C2.13576 24.4542 0.273762 17.0968 1.92376 10.9362C2.61576 8.35283 4.54643 3.9015 9.67976 3.1095C11.8651 2.81616 14.0638 2.66683 16.2151 2.66683C22.8218 2.66683 27.8998 4.09216 29.7984 6.48016C30.6171 7.5095 30.8538 8.72083 30.5204 10.1815C29.8591 12.6988 28.8111 15.1622 27.4424 17.4608C27.9018 17.5368 28.3484 17.6468 28.7804 17.7922C30.0924 15.5248 31.1424 13.0662 31.8151 10.5002C33.3358 3.9175 25.2058 1.3335 16.2151 1.3335C13.9851 1.3335 11.7044 1.49216 9.50176 1.78816C-2.14824 3.58416 -2.52757 22.4208 5.32776 28.7248C7.00776 30.0602 8.96043 30.6668 11.0331 30.6668C13.2184 30.6668 15.5378 29.9888 17.8151 28.7855C17.6691 28.3562 17.5584 27.9115 17.4811 27.4542C15.2638 28.6735 13.0491 29.3335 11.0331 29.3335Z" fill="#222222"/>
<path d="M20.6664 26.6735C21.0346 26.6735 21.3331 26.375 21.3331 26.0068C21.3331 25.6386 21.0346 25.3402 20.6664 25.3402C20.2982 25.3402 19.9998 25.6386 19.9998 26.0068C19.9998 26.375 20.2982 26.6735 20.6664 26.6735Z" fill="#222222"/>
<path d="M20.7998 23.0068C20.6131 23.3268 20.7264 23.7335 21.0398 23.9202C21.1464 23.9802 21.2598 24.0068 21.3731 24.0068C21.6064 24.0068 21.8264 23.8868 21.9531 23.6735C22.1398 23.3542 22.0264 22.9468 21.7064 22.7602C21.3864 22.5802 20.9798 22.6868 20.7998 23.0068Z" fill="#222222"/>
<path d="M23.6664 30.0402C23.3464 29.8602 22.9398 29.9675 22.7531 30.2868C22.5731 30.6068 22.6798 31.0135 22.9998 31.2002C23.1064 31.2602 23.2198 31.2868 23.3331 31.2868C23.5598 31.2868 23.7864 31.1668 23.9131 30.9535C24.0931 30.6335 23.9864 30.2268 23.6664 30.0402Z" fill="#222222"/>
<path d="M23.3264 22.0535C23.4398 22.0535 23.5531 22.0268 23.6598 21.9595H23.6531C23.9731 21.7795 24.0864 21.3662 23.8998 21.0535C23.7131 20.7335 23.3064 20.6262 22.9864 20.8068C22.6664 20.9935 22.5598 21.4002 22.7464 21.7202C22.8664 21.9328 23.0931 22.0535 23.3264 22.0535Z" fill="#222222"/>
<path d="M21.0464 28.0935C20.7264 28.2802 20.6198 28.6875 20.8064 29.0068C20.9264 29.2202 21.1531 29.3335 21.3798 29.3335C21.4931 29.3335 21.6131 29.3068 21.7131 29.2468C22.0331 29.0602 22.1398 28.6528 21.9598 28.3335C21.7731 28.0135 21.3664 27.9062 21.0464 28.0935Z" fill="#222222"/>
<path d="M25.9998 20.0002C25.6318 20.0002 25.3331 20.2982 25.3331 20.6668V31.3335C25.3331 31.7022 25.6318 32.0002 25.9998 32.0002C29.3078 32.0002 31.9998 29.3088 31.9998 26.0002C31.9998 22.6915 29.3078 20.0002 25.9998 20.0002ZM26.6664 30.6195V21.3808C28.9251 21.7048 30.6664 23.6528 30.6664 26.0002C30.6664 28.3475 28.9251 30.2948 26.6664 30.6195Z" fill="#222222"/>
</svg>
