<svg width="32" height="32" viewBox="0 0 32 32" fill="none" xmlns="http://www.w3.org/2000/svg">
<g clip-path="url(#clip0_3480_8929)">
<path d="M4.5091 11.8155L5.79043 12.1842C6.31443 10.3628 7.75176 7.2215 11.4891 6.6495L11.2871 5.3315C8.0211 5.83083 5.5511 8.19416 4.5091 11.8155Z" fill="#222222"/>
<path d="M16.2151 1.3335C13.9851 1.3335 11.7044 1.49216 9.50176 1.78816C-2.14824 3.58416 -2.52757 22.4208 5.32776 28.7248C7.00776 30.0602 8.96043 30.6668 11.0331 30.6668C13.8084 30.6668 16.7991 29.5795 19.6464 27.7015C19.6458 27.6655 19.6411 27.6308 19.6411 27.5955C19.6411 27.2975 19.6451 26.7888 19.8998 25.8962C16.9071 28.1028 13.7851 29.3335 11.0331 29.3335C9.1771 29.3335 7.5371 28.7775 6.16176 27.6855C2.13576 24.4542 0.273762 17.0968 1.92376 10.9362C2.61576 8.35283 4.54643 3.9015 9.67976 3.1095C11.8651 2.81616 14.0638 2.66683 16.2151 2.66683C22.8218 2.66683 27.8998 4.09216 29.7984 6.48016C30.6171 7.5095 30.8538 8.72083 30.5204 10.1815C29.8638 12.6808 28.8244 15.1262 27.4704 17.4108C27.9191 17.4935 28.3484 17.6428 28.7398 17.8635C30.0711 15.5768 31.1364 13.0935 31.8158 10.5002C33.3358 3.9175 25.2058 1.3335 16.2151 1.3335Z" fill="#222222"/>
<path d="M26.7124 20.0002C26.2344 20.0002 25.7571 20.2302 25.4691 20.6895C24.1664 22.7695 22.3078 26.0142 22.3078 27.5948C22.3078 30.0275 24.2798 32.0002 26.7131 32.0002C29.1458 32.0002 31.1184 30.0282 31.1184 27.5948C31.1184 26.0142 29.2598 22.7695 27.9571 20.6895C27.6678 20.2302 27.1898 20.0002 26.7124 20.0002ZM26.7124 30.6668V21.3335C26.7858 21.3335 26.8138 21.3782 26.8258 21.3975C29.0071 24.8802 29.7838 26.8822 29.7838 27.5948C29.7838 29.2888 28.4058 30.6668 26.7124 30.6668Z" fill="#222222"/>
</g>
<defs>
<clipPath id="clip0_3480_8929">
<rect width="32" height="32" fill="white"/>
</clipPath>
</defs>
</svg>