<svg width="32" height="32" viewBox="0 0 32 32" fill="none" xmlns="http://www.w3.org/2000/svg">
<path d="M4 14.0002H0V15.3335H4V14.0002Z" fill="#222222"/>
<path d="M4.3764 4.76736L3.4336 5.71016L6.262 8.53856L7.2048 7.59576L4.3764 4.76736Z" fill="#222222"/>
<path d="M14 1.3335H12.6667V5.3335H14V1.3335Z" fill="#222222"/>
<path d="M22.2898 4.76723L19.4614 7.59563L20.4042 8.53843L23.2326 5.71003L22.2898 4.76723Z" fill="#222222"/>
<path d="M29.036 24.0202C29.2333 23.2448 29.3333 22.4568 29.3333 21.6668C29.3333 16.7562 25.6493 12.6982 20.902 12.0882C19.8073 8.87616 16.7613 6.66683 13.3333 6.66683C8.922 6.66683 5.33333 10.2555 5.33333 14.6668C5.33333 16.6942 6.08933 18.5848 7.40933 20.0348C4.746 20.3302 2.66667 22.5928 2.66667 25.3335C2.66667 28.2742 5.05933 30.6668 8 30.6668H28.6667C30.5047 30.6668 32 29.1715 32 27.3335C32 25.6202 30.7007 24.2048 29.036 24.0202ZM13.3333 8.00016C16.006 8.00016 18.4 9.6115 19.4447 12.0108C14.67 12.1222 10.6933 15.7642 10.0867 20.4262C9.99467 20.3868 9.9 20.3568 9.80667 20.3228C7.84067 19.0935 6.66667 16.9835 6.66667 14.6668C6.66667 10.9908 9.65733 8.00016 13.3333 8.00016ZM28.6667 29.3335H8C5.794 29.3335 4 27.5395 4 25.3335C4 23.1275 5.794 21.3335 8 21.3335C8.82267 21.3335 9.61533 21.5842 10.292 22.0582L11.3413 21.5235C11.4173 17.0082 15.1527 13.3335 19.6667 13.3335C24.262 13.3335 28 17.0715 28 21.6668C28 22.6195 27.8307 23.5715 27.496 24.4962L28.2587 25.3755C28.3927 25.3475 28.53 25.3335 28.6667 25.3335C29.7693 25.3335 30.6667 26.2308 30.6667 27.3335C30.6667 28.4362 29.7693 29.3335 28.6667 29.3335Z" fill="#222222"/>
</svg>
