<svg width="32" height="32" viewBox="0 0 32 32" fill="none" xmlns="http://www.w3.org/2000/svg">
<path d="M25.3334 16C25.3334 11.0787 21.5021 7.04467 16.6667 6.70067V0H15.3334V32H16.6667V25.2993C21.5021 24.9553 25.3334 20.9213 25.3334 16ZM16.6667 12.06C18.5554 12.3787 20.0001 14.0213 20.0001 16C20.0001 17.9787 18.5554 19.6207 16.6667 19.94V12.06ZM16.6667 23.966V21.2867C19.2934 20.9567 21.3334 18.714 21.3334 15.9993C21.3334 13.2847 19.2934 11.042 16.6667 10.712V8.03267C20.7661 8.37333 24.0001 11.8127 24.0001 15.9987C24.0001 20.1847 20.7661 23.6253 16.6667 23.966Z" fill="#222222"/>
<path d="M8.59342 20.5533C8.29342 20.7667 8.22675 21.1867 8.44675 21.48C8.57342 21.66 8.78008 21.76 8.98675 21.76C9.12008 21.76 9.26008 21.7133 9.37342 21.6267C9.67342 21.4133 9.74008 21 9.52675 20.7C9.30675 20.4 8.89342 20.3333 8.59342 20.5533Z" fill="#222222"/>
<path d="M7.55341 13.9533C7.62008 13.98 7.68675 13.9867 7.75341 13.9867C8.03341 13.9867 8.30008 13.8067 8.39341 13.5267C8.50675 13.1733 8.31341 12.8 7.96008 12.6867C7.61341 12.5733 7.23341 12.7667 7.12008 13.1133C7.00675 13.4667 7.20008 13.84 7.55341 13.9533Z" fill="#222222"/>
<path d="M8.38675 18.4733C8.27341 18.12 7.90008 17.9267 7.54675 18.04C7.20008 18.1533 7.00675 18.5333 7.12008 18.88C7.21341 19.16 7.47341 19.34 7.75341 19.34C7.82008 19.34 7.89341 19.3333 7.96008 19.3067C8.30675 19.1933 8.50008 18.82 8.38675 18.4733Z" fill="#222222"/>
<path d="M7.33341 16.6667C7.7016 16.6667 8.00008 16.3682 8.00008 16C8.00008 15.6318 7.7016 15.3333 7.33341 15.3333C6.96522 15.3333 6.66675 15.6318 6.66675 16C6.66675 16.3682 6.96522 16.6667 7.33341 16.6667Z" fill="#222222"/>
<path d="M10.5134 8.45333C10.2134 8.66667 10.1467 9.08 10.3667 9.38C10.4934 9.56 10.7001 9.65333 10.9067 9.65333C11.0401 9.65333 11.1801 9.61333 11.3001 9.52667C11.5934 9.31333 11.6601 8.89333 11.4467 8.6C11.2267 8.3 10.8067 8.23333 10.5134 8.45333Z" fill="#222222"/>
<path d="M13.1134 7.12C12.7601 7.23333 12.5667 7.61333 12.6867 7.96C12.7734 8.24667 13.0401 8.42667 13.3201 8.42667C13.3867 8.42667 13.4534 8.41333 13.5267 8.39333C13.5267 8.38667 13.5267 8.38667 13.5267 8.38667C13.8734 8.27333 14.0667 7.9 13.9534 7.55333C13.8401 7.2 13.4601 7.00667 13.1134 7.12Z" fill="#222222"/>
<path d="M8.44675 10.5133C8.23341 10.8133 8.30008 11.2267 8.59341 11.4467C8.71341 11.5333 8.85341 11.5733 8.98675 11.5733C9.19341 11.5733 9.39341 11.48 9.52675 11.3C9.74008 11 9.68008 10.5867 9.38008 10.3667C9.08008 10.1533 8.66675 10.2133 8.44675 10.5133Z" fill="#222222"/>
<path d="M13.5201 23.6067C13.1667 23.4933 12.7934 23.6867 12.6801 24.0333C12.5667 24.3867 12.7534 24.76 13.1067 24.8733C13.1734 24.9 13.2467 24.9067 13.3134 24.9067C13.5934 24.9067 13.8534 24.7267 13.9467 24.4467C14.0601 24.1 13.8667 23.72 13.5201 23.6067Z" fill="#222222"/>
<path d="M11.2934 22.4733C10.9934 22.2533 10.5801 22.32 10.3601 22.6133C10.1467 22.9133 10.2134 23.3267 10.5067 23.5467C10.6267 23.6333 10.7667 23.6733 10.9001 23.6733C11.1067 23.6733 11.3067 23.58 11.4401 23.4C11.6534 23.1 11.5934 22.6867 11.2934 22.4667C11.2934 22.4733 11.2934 22.4733 11.2934 22.4733Z" fill="#222222"/>
</svg>
