<svg width="24" height="24" viewBox="0 0 24 24" fill="none" xmlns="http://www.w3.org/2000/svg">
<path d="M10.726 8.82V10.393H8.88403V12.5265H10.726V18H12.929V12.5265H14.7665L15.0415 10.393H12.929V9.031C12.929 8.4135 13.1005 7.9925 13.986 7.9925L15.1155 7.992V6.084C14.9205 6.058 14.25 6 13.47 6C11.841 6 10.726 6.994 10.726 8.82Z" fill="#222222"/>
<path d="M12 0C5.3725 0 0 5.3725 0 12C0 18.628 5.3725 24 12 24C18.6275 24 24 18.6275 24 12C24 5.3725 18.6275 0 12 0ZM12 23C5.9345 23 1 18.0655 1 12C1 5.9345 5.9345 1 12 1C18.0655 1 23 5.9345 23 12C23 18.0655 18.0655 23 12 23Z" fill="#222222"/>
</svg>
