<svg width="24" height="24" viewBox="0 0 24 24" fill="none" xmlns="http://www.w3.org/2000/svg">
<path fill-rule="evenodd" clip-rule="evenodd" d="M12 20.5C16.6944 20.5 20.5 16.6944 20.5 12C20.5 7.30558 16.6944 3.5 12 3.5C7.30558 3.5 3.5 7.30558 3.5 12C3.5 16.6944 7.30558 20.5 12 20.5ZM12 22C17.5228 22 22 17.5228 22 12C22 6.47715 17.5228 2 12 2C6.47715 2 2 6.47715 2 12C2 17.5228 6.47715 22 12 22Z" fill="#767676"/>
<path d="M12.464 9.08988L12.4639 8.71512L12.0891 8.715L11.9102 8.71494L11.5349 8.71482L11.5351 9.09006L11.5359 11.5363L9.08957 11.5355L8.71433 11.5354L8.71445 11.9107L8.71451 12.0896L8.71463 12.4644L9.08939 12.4645L11.5362 12.4653L11.537 14.9121L11.5371 15.2868L11.9118 15.287L12.0908 15.287L12.466 15.2871L12.4659 14.9119L12.4651 12.4656L14.9114 12.4664L15.2866 12.4665L15.2865 12.0913L15.2865 11.9123L15.2863 11.5376L14.9116 11.5374L12.4648 11.5366L12.464 9.08988Z" fill="#767676" stroke="#767676" stroke-width="0.75"/>
</svg>
