<svg width="24" height="24" viewBox="0 0 24 24" fill="none" xmlns="http://www.w3.org/2000/svg">
<path d="M22.9645 14.5L18.894 5.28549C18.565 4.54199 17.984 3.93249 17.258 3.56949L15.224 2.55249L14.7765 3.44699L16.8105 4.46399C17.3295 4.72349 17.7445 5.15849 17.979 5.68949L21.871 14.5H14.535C14.0325 14.5 13.566 14.7495 13.287 15.168L12.9565 15.664C12.339 15.462 11.661 15.462 11.043 15.664L10.7125 15.168C10.434 14.7495 9.9675 14.5 9.465 14.5H6.5H2.129L6.021 5.68999C6.256 5.15899 6.671 4.72349 7.19 4.46449L9.224 3.44749L8.7765 2.55299L6.7425 3.56999C6.016 3.93299 5.435 4.54199 5.106 5.28599L1.0355 14.5H1H0V15.5H0.5V17.5C0.5 17.7765 0.724 18 1 18V20C1 20.827 1.673 21.5 2.5 21.5H9.198C9.9065 21.5 10.5085 21.017 10.6625 20.325L11.4885 16.608C11.491 16.5975 11.4875 16.5875 11.489 16.577C11.824 16.491 12.177 16.491 12.5115 16.577C12.513 16.5875 12.51 16.5975 12.512 16.608L13.338 20.325C13.492 21.017 14.094 21.5 14.8025 21.5H21.5C22.327 21.5 23 20.827 23 20V15.5H24V14.5H22.9645ZM1.5 15.5H6V17H1.5V15.5ZM9.686 20.1085C9.635 20.339 9.434 20.5 9.198 20.5H2.5C2.2245 20.5 2 20.276 2 20V18H6.5C6.776 18 7 17.7765 7 17.5V15.5H9.465C9.6325 15.5 9.788 15.583 9.881 15.7225L10.4655 16.6L9.686 20.1085ZM22 20C22 20.276 21.7755 20.5 21.5 20.5H14.802C14.566 20.5 14.365 20.339 14.3135 20.1085L13.5345 16.6L14.119 15.7225C14.212 15.583 14.3675 15.5 14.535 15.5H22V20Z" fill="#222222"/>
<path d="M12 13C12.2761 13 12.5 12.7761 12.5 12.5C12.5 12.2239 12.2761 12 12 12C11.7239 12 11.5 12.2239 11.5 12.5C11.5 12.7761 11.7239 13 12 13Z" fill="#222222"/>
<path d="M14.1214 10.379C13.5544 9.812 12.8014 9.5 11.9999 9.5C11.1984 9.5 10.4454 9.812 9.87842 10.379L10.5854 11.086C11.3414 10.33 12.6584 10.33 13.4139 11.086L14.1214 10.379Z" fill="#222222"/>
<path d="M15.7121 8.53751C13.6651 6.49051 10.3346 6.49051 8.2876 8.53751L8.9946 9.24451C10.6516 7.58751 13.3476 7.58751 15.0051 9.24451L15.7121 8.53751Z" fill="#222222"/>
</svg>
