<svg width="24" height="24" viewBox="0 0 24 24" fill="none" xmlns="http://www.w3.org/2000/svg">
<path d="M16.2681 10.232C16.7401 10.7045 17.0001 11.3325 17.0001 12C17.0001 12.6675 16.7401 13.2955 16.2681 13.768L16.9751 14.475C17.6361 13.8135 18.0001 12.935 18.0001 12C18.0001 11.0655 17.6361 10.1865 16.9751 9.52496L16.2681 10.232Z" fill="#222222"/>
<path d="M19.0959 7.40399L18.3889 8.11099C19.4279 9.14999 19.9999 10.531 19.9999 12C19.9999 13.469 19.4279 14.85 18.3889 15.889L19.0959 16.596C20.3239 15.368 20.9999 13.736 20.9999 12C20.9999 10.264 20.3239 8.63199 19.0959 7.40399Z" fill="#222222"/>
<path d="M21.2175 5.28247L20.5105 5.98947C22.116 7.59497 23 9.72947 23 12C23 14.2705 22.116 16.405 20.5105 18.0105L21.2175 18.7175C23.012 16.9235 24 14.5375 24 12C24 9.46247 23.012 7.07647 21.2175 5.28247Z" fill="#222222"/>
<path d="M14.407 0.208974C14.0415 0.0454738 13.629 0.110974 13.331 0.378974L4.451 8.37147C4.3585 8.45447 4.24 8.49997 4.116 8.49997H1C0.4485 8.49997 0 8.94847 0 9.49997V14.5C0 15.0515 0.4485 15.5 1 15.5H4.116C4.24 15.5 4.3585 15.5455 4.4505 15.628L13.331 23.6205C13.52 23.791 13.7555 23.8795 13.996 23.8795C14.134 23.8795 14.2735 23.8505 14.4065 23.791C14.7725 23.628 15 23.278 15 22.877V1.12247C15 0.721974 14.7725 0.371974 14.407 0.208974ZM14 22.8775L5.1195 14.885C4.8435 14.6365 4.487 14.5 4.116 14.5H1V9.49997H4.116C4.487 9.49997 4.8435 9.36347 5.119 9.11497L14 1.12247V22.8775Z" fill="#222222"/>
</svg>
