<svg width="577" height="99" viewBox="0 0 577 99" fill="none" xmlns="http://www.w3.org/2000/svg">
<path d="M78.415 69.4523C80.7272 69.4156 81.3654 68.563 81.3654 66.5751V49.1552C81.3654 47.1674 80.7272 46.3095 78.415 46.2781V45.2109C79.8745 45.2476 81.2608 45.3156 82.2547 45.3156C83.0342 45.3156 84.07 45.2423 85.1005 45.2109L101.84 63.9438L101.736 49.3331C101.736 47.1988 101.233 46.2781 98.6807 46.2781V45.2109C99.9937 45.2476 101.417 45.3156 102.52 45.3156C103.661 45.3156 105.078 45.2423 106.465 45.2109V46.2781C104.158 46.3147 103.514 47.1674 103.514 49.1552V70.7653H102.091L82.8615 49.5476L83.144 66.256C83.1807 68.8873 83.8555 69.243 86.0944 69.4523V70.5194C85.0273 70.4462 83.1074 70.4148 82.2547 70.4148C81.4021 70.4148 79.4822 70.4514 78.415 70.5194V69.4523Z" fill="white"/>
<path d="M108.463 69.4523C110.77 69.4156 111.413 68.563 111.413 66.5751V49.1552C111.413 47.1674 110.775 46.3095 108.463 46.2781V45.2109C111.309 45.2842 112.517 45.3156 113.652 45.3156C114.793 45.3156 116.001 45.2789 118.842 45.2109V46.2781C116.529 46.3147 115.891 47.1674 115.891 49.1552V66.5699C115.891 68.4165 116.922 69.0233 119.872 69.0233C124.564 69.0233 126.913 68.4165 127.625 64.0118H128.833L128.263 70.5194C126.484 70.4828 123.89 70.4828 120.871 70.4462C117.884 70.4096 114.51 70.4096 111.094 70.4096C110.027 70.4096 109.101 70.4462 108.463 70.5142V69.4523Z" fill="white"/>
<path d="M126.562 45.2109C129.513 45.2842 131.15 45.3156 132.746 45.3156C134.383 45.3156 135.984 45.2789 138.008 45.2109V46.2781H137.051C135.775 46.2781 135.204 46.7751 135.204 47.6277C135.204 47.9835 135.309 48.266 136.554 51.0385L140.321 59.4607L145.013 49.9713C145.546 48.8675 145.761 48.2293 145.761 47.769C145.761 46.456 144.73 46.2781 143.234 46.2781V45.2109C144.903 45.2842 146.08 45.3156 147.179 45.3156C148.277 45.3156 149.454 45.2789 151.123 45.2109V46.2781C149.595 46.2781 148.67 46.9163 148.031 48.0933L140.849 61.3858V66.5751C140.849 68.563 141.487 69.4209 143.799 69.4523V70.5194C140.959 70.4462 139.75 70.4148 138.61 70.4148C137.47 70.4148 136.261 70.4514 133.421 70.5194V69.4523C135.733 69.4156 136.371 68.563 136.371 66.5751V61.3858L130.543 48.8362C129.55 46.6652 128.733 46.3461 126.562 46.2781V45.2109Z" fill="white"/>
<path d="M243.664 44.6665C251.343 44.6665 258.133 50.0337 258.133 57.7811C258.133 64.6758 252.839 70.8957 244.129 70.8957C236.45 70.8957 229.665 65.5285 229.665 57.7811C229.66 50.8864 234.959 44.6665 243.664 44.6665ZM245.05 69.5513C247.326 69.5513 252.871 68.165 252.871 59.3504C252.871 52.4557 248.958 46.0214 242.738 46.0214C240.462 46.0214 234.917 47.4076 234.917 56.2222C234.922 63.1169 238.83 69.5513 245.05 69.5513Z" fill="white"/>
<path d="M259.943 69.3737C262.25 69.337 262.894 68.4843 262.894 66.4965V49.0766C262.894 47.0888 262.256 46.2309 259.943 46.1995V45.1323C262.789 45.2056 263.998 45.2369 265.133 45.2369C266.273 45.2369 267.481 45.2003 270.322 45.1323V46.1995C268.01 46.2361 267.372 47.0888 267.372 49.0766V66.4913C267.372 68.3379 268.402 68.9447 271.353 68.9447C276.045 68.9447 278.394 68.3379 279.105 63.9332H280.314L279.743 70.4356C277.965 70.399 275.37 70.399 272.352 70.3623C269.365 70.3257 265.991 70.3257 262.575 70.3257C261.507 70.3257 260.582 70.3623 259.943 70.4303V69.3737Z" fill="white"/>
<path d="M282.134 69.3737C284.446 69.337 285.084 68.4843 285.084 66.4965V49.0766C285.084 47.0888 284.446 46.2309 282.134 46.1995V45.1323C284.98 45.2056 286.188 45.2369 287.323 45.2369C288.464 45.2369 289.672 45.2003 292.512 45.1323V46.1995C290.2 46.2361 289.562 47.0888 289.562 49.0766V66.4913C289.562 68.4791 290.2 69.337 292.512 69.3684V70.4356C289.667 70.3623 288.458 70.331 287.323 70.331C286.183 70.331 284.974 70.3676 282.134 70.4356V69.3737Z" fill="white"/>
<path d="M321.787 46.1731C319.119 46.2097 318.622 46.5288 317.094 50.2953L308.703 70.6603H307.778L297.577 48.7312C296.583 46.5602 295.762 46.2411 294.093 46.1731V45.106C296.546 45.1792 298.178 45.2106 299.779 45.2106C301.416 45.2106 303.017 45.174 305.502 45.106V46.1731H304.079C302.803 46.1731 302.233 46.6701 302.233 47.5228C302.233 47.8785 302.342 48.161 303.582 50.9335L309.943 65.1153L315.31 49.9396C315.63 48.9823 315.912 48.161 315.912 47.5228C315.912 46.419 314.955 46.1731 313.427 46.1731V45.106C315.488 45.1792 316.623 45.2106 317.623 45.2106C318.617 45.2106 319.752 45.174 321.781 45.106V46.1731H321.787Z" fill="white"/>
<path d="M323.367 69.3737C325.674 69.337 326.317 68.4843 326.317 66.4965V49.0766C326.317 47.0888 325.679 46.2309 323.367 46.1995V45.1323C324.575 45.1689 326.317 45.2369 328.132 45.2369C333.567 45.2369 337.941 45.1637 341.247 45.1323L341.388 51.1063H340.248C339.677 47.6956 338.15 46.4872 333.886 46.4872H330.795V56.7613H333.531C336.769 56.7613 337.229 55.5895 337.475 53.3505H338.683C338.647 54.7368 338.61 56.0498 338.61 57.1902C338.61 58.859 338.647 60.2138 338.683 61.6315H337.475C337.475 58.8223 336.586 58.1109 333.494 58.1109H330.795V66.5697C330.795 68.2071 331.47 69.0912 334.812 69.0912C338.438 69.0912 340.959 68.4163 341.812 63.9384H343.02C342.806 65.6438 342.487 68.6308 342.487 70.4408C339.039 70.4042 334.525 70.3362 328.943 70.3362C326.207 70.3362 324.073 70.4094 323.361 70.4408V69.3737H323.367Z" fill="white"/>
<path d="M345.18 69.3736C347.487 69.337 348.13 68.4843 348.13 66.4965V49.0766C348.13 47.0888 347.492 46.2309 345.18 46.1995V45.1323C346.849 45.1689 348.272 45.2369 349.585 45.2369C351.897 45.2369 354.24 45.1323 356.553 45.1323C362.736 45.1323 364.692 48.224 364.692 51.7079C364.692 54.1247 363.201 56.824 359.754 57.8912L364.195 66.0675C365.796 69.0179 366.649 69.6927 368.673 69.9752V70.8279C368.14 70.8645 367.606 70.9012 367.036 70.9012C362.307 70.9012 360.356 69.2638 358.363 65.037L356.976 62.0866C355.485 58.9217 354.988 58.6759 352.603 58.6392V66.4965C352.603 68.4843 353.241 69.3423 355.553 69.3736V70.4408C352.708 70.3676 351.499 70.3362 350.364 70.3362C349.229 70.3362 348.021 70.3728 345.175 70.4408V69.3736H345.18ZM352.614 57.321C353.288 57.4622 354.251 57.5721 354.962 57.5721C358.159 57.5721 360.078 56.1126 360.078 52.6652C360.078 50.0706 358.76 46.1943 354.141 46.1943C353.503 46.1943 353.111 46.2309 352.614 46.3355V57.321Z" fill="white"/>
<path d="M379.418 69.3737C381.725 69.337 382.368 68.4843 382.368 66.4965V49.0766C382.368 47.0888 381.73 46.2309 379.418 46.1995V45.1323C380.626 45.2056 382.368 45.2369 383.859 45.2369C385.742 45.2369 387.626 45.1323 389.514 45.1323C396.482 45.1323 398.93 48.224 398.93 52.3147C398.93 56.4369 396.231 58.927 389.692 58.927C388.661 58.927 387.416 58.8903 386.846 58.8223V66.5017C386.846 68.4896 387.484 69.3475 389.797 69.3789V70.446C386.951 70.3728 385.742 70.3414 384.607 70.3414C383.472 70.3414 382.264 70.378 379.418 70.446V69.3737ZM386.846 57.321C387.521 57.4622 388.484 57.5721 389.195 57.5721C392.391 57.5721 394.311 56.1126 394.311 52.6652C394.311 50.0339 392.993 46.1943 388.374 46.1943C387.736 46.1943 387.343 46.2309 386.846 46.3355V57.321Z" fill="white"/>
<path d="M399.81 69.3737C402.117 69.337 402.76 68.4843 402.76 66.4965V49.0766C402.76 47.0888 402.122 46.2309 399.81 46.1995V45.1323C401.018 45.1689 402.76 45.2369 404.576 45.2369C410.011 45.2369 414.384 45.1637 417.69 45.1323L417.831 51.1063H416.691C416.121 47.6956 414.593 46.4872 410.33 46.4872H407.238V56.7613H409.974C413.212 56.7613 413.673 55.5895 413.918 53.3505H415.127C415.09 54.7368 415.054 56.0498 415.054 57.1902C415.054 58.859 415.09 60.2138 415.127 61.6315H413.918C413.918 58.8223 413.029 58.1109 409.937 58.1109H407.238V66.5697C407.238 68.2071 407.913 69.0912 411.256 69.0912C414.881 69.0912 417.402 68.4163 418.255 63.9384H419.463C419.249 65.6438 418.93 68.6308 418.93 70.4408C415.483 70.4042 410.968 70.3362 405.386 70.3362C402.65 70.3362 400.516 70.4094 399.805 70.4408V69.3737H399.81Z" fill="white"/>
<path d="M435.827 44.6665C443.506 44.6665 450.291 50.0337 450.291 57.7811C450.291 64.6758 444.997 70.8957 436.287 70.8957C428.607 70.8957 421.817 65.5285 421.817 57.7811C421.823 50.8864 427.117 44.6665 435.827 44.6665ZM437.218 69.5513C439.494 69.5513 445.039 68.165 445.039 59.3504C445.039 52.4557 441.131 46.0214 434.911 46.0214C432.635 46.0214 427.09 47.4076 427.09 56.2222C427.085 63.1169 430.993 69.5513 437.218 69.5513Z" fill="white"/>
<path d="M452.105 69.3737C454.412 69.337 455.056 68.4843 455.056 66.4965V49.0766C455.056 47.0888 454.418 46.2309 452.105 46.1995V45.1323C453.314 45.2056 455.056 45.2369 456.547 45.2369C458.43 45.2369 460.313 45.1323 462.202 45.1323C469.17 45.1323 471.618 48.224 471.618 52.3147C471.618 56.4369 468.919 58.927 462.38 58.927C461.349 58.927 460.104 58.8903 459.534 58.8223V66.5017C459.534 68.4896 460.172 69.3475 462.484 69.3789V70.446C459.638 70.3728 458.43 70.3414 457.295 70.3414C456.16 70.3414 454.951 70.378 452.105 70.446V69.3737ZM459.534 57.321C460.209 57.4622 461.171 57.5721 461.883 57.5721C465.079 57.5721 466.999 56.1126 466.999 52.6652C466.999 50.0339 465.68 46.1943 461.061 46.1943C460.423 46.1943 460.031 46.2309 459.534 46.3355V57.321Z" fill="white"/>
<path d="M472.497 69.3737C474.81 69.337 475.448 68.4843 475.448 66.4965V49.0766C475.448 47.0888 474.81 46.2309 472.497 46.1995V45.1323C475.343 45.2056 476.552 45.2369 477.687 45.2369C478.822 45.2369 480.036 45.2003 482.876 45.1323V46.1995C480.564 46.2361 479.926 47.0888 479.926 49.0766V66.4913C479.926 68.3379 480.956 68.9447 483.907 68.9447C488.599 68.9447 490.943 68.3379 491.654 63.9332H492.862L492.292 70.4356C490.514 70.399 487.919 70.399 484.901 70.3623C481.914 70.3257 478.539 70.3257 475.123 70.3257C474.056 70.3257 473.136 70.3623 472.492 70.4303V69.3737H472.497Z" fill="white"/>
<path d="M494.688 69.3737C497 69.337 497.638 68.4843 497.638 66.4965V49.0766C497.638 47.0888 497 46.2309 494.688 46.1995V45.1323C495.896 45.1689 497.638 45.2369 499.453 45.2369C504.894 45.2369 509.262 45.1637 512.568 45.1323L512.709 51.1063H511.574C511.004 47.6956 509.476 46.4872 505.213 46.4872H502.121V56.7613H504.857C508.09 56.7613 508.55 55.5895 508.802 53.3505H510.01C509.973 54.7368 509.942 56.0498 509.942 57.1902C509.942 58.859 509.979 60.2138 510.01 61.6315H508.802C508.802 58.8223 507.912 58.1109 504.821 58.1109H502.116V66.5697C502.116 68.2071 502.791 69.0912 506.134 69.0912C509.759 69.0912 512.286 68.4163 513.133 63.9384H514.341C514.127 65.6438 513.808 68.6308 513.808 70.4408C510.36 70.4042 505.846 70.3362 500.264 70.3362C497.528 70.3362 495.394 70.4094 494.683 70.4408V69.3737H494.688Z" fill="white"/>
<path d="M517.317 63.5769H518.704C519.556 67.6991 523.04 69.5509 525.494 69.5509C528.978 69.5509 530.683 67.312 530.683 65.3555C530.683 59.6692 517.71 59.9517 517.71 52.0631C517.71 50.2478 518.74 44.6714 526.666 44.6714C528.585 44.6714 531.248 44.8859 533.241 45.5973L533.456 51.8904H532.137C531.745 48.2652 529.401 46.0263 525.635 46.0263C522.758 46.0263 521.052 47.8729 521.052 49.7927C521.052 54.9821 534.24 55.4424 534.24 63.3729C534.24 67.5683 531.253 70.911 525.353 70.911C523.077 70.911 520.127 70.4507 517.6 69.7392L517.317 63.5769Z" fill="white"/>
<path d="M178.911 70.0218C180.062 70.0061 180.381 69.5772 180.381 68.5885V59.9152C180.381 58.9265 180.062 58.4975 178.911 58.4818V57.9482C179.759 57.9849 180.449 58.0006 181.161 58.0006C182.259 58.0006 183.352 57.9482 184.451 57.9482C186.292 57.9482 188.537 58.4818 188.537 61.0451C188.537 62.4418 187.438 63.5927 185.565 63.8961V63.9327C187.689 64.2361 189.049 65.1359 189.049 67.2074C189.049 68.1804 188.641 69.1011 188.06 69.6504C187.333 70.3252 186.449 70.5554 184.503 70.5554C183.316 70.5554 181.851 70.5031 180.93 70.5031C180.135 70.5031 179.481 70.5188 178.911 70.5554V70.0218ZM182.61 63.8647H183.457C185.262 63.8647 186.308 63.1219 186.308 61.4584C186.308 59.617 185.335 58.5551 183.405 58.5551H182.61V63.8647ZM182.61 68.782C182.61 69.6295 182.944 69.8806 184.116 69.8806C185.816 69.8806 186.648 69.0854 186.648 67.5789C186.648 65.5596 185.23 64.3198 182.845 64.3198H182.615V68.782H182.61Z" fill="white"/>
<path d="M189.195 57.9531C190.665 57.9897 191.476 58.0054 192.276 58.0054C193.093 58.0054 193.888 57.9897 194.897 57.9531V58.4867H194.421C193.783 58.4867 193.501 58.7326 193.501 59.1615C193.501 59.3394 193.553 59.4806 194.175 60.8617L196.048 65.0571L198.386 60.3333C198.653 59.784 198.758 59.4649 198.758 59.2348C198.758 58.5809 198.245 58.4919 197.502 58.4919V57.9584C198.334 57.995 198.915 58.0107 199.464 58.0107C200.013 58.0107 200.599 57.995 201.431 57.9584V58.4919C200.667 58.4919 200.207 58.811 199.893 59.3969L196.32 66.0144V68.5986C196.32 69.5873 196.639 70.0162 197.79 70.0319V70.5655C196.372 70.5289 195.771 70.5132 195.206 70.5132C194.641 70.5132 194.039 70.5289 192.622 70.5655V70.0319C193.773 70.0162 194.092 69.5873 194.092 68.5986V66.0144L191.188 59.7683C190.691 58.6907 190.283 58.5286 189.206 58.4919V57.9531H189.195Z" fill="white"/>
<path d="M57.9616 23.9404C53.2588 23.9404 42.7598 27.3198 42.7598 51.7494C42.7598 67.307 48.2734 75.0544 57.6791 75.0544C71.2959 75.0544 73.6238 61.9293 73.6238 48.9717C73.6238 31.0915 66.5303 23.9404 57.9616 23.9404ZM58.2441 26.0538C63.47 26.0538 66.3053 29.7366 67.7125 35.8675C67.927 37.2329 67.9427 38.2373 66.8285 39.7386L51.1035 58.9214C50.4025 59.6537 49.7905 60.2501 49.2464 60.5849C48.8018 60.8569 48.2944 60.7157 48.174 60.6634C47.9596 60.5744 47.8026 60.5797 47.5515 60.1507C47.0598 59.3085 47.154 52.8427 47.154 49.636C47.154 37.1806 49.4714 26.0538 58.2441 26.0538ZM57.9616 72.9462C54.2841 72.9462 51.3285 70.5555 50.2561 68.5991C49.0529 66.9094 49.7434 64.5868 50.2927 63.2999C50.3764 63.1011 50.5647 62.7558 50.6379 62.6408C50.7216 62.5047 50.9937 62.1386 51.0512 62.0653C51.1611 61.9293 65.1283 44.8913 65.1283 44.8913C65.8293 44.159 66.4204 43.526 66.9854 43.2278C67.6916 42.8564 68.5548 43.2069 68.7902 43.8713C68.9889 44.4205 68.9105 47.7842 68.9105 49.9185C68.9157 64.9216 66.1798 72.9462 57.9616 72.9462Z" fill="white"/>
</svg>
