<svg xmlns="http://www.w3.org/2000/svg" xmlns:xlink="http://www.w3.org/1999/xlink" width="17" height="17" viewBox="0 0 17 17">
    <defs>
        <path id="a" d="M8.325 0c-2.26 0-2.544.01-3.432.05C4.007.09 3.4.231 2.872.437a4.08 4.08 0 0 0-1.475.96 4.08 4.08 0 0 0-.96 1.475c-.206.53-.346 1.135-.387 2.02C.01 5.782 0 6.065 0 8.326s.01 2.545.05 3.433c.04.886.181 1.491.387 2.02a4.08 4.08 0 0 0 .96 1.475c.463.463.927.748 1.475.96.53.206 1.135.347 2.02.387.889.041 1.172.05 3.433.05s2.545-.009 3.433-.05c.886-.04 1.49-.18 2.02-.386a4.081 4.081 0 0 0 1.475-.96c.463-.464.748-.928.96-1.475.206-.53.347-1.135.387-2.021.04-.888.05-1.172.05-3.433 0-2.26-.01-2.544-.05-3.432-.04-.886-.18-1.492-.387-2.021a4.081 4.081 0 0 0-.96-1.475 4.08 4.08 0 0 0-1.475-.96c-.53-.206-1.134-.346-2.02-.387C10.87.01 10.586 0 8.325 0zm0 1.5c2.223 0 2.486.009 3.364.049.812.037 1.253.172 1.546.286.389.151.666.332.957.623.292.291.472.569.623.957.114.294.25.734.287 1.546.04.878.048 1.141.048 3.364s-.008 2.487-.048 3.364c-.037.812-.173 1.253-.287 1.546a2.58 2.58 0 0 1-.623.958 2.579 2.579 0 0 1-.957.622c-.293.114-.734.25-1.546.287-.877.04-1.14.049-3.364.049-2.223 0-2.486-.009-3.364-.049-.812-.037-1.252-.173-1.546-.287a2.579 2.579 0 0 1-.957-.622 2.58 2.58 0 0 1-.623-.958c-.114-.293-.25-.734-.286-1.546-.04-.877-.049-1.14-.049-3.364 0-2.223.009-2.486.049-3.364.037-.812.172-1.252.286-1.546a2.58 2.58 0 0 1 .623-.957c.291-.291.569-.472.957-.623.294-.114.734-.25 1.546-.286.878-.04 1.141-.049 3.364-.049zm0 2.55a4.275 4.275 0 1 0 0 8.55 4.275 4.275 0 0 0 0-8.55zm0 7.05a2.775 2.775 0 1 1 0-5.55 2.775 2.775 0 0 1 0 5.55zm5.443-7.219a1 1 0 1 0-1.998 0 1 1 0 0 0 1.998 0z"/>
    </defs>
    <use fill="#FFF" fill-rule="evenodd" xlink:href="#a"/>
</svg>
