<svg width="22" height="22" viewBox="0 0 22 22" fill="none" xmlns="http://www.w3.org/2000/svg">
<path d="M20.1667 2.75H1.83333C0.820875 2.75 0 3.57087 0 4.58333V17.4167C0 18.4291 0.820875 19.25 1.83333 19.25H20.1667C21.1791 19.25 22 18.4291 22 17.4167V4.58333C22 3.57087 21.1791 2.75 20.1667 2.75ZM21.0833 17.4167C21.0833 17.9222 20.6722 18.3333 20.1667 18.3333H1.83333C1.32779 18.3333 0.916667 17.9222 0.916667 17.4167V9.16667H21.0833V17.4167ZM21.0833 8.25H0.916667V6.41667H21.0833V8.25ZM21.0833 5.5H0.916667V4.58333C0.916667 4.07779 1.32779 3.66667 1.83333 3.66667H20.1667C20.6722 3.66667 21.0833 4.07779 21.0833 4.58333V5.5Z" fill="black"/>
<path d="M5.04167 16.9583C5.53942 16.9583 6.02158 16.792 6.41667 16.4917C6.81175 16.792 7.29392 16.9583 7.79167 16.9583C9.05529 16.9583 10.0833 15.9303 10.0833 14.6667C10.0833 13.403 9.05529 12.375 7.79167 12.375C7.29392 12.375 6.81175 12.5414 6.41667 12.8416C6.02158 12.5414 5.53942 12.375 5.04167 12.375C3.77804 12.375 2.75 13.403 2.75 14.6667C2.75 15.9303 3.77804 16.9583 5.04167 16.9583ZM5.04167 13.2917C5.43767 13.2917 5.80342 13.4608 6.072 13.7674H6.76179C7.02992 13.4608 7.39567 13.2917 7.79167 13.2917C8.54975 13.2917 9.16667 13.9086 9.16667 14.6667C9.16667 15.4248 8.54975 16.0417 7.79167 16.0417C7.39567 16.0417 7.02992 15.8725 6.76133 15.5659H6.07154C5.80342 15.8725 5.43767 16.0417 5.04167 16.0417C4.28358 16.0417 3.66667 15.4248 3.66667 14.6667C3.66667 13.9086 4.28358 13.2917 5.04167 13.2917Z" fill="black"/>
</svg>
