<svg width="23" height="22" viewBox="0 0 23 22" fill="none" xmlns="http://www.w3.org/2000/svg">
<path d="M21.6207 3.80118L16.3786 1.77723V1.7605H16.3616L11.9988 0.087816C11.6776 -0.029272 11.3224 -0.029272 11.0012 0.087816L1.37932 3.80118C0.838201 4.01863 0.5 4.50371 0.5 5.07242V16.5303C0.5 17.099 0.838201 17.5841 1.37932 17.8016L7.33167 20.1099C7.02729 19.7251 6.75673 19.307 6.57071 18.8386L1.71753 16.9652C1.54842 16.8983 1.43005 16.731 1.43005 16.547V5.1226L11.035 8.83596V11.9806C11.1195 11.9806 11.1872 11.9639 11.2717 11.9639C11.5085 11.9639 11.7283 11.9973 11.9481 12.0308V8.83596L21.5699 5.10587V12.633C21.9081 12.8504 22.2125 13.0846 22.5 13.3522V5.07242C22.5 4.50371 22.1449 4.01863 21.6207 3.80118ZM2.22483 4.45353L11.3394 0.924159C11.4408 0.873978 11.5592 0.873978 11.6776 0.924159L15.1103 2.26231L5.82667 5.84186V5.85858L2.22483 4.45353ZM11.4915 8.0498L7.07802 6.34366L16.3616 2.74739L20.7752 4.45353L11.4915 8.0498Z" fill="#202125"/>
<path d="M19.507 12.7836L15.9051 12.7669L17.4101 11.2782L16.7675 10.6426L14.1465 13.2185L16.7675 15.8112L17.4101 15.1756L15.9051 13.6869H19.2702C20.4032 13.6869 21.3333 14.6068 21.3333 15.7275C21.3333 16.8482 20.4032 17.7682 19.2702 17.7682H17.6638V18.6715H19.2702C20.9105 18.6715 22.2464 17.35 22.2464 15.7275C22.2633 14.1719 21.0458 12.9007 19.507 12.7836Z" fill="#202125"/>
<path d="M10.1392 19.8589L13.741 19.8756L12.236 21.3643L12.8786 22L15.4996 19.4073L12.8786 16.8146L12.236 17.4503L13.741 18.9389H10.359C9.22601 18.9389 8.29596 18.019 8.29596 16.8983C8.29596 15.7776 9.22601 14.8576 10.359 14.8576H11.9654V13.9878H10.359C8.71871 13.9878 7.38281 15.3092 7.38281 16.9317C7.38281 18.4873 8.60034 19.7418 10.1392 19.8589Z" fill="#202125"/>
</svg>
