<svg width="37" height="9" viewBox="0 0 37 9" fill="none" xmlns="http://www.w3.org/2000/svg">
<path d="M6.51154 0.973022H4.68972C4.68972 2.38977 4.00348 3.68264 2.81072 4.53424L2.0918 5.04519L4.88579 8.65286H7.18144L4.60803 5.33164C5.82529 4.18586 6.51154 2.6375 6.51154 0.973022Z" fill="white"/>
<path d="M1.86266 0.973022H0V8.65286H1.86266V0.973022Z" fill="white"/>
<path d="M9.47716 0.973022H7.7207V8.65286H9.47716V0.973022Z" fill="white"/>
<path d="M24.8849 3.19495C24.215 3.19495 23.5777 3.38849 23.1529 3.93816V3.34204H21.4863V8.65289H23.1774V5.86586C23.1774 5.06071 23.7493 4.66588 24.4355 4.66588C25.1708 4.66588 25.5956 5.08394 25.5956 5.85811V8.66063H27.2704V5.27748C27.2704 4.0388 26.2329 3.19495 24.8849 3.19495Z" fill="white"/>
<path d="M14.7871 3.34204V3.68268C14.3132 3.37301 13.7414 3.19495 13.1205 3.19495C11.4866 3.19495 10.1631 4.44911 10.1631 5.99747C10.1631 7.54582 11.4866 8.79998 13.1205 8.79998C13.7414 8.79998 14.3132 8.62193 14.7871 8.31225V8.65289H16.4618V3.34204H14.7871ZM13.2594 7.36002C12.4179 7.36002 11.7398 6.74842 11.7398 5.99747C11.7398 5.24651 12.4179 4.63491 13.2594 4.63491C14.1008 4.63491 14.7789 5.24651 14.7789 5.99747C14.7789 6.74842 14.1008 7.36002 13.2594 7.36002Z" fill="white"/>
<path d="M19.0594 4.03106V3.34204H17.3438V8.65289H19.0675V6.17553C19.0675 5.33942 20.0234 4.89039 20.6851 4.89039C20.6933 4.89039 20.7015 4.89039 20.7015 4.89039V3.34204C20.0234 3.34204 19.3943 3.62074 19.0594 4.03106Z" fill="white"/>
<path d="M32.4824 3.34204V3.68268C32.0085 3.37301 31.4367 3.19495 30.8158 3.19495C29.1819 3.19495 27.8584 4.44911 27.8584 5.99747C27.8584 7.54582 29.1819 8.79998 30.8158 8.79998C31.4367 8.79998 32.0085 8.62193 32.4824 8.31225V8.65289H34.1571V3.34204H32.4824ZM30.9547 7.36002C30.1132 7.36002 29.4351 6.74842 29.4351 5.99747C29.4351 5.24651 30.1132 4.63491 30.9547 4.63491C31.7961 4.63491 32.4742 5.24651 32.4742 5.99747C32.4824 6.74842 31.7961 7.36002 30.9547 7.36002Z" fill="white"/>
<path d="M35.9465 6.77161C35.3664 6.77161 34.8926 7.22063 34.8926 7.7703C34.8926 8.31996 35.3664 8.76898 35.9465 8.76898C36.5265 8.76898 37.0003 8.31996 37.0003 7.7703C37.0003 7.21289 36.5265 6.77161 35.9465 6.77161Z" fill="white"/>
</svg>
