<svg width="32" height="32" viewBox="0 0 32 32" fill="none" xmlns="http://www.w3.org/2000/svg">
<path d="M31.6915 11.4212C30.6772 11.2018 29.6555 11.0051 28.6561 10.7252C26.7901 10.1503 24.8366 9.9247 22.891 10.0594C22.0121 10.1201 21.1533 10.354 20.3627 10.7479C19.8555 11.0203 19.3707 11.338 18.871 11.6331C18.3714 11.9281 18.3341 11.8147 17.9984 11.5423C17.8743 11.4424 17.7238 11.3819 17.5659 11.3683C16.5814 11.3683 15.6044 11.3683 14.5826 11.3683C14.4478 11.3485 14.3102 11.3607 14.1808 11.404C14.0513 11.4474 13.9336 11.5206 13.8368 11.618C13.7695 11.6956 13.6776 11.7471 13.5769 11.7637C13.4763 11.7803 13.373 11.7608 13.2849 11.7087C13.0808 11.6154 12.8838 11.5067 12.6957 11.3834C11.6334 10.6339 10.3972 10.1776 9.10839 10.0594C7.65031 9.92269 6.18007 10.0223 4.75286 10.3545C3.29853 10.7176 1.80691 11.2245 0.210878 11.4364C0.179756 11.4392 0.149513 11.4483 0.121976 11.4633C0.0944398 11.4783 0.0701807 11.4987 0.0506634 11.5235C0.0311461 11.5482 0.0167762 11.5767 0.00842097 11.6073C6.57832e-05 11.6378 -0.00210135 11.6698 0.00205093 11.7012C0.00205093 11.9735 0.0393412 12.2459 0.0542574 12.5107C0.0552454 12.5837 0.0798738 12.6544 0.124348 12.7118C0.168822 12.7692 0.230674 12.8102 0.300375 12.8285C0.602586 12.9213 0.867956 13.1091 1.05827 13.3647C1.24859 13.6203 1.35403 13.9305 1.35943 14.2508C1.45638 15.083 1.56079 15.9153 1.73233 16.7399C1.97722 17.9554 2.59302 19.0618 3.49244 19.9024C4.04612 20.4393 4.70043 20.8579 5.41659 21.1334C6.13274 21.4089 6.89614 21.5357 7.66152 21.5063C9.25049 21.4977 10.7733 20.8597 11.9052 19.7284C12.4688 19.1474 12.9326 18.4749 13.2775 17.7386C13.8179 16.6817 14.1928 15.5458 14.3887 14.3719C14.4141 14.2963 14.4213 14.2156 14.4096 14.1366C14.398 14.0576 14.3678 13.9826 14.3216 13.9179C14.2099 13.8093 14.1317 13.67 14.0967 13.5171C14.0616 13.3641 14.0711 13.2042 14.1241 13.0566C14.177 12.9091 14.2711 12.7804 14.3949 12.6861C14.5187 12.5919 14.6669 12.5362 14.8213 12.5258C15.2017 12.4502 15.5671 12.435 16.0444 12.3897C16.5217 12.3443 16.8723 12.4653 17.3048 12.5637C17.408 12.5888 17.5047 12.636 17.5884 12.7021C17.6721 12.7682 17.741 12.8517 17.7904 12.9469C17.8398 13.0421 17.8687 13.147 17.875 13.2544C17.8812 13.3618 17.8649 13.4694 17.8269 13.5699C17.7822 13.7061 17.6852 13.8196 17.6255 13.9558C17.5781 14.041 17.5549 14.1379 17.5584 14.2357C17.7945 15.7405 18.3162 17.1845 19.0948 18.4876C19.924 19.8864 21.2592 20.9011 22.8156 21.3152C24.3719 21.7294 26.0262 21.5102 27.4255 20.7044C28.2022 20.2392 28.8664 19.6037 29.3697 18.8445C29.873 18.0852 30.2025 17.2214 30.3341 16.3162C30.4609 15.5975 30.5355 14.8712 30.625 14.1525C30.645 13.8571 30.7525 13.5747 30.9335 13.3425C31.1146 13.1103 31.3606 12.939 31.6393 12.8512C31.6787 12.842 31.7165 12.8267 31.7512 12.8058C31.8183 12.7225 31.9227 12.6318 31.9376 12.541C31.9376 12.2762 31.9376 12.0114 31.9898 11.7466C32.0421 11.4818 31.8854 11.4666 31.6915 11.4212ZM1.85912 12.7831C1.80212 12.7729 1.75049 12.7427 1.71328 12.6977C1.67608 12.6527 1.65568 12.5959 1.65568 12.5372C1.65568 12.4785 1.67608 12.4216 1.71328 12.3767C1.75049 12.3317 1.80212 12.3015 1.85912 12.2913C1.89451 12.285 1.93083 12.2866 1.96554 12.296C2.00025 12.3055 2.0325 12.3225 2.06002 12.3459C2.08755 12.3694 2.10968 12.3986 2.12486 12.4317C2.14005 12.4647 2.14792 12.5007 2.14792 12.5372C2.14792 12.5736 2.14005 12.6096 2.12486 12.6427C2.10968 12.6757 2.08755 12.705 2.06002 12.7284C2.0325 12.7519 2.00025 12.7689 1.96554 12.7783C1.93083 12.7878 1.89451 12.7894 1.85912 12.7831V12.7831ZM1.85912 12.1778C1.80212 12.1676 1.75049 12.1374 1.71328 12.0924C1.67608 12.0475 1.65568 11.9906 1.65568 11.9319C1.65568 11.8732 1.67608 11.8164 1.71328 11.7714C1.75049 11.7265 1.80212 11.6962 1.85912 11.686C1.89451 11.6797 1.93083 11.6813 1.96554 11.6908C2.00025 11.7002 2.0325 11.7173 2.06002 11.7407C2.08755 11.7641 2.10968 11.7934 2.12486 11.8264C2.14005 11.8595 2.14792 11.8955 2.14792 11.9319C2.14792 11.9684 2.14005 12.0044 2.12486 12.0374C2.10968 12.0705 2.08755 12.0997 2.06002 12.1232C2.0325 12.1466 2.00025 12.1636 1.96554 12.1731C1.93083 12.1825 1.89451 12.1841 1.85912 12.1778ZM9.79454 20.5001C9.06733 20.8388 8.27444 21.0077 7.47434 20.9942C6.67423 20.9808 5.8873 20.7853 5.17156 20.4223C4.45583 20.0593 3.82954 19.5379 3.33885 18.8967C2.84817 18.2554 2.50562 17.5106 2.33644 16.7172C2.06799 15.7603 2.06799 14.7463 2.33644 13.7893C2.5087 13.1175 2.85023 12.5028 3.32749 12.0054C3.80474 11.5079 4.40132 11.145 5.05864 10.9522C6.92397 10.3654 8.92296 10.3812 10.779 10.9976C11.4612 11.232 12.0597 11.666 12.499 12.245C12.9383 12.8239 13.1988 13.5219 13.2476 14.2508C13.2476 14.4778 13.2924 14.7123 13.3073 14.9393C13.0761 17.436 12.1215 19.4863 9.77216 20.5228L9.79454 20.5001ZM28.492 19.0626C28.0465 19.6177 27.4909 20.0716 26.8614 20.3948C26.2318 20.718 25.5423 20.9034 24.8375 20.9389C24.007 21.0296 23.1672 20.9169 22.3885 20.6102C21.6099 20.3034 20.9151 19.8116 20.3627 19.1761C19.8053 18.5777 19.3707 17.8729 19.0839 17.1028C18.7971 16.3326 18.6639 15.5124 18.6921 14.6896C18.6931 14.1027 18.8205 13.523 19.0652 12.9912C19.31 12.4593 19.6662 11.9881 20.1091 11.6104C20.7229 11.1347 21.4523 10.8366 22.2197 10.7479C22.8537 10.642 23.5025 10.6041 23.8232 10.5663C25.0689 10.519 26.31 10.7435 27.4628 11.2245C28.1151 11.5114 28.6776 11.974 29.0891 12.5622C29.5006 13.1504 29.7455 13.8417 29.7972 14.561C29.9012 15.3674 29.8368 16.187 29.6081 16.9665C29.3793 17.746 28.9915 18.4679 28.4696 19.0853L28.492 19.0626ZM30.1477 12.7831C30.0907 12.7729 30.0391 12.7427 30.0019 12.6977C29.9647 12.6527 29.9443 12.5959 29.9443 12.5372C29.9443 12.4785 29.9647 12.4216 30.0019 12.3767C30.0391 12.3317 30.0907 12.3015 30.1477 12.2913C30.1831 12.285 30.2194 12.2866 30.2541 12.296C30.2888 12.3055 30.3211 12.3225 30.3486 12.3459C30.3761 12.3694 30.3983 12.3986 30.4134 12.4317C30.4286 12.4647 30.4365 12.5007 30.4365 12.5372C30.4365 12.5736 30.4286 12.6096 30.4134 12.6427C30.3983 12.6757 30.3761 12.705 30.3486 12.7284C30.3211 12.7519 30.2888 12.7689 30.2541 12.7783C30.2194 12.7878 30.1831 12.7894 30.1477 12.7831V12.7831ZM30.1477 12.1778C30.0907 12.1676 30.0391 12.1374 30.0019 12.0924C29.9647 12.0475 29.9443 11.9906 29.9443 11.9319C29.9443 11.8732 29.9647 11.8164 30.0019 11.7714C30.0391 11.7265 30.0907 11.6962 30.1477 11.686C30.1831 11.6797 30.2194 11.6813 30.2541 11.6908C30.2888 11.7002 30.3211 11.7173 30.3486 11.7407C30.3761 11.7641 30.3983 11.7934 30.4134 11.8264C30.4286 11.8595 30.4365 11.8955 30.4365 11.9319C30.4365 11.9684 30.4286 12.0044 30.4134 12.0374C30.3983 12.0705 30.3761 12.0997 30.3486 12.1232C30.3211 12.1466 30.2888 12.1636 30.2541 12.1731C30.2194 12.1825 30.1831 12.1841 30.1477 12.1778Z" fill="black"/>
</svg>
