<svg xmlns="http://www.w3.org/2000/svg" xmlns:xlink="http://www.w3.org/1999/xlink" width="16" height="16" viewBox="0 0 16 16">
    <defs>
        <path id="a" d="M15.559 1.26a6.295 6.295 0 0 1-2.086.856C12.875 1.429 12.022 1 11.077 1 9.266 1 7.796 2.582 7.796 4.534c0 .277.028.546.084.805-2.728-.147-5.146-1.553-6.766-3.694a3.737 3.737 0 0 0-.445 1.779c0 1.225.58 2.308 1.461 2.942a3.109 3.109 0 0 1-1.488-.441v.043c0 1.713 1.132 3.142 2.635 3.466a3.005 3.005 0 0 1-.865.124 3.02 3.02 0 0 1-.618-.063c.418 1.404 1.63 2.426 3.066 2.453-1.123.949-2.54 1.514-4.077 1.514-.265 0-.527-.016-.783-.049A8.83 8.83 0 0 0 5.032 15c6.039 0 9.34-5.385 9.34-10.055 0-.154-.003-.308-.009-.458A6.943 6.943 0 0 0 16 2.657a6.17 6.17 0 0 1-1.885.557 3.508 3.508 0 0 0 1.444-1.955"/>
    </defs>
    <g fill="none" fill-rule="evenodd">
        <mask id="b" fill="#fff">
            <use xlink:href="#a"/>
        </mask>
        <use fill="#FFF" xlink:href="#a"/>
        <g fill="#F8F8FB" mask="url(#b)">
            <path d="M0 0h16v16H0z" style="mix-blend-mode:multiply"/>
        </g>
    </g>
</svg>
