<svg width="41" height="25" viewBox="0 0 41 25" fill="none" xmlns="http://www.w3.org/2000/svg">
<rect x="0.200204" y="0.995126" width="39.5996" height="23.5996" rx="3.00306" fill="white"/>
<rect x="0.200204" y="0.995126" width="39.5996" height="23.5996" rx="3.00306" stroke="#C0C1C6" stroke-width="0.400408"/>
<g clip-path="url(#clip0_64_5384)">
<path fill-rule="evenodd" clip-rule="evenodd" d="M9.65601 24.8196H40.0408V14.2881C40.0408 14.2881 29.3097 21.5635 9.65601 24.8196Z" fill="#E6772F"/>
<path fill-rule="evenodd" clip-rule="evenodd" d="M7.32278 12.736C7.02219 12.9931 6.63953 13.1055 6.02762 13.1055H5.77371V10.0383H6.02762C6.63953 10.0383 7.00751 10.1432 7.32278 10.413C7.64822 10.6918 7.84378 11.1219 7.84378 11.5668C7.84378 12.0138 7.64822 12.4592 7.32278 12.736ZM6.21728 9.25293H4.828V13.8917H6.20881C6.94363 13.8917 7.47404 13.7244 7.93895 13.3552C8.49119 12.9178 8.81889 12.2576 8.81889 11.5735C8.81889 10.2041 7.74979 9.25293 6.21728 9.25293Z" fill="#1A1919"/>
<path fill-rule="evenodd" clip-rule="evenodd" d="M9.255 9.25293H10.1971V13.8917H9.255V9.25293Z" fill="#1A1919"/>
<path fill-rule="evenodd" clip-rule="evenodd" d="M12.5106 11.0309C11.942 10.8314 11.7758 10.6984 11.7758 10.4477C11.7758 10.1563 12.0728 9.93531 12.4812 9.93531C12.7643 9.93531 12.9975 10.0437 13.246 10.3087L13.7378 9.69126C13.3314 9.34905 12.8451 9.17578 12.3148 9.17578C11.4569 9.17578 10.803 9.74692 10.803 10.5021C10.803 11.1433 11.107 11.4686 11.9941 11.7775C12.3649 11.9009 12.5533 11.9852 12.6487 12.0423C12.8377 12.1592 12.9318 12.3267 12.9318 12.5203C12.9318 12.8976 12.6194 13.175 12.197 13.175C11.7473 13.175 11.3835 12.9596 11.1657 12.555L10.5563 13.1199C10.992 13.7308 11.5143 14.0039 12.2339 14.0039C13.2153 14.0039 13.9068 13.3751 13.9068 12.4796C13.9068 11.7417 13.5861 11.4072 12.5106 11.0309Z" fill="#1A1919"/>
<path fill-rule="evenodd" clip-rule="evenodd" d="M14.2037 11.5738C14.2037 12.938 15.3227 13.9951 16.7632 13.9951C17.1694 13.9951 17.5176 13.9183 17.9464 13.7247V12.6586C17.5675 13.023 17.2349 13.1667 16.8046 13.1667C15.8528 13.1667 15.1785 12.5077 15.1785 11.5673C15.1785 10.6788 15.8746 9.97497 16.7632 9.97497C17.2115 9.97497 17.5541 10.127 17.9464 10.4968V9.43193C17.5321 9.23147 17.1921 9.14844 16.7826 9.14844C15.3504 9.14844 14.2037 10.2262 14.2037 11.5738Z" fill="#1A1919"/>
<path fill-rule="evenodd" clip-rule="evenodd" d="M25.6055 12.3672L24.3128 9.25293H23.2821L25.3371 14.0088H25.844L27.9389 9.25293H26.9163L25.6055 12.3672Z" fill="#1A1919"/>
<path fill-rule="evenodd" clip-rule="evenodd" d="M28.3679 13.8917H31.0488V13.1057H29.3137V11.8536H30.9829V11.0677H29.3137V10.0386H31.0488V9.25293H28.3679V13.8917Z" fill="#1A1919"/>
<path fill-rule="evenodd" clip-rule="evenodd" d="M32.8952 11.3859H32.6208V9.9828H32.9107C33.5013 9.9828 33.8177 10.22 33.8177 10.6719C33.8177 11.1362 33.5013 11.3859 32.8952 11.3859ZM34.7911 10.6216C34.7911 9.75292 34.1685 9.25293 33.077 9.25293H31.6729V13.8917H32.6207V12.0267H32.7437L34.0497 13.8917H35.2128L33.6876 11.9366C34.4004 11.7972 34.7911 11.3314 34.7911 10.6216Z" fill="#1A1919"/>
<path fill-rule="evenodd" clip-rule="evenodd" d="M23.4154 11.5844C23.4154 12.9199 22.2846 14.0024 20.8883 14.0024C19.4925 14.0024 18.3615 12.9199 18.3615 11.5844C18.3615 10.2487 19.4925 9.16602 20.8883 9.16602C22.2846 9.16602 23.4154 10.2487 23.4154 11.5844Z" fill="#E6772F"/>
</g>
<defs>
<clipPath id="clip0_64_5384">
<rect y="0.794922" width="40.0408" height="24.0245" rx="3.20326" fill="white"/>
</clipPath>
</defs>
</svg>
