<svg width="37" height="25" viewBox="0 0 37 25" fill="none" xmlns="http://www.w3.org/2000/svg">
<rect x="0.0649414" y="0.419922" width="36.8701" height="24.5801" rx="3.68701" fill="#FFB3C7"/>
<path d="M32.1403 14.2563C31.703 14.2563 31.3486 14.5651 31.3486 14.946C31.3486 15.3268 31.703 15.6356 32.1403 15.6356C32.5775 15.6356 32.9321 15.3268 32.9321 14.946C32.9321 14.5651 32.5775 14.2563 32.1403 14.2563ZM29.5354 13.7232C29.5354 13.2017 29.0237 12.7791 28.3925 12.7791C27.7613 12.7791 27.2495 13.2017 27.2495 13.7232C27.2495 14.2446 27.7612 14.6674 28.3925 14.6674C29.0238 14.6674 29.5354 14.2446 29.5354 13.7232ZM29.5397 11.8883H30.8011V15.558H29.5397V15.3234C29.1833 15.5351 28.7532 15.6596 28.2892 15.6596C27.0615 15.6596 26.0661 14.7926 26.0661 13.7232C26.0661 12.6537 27.0615 11.7868 28.2892 11.7868C28.7532 11.7868 29.1833 11.9113 29.5397 12.123V11.8882V11.8883ZM19.445 12.3663V11.8883H18.1536V15.558H19.4479V13.8446C19.4479 13.2666 20.1672 12.9559 20.6663 12.9559C20.6714 12.9559 20.6762 12.9563 20.6813 12.9564V11.8886C20.1691 11.8886 19.6979 12.0796 19.445 12.3663L19.445 12.3663ZM16.228 13.7232C16.228 13.2017 15.7163 12.7791 15.085 12.7791C14.4538 12.7791 13.942 13.2018 13.942 13.7232C13.942 14.2446 14.4538 14.6674 15.085 14.6674C15.7163 14.6674 16.228 14.2446 16.228 13.7232ZM16.2322 11.8883H17.4936V15.558H16.2322V15.3234C15.8758 15.5351 15.4457 15.6596 14.9818 15.6596C13.754 15.6596 12.7586 14.7926 12.7586 13.7232C12.7586 12.6537 13.754 11.7868 14.9818 11.7868C15.4457 11.7868 15.8758 11.9113 16.2322 12.123V11.8883V11.8883ZM23.8247 11.7896C23.3208 11.7896 22.8439 11.9258 22.5251 12.3018V11.8885H21.2691V15.558H22.5405V13.6296C22.5405 13.0715 22.9701 12.7983 23.4874 12.7983C24.0418 12.7983 24.3605 13.0867 24.3605 13.622V15.558H25.6204V13.2244C25.6204 12.3704 24.8409 11.7896 23.8247 11.7896V11.7896ZM10.9212 15.558H12.2415V10.253H10.9212V15.558ZM5.12146 15.5595H6.5195V10.252H5.12146V15.5595ZM10.0113 10.252C10.0113 11.401 9.49725 12.4699 8.58121 13.2644L10.5137 15.5596H8.78693L6.68675 13.0652L7.22878 12.7116C8.12765 12.1251 8.64323 11.2286 8.64323 10.252H10.0113L10.0113 10.252Z" fill="#222222"/>
</svg>
