<svg width="48" height="48" viewBox="0 0 48 48" fill="none" xmlns="http://www.w3.org/2000/svg">
<path d="M34 0H14C11.243 0 9 2.243 9 5V43C9 45.757 11.243 48 14 48H34C36.757 48 39 45.757 39 43V5C39 2.243 36.757 0 34 0ZM37 43C37 44.654 35.654 46 34 46H14C12.346 46 11 44.654 11 43V5C11 3.346 12.346 2 14 2H34C35.654 2 37 3.346 37 5V43Z" fill="#575D9B"/>
<path d="M28 6H20V8H28V6Z" fill="#575D9B"/>
<path d="M24 42C25.1046 42 26 41.1046 26 40C26 38.8954 25.1046 38 24 38C22.8954 38 22 38.8954 22 40C22 41.1046 22.8954 42 24 42Z" fill="#575D9B"/>
</svg>
