<svg width="40" height="40" viewBox="0 0 40 40" fill="none" xmlns="http://www.w3.org/2000/svg">
<g clip-path="url(#clip0_1201_571)">
<path d="M5.63667 14.7692L7.23833 15.23C7.89333 12.9533 9.69 9.02667 14.3617 8.31167L14.1092 6.66417C10.0267 7.28833 6.93917 10.2425 5.63667 14.7692Z" fill="black"/>
<path d="M20.2692 1.66667C17.4817 1.66667 14.6308 1.865 11.8775 2.235C-2.685 4.48 -3.15917 28.0258 6.66 35.9058C8.76 37.575 11.2008 38.3333 13.7917 38.3333C16.9075 38.3333 20.2417 37.2358 23.4675 35.3108L22.2475 34.0908C19.3442 35.7583 16.4317 36.6667 13.7917 36.6667C11.4717 36.6667 9.42167 35.9717 7.7025 34.6067C2.67 30.5675 0.3425 21.3708 2.405 13.67C3.27 10.4408 5.68333 4.87667 12.1 3.88667C14.8317 3.52 17.58 3.33333 20.2692 3.33333C28.5275 3.33333 34.875 5.115 37.2483 8.1C38.2717 9.38667 38.5675 10.9008 38.1508 12.7267C36.5892 18.6708 33.2883 24.36 28.8333 28.8925L30.0258 30.085C34.4367 25.5917 38.0658 19.6283 39.77 13.1242C41.67 4.89667 31.5075 1.66667 20.2692 1.66667Z" fill="black"/>
<path d="M30.7492 35.5225L26.4225 31.1958L25.2442 32.3742L30.7475 37.8775L39.7558 28.89L38.5775 27.71L30.7492 35.5225Z" fill="black"/>
</g>
<defs>
<clipPath id="clip0_1201_571">
<rect width="40" height="40" fill="white"/>
</clipPath>
</defs>
</svg>
