<?xml version="1.0" encoding="utf-8"?>
<!-- Generator: Adobe Illustrator 27.6.1, SVG Export Plug-In . SVG Version: 6.00 Build 0)  -->
<svg version="1.1" id="Livello_1" xmlns="http://www.w3.org/2000/svg" xmlns:xlink="http://www.w3.org/1999/xlink" x="0px" y="0px"
	 viewBox="0 0 1491.5 269.2" style="enable-background:new 0 0 1491.5 269.2;" xml:space="preserve">
<g>
	<g>
		<path d="M106.2,230.1L106.2,230.1L106.2,230.1H81.8c-3.2,0-5.4-2.3-5.4-5.4V142c0-2.3,1.8-4.1,4.1-4.1h25.7
			c27.1,0,45.1,16.7,45.1,46C150.9,212.9,133.3,230.1,106.2,230.1 M76,46.4c0-3.6,2.7-6.3,5.9-6.8c4.5-0.5,9.9-0.9,14.4-0.9
			c24.8,0,40.6,15.3,40.6,42c0,26.2-17.2,40.2-42,40.2H80c-2.3,0-4.1-1.8-4.1-4.1C76,116.8,76,46.4,76,46.4z M149.1,126.7
			c-1.8-0.9-2.3-3.2-0.9-4.5c10.8-10.4,17.6-24.8,17.6-42.4c0,0,3.6-60.5-68.2-60.5c-27.5,0-51.5,7.2-65.9,15.8v3.2
			c0,0,12.2,4.1,12.2,16.7v65.4v17.2v88c0,12.6-9,17.2-9,17.2v4.1h9h14.9H76h45.1c35.7,0,64.5-23,64.5-63.2
			C185.7,156,170.8,135.7,149.1,126.7"/>
		<path d="M453.7,130.3h-12.2c-2.3,0-4.1-1.8-4.1-4.1V56.7v-9c0-3.6,2.7-6.3,5.9-6.8c4.5-0.5,9.5-0.9,13.5-0.9
			c26.6,0,43.8,16.7,43.8,45.1C500.2,116.8,481.7,130.3,453.7,130.3 M545.8,226l-55.1-78.5c-0.9-1.4-0.5-3.6,1.4-4.1
			c25.3-9,42-31.6,42-58.7c0,0,4.1-65.9-74.5-65.9c-27.1,0-50.5,6.3-66.3,14.4v3.6c0,0,12.2,4.1,12.2,16.7v76.3V147v78.5
			c0,12.6-9,17.2-9,17.2v4.1h9h15.8H437h7.2v-4.1c0,0-7.2-4.1-7.2-17.2v-74c0-2.3,1.8-4.1,4.1-4.1h9.5c2.3,0,4.5,0.9,5.9,3.2
			l66.8,95.2c0.9,0.9,2.3,1.8,3.6,1.8H539h21.7h3.6v-4.1C563.9,243.1,554.4,238.6,545.8,226"/>
		<path d="M655.9,230.1L655.9,230.1L655.9,230.1h-24.4c-3.2,0-5.4-2.3-5.4-5.4V142c0-2.3,1.8-4.1,4.1-4.1h25.7
			c27.1,0,45.1,16.7,45.1,46C701.1,212.9,683.5,230.1,655.9,230.1 M626.1,46.4c0-3.6,2.7-6.3,5.9-6.8c4.5-0.5,9.9-0.9,14.4-0.9
			c24.8,0,40.6,15.3,40.6,42c0,26.2-17.2,40.2-42,40.2h-14.9c-2.3,0-4.1-1.8-4.1-4.1V46.4z M699.3,126.7c-1.8-0.9-2.3-3.2-0.9-4.5
			c10.8-10.4,17.6-24.8,17.6-42.4c0,0,3.6-60.5-68.2-60.5c-27.5,0-51.5,7.2-65.9,15.8v3.2c0,0,12.2,4.1,12.2,16.7v65.4v17.2v88
			c0,12.6-9,17.2-9,17.2v4.1h9H609h16.7h44.7c35.7,0,64.5-23,64.5-63.2C735.8,156,720.9,135.7,699.3,126.7"/>
		<path d="M328.7,22.4v4.1c0,0,7.2,4.1,7.2,16.7v139.9c0,32.5-14,46.9-43.8,46.9c-29.8,0-43.3-15.3-43.3-51V43.7
			c0-12.6,7.2-17.2,7.2-17.2v-4.1h-7.2H233h-17.6h-7.2v4.1c0,0,9,4.5,9,17.2v140.8c0,42,28,65.9,72.7,65.9
			c43.8,0,67.7-23.9,67.7-65.9V44.1c0-12.6,9-17.2,9-17.2v-4.1h-9h-28.9V22.4z"/>
		<path d="M990.8,130.3h-12.2c-2.3,0-4.1-1.8-4.1-4.1V56.7v-9c0-3.6,2.7-6.3,5.9-6.8c4.5-0.5,9.5-0.9,13.5-0.9
			c26.6,0,43.8,16.7,43.8,45.1C1037.3,116.8,1018.8,130.3,990.8,130.3 M1082.9,226l-55.1-78.5c-0.9-1.4-0.5-3.6,1.4-4.1
			c25.3-9,42-31.6,42-58.7c0,0,4.1-65.9-74.5-65.9c-27.1,0-50.5,6.3-66.3,14.4v3.6c0,0,12.2,4.1,12.2,16.7v76.3V147v78.5
			c0,12.6-9,17.2-9,17.2v4.1h9h15.8h15.8h7.2v-4.1c0,0-7.2-4.1-7.2-17.2v-74c0-2.3,1.8-4.1,4.1-4.1h9.5c2.3,0,4.5,0.9,5.9,3.2
			l66.8,95.2c0.9,0.9,2.3,1.8,3.6,1.8h12.6h21.7h3.6v-4.1C1101.4,243.1,1091.9,238.6,1082.9,226"/>
		<path d="M1180.4,130.3h-12.2c-2.3,0-4.1-1.8-4.1-4.1V56.7v-9c0-3.6,2.7-6.3,5.9-6.8c4.5-0.5,9.5-0.9,13.5-0.9
			c26.6,0,43.8,16.7,43.8,45.1C1227.3,116.8,1208.8,130.3,1180.4,130.3 M1272.4,226l-54.6-78.5c-0.9-1.4-0.5-3.6,1.4-4.1
			c25.3-9,42-31.6,42-58.7c0,0,4.1-65.9-74.5-65.9c-27.1,0-50.5,6.3-66.3,14.4v3.6c0,0,12.2,4.1,12.2,16.7v76.3V147v78.5
			c0,12.6-9,17.2-9,17.2v4.1h9h15.8h15.8h7.2v-4.1c0,0-7.2-4.1-7.2-17.2v-74c0-2.3,1.8-4.1,4.1-4.1h9.5c2.3,0,4.5,0.9,5.9,3.2
			l66.8,95.2c0.9,0.9,2.3,1.8,3.6,1.8h12.6h21.7h3.6v-4.1C1291,243.1,1281.5,238.6,1272.4,226"/>
		<path d="M1417.8,22.4v4.1c0,0,9,3.2,1.4,16.7l-42.4,76.7c-0.9,1.8-3.6,1.8-5,0l-42.4-76.7c-7.7-13.5,1.4-16.7,1.4-16.7v-4.1H1318
			h-8.1h-9.5H1281h-6.8v4.1c0,0,11.3,4.1,18.5,17.2l57.3,103.4c0.9,1.8,1.4,4.1,1.4,5.9V226c0,12.6-9,17.2-9,17.2v4.1h9h31.1h9v-4.1
			c0,0-9-4.5-9-17.2v-73.1c0-2.3,0.5-4.1,1.4-5.9l57.3-103.4c7.2-13.1,18.5-17.2,18.5-17.2v-4.1
			C1459.8,22.4,1417.8,22.4,1417.8,22.4z"/>
		<path d="M881.6,230.5h-67.7c-3.2,0-5.4-2.3-5.4-5.4v-82.1c0-2.3,1.8-4.1,4.1-4.1h37c12.6,0,17.2,7.2,17.2,7.2h4.1v-31.6h-4.1
			c0,0-4.1,7.2-17.2,7.2h-37c-2.3,0-4.1-1.8-4.1-4.1V45.5c0-3.2,2.3-5.4,5.4-5.4h58.7c12.6,0,17.2,9,17.2,9h4.1v-9V22.9h-85.3h-15.8
			h-15.8h-9V27c0,0,9,4.5,9,17.2v77.6v17.2v87.6c0,12.6-9,17.2-9,17.2v4.1H808h94.8v-17.2v-9h-4.1
			C898.8,221.5,894.2,230.5,881.6,230.5"/>
	</g>
</g>
</svg>
