<svg width="20" height="20" viewBox="0 0 20 20" fill="none" xmlns="http://www.w3.org/2000/svg">
<g clip-path="url(#clip0_38_3047)">
<path d="M16.25 12.5005C14.1825 12.5005 12.5 14.1826 12.5 16.2505C12.5 18.3184 14.1825 20.0005 16.25 20.0005C18.3175 20.0005 20 18.3184 20 16.2505C20 14.1826 18.3175 12.5005 16.25 12.5005ZM16.25 19.1671C14.6417 19.1671 13.3333 17.8584 13.3333 16.2505C13.3333 14.6426 14.6417 13.3338 16.25 13.3338C17.8583 13.3338 19.1667 14.6426 19.1667 16.2505C19.1667 17.8584 17.8583 19.1671 16.25 19.1671Z" fill="#2D2A26"/>
<path d="M16.6667 14.1671H15.8333V16.423L17.2054 17.7951L17.7946 17.2059L16.6667 16.078V14.1671Z" fill="#2D2A26"/>
<path d="M19.2054 3.57173L14.4354 1.70507L14.4317 1.69548L14.4212 1.69965L10.4558 0.147982C10.1621 0.0325651 9.83833 0.0329818 9.54458 0.147565L0.794583 3.57173C0.312083 3.76048 0 4.21757 0 4.7359V15.2651C0 15.7834 0.312083 16.2405 0.794583 16.4292L9.54458 19.853C9.69167 19.9109 9.84583 19.9396 10.0004 19.9396C10.155 19.9396 10.3092 19.9109 10.4562 19.8534L11.7983 19.328C11.6383 19.0976 11.4996 18.8526 11.3762 18.598L10.4167 18.9734V8.20173L19.1667 4.77798V11.6938C19.4658 11.8859 19.745 12.1059 20 12.3513V4.7359C20 4.21757 19.6879 3.76048 19.2054 3.57173ZM9.84833 0.923815C9.94583 0.885482 10.0542 0.885065 10.1521 0.924232L13.2775 2.14715L4.84833 5.44548L4.85208 5.45507L1.56042 4.16715L9.84833 0.923815ZM9.58333 18.9734L1.09792 15.6526C0.9375 15.5901 0.833333 15.438 0.833333 15.2651V4.77757L9.58333 8.20131V18.9734ZM10 7.46965L5.98167 5.89715L14.4212 2.59465L18.4396 4.16715L10 7.46965Z" fill="#2D2A26"/>
</g>
<defs>
<clipPath id="clip0_38_3047">
<rect width="20" height="20" fill="white"/>
</clipPath>
</defs>
</svg>
