<svg width="20" height="20" viewBox="0 0 20 20" fill="none" xmlns="http://www.w3.org/2000/svg">
<path d="M18.3333 2.5H1.66667C0.74625 2.5 0 3.24625 0 4.16667V15.8333C0 16.7537 0.74625 17.5 1.66667 17.5H12.5V16.6667H1.66667C1.20708 16.6667 0.833333 16.2929 0.833333 15.8333V8.33333H19.1667V11.6667H20V4.16667C20 3.24625 19.2537 2.5 18.3333 2.5ZM19.1667 7.5H0.833333V5.83333H19.1667V7.5ZM19.1667 5H0.833333V4.16667C0.833333 3.70708 1.20708 3.33333 1.66667 3.33333H18.3333C18.7929 3.33333 19.1667 3.70708 19.1667 4.16667V5Z" fill="#2D2A26"/>
<path d="M19.1667 14.8042H19V14.3333C19 13.3208 18.1792 12.5 17.1667 12.5C16.1542 12.5 15.3333 13.3208 15.3333 14.3333V14.8042H15.1667C14.7083 14.8042 14.3333 15.1792 14.3333 15.6375V19.1667C14.3333 19.625 14.7083 20 15.1667 20H19.1667C19.625 20 20 19.625 20 19.1667V15.6375C20 15.1792 19.625 14.8042 19.1667 14.8042ZM16.1667 14.3333C16.1667 13.7833 16.6167 13.3333 17.1667 13.3333C17.7167 13.3333 18.1667 13.7833 18.1667 14.3333V14.8042H16.1667V14.3333ZM19.1667 19.1667H15.1667V15.6375H19.1667V19.1667Z" fill="#2D2A26"/>
<path d="M4.58333 15.4167C5.03583 15.4167 5.47417 15.2654 5.83333 14.9925C6.1925 15.2654 6.63083 15.4167 7.08333 15.4167C8.23208 15.4167 9.16667 14.4821 9.16667 13.3333C9.16667 12.1846 8.23208 11.25 7.08333 11.25C6.63083 11.25 6.1925 11.4012 5.83333 11.6742C5.47417 11.4012 5.03583 11.25 4.58333 11.25C3.43458 11.25 2.5 12.1846 2.5 13.3333C2.5 14.4821 3.43458 15.4167 4.58333 15.4167ZM4.58333 12.0833C4.94333 12.0833 5.27583 12.2371 5.52 12.5158H6.14708C6.39083 12.2371 6.72333 12.0833 7.08333 12.0833C7.7725 12.0833 8.33333 12.6442 8.33333 13.3333C8.33333 14.0225 7.7725 14.5833 7.08333 14.5833C6.72333 14.5833 6.39083 14.4296 6.14667 14.1508H5.51958C5.27583 14.4296 4.94333 14.5833 4.58333 14.5833C3.89417 14.5833 3.33333 14.0225 3.33333 13.3333C3.33333 12.6442 3.89417 12.0833 4.58333 12.0833Z" fill="#2D2A26"/>
</svg>
