<svg width="20" height="20" viewBox="0 0 20 20" fill="none" xmlns="http://www.w3.org/2000/svg">
<g clip-path="url(#clip0_38_3050)">
<path d="M19.2054 3.57147L14.435 1.7048L14.4312 1.69564L14.4212 1.69939L10.455 0.147305C10.1617 0.0331381 9.83833 0.0327214 9.54417 0.147305L0.794167 3.57105C0.311667 3.76064 0 4.21772 0 4.73564V15.2648C0 15.7831 0.311667 16.2398 0.794583 16.429L9.54458 19.8531C9.69125 19.9102 9.84542 19.939 10 19.939C10.1542 19.939 10.3088 19.9102 10.4554 19.8527L11.7975 19.3273C11.6379 19.0969 11.4987 18.8519 11.3758 18.5977L10.4167 18.9731V8.20105L19.1667 4.7773V11.6931C19.4658 11.8852 19.745 12.1052 20 12.3506V4.73564C20 4.21772 19.6883 3.76064 19.2054 3.57147ZM9.84792 0.923971C9.94583 0.885221 10.0542 0.885638 10.1521 0.923971L13.2783 2.1473L4.84833 5.44605L4.85208 5.45564L1.56 4.16689L9.84792 0.923971ZM9.58333 18.9731L1.09833 15.6527C0.9375 15.5898 0.833333 15.4373 0.833333 15.2648V4.7773L9.58333 8.20105V18.9731ZM10 7.46939L5.98125 5.89689L14.4212 2.59439L18.44 4.16689L10 7.46939Z" fill="#2D2A26"/>
<path d="M17.5 14.594V14.5836H14.2246L15.5967 13.2115L15.0075 12.6223L12.6296 15.0002L15.0075 17.3781L15.5967 16.789L14.2246 15.4169H17.2917C18.3254 15.4169 19.1667 16.2581 19.1667 17.2919C19.1667 18.3256 18.3254 19.1669 17.2917 19.1669H15.8333V20.0002H17.2917C18.785 20.0002 20 18.7852 20 17.2919C20 15.869 18.8962 14.7011 17.5 14.594Z" fill="#2D2A26"/>
</g>
<defs>
<clipPath id="clip0_38_3050">
<rect width="20" height="20" fill="white"/>
</clipPath>
</defs>
</svg>
