<svg width="20" height="20" viewBox="0 0 20 20" fill="none" xmlns="http://www.w3.org/2000/svg">
<g clip-path="url(#clip0_38_3056)">
<path d="M13.3333 15.4167H17.3921C15.6675 17.7767 12.9583 19.1667 10 19.1667C4.94542 19.1667 0.833333 15.0546 0.833333 10H0C0 15.5137 4.48625 20 10 20C13.1446 20 16.0304 18.56 17.9167 16.105V20H18.75V14.5833H13.3333V15.4167Z" fill="#2D2A26"/>
<path d="M10 0C6.85542 0 3.97 1.44 2.08333 3.895V0H1.25V5.41667H6.66667V4.58333H2.6075C4.3325 2.22333 7.04167 0.833333 10 0.833333C15.0546 0.833333 19.1667 4.94542 19.1667 10H20C20 4.48625 15.5138 0 10 0Z" fill="#2D2A26"/>
</g>
<defs>
<clipPath id="clip0_38_3056">
<rect width="20" height="20" fill="white"/>
</clipPath>
</defs>
</svg>
