<svg xmlns="http://www.w3.org/2000/svg" width="35" height="35" viewBox="0 0 35 35">
    <path fill="#000" fill-rule="evenodd" d="M26.277 15.878a2.888 2.888 0 0 0-.738-.113c-.028-.003-.07-.002-.107-.002l-.116-.001h-.67c-.002 0-.005 0-.004.002l-.001 3.39v1.071s-.031.457-.085 1.074c-.027.31-.06.657-.097 1.01l-.029.263c-.01.031-.02.067-.03.106l-.033.133c-.028.065.02.057.05.072l.189.048.024.006.03.006.08.013.144.024c.182.032.32.064.422.094.092.03.15.057.186.084.012-.162.107-.348.286-.551a.3.3 0 0 1 .07-.06c.269-.029.528-.115.772-.229.124-.052.237-.127.351-.198l.163-.122c.054-.04.1-.09.151-.133.18-.172.345-.364.466-.583a2.46 2.46 0 0 0 .28-.689l.024-.09c.006-.032.009-.063.014-.093.009-.062.02-.123.028-.185.004-.13.016-.236.012-.402l.001-.92v-.461c.002-.083-.004-.136-.006-.2-.006-.064 0-.127-.015-.188a2.744 2.744 0 0 0-.192-.72 2.87 2.87 0 0 0-.392-.634 2.874 2.874 0 0 0-.556-.5 2.947 2.947 0 0 0-.672-.322zm-16.822-.11a2.874 2.874 0 0 0-.737.113c-.236.08-.464.184-.672.321a2.874 2.874 0 0 0-.556.5c-.155.194-.29.405-.391.633-.092.23-.166.47-.193.719-.014.062-.008.124-.014.187-.002.065-.008.118-.007.201v1.381c-.003.166.01.273.013.402.008.062.02.123.028.185.005.03.008.061.014.092l.024.09c.054.243.155.474.279.69.122.218.286.41.465.582.052.045.098.094.152.134l.162.121c.115.07.227.146.352.2.243.113.502.198.772.227.023.004.03.006.059.04.098.091.233.249.283.447.004.015.006.032.008.048.063-.056.226-.107.453-.154a6.45 6.45 0 0 1 .401-.069c.07-.022.13-.041.18-.059-.01-.004.001-.01.02-.018.009.002.003-.012.001-.021l-.006-.033-.016-.073-.018-.073-.002-.009-.003-.03-.005-.068-.009-.14-.04-.601-.104-1.665v-4.303l-.893.002zM22.32 8.032c.175.123.353.246.52.382a8.628 8.628 0 0 1 2.88 4.192c.199.652.321 1.326.367 2.004.183.03.365.07.543.122.347.114.68.268.985.47.3.206.575.449.81.727.23.283.426.593.572.928.138.337.243.69.283 1.053.017.09.015.181.021.272.004.089.011.188.009.259v1.381c.004.14-.01.341-.018.518-.01.09-.026.18-.04.27-.008.046-.013.091-.022.136l-.034.132a3.635 3.635 0 0 1-.41 1.01c-.18.318-.416.601-.679.851-.074.065-.143.136-.222.195l-.236.177c-.167.105-.334.212-.514.293a3.67 3.67 0 0 1-1.131.333c-.034.005-.048.007-.095-.015a1.057 1.057 0 0 1-.098-.052l.011.123c.007-.015.02.073.004.213-.007.071-.015.155-.026.246-.017.09-.039.186-.06.285-.018.1-.057.192-.085.284l-.045.131c-.016.042-.033.08-.049.115l-.108.237-.141.188-.074.1-.098.108c-.07.077-.147.167-.244.25l-.15.135c-.051.046-.111.087-.17.131-.059.044-.117.093-.184.133l-.202.123c-.068.045-.142.078-.218.114-.074.035-.149.076-.228.106-.16.058-.32.122-.489.16-.166.048-.337.071-.505.096-.084.016-.169.013-.252.019a113.014 113.014 0 0 0-.238.01h-1.508c-.013 0-.017 0-.033-.03-.111-.17-.27-.606-.007-1.124a.162.162 0 0 1 .04-.049l.768.001.76.001c.233-.009.47-.022.7-.093l.088-.021.084-.03.166-.06.158-.076c.025-.014.052-.024.077-.039l.071-.043c.048-.03.096-.057.141-.086a4.773 4.773 0 0 1 .188-.14c.02-.016.037-.034.054-.05l.104-.093c.127-.127.225-.239.284-.325.031-.042.057-.074.073-.097l.021-.036.073-.078c.023-.024.054-.052.083-.087l.096-.119.056-.067c.018-.023.034-.048.052-.074l.115-.157a4.055 4.055 0 0 1 .16-.257l.046-.085c.071-.136.123-.242.17-.322a2.405 2.405 0 0 1-.297.077 5.922 5.922 0 0 1-.404.069 23.64 23.64 0 0 1-.777.06c.026.003-.039.008-.176.017-.014-.002-.045.012-.037-.014l-.004-.055-.007-.129-.016-.325-.018-.41-.002-.056-.003-.035c0-.022-.003-.044-.004-.067l-.01-.14-.04-.601-.103-1.665v-5.502c0-.005.009-.002.012-.003H24.88a7.71 7.71 0 0 0-.306-1.6 7.43 7.43 0 0 0-6.71-5.2A7.383 7.383 0 0 0 12.65 9.56a7.002 7.002 0 0 0-.796.8l-.046.053a.862.862 0 0 0-.039.046l-.041.053-.084.107-.084.106-.079.11c-.052.075-.107.147-.156.224l-.146.228s-.017.02-.044.06l-.118.173c-.052.073-.108.164-.173.267a6.85 6.85 0 0 0-.204.345c-.29.503-.573 1.189-.761 1.785-.07.253-.13.466-.172.641 0 .003 0 .006-.002.009h1.83c.003 0 .011-.002.012.002V20.225s-.032.457-.086 1.074c-.027.31-.059.657-.096 1.01l-.03.263-.03.415c-.047.241.063.613-.306.476a22.753 22.753 0 0 1-.558-.049l-.058-.005a.755.755 0 0 1-.05-.006l-.078-.013-.145-.024a3.494 3.494 0 0 1-.422-.095.586.586 0 0 1-.187-.085c-.008.162-.103.342-.397.52a.374.374 0 0 1-.115.032 3.672 3.672 0 0 1-1.13-.334c-.181-.08-.348-.187-.515-.292l-.236-.178c-.079-.059-.148-.13-.223-.194a3.7 3.7 0 0 1-.678-.85 3.635 3.635 0 0 1-.41-1.011l-.033-.132c-.009-.045-.014-.09-.022-.136-.013-.09-.03-.18-.039-.27-.01-.177-.022-.378-.018-.518v-1.381c-.002-.07.005-.17.009-.259.006-.09.003-.181.02-.272.041-.362.146-.715.284-1.052.146-.335.343-.644.572-.927.234-.279.51-.521.81-.728.304-.2.637-.355.983-.468.287-.084.583-.137.88-.158a4.673 4.673 0 0 1-.022-.31v-.243a2.359 2.359 0 0 1 .01-.259c-.006.018-.005-.021.002-.104.006-.082.017-.209.043-.362.04-.31.138-.732.266-1.15.125-.422.304-.83.447-1.135.146-.303.262-.498.262-.498.108-.176.232-.341.35-.51l.193-.244.047-.06.014-.017.026-.03.053-.062c.07-.08.139-.163.211-.242a8.674 8.674 0 0 1 3.159-2.184 8.19 8.19 0 0 1 1.23-.386c.21-.052.423-.087.634-.125.214-.027.427-.06.642-.073a8.427 8.427 0 0 1 1.287-.006c.43.025.856.093 1.277.184.421.09.833.22 1.235.375.402.153.79.341 1.164.556.188.103.367.223.548.34zm-2.914 18.362a.498.498 0 0 1-.085-.14c-.012-.036-.035-.074-.053-.117-.021-.042-.037-.089-.064-.136a2.195 2.195 0 0 0-.434-.61c.005.015-.014-.01-.064-.049-.025-.02-.054-.048-.09-.077-.039-.027-.08-.062-.128-.094-.053-.028-.103-.067-.166-.094-.03-.015-.06-.031-.093-.045l-.103-.038a1.555 1.555 0 0 0-.897-.032 1.41 1.41 0 0 0-.481.235c-.038.026-.067.054-.091.075l-.056.05-.018.02c-.166.147-.306.33-.386.536-.052.125-.079.258-.095.393-.011.135-.004.272.02.405.03.132.071.26.135.38.066.118.144.23.239.327.097.094.204.179.322.246.12.061.246.113.378.142.265.054.548.038.799-.061.218-.079.41-.222.564-.397.154-.176.254-.391.307-.616.006-.02.004-.029.038-.05.103-.075.255-.195.454-.245l.048-.008zm.18-.2a.552.552 0 0 1-.075.194c.055.003.11.017.168.044a.6.6 0 0 1 .174.131c.061.063.113.145.162.255a.39.39 0 0 1 .026.129 2.608 2.608 0 0 1-1.618 1.885 2.614 2.614 0 0 1-1.482.111 2.698 2.698 0 0 1-.704-.265 2.743 2.743 0 0 1-.597-.455 2.702 2.702 0 0 1-.443-.606 2.708 2.708 0 0 1-.25-.709 2.78 2.78 0 0 1-.038-.749 2.588 2.588 0 0 1 1.053-1.85l.087-.058c.06-.032.145-.083.258-.133.223-.104.56-.208.95-.218.386-.01.823.08 1.199.284.374.206.683.51.863.833.162.268.236.516.268.714.011.101.02.188.017.265-.004.078-.01.143-.018.197zM35 17.284c.006.932-.058 1.875-.198 2.815l-.057.353c-.02.117-.036.235-.063.352l-.149.703-.183.696c-.06.234-.14.462-.21.693a17.503 17.503 0 0 1-4.724 7.412 16.717 16.717 0 0 1-2.382 1.861 17.848 17.848 0 0 1-2.689 1.427l-.353.146c-.12.047-.235.1-.357.139l-.721.255-.736.218c-.121.04-.246.068-.37.098l-.373.09c-1.994.46-4.079.586-6.117.318A17.545 17.545 0 0 1 2.8 26.996a17.89 17.89 0 0 1-1.393-2.633 17.04 17.04 0 0 1-.922-2.793l-.086-.356c-.026-.119-.046-.238-.07-.357l-.068-.358-.034-.178-.025-.18-.098-.719-.063-.718c-.064-.958-.05-1.913.036-2.852.082-.94.26-1.86.49-2.753a17.59 17.59 0 0 1 2.14-4.947c.474-.74.992-1.437 1.545-2.088A19.393 19.393 0 0 1 6.03 4.279l.476-.393c.08-.065.155-.132.238-.193l.245-.183c.164-.12.322-.246.49-.357l.499-.335A17.131 17.131 0 0 1 10.03 1.68c.087-.04.173-.082.259-.123l.129-.06.131-.054.524-.215c.172-.076.35-.133.524-.195.175-.061.348-.125.522-.183a19.007 19.007 0 0 1 2.079-.534 19.005 19.005 0 0 1 2.021-.27c.33-.016.656-.043.978-.042l.158-.003c.223-.006.415.002.574.006l.37.01.13.008s.116.017.314.043c.197.023.47.077.784.136.625.127 1.399.343 2.01.584.26.102.472.19.64.27.168.084.293.155.381.215.177.12.208.195.135.233-.146.078-.696.006-1.353-.08.032.013-.148-.009-.434-.05-.143-.023-.314-.038-.498-.06l-.285-.031a187.234 187.234 0 0 1-.596-.045c-.099-.007-.196-.008-.29-.012-.19-.007-.366-.02-.518-.016h-.507s-.166-.005-.458-.011c-.072-.002-.153-.007-.241-.004l-.137.002c-.024 0-.049 0-.074.002-.106 0-.214.003-.322.004-.141.006-.282.014-.424.022-.286.01-.575.046-.869.071l-.441.06c-.075.009-.149.019-.223.03l-.224.038c-.6.095-1.209.244-1.826.417l-.464.14c-.155.05-.308.108-.463.161-.155.057-.313.106-.467.17l-.465.192c-.077.032-.156.062-.233.097l-.231.108-.465.22c-.153.078-.305.162-.459.243-.153.082-.309.162-.458.256-.151.09-.303.183-.455.273-.152.093-.297.197-.447.296-.303.193-.587.42-.883.635-.144.113-.284.233-.427.35l-.215.177c-.07.06-.137.125-.207.187l-.415.379-.4.402A15.988 15.988 0 0 0 4.33 7.9c-.057.08-.12.156-.173.238l-.164.245c-.109.166-.227.326-.326.499l-.31.513c-.095.176-.19.353-.287.53a16.69 16.69 0 0 0-.976 2.251 17.43 17.43 0 0 0-.638 2.43c-.152.835-.232 1.69-.253 2.556 0 .217-.012.433-.002.65l.024.654c.036.435.068.873.136 1.309l.046.328.06.326.063.326.031.164.039.162.158.649c.063.213.128.428.19.643.273.854.61 1.693 1.017 2.506a16.459 16.459 0 0 0 3.267 4.4 16.621 16.621 0 0 0 4.63 3.104 16.39 16.39 0 0 0 5.45 1.37c1.882.15 3.785-.064 5.596-.569a15.812 15.812 0 0 0 2.632-.99 16.6 16.6 0 0 0 2.411-1.415 16.517 16.517 0 0 0 3.88-3.907 16.69 16.69 0 0 0 2.327-4.855c.244-.854.418-1.72.523-2.587.022-.217.054-.433.067-.65l.04-.649c.007-.433.019-.863-.006-1.29a15.54 15.54 0 0 0-.302-2.52 16.482 16.482 0 0 0-.666-2.391 16.374 16.374 0 0 0-2.254-4.182 15.499 15.499 0 0 0-1.484-1.72 3.161 3.161 0 0 0-.198-.197l-.035-.035-.036-.033-.07-.067c-.182-.179-.36-.332-.516-.471-.155-.141-.3-.254-.419-.352-.234-.196-.383-.303-.398-.315-.022-.017-.03-.023-.042-.068-.051-.145-.087-.363-.013-.55.076-.187.262-.346.677-.356.016 0 .081.005.108.02.015.011.176.128.433.342.129.105.285.23.453.382.086.077.177.157.273.24.094.085.188.18.29.274.025.024.05.05.076.073l.062.06c.148.136.283.286.426.43a17.566 17.566 0 0 1 2.913 4.086c.395.769.736 1.58 1.02 2.423.077.21.132.425.198.639.065.214.13.429.18.649.052.22.109.439.157.66l.128.67c.151.9.241 1.82.258 2.753z"/>
</svg>
