<svg xmlns="http://www.w3.org/2000/svg" width="35" height="35" viewBox="0 0 35 35">
    <path fill="#000" fill-rule="evenodd" d="M34.742 14.532l-.128-.67c-.049-.222-.105-.44-.157-.66-.05-.22-.116-.434-.18-.649-.066-.214-.12-.43-.199-.638a17.472 17.472 0 0 0-1.02-2.426 17.408 17.408 0 0 0-2.912-4.084c-.143-.144-.278-.295-.426-.431l-.062-.06c-.026-.023-.051-.047-.076-.072-.102-.094-.196-.19-.291-.273a29.772 29.772 0 0 0-.272-.24c-.168-.154-.324-.279-.454-.383-.256-.214-.417-.33-.432-.343a.32.32 0 0 0-.108-.02c-.415.01-.601.17-.677.356-.074.189-.038.406.012.55.012.046.02.052.042.07.015.011.165.117.4.314.118.098.262.21.418.352.156.138.334.292.516.471l.07.067.036.034.035.034c.069.063.135.128.198.196a15.51 15.51 0 0 1 1.484 1.72 16.358 16.358 0 0 1 2.254 4.183c.282.768.498 1.57.666 2.39.173.82.265 1.666.303 2.521.024.427.012.858.004 1.29-.012.216-.026.432-.04.649-.012.217-.045.432-.066.65-.105.866-.279 1.733-.522 2.587a16.674 16.674 0 0 1-2.327 4.855 16.518 16.518 0 0 1-3.88 3.907c-.76.537-1.567 1.01-2.413 1.414-.844.404-1.724.743-2.632.992-1.81.505-3.713.718-5.595.57a16.39 16.39 0 0 1-5.45-1.372 16.586 16.586 0 0 1-4.63-3.104 16.429 16.429 0 0 1-3.267-4.4 17.383 17.383 0 0 1-1.016-2.506l-.19-.642-.16-.65-.039-.162-.03-.164-.062-.327-.061-.325-.046-.328c-.068-.435-.1-.874-.136-1.31l-.025-.652c-.009-.218.003-.435.003-.651.02-.865.101-1.72.253-2.555.155-.835.37-1.647.638-2.431.269-.785.605-1.533.976-2.25l.288-.531.309-.513c.099-.173.217-.333.326-.498l.164-.247c.054-.082.116-.158.174-.237a15.9 15.9 0 0 1 1.49-1.77l.399-.402.415-.38c.07-.061.137-.126.207-.187l.215-.177c.143-.115.283-.236.427-.348.295-.217.579-.444.882-.636.151-.098.296-.204.448-.295l.455-.274c.15-.093.305-.174.458-.256.154-.08.306-.165.46-.243l.464-.22.23-.109.234-.097c.156-.064.31-.128.465-.19.154-.065.312-.113.467-.17.155-.054.308-.112.462-.162l.464-.14a16.213 16.213 0 0 1 1.827-.417l.223-.04c.075-.01.15-.019.223-.03.149-.019.296-.04.442-.058.294-.025.582-.062.868-.072l.425-.021.322-.005.073-.001.138-.002c.088-.003.168.002.241.003l.458.012h.507c.152-.003.328.01.517.015.094.004.191.006.291.013l.298.022.298.022.285.032c.184.021.355.037.498.06.286.04.466.063.434.049.657.086 1.208.16 1.353.081.073-.038.042-.114-.135-.233a3.725 3.725 0 0 0-.38-.216c-.169-.08-.381-.167-.64-.269a12.926 12.926 0 0 0-2.011-.585c-.314-.058-.587-.113-.784-.135l-.315-.043-.13-.008-.369-.01c-.16-.005-.352-.012-.573-.006a8.524 8.524 0 0 1-.16.002c-.322 0-.646.026-.976.042-.66.055-1.336.139-2.022.27a19.23 19.23 0 0 0-2.079.534l-.522.183c-.174.064-.352.12-.524.196l-.524.214-.131.054-.13.061-.258.122c-.698.319-1.379.71-2.052 1.138l-.5.334c-.166.111-.325.239-.49.358l-.244.183c-.083.06-.159.128-.238.193l-.476.393A19.273 19.273 0 0 0 4.25 6.064a19.234 19.234 0 0 0-1.545 2.089 17.612 17.612 0 0 0-2.14 4.945c-.232.894-.408 1.815-.49 2.754-.086.939-.1 1.894-.036 2.852l.063.719.098.718.025.18.034.178.068.357c.023.12.043.24.07.359l.086.355c.228.948.529 1.886.922 2.793.388.909.854 1.791 1.394 2.634a17.548 17.548 0 0 0 6.676 6.05 17.681 17.681 0 0 0 5.842 1.814c2.038.268 4.123.141 6.117-.317l.373-.09c.124-.03.249-.06.37-.098l.735-.22.722-.253c.12-.04.238-.093.357-.14l.353-.145a17.765 17.765 0 0 0 2.69-1.428 16.65 16.65 0 0 0 2.381-1.861 17.507 17.507 0 0 0 4.723-7.411c.07-.232.15-.46.212-.693l.182-.698.149-.702c.026-.117.043-.235.063-.352l.057-.353c.14-.94.203-1.883.198-2.816a18.518 18.518 0 0 0-.258-2.752m-14.015-3.517a8.294 8.294 0 0 1 3.648 3.027 8.227 8.227 0 0 1 1.386 4.533 8.284 8.284 0 0 1-.752 3.497 8.302 8.302 0 0 1-4.19 4.122 8.3 8.3 0 0 1-4.705.579 8.242 8.242 0 0 1-4.25-2.101l-.216-.208-.208-.217a2.235 2.235 0 0 1-.101-.111l-.065-.075-.05-.058-.103-.117-.095-.122c-.132-.16-.25-.33-.37-.5 0 0-.03-.049-.078-.135-.047-.087-.121-.207-.195-.36a7.817 7.817 0 0 1-.47-1.127c-.288-.835-.355-1.69-.33-1.617a4.363 4.363 0 0 1 .019-.925c.036-.247.09-.418.146-.475.058-.058.118-.003.187.196.017.05.035.11.053.177.02.069.042.145.065.233.021.087.045.183.077.29.03.106.057.223.1.348.09.298.218.615.347.923.14.305.284.6.434.848.069.126.147.237.209.34.065.101.13.188.178.262.05.074.096.128.124.168l.046.06a3.8 3.8 0 0 0 .151.224c.053.072.102.148.16.217l.167.213.089.102.044.051.066.076c.028.033.059.063.089.095a7.06 7.06 0 0 0 7.678 1.781 7.09 7.09 0 0 0 3.254-2.528 7.033 7.033 0 0 0 1.293-3.909 7.037 7.037 0 0 0-1.107-3.966 7.044 7.044 0 0 0-5.14-3.217c-.087-.014-.174-.018-.261-.024-.087-.006-.173-.017-.26-.017l-.262-.007H15.15l1.064 1.064 1.41 1.41c.02.02.027.027.034.074.066.309.028.887-.784.807a.355.355 0 0 1-.101-.032l-1.408-1.41-2.296-2.3-.213-.213 1.1-1.1s1.38-1.206 2.416-1.983c1.72-1.357 1.293-.554.44.5.086-.06-1.074 1.258-1.713 1.982h2.41l.3.008c.1 0 .2.01.3.017.1.009.2.011.298.025.4.043.793.12 1.182.217.388.103.768.234 1.138.388"/>
</svg>
