<?xml version="1.0" encoding="UTF-8"?>
<!-- Created with Inkscape (http://www.inkscape.org/) -->
<svg width="50.8mm" height="50.8mm" version="1.1" viewBox="0 0 50.8 50.8" xmlns="http://www.w3.org/2000/svg">
 <g transform="translate(-215.45 -128.65)">
  <path d="m238.94 176.23-0.0743-3.2184-1.7198-0.3483c-7.5775-1.5346-13.402-7.358-14.915-14.911l-0.34436-1.7198-6.4367-0.1486v-4.4654l6.4645-0.1486 0.5564-1.9844c0.74491-2.6567 1.4779-4.2375 2.8666-6.1823 2.8852-4.0406 6.9619-6.6886 11.808-7.6702l1.7198-0.3483 0.1486-6.4367h4.4654l0.1486 6.4645 1.9844 0.5564c3.527 0.98892 5.7245 2.2092 8.3013 4.6098 2.5708 2.395 4.2675 5.27 5.3153 9.0068l0.55639 1.9844 6.4645 0.1486v4.4654l-6.4367 0.1486-0.3483 1.7198c-0.98152 4.8464-3.6296 8.9231-7.6702 11.808-1.9449 1.3887-3.5256 2.1217-6.1823 2.8666l-1.9844 0.55639-0.0743 3.2323-0.0743 3.2323h-4.4654zm6.6766-8.7422c4.2793-1.5605 7.4007-4.793 8.8899-9.2061 0.35479-1.0514 0.49106-2.2262 0.49106-4.2333s-0.13627-3.182-0.49106-4.2333c-1.4843-4.3987-4.5534-7.5858-8.8899-9.2318-1.4705-0.55814-2.1709-0.65429-4.7665-0.65429s-3.296 0.0961-4.7665 0.65429c-4.3364 1.646-7.4055 4.8331-8.8899 9.2318-0.68119 2.0187-0.68119 6.448 0 8.4667 1.7136 5.0781 5.7202 8.6886 10.878 9.8028 1.8442 0.39838 5.6388 0.0982 7.5446-0.59674zm-6.7509-4.9437c-2.6342-0.71205-4.7388-2.4163-5.8707-4.7538-0.61375-1.2675-0.72295-1.8327-0.72295-3.742s0.1092-2.4745 0.72295-3.742c0.84804-1.7513 2.6018-3.4637 4.3574-4.2546 1.7599-0.79284 5.2355-0.79284 6.9954 0 1.7556 0.7909 3.5094 2.5033 4.3574 4.2546 0.61375 1.2675 0.72296 1.8327 0.72296 3.742s-0.10921 2.4745-0.72296 3.742c-0.85657 1.769-2.6237 3.4838-4.3574 4.2284-1.3696 0.58826-4.2339 0.86275-5.4821 0.52536z"/>
 </g>
</svg>
