<svg xmlns="http://www.w3.org/2000/svg" viewBox="0 0 40 40" height="40" width="40" ><defs><style>.cls-1{opacity:0.28;}.cls-2{opacity:0.36;}.cls-3{opacity:0.44;}.cls-4{opacity:0.52;}.cls-5{opacity:0.6;}.cls-6{opacity:0.68;}.cls-7{opacity:0.76;}.cls-8{opacity:0.84;}.cls-9{opacity:0.92;}.cls-10{opacity:0.1;}.cls-11{opacity:0.2;}</style></defs><g id="Livello_2" data-name="Livello 2"><g id="Livello_1-2" data-name="Livello 1"><g class="cls-1"><path d="M6.29,21.71H1.71a1.71,1.71,0,0,1,0-3.42H6.29a1.71,1.71,0,0,1,0,3.42Z"/></g><g class="cls-2"><path d="M4.17,30.86a1.71,1.71,0,0,1-.86-3.2l4-2.29a1.71,1.71,0,0,1,1.71,3L5,30.63A1.75,1.75,0,0,1,4.17,30.86Z"/></g><g class="cls-3"><path d="M10.86,37.55a1.66,1.66,0,0,1-.86-.23A1.72,1.72,0,0,1,9.37,35l2.29-4a1.71,1.71,0,0,1,3,1.71l-2.29,4A1.71,1.71,0,0,1,10.86,37.55Z"/></g><g class="cls-4"><path d="M20,40a1.71,1.71,0,0,1-1.71-1.71V33.71a1.71,1.71,0,0,1,3.42,0v4.58A1.71,1.71,0,0,1,20,40Z"/></g><g class="cls-5"><path d="M29.14,37.55a1.71,1.71,0,0,1-1.48-.86l-2.29-4a1.71,1.71,0,0,1,3-1.71l2.29,4A1.72,1.72,0,0,1,30,37.32,1.66,1.66,0,0,1,29.14,37.55Z"/></g><g class="cls-6"><path d="M35.83,30.86a1.75,1.75,0,0,1-.85-.23l-4-2.29a1.71,1.71,0,0,1,1.71-3l4,2.29a1.71,1.71,0,0,1-.86,3.2Z"/></g><g class="cls-7"><path d="M38.29,21.71H33.71a1.71,1.71,0,0,1,0-3.42h4.58a1.71,1.71,0,0,1,0,3.42Z"/></g><g class="cls-8"><path d="M31.88,14.86a1.71,1.71,0,0,1-.86-3.2l4-2.29a1.71,1.71,0,0,1,1.71,3l-4,2.29A1.75,1.75,0,0,1,31.88,14.86Z"/></g><g class="cls-9"><path d="M26.86,9.84A1.76,1.76,0,0,1,26,9.61a1.72,1.72,0,0,1-.63-2.34l2.29-4a1.71,1.71,0,1,1,3,1.71L28.34,9A1.71,1.71,0,0,1,26.86,9.84Z"/></g><path d="M20,8a1.71,1.71,0,0,1-1.71-1.71V1.71a1.71,1.71,0,0,1,3.42,0V6.29A1.71,1.71,0,0,1,20,8Z"/><g class="cls-10"><path d="M13.14,9.84A1.71,1.71,0,0,1,11.66,9L9.37,5a1.71,1.71,0,1,1,3-1.71l2.29,4A1.72,1.72,0,0,1,14,9.61,1.76,1.76,0,0,1,13.14,9.84Z"/></g><g class="cls-11"><path d="M8.12,14.86a1.75,1.75,0,0,1-.85-.23l-4-2.29A1.71,1.71,0,1,1,5,9.37l4,2.29a1.71,1.71,0,0,1-.86,3.2Z"/></g></g></g></svg>