<svg width="24" height="24" viewBox="0 0 24 24" fill="none" xmlns="http://www.w3.org/2000/svg">
<path d="M22 13.5C21.724 13.5 21.5 13.7235 21.5 14V17.117L18.8275 15.5135C18.5905 15.3715 18.2835 15.4475 18.1415 15.685C17.9995 15.922 18.076 16.229 18.313 16.371L20.962 17.9605L18.199 19.342C17.952 19.4655 17.852 19.766 17.9755 20.013C18.063 20.1885 18.2395 20.2895 18.4235 20.2895C18.4985 20.2895 18.575 20.2725 18.6465 20.237L22.224 18.448C22.227 18.4465 22.2295 18.444 22.2325 18.4425C22.2605 18.428 22.2855 18.4085 22.3105 18.389C22.3205 18.381 22.3325 18.3745 22.342 18.366C22.363 18.3465 22.3805 18.322 22.398 18.298C22.4075 18.2855 22.419 18.2745 22.4275 18.261C22.428 18.26 22.429 18.2595 22.4295 18.2585C22.4315 18.255 22.4315 18.2515 22.4335 18.248C22.4605 18.201 22.4775 18.149 22.488 18.095C22.491 18.078 22.4935 18.0625 22.495 18.0455C22.495 18.029 22.5 18.015 22.5 18V14C22.5 13.7235 22.276 13.5 22 13.5Z" fill="black"/>
<path d="M22.4975 5.9815C22.497 5.9675 22.4935 5.954 22.4915 5.94C22.4855 5.892 22.4735 5.8465 22.4545 5.803C22.4505 5.7945 22.4515 5.785 22.4475 5.7765C22.445 5.771 22.44 5.768 22.437 5.763C22.409 5.7115 22.374 5.665 22.33 5.626C22.322 5.619 22.3125 5.6145 22.304 5.608C22.2785 5.588 22.2535 5.5675 22.224 5.5525L18.6465 3.7635C18.3985 3.641 18.099 3.7405 17.9755 3.987C17.852 4.234 17.952 4.5345 18.199 4.658L20.882 6L18.199 7.342C17.952 7.4655 17.852 7.766 17.9755 8.013C18.063 8.1885 18.2395 8.2895 18.4235 8.2895C18.4985 8.2895 18.575 8.2725 18.6465 8.237L21.5 6.809V10C21.5 10.2765 21.724 10.5 22 10.5C22.276 10.5 22.5 10.2765 22.5 10V6C22.5 5.9935 22.4975 5.988 22.4975 5.9815Z" fill="black"/>
<path d="M8.646 3.2365L11.5 1.809V5C11.5 5.2765 11.724 5.5 12 5.5C12.276 5.5 12.5 5.2765 12.5 5V1.809L15.354 3.236C15.426 3.2715 15.502 3.2885 15.577 3.2885C15.7605 3.2885 15.937 3.1875 16.025 3.012C16.1485 2.765 16.0485 2.4645 15.8015 2.341L12.224 0.552C12.2195 0.55 12.2145 0.551 12.21 0.5485C12.1455 0.5195 12.0755 0.5 12 0.5C11.9245 0.5 11.8545 0.5195 11.79 0.5495C11.7855 0.5515 11.7805 0.5505 11.776 0.553L8.1985 2.342C7.9515 2.4655 7.8515 2.766 7.975 3.013C8.0985 3.2595 8.398 3.359 8.646 3.2365Z" fill="black"/>
<path d="M6.025 3.9875C5.9015 3.741 5.6015 3.6415 5.354 3.764L1.7765 5.553C1.747 5.568 1.722 5.5885 1.6965 5.608C1.688 5.6145 1.6785 5.619 1.67 5.626C1.626 5.665 1.591 5.7115 1.563 5.763C1.56 5.768 1.555 5.771 1.5525 5.7765C1.548 5.785 1.549 5.7945 1.5455 5.803C1.5265 5.8465 1.5145 5.892 1.5085 5.94C1.507 5.954 1.503 5.9675 1.5025 5.9815C1.5025 5.988 1.5 5.9935 1.5 6V10C1.5 10.2765 1.724 10.5 2 10.5C2.276 10.5 2.5 10.2765 2.5 10V6.809L5.354 8.236C5.426 8.2715 5.502 8.2885 5.577 8.2885C5.7605 8.2885 5.937 8.1875 6.025 8.012C6.1485 7.765 6.0485 7.4645 5.8015 7.341L3.118 6L5.801 4.658C6.0485 4.5345 6.1485 4.2345 6.025 3.9875Z" fill="black"/>
<path d="M5.8015 19.342L3.0385 17.96L5.6875 16.3705C5.9245 16.2285 6.001 15.9215 5.859 15.6845C5.717 15.447 5.41 15.3715 5.173 15.513L2.5 17.117V14C2.5 13.7235 2.276 13.5 2 13.5C1.724 13.5 1.5 13.7235 1.5 14V18C1.5 18.015 1.505 18.029 1.506 18.044C1.5075 18.061 1.51 18.0765 1.513 18.0935C1.5235 18.1475 1.5405 18.1995 1.5675 18.2465C1.5695 18.25 1.569 18.254 1.5715 18.257C1.572 18.258 1.573 18.2585 1.5735 18.2595C1.582 18.273 1.5935 18.284 1.6035 18.297C1.621 18.3205 1.6385 18.345 1.659 18.3645C1.6685 18.3735 1.6805 18.3795 1.6905 18.388C1.7155 18.4075 1.74 18.427 1.768 18.4415C1.771 18.443 1.773 18.4455 1.7765 18.447L5.354 20.236C5.426 20.2715 5.502 20.2885 5.577 20.2885C5.7605 20.2885 5.937 20.1875 6.025 20.012C6.1485 19.7655 6.0485 19.4655 5.8015 19.342Z" fill="black"/>
<path d="M15.354 20.7635L12.5 22.191V19C12.5 18.7235 12.276 18.5 12 18.5C11.724 18.5 11.5 18.7235 11.5 19V22.191L8.646 20.764C8.398 20.6415 8.0985 20.741 7.975 20.9875C7.8515 21.2345 7.9515 21.535 8.1985 21.6585L11.776 23.4475C11.7805 23.4495 11.7855 23.449 11.79 23.451C11.8545 23.4805 11.9245 23.5 12 23.5C12.0755 23.5 12.1455 23.4805 12.2095 23.4505C12.214 23.4485 12.219 23.4495 12.2235 23.447L15.801 21.658C16.048 21.5345 16.148 21.234 16.0245 20.987C15.9015 20.7405 15.6015 20.641 15.354 20.7635Z" fill="black"/>
<path d="M8.1985 9.658L11.5 11.309V15C11.5 15.2765 11.724 15.5 12 15.5C12.276 15.5 12.5 15.2765 12.5 15V11.309L15.8015 9.658C16.0485 9.5345 16.1485 9.234 16.025 8.987C15.9015 8.7405 15.6015 8.641 15.354 8.7635L12 10.441L8.646 8.764C8.398 8.6415 8.0985 8.741 7.975 8.9875C7.8515 9.2345 7.9515 9.5345 8.1985 9.658Z" fill="black"/>
</svg>
