<svg width="200" height="100" viewBox="0 0 200 100" fill="none" xmlns="http://www.w3.org/2000/svg">
<path fill-rule="evenodd" clip-rule="evenodd" d="M139.703 30.8573C142.667 30.8022 145.553 31.9017 147.846 33.9601C149.332 35.2713 150.468 36.9963 151.136 38.9543V39.0039H151.782V30.3331H151.207L147.368 32.5929C146.632 32.076 145.847 31.6462 145.028 31.3107C142.943 30.4341 140.727 29.9897 138.494 30.0002C133.854 30.0002 129.549 30.9707 126.382 32.7346C122.686 34.7889 120.727 37.8279 120.727 41.5187C120.727 49.0701 127.242 53.0584 139.561 53.0584C142.368 53.14 145.127 52.2421 147.439 50.494L151.201 52.7184H151.808V44.0547H151.162V44.1043C150.634 45.6054 149.841 46.9775 148.829 48.1422C147.245 49.984 144.382 52.18 139.729 52.18C136.588 52.18 134.035 50.912 132.354 48.5176C130.993 46.4953 130.263 44.0458 130.273 41.5328C130.227 40.146 130.437 38.7632 130.891 37.4675C131.344 36.1718 132.032 34.9899 132.913 33.9929C133.793 32.9958 134.849 32.2041 136.016 31.6653C137.182 31.1265 138.437 30.8516 139.703 30.8573ZM51.8898 41.5185C51.8898 49.928 57.698 52.1765 61.1631 52.1798C67.7992 52.1757 71.0269 48.7257 71.0269 41.5539C71.0269 34.8737 67.3365 30.8926 61.1514 30.8926C56.5432 30.8926 51.8898 34.1512 51.8898 41.5185ZM61.1707 30C66.548 30 71.5892 31.3318 75.3895 33.7616V33.797C78.1557 35.6176 79.7456 38.4582 79.7456 41.5893C79.7456 44.7204 78.1557 47.554 75.3895 49.3462C71.5957 51.776 66.5739 53.1078 61.1707 53.1078C55.7676 53.1078 50.7264 51.776 46.952 49.3462C44.1858 47.5115 42.6024 44.7275 42.6024 41.5539C42.6024 38.3803 44.1858 35.5538 46.952 33.7616C50.7458 31.3318 55.7935 30 61.1707 30ZM194.859 30.3324V31.1896H191.505V51.8676H194.859V52.7176L194.794 52.7247H179.503V51.8676H182.844V41.3833H169.633V51.8676H172.981V52.7247H157.632V51.8676H160.979V31.1896H157.632V30.3324H172.975L172.981 30.4032V31.1896L169.633 31.1825V40.5262H182.844V31.1896H179.503V30.3324H194.859ZM101.083 45.5351H87.7171L93.9281 37.1406L101.083 45.5351ZM98.7624 30H98.2971L81.9844 51.8681H78.3069V52.7253H87.5103V51.8681H82.9861L87.0902 46.3993H101.787L106.376 51.8823H101.981V52.7394H121.26V51.8681H116.995L98.7624 30ZM36.4539 44.1042V44.0546L37.0744 44.0476V52.7183H36.4733L32.7118 50.4939C30.3971 52.2412 27.6365 53.139 24.8269 53.0583C12.5083 53.0583 6 49.0701 6 41.5186C6 37.8279 7.93892 34.7888 11.6487 32.7345C14.8221 30.9706 19.12 30.0001 23.7669 30.0001C25.9979 29.9922 28.211 30.4365 30.2946 31.3106C31.1119 31.6454 31.8941 32.0752 32.6278 32.5928L36.5056 30.333H37.0873V39.0038H36.441V38.9542C35.7726 36.9945 34.6338 35.2691 33.1448 33.96C30.8557 31.9026 27.9743 30.803 25.0143 30.8573C20.432 30.8573 15.5653 34.5976 15.5653 41.5328C15.5523 44.0463 16.2824 46.4969 17.6464 48.5175C19.3268 50.9119 21.8733 52.1799 25.0143 52.1799C29.6742 52.1799 32.5373 49.9839 34.1143 48.1421C35.1271 46.9764 35.9219 45.6046 36.4539 44.1042ZM133.943 63.9026L135.313 63.8956L131.474 66.6654L135.08 70.9087H133.995L130.776 67.14L128.579 68.7197V70.9087H127.732V63.8956H128.579V67.7067L133.943 63.9026ZM124.462 66.0835C124.462 66.5864 124.242 67.4436 122.756 67.4436H119.356V64.7092H122.756C123.906 64.7092 124.462 65.1555 124.462 66.0693V66.0835ZM125.367 66.0835C125.367 64.7375 124.372 63.9016 122.782 63.9016H118.529V70.9077H119.363V68.2512H122.478L124.469 70.8935H125.477L123.467 68.2512C123.968 68.2182 124.439 67.9825 124.791 67.5898C125.142 67.1971 125.347 66.6754 125.367 66.126V66.0835ZM66.3076 63.8956L71.9951 69.669V63.8956H72.8418V70.9087H71.9951L66.3852 65.1848V70.9087H65.545V63.8956H66.3076ZM75.8879 70.9077H82.3897V70.0788H76.7281V67.734H81.9696V66.9052H76.7281V64.7234H82.3897V63.9016H75.8879V70.9077ZM100.698 63.8956L103.445 67.4588L106.185 63.9026H107.233L103.865 68.2238V70.9087H103.025V68.2309L99.6513 63.9026L100.698 63.8956ZM112.087 70.1779C110.187 70.1779 108.584 68.9098 108.584 67.401C108.584 65.8921 110.187 64.6241 112.087 64.6241C113.987 64.6241 115.584 65.8992 115.584 67.401C115.584 68.9028 113.981 70.1779 112.087 70.1779ZM112.087 63.8023C109.664 63.8023 107.699 65.4175 107.699 67.401C107.699 69.3845 109.638 70.9996 112.087 70.9996C114.537 70.9996 116.476 69.3845 116.476 67.401C116.476 65.4175 114.504 63.8023 112.087 63.8023ZM90.5235 63.9016L92.8566 69.7317L95.0024 63.9016H95.9395L93.2638 70.9077H92.4172L90.1163 65.1697L87.8155 70.9077H86.9688L84.2931 63.9016H85.2302L87.3695 69.7317L89.7027 63.9016H90.5235Z" fill="#222222"/>
</svg>
