<svg width="32" height="32" viewBox="0 0 32 32" fill="none" xmlns="http://www.w3.org/2000/svg">
<path fill-rule="evenodd" clip-rule="evenodd" d="M25.7207 8.81144C25.854 8.40277 25.9799 7.99144 26.0898 7.57544C27.3363 2.21477 20.6695 0.110107 13.2967 0.110107C11.4679 0.110107 9.59722 0.239441 7.7918 0.480774C-1.76158 1.94344 -2.0727 17.2841 4.36884 22.4188C4.92645 22.8588 5.52271 23.1974 6.14561 23.4494C6.77384 26.2728 8.11624 28.8328 10.1062 30.4188C11.4839 31.5061 13.0848 32.0001 14.7843 32.0001C21.3737 32.0001 29.4515 24.5801 31.8265 15.5754C32.6699 11.9488 29.8898 9.81411 25.7207 8.81144ZM5.19893 21.3761C1.98249 18.8128 0.488862 12.9528 1.79796 8.03611C2.34624 5.97744 3.87985 2.42877 7.96835 1.80277C9.75044 1.56477 11.5432 1.44411 13.2973 1.44411C18.6583 1.44411 22.7574 2.57611 24.2617 4.47277C24.8733 5.24344 25.0485 6.15411 24.7967 7.25544C24.6828 7.68611 24.5502 8.11411 24.407 8.53944C22.7408 8.24811 20.9107 8.11077 19.0347 8.11077C17.2059 8.11077 15.3352 8.24011 13.5298 8.48144C7.48202 9.40677 5.1423 15.8914 5.86913 21.8294C5.63863 21.6928 5.41345 21.5448 5.19893 21.3761ZM14.7843 30.6668C20.8947 30.6668 28.3962 23.3241 30.5334 15.2554C30.7852 14.1534 30.61 13.2434 29.9977 12.4728C28.4935 10.5761 24.3943 9.44411 19.0333 9.44411C17.2792 9.44411 15.4865 9.56477 13.7044 9.80277C9.61654 10.4288 8.08293 13.9774 7.53465 16.0361C6.22555 20.9528 7.71919 26.8128 10.9356 29.3761C12.0195 30.2308 13.316 30.6668 14.7843 30.6668Z" fill="#557B92"/>
<path d="M9.31934 16.5881L10.5998 16.9568C11.0222 15.4895 12.178 12.9588 15.1766 12.5001L14.9748 11.1821C12.2493 11.5995 10.1874 13.5695 9.31934 16.5881Z" fill="#557B92"/>
</svg>
