<svg width="32" height="32" viewBox="0 0 32 32" fill="none" xmlns="http://www.w3.org/2000/svg">
<path d="M11.992 16.0002H13.3244V13.3335H15.9892V12.0002H13.3244V9.3335H11.992V12.0002H9.32715V13.3335H11.992V16.0002Z" fill="#557B92"/>
<rect x="9.32715" y="20" width="13.3241" height="1.33333" fill="#557B92"/>
<rect x="9.32715" y="25.3335" width="9.32686" height="1.33333" fill="#557B92"/>
<path fill-rule="evenodd" clip-rule="evenodd" d="M27.59 9.33333L18.6536 0.390667C18.4017 0.138667 18.0673 0 17.7116 0H5.32948C4.59466 0 3.99707 0.598 3.99707 1.33333V30.6667C3.99707 31.402 4.59466 32 5.32948 32H26.648C27.3828 32 27.9804 31.402 27.9804 30.6667V10.276C27.9804 9.92 27.8419 9.58533 27.59 9.33333ZM18.6536 2.276L25.706 9.33333H18.6536V2.276ZM5.32948 1.33333V30.6667H26.6487L26.648 10.6667H17.9874C17.8108 10.6667 17.6416 10.596 17.5164 10.4713C17.3911 10.3467 17.3212 10.1767 17.3212 10V1.33333H5.32948Z" fill="#557B92"/>
</svg>
