<svg width="32" height="32" viewBox="0 0 32 32" fill="none" xmlns="http://www.w3.org/2000/svg">
<path fill-rule="evenodd" clip-rule="evenodd" d="M25.2433 10H29.3333C30.8 10 32 11.2 32 12.6667V15.3333C32 16.8 30.8 18 29.3333 18H25.964V17.9987C24.54 22.946 21.012 26 16 26C10.988 26 7.46 22.946 6.03667 17.9987V18H2.66667C1.2 18 0 16.8 0 15.3333V12.6667C0 11.2 1.2 10 2.66667 10H6.748L6.74733 10.0007C9.40933 7.526 14.9913 6 16 6C16.958 6 22.566 7.526 25.2433 10ZM2.66667 16.6667H5.71533C5.46733 15.4267 5.33333 14.0913 5.33333 12.6667C5.33333 12.2033 5.46333 11.7587 5.68667 11.3333H2.66667C1.93133 11.3333 1.33333 11.9313 1.33333 12.6667V15.3333C1.33333 16.0687 1.93133 16.6667 2.66667 16.6667ZM16 24.6667C10.2433 24.6667 6.66667 20.0687 6.66667 12.6667C6.66667 11.594 8.164 10.2493 10.672 9.06867C13.12 7.91667 15.5687 7.35133 15.9987 7.33333C17.3813 7.39667 25.3333 10.0187 25.3333 12.6667C25.3333 20.0687 21.7567 24.6667 16 24.6667ZM29.3333 16.6667C30.0687 16.6667 30.6667 16.0687 30.6667 15.3333V12.6667C30.6667 11.9313 30.0687 11.3333 29.3333 11.3333H26.3113C26.536 11.7587 26.6667 12.2033 26.6667 12.6667C26.6667 14.0913 26.5327 15.4267 26.2847 16.6667H29.3333Z" fill="#557B92"/>
<path d="M10.5894 13.1633L10.7434 14.4873C12.3414 14.3013 14.1414 14.2853 15.9994 14.2853C17.8574 14.2853 19.6574 14.3006 21.2554 14.4873L21.4094 13.1633C19.7407 12.9686 17.898 12.9526 15.9987 12.9526C14.0994 12.9526 12.258 12.9686 10.5894 13.1633Z" fill="#557B92"/>
<path d="M15.9998 17.0553C14.1418 17.0553 12.3418 17.0399 10.7438 16.8533L10.5898 18.1773C12.2585 18.3719 14.1012 18.3879 16.0005 18.3879C17.8998 18.3879 19.7425 18.3719 21.4112 18.1773L21.2572 16.8533C19.6578 17.0399 17.8578 17.0553 15.9998 17.0553Z" fill="#557B92"/>
</svg>
