<svg width="48" height="48" viewBox="0 0 48 48" fill="none" xmlns="http://www.w3.org/2000/svg">
<path fill-rule="evenodd" clip-rule="evenodd" d="M0 24C0 10.767 10.767 0 24 0C37.233 0 48 10.767 48 24C48 37.233 37.233 48 24 48C10.767 48 0 37.233 0 24ZM2 23.9996C2 36.1306 11.869 45.9997 24 45.9997C36.131 45.9997 46 36.1306 46 23.9996C46 11.8685 36.131 1.99947 24 1.99947C11.869 1.99947 2 11.8685 2 23.9996Z" fill="white"/>
<path fill-rule="evenodd" clip-rule="evenodd" d="M19.06 13.4115L33.286 22.3035C34.54 23.0865 34.54 24.9125 33.286 25.6946L19.06 34.5866C18.722 34.7976 18.358 34.8936 18.004 34.8936C16.963 34.8936 16 34.0626 16 32.8906V15.1075C16 13.9355 16.962 13.1045 18.004 13.1045C18.359 13.1045 18.722 13.2005 19.06 13.4115ZM18.008 15.1128L18 32.8909L32.226 23.9999L18.008 15.1128Z" fill="white"/>
</svg>
