<svg width="92" height="46" viewBox="0 0 92 46" fill="none" xmlns="http://www.w3.org/2000/svg">
<g clip-path="url(#clip0_293_7197)">
<path d="M31.5486 22.8713C31.6742 19.2103 26.3186 16.1001 20.1453 16.1001C13.9721 16.1001 8.74023 19.1946 8.74023 22.8713C8.74023 26.5481 13.9703 29.6425 20.1453 29.6425C22.7882 29.6425 25.2499 29.0707 27.2094 28.1363C26.3824 28.3027 25.5408 28.3856 24.6972 28.3838C20.9351 28.3838 17.8859 26.8253 17.8859 24.9093C17.8859 22.9933 20.9351 21.4313 24.6972 21.4313C26.3552 21.4313 27.8353 21.6736 29.0556 22.2367C29.1916 22.2995 29.6275 22.5383 29.7373 22.7597C29.4375 22.6267 29.1197 22.5385 28.7941 22.4982C27.0508 22.3117 26.2453 22.962 26.0047 23.5181C25.6561 24.3218 26.2785 25.3382 27.8283 25.4794C29.5263 25.6328 30.5201 25.1063 31.1023 24.3061C31.3854 23.8804 31.5403 23.3824 31.5486 22.8713Z" fill="#1D1D1B"/>
<path fill-rule="evenodd" clip-rule="evenodd" d="M51.4578 19.8918H48.6875C48.6658 19.8894 48.6438 19.8915 48.623 19.8981C48.6021 19.9046 48.5829 19.9155 48.5664 19.9299C48.55 19.9444 48.5368 19.9621 48.5276 19.9819C48.5185 20.0018 48.5136 20.0233 48.5132 20.0452V25.8628C48.5138 25.8845 48.5189 25.9059 48.5282 25.9255C48.5374 25.9452 48.5507 25.9627 48.5671 25.9769C48.5835 25.9912 48.6026 26.0019 48.6234 26.0083C48.6441 26.0148 48.666 26.0169 48.6875 26.0145H51.4578C51.4793 26.0169 51.5012 26.0148 51.5219 26.0083C51.5427 26.0019 51.5618 25.9912 51.5782 25.9769C51.5946 25.9627 51.6079 25.9452 51.6171 25.9255C51.6264 25.9059 51.6315 25.8845 51.6321 25.8628V20.0452C51.6317 20.0233 51.6268 20.0018 51.6177 19.9819C51.6085 19.9621 51.5953 19.9444 51.5789 19.9299C51.5624 19.9155 51.5432 19.9046 51.5223 19.8981C51.5015 19.8915 51.4795 19.8894 51.4578 19.8918ZM52.258 28.0246H47.8891C46.8047 28.0246 45.9365 27.2784 45.9365 26.3492V19.5501C45.9365 18.6226 46.8082 17.8765 47.8891 17.8765H52.258C53.3406 17.8765 54.2105 18.6226 54.2105 19.5501V26.3492C54.2088 27.2784 53.3388 28.0246 52.258 28.0246Z" fill="#1D1D1B"/>
<path fill-rule="evenodd" clip-rule="evenodd" d="M80.6328 28.0245H83.2601L80.7723 17.8816H75.8386L73.3525 28.0245H75.9815L76.4644 25.8296H80.1516L80.6328 28.0245ZM76.8951 23.884L77.7789 19.8743H78.825L79.7123 23.884H76.8951Z" fill="#1D1D1B"/>
<path fill-rule="evenodd" clip-rule="evenodd" d="M43.5954 24.2329V26.3424C43.5954 27.2716 42.7238 28.0177 41.6411 28.0177H37.5774C36.4947 28.0177 35.623 27.2716 35.623 26.3424V19.5433C35.623 18.6158 36.4947 17.8696 37.5774 17.8696H41.6411C42.7238 17.8696 43.5954 18.6158 43.5954 19.5433V21.4331H41.0745V20.0384C41.0742 20.0165 41.0693 19.995 41.0601 19.9751C41.0509 19.9553 41.0377 19.9375 41.0213 19.9231C41.0049 19.9087 40.9856 19.8978 40.9648 19.8912C40.9439 19.8847 40.9219 19.8825 40.9002 19.885H38.3758C38.3541 19.8825 38.3321 19.8847 38.3112 19.8912C38.2904 19.8978 38.2711 19.9087 38.2547 19.9231C38.2383 19.9375 38.2251 19.9553 38.2159 19.9751C38.2067 19.995 38.2018 20.0165 38.2015 20.0384V25.856C38.2021 25.8777 38.2072 25.899 38.2164 25.9187C38.2257 25.9383 38.239 25.9558 38.2553 25.9701C38.2717 25.9843 38.2909 25.995 38.3116 26.0015C38.3324 26.008 38.3542 26.0101 38.3758 26.0076H40.8967C40.9183 26.0101 40.9402 26.008 40.9609 26.0015C40.9816 25.995 41.0008 25.9843 41.0172 25.9701C41.0336 25.9558 41.0468 25.9383 41.0561 25.9187C41.0654 25.899 41.0705 25.8777 41.071 25.856V24.2329H43.5954Z" fill="#1D1D1B"/>
<path fill-rule="evenodd" clip-rule="evenodd" d="M64.4808 23.9886C64.4808 23.0594 63.8933 22.6479 62.8822 22.4039C60.5391 21.8408 59.528 21.5967 59.3501 21.5514C59.242 21.52 59.1549 21.4747 59.1549 21.3526V20.0451C59.1552 20.0232 59.1601 20.0017 59.1693 19.9818C59.1785 19.962 59.1917 19.9443 59.2081 19.9298C59.2245 19.9154 59.2438 19.9045 59.2646 19.898C59.2855 19.8914 59.3075 19.8893 59.3292 19.8917H61.7072C61.7289 19.8893 61.7509 19.8914 61.7717 19.898C61.7926 19.9045 61.8119 19.9154 61.8283 19.9298C61.8447 19.9443 61.8579 19.962 61.8671 19.9818C61.8762 20.0017 61.8811 20.0232 61.8815 20.0451V20.8976H64.4094V19.5552C64.4094 18.6278 63.5377 17.8816 62.4568 17.8816H58.5517C57.4673 17.8816 56.5974 18.6278 56.5974 19.5552V21.8216C56.5974 22.7491 57.2023 23.1448 58.2501 23.4046C60.4502 23.9363 61.3881 24.1664 61.6932 24.2414C61.8344 24.2728 61.9251 24.3338 61.9251 24.4401V25.8575C61.9242 25.8791 61.919 25.9003 61.9096 25.9198C61.9003 25.9394 61.887 25.9568 61.8707 25.971C61.8544 25.9852 61.8353 25.9959 61.8147 26.0025C61.794 26.009 61.7723 26.0113 61.7507 26.0091H59.2612C59.2396 26.0116 59.2178 26.0095 59.197 26.003C59.1763 25.9965 59.1571 25.9858 59.1407 25.9716C59.1244 25.9573 59.1111 25.9398 59.1018 25.9202C59.0926 25.9005 59.0875 25.8792 59.0869 25.8575V24.9858H56.5625V26.3421C56.5625 27.2713 57.4342 28.0175 58.5168 28.0175H62.5265C63.6092 28.0175 64.4791 27.2713 64.4791 26.3421L64.4808 23.9886Z" fill="#1D1D1B"/>
<path fill-rule="evenodd" clip-rule="evenodd" d="M65.4863 19.8917H68.2095V28.0245H70.7827V19.8917H73.5058V17.8816H65.4863V19.8917Z" fill="#1D1D1B"/>
<path d="M82.9641 18.4273C82.9641 18.5709 82.9072 18.7088 82.806 18.8107C82.7047 18.9126 82.5673 18.9703 82.4236 18.9712C82.279 18.9708 82.1405 18.9131 82.0383 18.8109C81.936 18.7086 81.8784 18.5701 81.8779 18.4255C81.8789 18.281 81.9369 18.1426 82.0395 18.0407C82.1421 17.9388 82.2808 17.8816 82.4253 17.8816C82.4966 17.8809 82.5671 17.8948 82.6328 17.9224C82.6984 17.95 82.7578 17.9907 82.8071 18.042C82.8583 18.0921 82.8986 18.1521 82.9256 18.2184C82.9525 18.2846 82.9656 18.3557 82.9641 18.4273ZM82.8682 18.4273C82.869 18.3675 82.8578 18.3082 82.8354 18.2528C82.8129 18.1974 82.7796 18.1471 82.7374 18.1048C82.6963 18.0619 82.6467 18.0281 82.5917 18.0056C82.5368 17.9831 82.4777 17.9723 82.4184 17.974C82.3591 17.9732 82.3003 17.9848 82.2457 18.0079C82.191 18.031 82.1418 18.0652 82.1011 18.1082C82.0168 18.1948 81.9697 18.3109 81.9697 18.4316C81.9697 18.5524 82.0168 18.6685 82.1011 18.755C82.1416 18.7974 82.1903 18.8312 82.2443 18.8542C82.2982 18.8773 82.3562 18.8892 82.4149 18.8892C82.4735 18.8892 82.5316 18.8773 82.5855 18.8542C82.6395 18.8312 82.6882 18.7974 82.7287 18.755C82.7737 18.7129 82.8093 18.6618 82.8333 18.6051C82.8574 18.5483 82.8692 18.4872 82.8682 18.4255V18.4273ZM82.6938 18.7411H82.5526L82.4515 18.4883H82.2998V18.7411H82.1656V18.1135H82.4567C82.5192 18.1099 82.5809 18.1284 82.6311 18.1658C82.6498 18.1827 82.6646 18.2034 82.6746 18.2266C82.6845 18.2498 82.6893 18.2748 82.6886 18.3C82.6889 18.3361 82.6781 18.3715 82.6574 18.4012C82.6368 18.4308 82.6075 18.4534 82.5735 18.4656L82.6938 18.7411ZM82.2998 18.3924H82.4375C82.516 18.3924 82.5561 18.3628 82.5561 18.3018C82.5561 18.2407 82.5195 18.2163 82.448 18.2163H82.2998V18.3924Z" fill="#1D1D1B"/>
</g>
<defs>
<clipPath id="clip0_293_7197">
<rect width="74.52" height="13.5424" fill="white" transform="translate(8.74023 16.1001)"/>
</clipPath>
</defs>
</svg>
