<svg xmlns="http://www.w3.org/2000/svg" viewBox="0 0 400 400"><g id="Livello_2" data-name="Livello 2"><g id="Livello_1-2" data-name="Livello 1"><polygon points="297.29 212.35 297.29 188.03 292.58 188.03 284.4 202.83 276.22 188.03 271.4 188.03 271.4 212.35 275.33 212.35 275.33 193.71 282.5 206.62 286.18 206.62 293.36 193.71 293.36 212.35 297.29 212.35"/><path d="M318,203.66a12.24,12.24,0,0,0-1-5.17,7.57,7.57,0,0,0-7.33-4.69A8.79,8.79,0,0,0,305,195a8.49,8.49,0,0,0-3.14,3.37,10.53,10.53,0,0,0-1.12,5,10.05,10.05,0,0,0,1.15,4.9,8.37,8.37,0,0,0,3.23,3.34,9.23,9.23,0,0,0,4.79,1.21,10.86,10.86,0,0,0,7.63-2.85l-2.09-2.57a7.7,7.7,0,0,1-2.38,1.61,7.84,7.84,0,0,1-3,.54,5.25,5.25,0,0,1-3.62-1.27,5.73,5.73,0,0,1-1.8-3.5H318Zm-13.32-1.82a6,6,0,0,1,1.66-3.46,4.43,4.43,0,0,1,3.25-1.28,4.28,4.28,0,0,1,3.23,1.26,5.4,5.4,0,0,1,1.4,3.48Z"/><path d="M322.77,188.92v5.31h-3.63v3.23h3.61v8.61q0,6.68,6.13,6.67a10.89,10.89,0,0,0,3.15-.44v-3.17c-.42.08-.81.13-1.15.17s-.85.06-1.27.06a2.87,2.87,0,0,1-2.38-.87,4.73,4.73,0,0,1-.69-2.9v-8.15H332v-3.23h-5.49v-5.29Z"/><path d="M351.75,212.35V194.23H348v2.33a6.63,6.63,0,0,0-2.45-2,7.38,7.38,0,0,0-3.33-.72,7.9,7.9,0,0,0-4.37,1.21,8.38,8.38,0,0,0-3,3.35,11.72,11.72,0,0,0,0,9.83,8.32,8.32,0,0,0,2.91,3.37,7.51,7.51,0,0,0,4.24,1.22,7.6,7.6,0,0,0,3.48-.77,6.85,6.85,0,0,0,2.52-2.2v2.54ZM346,208.44a5.59,5.59,0,0,1-3.13.89,4.7,4.7,0,0,1-3.76-1.61,6.59,6.59,0,0,1-1.39-4.43,6.42,6.42,0,0,1,1.44-4.41,5,5,0,0,1,3.88-1.62,5.18,5.18,0,0,1,5,3.33V206A5.15,5.15,0,0,1,346,208.44Z"/><path d="M244.58,192.59c-.16-.21-.32-.4-.48-.59l-.07-.1-.68-.78-.19-.21-.51-.53-.19-.19c-.22-.22-.44-.42-.66-.61l-.07-.06-.58-.47-.19-.14-.51-.35-.16-.1c-.21-.13-.43-.26-.64-.37l-.14-.07c-.17-.08-.35-.16-.54-.23l-.19-.08-.54-.19-.11,0a5,5,0,0,0-.67-.16l-.17,0-.54-.07h-.2c-.23,0-.46,0-.7,0-6.26,0-11,8.15-11,16.77,0,5.39,2.61,8.81,7,8.81,3.15,0,5.42-1.49,9.44-8.52l2.83-5,.54.9.13.22c.19.32.39.63.58,1l1.89,3.18c3.68,6.15,5.73,8.24,9.44,8.24,4.26,0,6.63-3.45,6.63-9,0-9-4.87-16.59-10.83-16.59C249.28,187.21,246.82,189.59,244.58,192.59Zm-6.42,9.77c-3.26,5.12-4.39,6.26-6.21,6.26s-3-1.61-3-4.57c0-6.26,3.13-12.66,6.85-12.66h.42l.3,0h.05a1.65,1.65,0,0,1,.32.06H237l.27.09h0a2.08,2.08,0,0,1,.32.12l.08,0,.27.13.07,0,.31.2.08,0,.27.19.08,0,.33.27.06.06.29.26.09.08.35.35.05,0,.31.35a.44.44,0,0,1,.09.11l.38.44h0l.36.47.11.13.38.54v0c.14.18.28.38.42.58l0,.07Zm21.48,1.77c0,2.84-.94,4.49-2.88,4.49s-2.74-1.22-6.27-6.9L248.23,198c-.48-.78-.95-1.5-1.4-2.18l-.36-.54c2-3.14,3.71-4.7,5.71-4.7C256.32,190.53,259.64,196.63,259.64,204.13Z"/><path d="M77.21,224.51c.39.18,11.37,5.45,13.42,6.4a2.07,2.07,0,0,0,2.8-.61c.08-.13.42-.78.79-1.62.5-1.14-.49-1.79-1.21-2.14s-15.32-7.24-16-7.6a1.54,1.54,0,0,1-.75-1.41v-3.3a1.9,1.9,0,0,1,1.08-2c14.53-10.7,17-19.92,12.91-25.76-8.39-12-37.31,6.65-39.42,8.19a6.3,6.3,0,0,0-2.45,4.68c-.07.54-.1,3.29-.1,4s0,1.2,1.55-.1c10.1-8.32,33.43-23.18,37.91-13.87,2.2,4.55.73,11.44-10.3,19.61-.92.67-1.18-.21-1.18-.78V191c0-1.64-1.43-1-1.91-.72l-2.08,1.35a1.25,1.25,0,0,0-.71,1.29c0,.28.07,17.37.07,18.69,0,1.16,0,1.55-.57,2-.34.24-5.19,3.07-6.16,3.66-.81.49-.53,1.2-.11,1.39s5.29,2.5,6.08,2.86a1.16,1.16,0,0,1,.8,1.27v8.64c0,1.48.92.77,1.27.59s1.66-1,2.52-1.57a2.17,2.17,0,0,0,.76-2v-2.94C76.19,224.44,76.82,224.34,77.21,224.51Z"/><path d="M106.37,231.92c-.05,1,.42,1.08.63,1.08s2.29,0,2.69-.06.49-.4.49-.64.29-22.86.31-27.79c0-.92-.4-.92-.56-.92-2.07,0-3.77,8.19-5.47,8.11-1.42,0-.24-5.64-2.4-5.66-1.33,0-1.73,2.23-2.34,4.15,0,.11-1,4-2.51,4-1,0-1.79-.76-1.79-3,0-1.07,0-2.62-1.32-2.88-2.15-.45-1.67,1.79-3.59,1.43-5.18-1-9.1,9.69-6,11.08,3.77,1.71,6.53-5,7.66-4.81.86.14.3,3,3,2.85,2.21-.15,4-4.72,4.84-4.66s.1,2.74,2,2.84c2.24.12,3.16-3.59,4.18-3.6.25,0,.36.19.34,1.07C106.56,215.72,106.4,231.42,106.37,231.92ZM91.54,213c-.54,1.85-2.62,4.91-3.6,5-.29,0-.72-.12-.7-.8,0-1.57,2.49-5.12,3.5-5.38C91.42,211.59,91.73,212.27,91.54,213Z"/><path d="M144.75,204.75c3.23.54,6.14-4.95,6.88-5.65,1-1,.46,2.84,3.23,2.9,2.94.05,3.83-4.81,4.68-4.76s-.11,2.55,1.29,2.73c3,.39,4.71-7.58,6-7.41s.78,4.94,3.76,5.24c2.56.25,4.31-3.23,4.55-3.77s-.11-.91-.67-.55c-4,2.54-3.22-6.87-5.69-6.87-2.69,0-3.45,5.58-4.41,5.67-1.16.12.43-4.08-1.87-4-2.55.1-4,9.33-5.82,8.61s-.54-5.61-2.69-6c-1.1-.19-1.33.7-2,1.12-1,.64-2.74-.47-5.51,2.76C143.32,198.46,142.36,204.35,144.75,204.75Zm6.14-9.84c.68-.15.88.4.64,1.07-.58,1.66-2.27,4.3-3.3,4.5-.35.06-.79-.29-.76-.9C147.54,198.16,149.92,195.14,150.89,194.91Z"/><path d="M115.86,202.52c-2.19,1.34-2.77,3.43-1.7,4.63s3.64.95,5.2-.09c1.8-1.19,2.43-3.18,1.37-4.39S117.51,201.49,115.86,202.52Z"/><path d="M134.33,187.93c5.06-3.76,12.11-10.11,8.87-17.73-3.13-7.36-17.85-1.68-18.46,13.57-.2,5.43.52,20.47.11,24.24-.23,2.19.6,2,1.4,1.61a5.36,5.36,0,0,0,3.4-5.25c-.15-3.58-.47-19.14-.58-20.75-.54-8.39,4.66-16.25,8-13,5.13,5.06-3.61,14.63-5.72,17.09-.94,1.08-1.82,2.75-.33,4.31s3.07,3.09,4.37,4.28c1.61,1.48,1.12,4.24.11,5.74-.68,1-2.18,2.75-3.91,5s-3.32,4.24-3.49,4.47a3.61,3.61,0,0,0-.26,4.26c1.86,2.89,2,2.86,3.23.79a57.16,57.16,0,0,1,6.58-8.9,38.79,38.79,0,0,0,3-3.86c1.77-2.55,1.95-5.29.16-6.88-2.41-2.09-5.19-3.91-7.49-5.67C132,190.24,132.91,189,134.33,187.93Z"/><rect x="199.38" y="167" width="1.35" height="65.99"/><polygon points="121.22 12.13 133.34 12.13 145.46 12.13 145.46 0.01 133.34 0.01 121.22 0.01 109.1 0.01 96.98 0.01 96.98 12.13 109.1 12.13 121.22 12.13"/><rect x="266.66" y="0.01" width="12.12" height="12.12"/><polygon points="181.82 24.25 181.82 12.13 181.82 0.01 169.7 0.01 169.7 12.13 157.58 12.13 157.58 24.25 169.7 24.25 181.82 24.25"/><rect x="278.78" y="12.13" width="12.12" height="12.12"/><polygon points="254.54 24.25 266.66 24.25 266.66 12.13 254.54 12.13 254.54 0.01 242.42 0.01 242.42 12.13 242.42 24.25 242.42 36.37 254.54 36.37 254.54 24.25"/><rect x="266.66" y="24.25" width="12.12" height="12.12"/><rect x="157.58" y="36.37" width="12.12" height="12.12"/><polygon points="278.78 36.37 278.78 48.49 266.66 48.49 266.66 60.61 278.78 60.61 278.78 72.73 290.9 72.73 290.9 60.61 303.02 60.61 303.02 48.49 303.02 36.37 303.02 24.25 290.9 24.25 290.9 36.37 278.78 36.37"/><polygon points="133.34 48.49 133.34 60.61 133.34 72.73 145.46 72.73 145.46 84.86 157.58 84.86 157.58 72.73 157.58 60.61 157.58 48.49 145.46 48.49 133.34 48.49"/><rect x="181.82" y="48.49" width="12.12" height="12.12"/><polygon points="218.18 60.61 218.18 48.49 218.18 36.37 218.18 24.25 230.3 24.25 230.3 12.13 218.18 12.13 206.06 12.13 193.94 12.13 193.94 24.25 206.06 24.25 206.06 36.37 206.06 48.49 206.06 60.61 206.06 72.73 218.18 72.73 218.18 60.61"/><polygon points="242.42 60.61 254.54 60.61 254.54 48.49 242.42 48.49 242.42 36.37 230.3 36.37 230.3 48.49 230.3 60.61 230.3 72.73 242.42 72.73 242.42 60.61"/><rect x="254.54" y="60.61" width="12.12" height="12.12"/><polygon points="121.22 84.86 121.22 96.98 133.34 96.98 145.46 96.98 145.46 84.86 133.34 84.86 133.34 72.73 121.22 72.73 121.22 84.86"/><polygon points="181.82 72.73 181.82 60.61 169.7 60.61 169.7 72.73 169.7 84.86 181.82 84.86 181.82 72.73"/><rect x="193.94" y="72.73" width="12.12" height="12.12"/><rect x="218.18" y="72.73" width="12.12" height="12.12"/><rect x="242.42" y="72.73" width="12.12" height="12.12"/><polygon points="266.66 84.86 266.66 96.98 278.78 96.98 278.78 84.86 278.78 72.73 266.66 72.73 266.66 84.86"/><rect x="290.9" y="72.73" width="12.12" height="12.12"/><polygon points="109.1 84.86 109.1 72.73 109.1 60.61 121.22 60.61 121.22 48.49 133.34 48.49 133.34 36.37 145.46 36.37 157.58 36.37 157.58 24.25 145.46 24.25 133.34 24.25 121.22 24.25 109.1 24.25 96.98 24.25 96.98 36.37 96.98 48.49 96.98 60.61 96.98 72.73 96.98 84.86 96.98 96.98 109.1 96.98 109.1 84.86"/><rect x="206.06" y="84.86" width="12.12" height="12.12"/><polygon points="230.3 96.98 230.3 109.1 242.42 109.1 242.42 96.98 242.42 84.86 230.3 84.86 230.3 96.98"/><rect x="84.86" y="96.98" width="12.12" height="12.12"/><path d="M145.46,97V109.1H169.7v24.24h36.36v24.24h48.48V145.46h12.12V121.22H218.18V109.1H206.06v12.12H181.82V109.1h24.24V97H169.7V84.86H157.58V97Zm72.72,36.36h24.24v12.12H218.18Z"/><polygon points="290.9 109.1 290.9 121.22 290.9 133.34 303.02 133.34 303.02 121.22 303.02 109.1 315.14 109.1 327.26 109.1 327.26 121.22 339.38 121.22 351.51 121.22 363.63 121.22 363.63 109.1 351.51 109.1 339.38 109.1 339.38 96.98 327.26 96.98 315.14 96.98 303.02 96.98 290.9 96.98 278.78 96.98 278.78 109.1 290.9 109.1"/><polygon points="387.87 109.1 387.87 121.22 399.99 121.22 399.99 109.1 399.99 96.98 387.87 96.98 375.75 96.98 363.63 96.98 363.63 109.1 375.75 109.1 387.87 109.1"/><polygon points="121.22 109.1 121.22 96.98 109.1 96.98 109.1 109.1 109.1 121.22 109.1 133.34 96.98 133.34 96.98 145.46 84.86 145.46 84.86 157.58 96.98 157.58 109.1 157.58 109.1 145.46 121.22 145.46 121.22 157.58 133.34 157.58 133.34 145.46 133.34 133.34 145.46 133.34 145.46 121.22 145.46 109.1 133.34 109.1 121.22 109.1"/><rect x="266.66" y="109.1" width="12.12" height="12.12"/><polygon points="96.98 133.34 96.98 121.22 84.86 121.22 72.73 121.22 72.73 109.1 60.62 109.1 60.62 121.22 48.49 121.22 48.49 109.1 60.62 109.1 60.62 96.98 48.49 96.98 36.37 96.98 24.25 96.98 24.25 109.1 36.37 109.1 36.37 121.22 36.37 133.34 48.49 133.34 48.49 145.46 60.62 145.46 72.73 145.46 84.86 145.46 84.86 133.34 96.98 133.34"/><rect x="315.14" y="121.22" width="12.12" height="12.12"/><polygon points="0.01 145.46 0.01 157.58 12.13 157.58 24.25 157.58 24.25 145.46 24.25 133.34 12.13 133.34 0.01 133.34 0.01 145.46"/><rect x="145.46" y="133.34" width="12.12" height="12.12"/><polygon points="278.78 145.46 278.78 157.58 290.9 157.58 290.9 145.46 290.9 133.34 278.78 133.34 278.78 145.46"/><rect x="303.02" y="133.34" width="12.12" height="12.12"/><polygon points="339.38 145.46 351.51 145.46 363.63 145.46 363.63 157.58 375.75 157.58 387.87 157.58 399.99 157.58 399.99 145.46 399.99 133.34 387.87 133.34 375.75 133.34 363.63 133.34 351.51 133.34 339.38 133.34 327.26 133.34 327.26 145.46 339.38 145.46"/><rect x="36.37" y="145.46" width="12.12" height="12.12"/><polygon points="193.94 157.58 193.94 145.46 181.82 145.46 169.7 145.46 169.7 157.58 181.82 157.58 193.94 157.58"/><rect x="315.14" y="145.46" width="12.12" height="12.12"/><rect x="363.63" y="242.42" width="12.12" height="12.12"/><polygon points="193.94 254.54 193.94 242.42 181.82 242.42 169.7 242.42 169.7 254.54 181.82 254.54 181.82 266.66 193.94 266.66 193.94 254.54"/><polygon points="254.54 254.54 266.66 254.54 266.66 242.42 254.54 242.42 242.42 242.42 242.42 254.54 230.3 254.54 230.3 266.66 242.42 266.66 242.42 278.78 254.54 278.78 254.54 266.66 254.54 254.54"/><rect x="339.39" y="254.54" width="12.12" height="12.12"/><polygon points="387.87 266.66 387.87 278.78 387.87 290.9 387.87 303.02 399.99 303.02 399.99 290.9 399.99 278.78 399.99 266.66 399.99 254.54 387.87 254.54 387.87 266.66"/><rect x="169.7" y="266.66" width="12.12" height="12.12"/><polygon points="315.14 266.66 315.14 254.54 327.26 254.54 327.26 242.42 315.14 242.42 303.02 242.42 303.02 254.54 303.02 266.66 303.02 278.78 315.14 278.78 327.26 278.78 339.38 278.78 339.38 266.66 327.26 266.66 315.14 266.66"/><rect x="351.51" y="266.66" width="12.12" height="12.12"/><rect x="157.58" y="278.78" width="12.12" height="12.12"/><polygon points="218.18 278.78 218.18 266.66 206.06 266.66 206.06 278.78 206.06 290.9 218.18 290.9 218.18 278.78"/><rect x="363.63" y="278.78" width="12.12" height="12.12"/><rect x="145.46" y="290.9" width="12.12" height="12.12"/><polygon points="266.66 303.02 266.66 315.14 278.78 315.14 278.78 303.02 278.78 290.9 290.9 290.9 290.9 278.78 278.78 278.78 278.78 266.66 266.66 266.66 266.66 278.78 254.54 278.78 254.54 290.9 266.66 290.9 266.66 303.02"/><polygon points="327.26 303.02 327.26 290.9 315.14 290.9 303.02 290.9 303.02 303.02 315.14 303.02 327.26 303.02"/><rect x="339.39" y="290.9" width="12.12" height="12.12"/><rect x="157.58" y="303.02" width="12.12" height="12.12"/><polygon points="206.06 303.02 206.06 315.14 206.06 327.26 218.18 327.26 218.18 315.14 230.3 315.14 242.42 315.14 254.54 315.14 254.54 303.02 254.54 290.9 242.42 290.9 242.42 303.02 230.3 303.02 230.3 290.9 218.18 290.9 218.18 303.02 206.06 303.02"/><polygon points="290.9 315.14 290.9 327.26 290.9 339.38 303.02 339.38 303.02 327.26 303.02 315.14 303.02 303.02 290.9 303.02 290.9 315.14"/><rect x="0.01" y="315.14" width="12.12" height="12.12"/><rect x="72.73" y="315.14" width="12.12" height="12.12"/><rect x="254.54" y="315.14" width="12.12" height="12.12"/><rect x="242.42" y="327.27" width="12.12" height="12.12"/><rect x="266.66" y="339.39" width="12.12" height="12.12"/><rect x="109.1" y="351.51" width="12.12" height="12.12"/><polygon points="266.66 363.63 266.66 351.51 254.54 351.51 242.42 351.51 242.42 339.38 230.3 339.38 230.3 327.26 218.18 327.26 218.18 339.38 206.06 339.38 206.06 327.26 193.94 327.26 193.94 315.14 193.94 303.02 206.06 303.02 206.06 290.9 193.94 290.9 181.82 290.9 181.82 303.02 181.82 315.14 181.82 327.26 169.7 327.26 169.7 339.38 169.7 351.51 169.7 363.63 169.7 375.75 169.7 387.87 181.82 387.87 193.94 387.87 193.94 375.75 193.94 363.63 181.82 363.63 181.82 351.51 181.82 339.38 193.94 339.38 193.94 351.51 193.94 363.63 206.06 363.63 206.06 351.51 218.18 351.51 218.18 363.63 230.3 363.63 230.3 375.75 242.42 375.75 242.42 363.63 254.54 363.63 266.66 363.63"/><polygon points="24.25 363.63 12.13 363.63 0.01 363.63 0.01 375.75 0.01 387.87 12.13 387.87 12.13 399.99 24.25 399.99 24.25 387.87 24.25 375.75 36.37 375.75 36.37 387.87 48.49 387.87 48.49 375.75 48.49 363.63 36.37 363.63 24.25 363.63"/><rect x="60.61" y="363.63" width="12.12" height="12.12"/><rect x="206.06" y="363.63" width="12.12" height="12.12"/><polygon points="278.78 363.63 278.78 375.75 266.66 375.75 266.66 387.87 254.54 387.87 254.54 399.99 266.66 399.99 278.78 399.99 290.9 399.99 303.02 399.99 303.02 387.87 303.02 375.75 303.02 363.63 290.9 363.63 278.78 363.63"/><path d="M145.46,375.75V351.51h12.12V327.27H145.46v12.12H133.34V327.27H121.22V315.14h24.24V303H133.34V278.78h24.24V242.42H145.46v12.12H133.34v12.12H121.22v12.12H97V290.9H72.73V266.66H84.86v12.12H97V266.66H109.1V242.42H97v12.12H84.86V242.42H72.73v12.12H12.13V290.9H0V303H12.13v12.12H24.25V303H36.37V290.9H48.49V266.66H60.61V290.9H48.49V303H36.37v12.12H48.49v12.13H12.13v24.24H36.37V339.39H48.49v12.12H72.73v12.12H84.86v12.12H72.73v12.12H60.61V400H97V387.87H109.1V363.63H97V351.51H109.1V339.39h12.12v12.12h12.12v24.24H121.22v12.12h36.36V375.75ZM97,315.14v24.25H60.61V303H97ZM109.1,303V290.9h12.12V303Z"/><rect x="218.18" y="375.75" width="12.12" height="12.12"/><rect x="109.1" y="387.87" width="12.12" height="12.12"/><rect x="157.58" y="387.87" width="12.12" height="12.12"/><polygon points="193.94 387.87 193.94 399.99 206.06 399.99 218.18 399.99 218.18 387.87 206.06 387.87 193.94 387.87"/><path d="M397.42,0H317.71a2.59,2.59,0,0,0-2.58,2.58V82.29a2.59,2.59,0,0,0,2.58,2.58h79.71A2.58,2.58,0,0,0,400,82.29V2.58A2.58,2.58,0,0,0,397.42,0Zm-9.55,24.25v47a1.47,1.47,0,0,1-1.48,1.47H328.74a1.47,1.47,0,0,1-1.47-1.47V13.61a1.47,1.47,0,0,1,1.47-1.48h57.65a1.48,1.48,0,0,1,1.48,1.48Z"/><path d="M373.17,24.24H342a2.59,2.59,0,0,0-2.58,2.58V58A2.59,2.59,0,0,0,342,60.63h31.22A2.59,2.59,0,0,0,375.75,58V26.82A2.58,2.58,0,0,0,373.17,24.24Z"/><path d="M397.42,315.13H317.71a2.6,2.6,0,0,0-2.58,2.58v79.71a2.58,2.58,0,0,0,2.58,2.58h79.71a2.58,2.58,0,0,0,2.58-2.58V317.71A2.59,2.59,0,0,0,397.42,315.13Zm-9.55,24.26v47a1.48,1.48,0,0,1-1.48,1.48H328.74a1.47,1.47,0,0,1-1.47-1.48V328.74a1.47,1.47,0,0,1,1.47-1.47h57.65a1.47,1.47,0,0,1,1.48,1.47Z"/><path d="M373.17,339.37H342a2.59,2.59,0,0,0-2.58,2.58v31.23a2.58,2.58,0,0,0,2.58,2.58h31.22a2.59,2.59,0,0,0,2.58-2.58V342A2.59,2.59,0,0,0,373.17,339.37Z"/><path d="M2.58,84.87H82.29a2.59,2.59,0,0,0,2.58-2.58V2.58A2.58,2.58,0,0,0,82.29,0H2.58A2.59,2.59,0,0,0,0,2.58V82.29A2.59,2.59,0,0,0,2.58,84.87Zm9.55-24.26v-47a1.48,1.48,0,0,1,1.48-1.48H71.26a1.47,1.47,0,0,1,1.47,1.48V71.26a1.47,1.47,0,0,1-1.47,1.47H13.61a1.47,1.47,0,0,1-1.48-1.47Z"/><path d="M26.82,60.63H58A2.58,2.58,0,0,0,60.61,58V26.82A2.58,2.58,0,0,0,58,24.24H26.82a2.58,2.58,0,0,0-2.58,2.58V58A2.59,2.59,0,0,0,26.82,60.63Z"/></g></g></svg>