<svg xmlns="http://www.w3.org/2000/svg" xmlns:xlink="http://www.w3.org/1999/xlink" width="20" height="20" viewBox="0 0 20 20">
    <defs>
        <path id="l6ynm0opia" d="M17.092 8.408l-7.5-7.5c-.325-.325-.85-.325-1.175 0l-7.5 7.5c-.325.325-.325.85 0 1.175l7.5 7.5c.325.325.85.325 1.175 0l7.5-7.5c.325-.316.325-.841 0-1.175zm-6.425 2.675V9H7.333v2.5H5.667V8.167c0-.459.375-.834.833-.834h4.167V5.25l2.916 2.917-2.916 2.916z"/>
    </defs>
    <g fill="none" fill-rule="evenodd">
        <g>
            <g>
                <g transform="translate(-325 -515) translate(12 499) translate(314 17)">
                    <mask id="chqch5lp2b" fill="#fff">
                        <use xlink:href="#l6ynm0opia"/>
                    </mask>
                    <g fill="#000" mask="url(#chqch5lp2b)">
                        <path d="M0 0H41.667V41.667H0z" transform="translate(-11.833 -11.833)"/>
                    </g>
                </g>
            </g>
        </g>
    </g>
</svg>
