<svg xmlns="http://www.w3.org/2000/svg" width="16" height="16" viewBox="0 0 16 16">
    <g fill="none" fill-rule="evenodd">
        <g fill="#333" fill-rule="nonzero">
            <g>
                <g>
                    <path d="M3.419 6.594c0-2.102 1.705-3.813 3.802-3.813s3.802 1.71 3.802 3.813c0 2.102-1.705 3.813-3.802 3.813S3.42 8.697 3.42 6.594m10.535 6.751l-3.438-3.448c.843-.846 1.366-2.014 1.366-3.303 0-2.577-2.091-4.674-4.66-4.674-2.571 0-4.662 2.097-4.662 4.674 0 2.577 2.09 4.674 4.661 4.674.976 0 1.881-.303 2.63-.82l3.497 3.506c.083.084.193.126.303.126.11 0 .22-.042.303-.126.168-.168.168-.44 0-.609" transform="translate(-329 -223) translate(75) translate(254 223)"/>
                </g>
            </g>
        </g>
    </g>
</svg>
