<svg width="20" height="20" viewBox="0 0 20 20" fill="none" xmlns="http://www.w3.org/2000/svg">
<path d="M19.1371 12.0832L15.745 4.40445C15.4708 3.78487 14.9867 3.27695 14.3817 2.97445L12.6867 2.12695L12.3137 2.87237L14.0087 3.71987C14.4412 3.93612 14.7871 4.29862 14.9825 4.74112L18.2258 12.0832H12.1125C11.6938 12.0832 11.305 12.2911 11.0725 12.6399L10.7971 13.0532C10.2825 12.8849 9.7175 12.8849 9.2025 13.0532L8.92708 12.6399C8.695 12.2911 8.30625 12.0832 7.8875 12.0832H1.77417L5.0175 4.74154C5.21333 4.29904 5.55917 3.93612 5.99167 3.72029L7.68667 2.87279L7.31375 2.12737L5.61875 2.97487C5.01333 3.27737 4.52917 3.78487 4.255 4.40487L0.862917 12.0832H0V12.9165H0.416667V14.5832C0.416667 14.8136 0.603333 14.9999 0.833333 14.9999V16.6665C0.833333 17.3557 1.39417 17.9165 2.08333 17.9165H7.665C8.25542 17.9165 8.75708 17.514 8.88542 16.9374L9.57375 13.8399C9.57583 13.8311 9.57292 13.8228 9.57417 13.814C9.85333 13.7424 10.1475 13.7424 10.4263 13.814C10.4275 13.8228 10.425 13.8311 10.4267 13.8399L11.115 16.9374C11.2433 17.514 11.745 17.9165 12.3354 17.9165H17.9167C18.6058 17.9165 19.1667 17.3557 19.1667 16.6665V12.9165H20V12.0832H19.1371ZM1.25 12.9165H5V14.1665H1.25V12.9165ZM8.07167 16.757C8.02917 16.949 7.86167 17.0832 7.665 17.0832H2.08333C1.85375 17.0832 1.66667 16.8965 1.66667 16.6665V14.9999H5.41667C5.64667 14.9999 5.83333 14.8136 5.83333 14.5832V12.9165H7.8875C8.02708 12.9165 8.15667 12.9857 8.23417 13.102L8.72125 13.8332L8.07167 16.757ZM18.3333 16.6665C18.3333 16.8965 18.1462 17.0832 17.9167 17.0832H12.335C12.1383 17.0832 11.9708 16.949 11.9279 16.757L11.2787 13.8332L11.7658 13.102C11.8433 12.9857 11.9729 12.9165 12.1125 12.9165H18.3333V16.6665Z" fill="#2D2A26"/>
<path d="M10 10.8332C10.2301 10.8332 10.4167 10.6467 10.4167 10.4165C10.4167 10.1864 10.2301 9.99987 10 9.99987C9.76988 9.99987 9.58333 10.1864 9.58333 10.4165C9.58333 10.6467 9.76988 10.8332 10 10.8332Z" fill="#2D2A26"/>
<path d="M11.7679 8.64904C11.2954 8.17654 10.6679 7.91654 10 7.91654C9.33208 7.91654 8.70458 8.17654 8.23208 8.64904L8.82125 9.2382C9.45125 8.6082 10.5487 8.6082 11.1783 9.2382L11.7679 8.64904Z" fill="#2D2A26"/>
<path d="M13.0933 7.11445C11.3875 5.40862 8.61208 5.40862 6.90625 7.11445L7.49542 7.70362C8.87625 6.32279 11.1229 6.32279 12.5042 7.70362L13.0933 7.11445Z" fill="#2D2A26"/>
</svg>
