<svg width="40" height="25" viewBox="0 0 40 25" fill="none" xmlns="http://www.w3.org/2000/svg">
<rect x="0.599976" y="0.879883" width="38.8001" height="23.0801" rx="1.09144" fill="white"/>
<rect x="0.599976" y="0.879883" width="38.8001" height="23.0801" rx="1.09144" stroke="#222222" stroke-width="0.5"/>
<path fill-rule="evenodd" clip-rule="evenodd" d="M9.64247 12.8583C8.97634 12.8583 8.20409 13.1766 7.78554 13.5067L8.16872 14.3085C8.50474 14.0019 9.04708 13.7425 9.53636 13.7425C10.0021 13.7425 10.2556 13.8958 10.2556 14.2082C10.2556 14.4205 10.0846 14.5266 9.76627 14.5678C8.56369 14.7211 7.62048 15.0512 7.62048 15.9768C7.62048 16.7077 8.14514 17.1558 8.95865 17.1558C9.54226 17.1558 10.061 16.8315 10.3086 16.4071V17.0379H11.3933V14.391C11.3933 13.3004 10.6328 12.8583 9.64247 12.8583ZM9.23572 16.3069C8.92918 16.3069 8.77591 16.1595 8.77591 15.9119C8.77591 15.4521 9.28877 15.2988 10.2261 15.1986C10.232 15.8117 9.81343 16.3069 9.23572 16.3069ZM21.6212 13.66V12.9762H20.5365V17.0379H21.6978V15.0807C21.6978 14.1493 22.2578 13.8781 22.6528 13.8781C22.8061 13.8781 23.0124 13.9253 23.148 14.0255L23.3602 12.9526C23.1833 12.876 22.9947 12.8583 22.8414 12.8583C22.246 12.8583 21.8687 13.1236 21.6212 13.66ZM28.7482 12.8583C28.1351 12.8583 27.6753 13.2238 27.4336 13.5716C27.2096 13.1177 26.7439 12.8583 26.178 12.8583C25.5649 12.8583 25.1405 13.2002 24.94 13.5893V12.9762H23.82V17.0379H24.9813V14.9451C24.9813 14.1965 25.3763 13.8369 25.7418 13.8369C26.0719 13.8369 26.3784 14.0491 26.3784 14.6032V17.0379H27.5456V14.9451C27.5456 14.1847 27.9288 13.8369 28.312 13.8369C28.6185 13.8369 28.9428 14.0609 28.9428 14.5973V17.0379H30.1041V14.2318C30.1041 13.3181 29.491 12.8583 28.7482 12.8583ZM15.4962 12.6755V12.9762H13.7336V12.5635C13.7336 12.0271 14.0402 11.8738 14.3054 11.8738C14.4587 11.8738 14.6591 11.9092 14.8242 12.0035L15.1838 11.1841C14.9716 11.0603 14.6238 10.9483 14.1581 10.9483C13.4153 10.9483 12.5723 11.3668 12.5723 12.6814V12.9821H11.9003V13.8781H12.5723V17.0379H13.7336V13.8722H15.4962V17.0379H16.6575V13.8722H17.7128V12.9762H16.6575V12.5635C16.6575 12.0271 16.9641 11.8738 17.2294 11.8738C17.5241 11.8738 17.7481 12.0035 17.7481 12.0035L18.1077 11.1841C18.1077 11.1841 17.7422 10.9483 17.082 10.9483C16.3451 10.9424 15.4962 11.361 15.4962 12.6755ZM18.4025 12.9762H19.5638V17.0379H18.4025V12.9762Z" fill="#060809"/>
<path fill-rule="evenodd" clip-rule="evenodd" d="M25.17 7.31055C22.0339 7.31055 19.2396 9.48581 18.4497 12.2859H19.5874C20.2477 10.1991 22.4937 8.37165 25.17 8.37165C28.4241 8.37165 31.2301 10.8476 31.2301 14.7029C31.2301 15.5695 31.1181 16.3476 30.9059 17.0373H32.0083L32.02 17.002C32.2028 16.2887 32.2912 15.5164 32.2912 14.7029C32.2912 10.4054 29.161 7.31055 25.17 7.31055Z" fill="#0FA0EA"/>
</svg>
