<svg width="40" height="25" viewBox="0 0 40 25" fill="none" xmlns="http://www.w3.org/2000/svg">
<rect x="0.2" y="0.994922" width="39.6" height="23.6" rx="2.8" fill="white"/>
<rect x="0.2" y="0.994922" width="39.6" height="23.6" rx="2.8" stroke="#C0C1C6" stroke-width="0.4"/>
<g clip-path="url(#clip0_64_5364)">
<path d="M10.2846 8.26465C9.93309 8.68066 9.37059 9.00879 8.80809 8.96191C8.73777 8.39941 9.01316 7.80176 9.33543 7.43262C9.68699 7.00488 10.3022 6.7002 10.8003 6.67676C10.8589 7.2627 10.6304 7.83691 10.2846 8.26465ZM10.7944 9.07324C9.97996 9.02637 9.2827 9.53613 8.89598 9.53613C8.5034 9.53613 7.9116 9.09668 7.26707 9.1084C6.42918 9.12012 5.64988 9.59473 5.22215 10.3506C4.34324 11.8623 4.99363 14.1006 5.84324 15.3311C6.25926 15.9404 6.75731 16.6084 7.41355 16.585C8.03465 16.5615 8.28074 16.1807 9.03074 16.1807C9.7866 16.1807 10.0034 16.585 10.6596 16.5732C11.3393 16.5615 11.7671 15.9639 12.1831 15.3545C12.6577 14.6631 12.8511 13.9893 12.8628 13.9541C12.8511 13.9424 11.5503 13.4443 11.5386 11.9443C11.5268 10.6904 12.5639 10.0928 12.6108 10.0576C12.0249 9.19043 11.1108 9.09668 10.7944 9.07324ZM15.4995 7.37402V16.5088H16.9175V13.3857H18.8804C20.6733 13.3857 21.9331 12.1553 21.9331 10.374C21.9331 8.59277 20.6968 7.37402 18.9272 7.37402H15.4995V7.37402ZM16.9175 8.56934H18.5522C19.7827 8.56934 20.4858 9.22559 20.4858 10.3799C20.4858 11.5342 19.7827 12.1963 18.5464 12.1963H16.9175V8.56934V8.56934ZM24.5229 16.5791C25.4136 16.5791 26.2397 16.1279 26.6147 15.4131H26.644V16.5088H27.9565V11.9619C27.9565 10.6436 26.9018 9.79394 25.2788 9.79394C23.7729 9.79394 22.6596 10.6553 22.6186 11.8389H23.896C24.0014 11.2764 24.5229 10.9072 25.2378 10.9072C26.105 10.9072 26.5913 11.3115 26.5913 12.0557V12.5596L24.8218 12.665C23.1753 12.7646 22.2846 13.4385 22.2846 14.6104C22.2846 15.7939 23.2046 16.5791 24.5229 16.5791ZM24.9038 15.4951C24.1479 15.4951 23.6675 15.1318 23.6675 14.5752C23.6675 14.001 24.1303 13.667 25.0151 13.6143L26.5913 13.5146V14.0303C26.5913 14.8857 25.8647 15.4951 24.9038 15.4951ZM29.7085 18.9932C31.0913 18.9932 31.7417 18.4658 32.31 16.8662L34.8003 9.88184H33.3589L31.6889 15.2783H31.6596L29.9897 9.88184H28.5073L30.9096 16.5322L30.7807 16.9365C30.5639 17.6221 30.2124 17.8857 29.5854 17.8857C29.4741 17.8857 29.2573 17.874 29.1694 17.8623V18.958C29.2514 18.9814 29.603 18.9932 29.7085 18.9932Z" fill="black"/>
</g>
<defs>
<clipPath id="clip0_64_5364">
<rect width="30" height="12.3164" fill="white" transform="translate(4.80005 6.67676)"/>
</clipPath>
</defs>
</svg>
