<svg xmlns="http://www.w3.org/2000/svg" width="33" height="33" viewBox="0 0 33 33" fill="none">
                                    <g clip-path="url(#clip0_1483_13194)">
                                    <path d="M27.8188 8.75735C27.7588 8.06202 27.1879 7.53801 26.4911 7.53801H22.4392V6.20468C22.4392 2.89668 19.7491 0.204681 16.4434 0.204681C13.1377 0.204681 10.4475 2.89668 10.4475 6.20468V7.53801H6.39568C5.69883 7.53801 5.12789 8.06202 5.06793 8.75735L3.2452 30.034C3.1979 30.5907 3.38644 31.146 3.76417 31.5573C4.14191 31.9687 4.67887 32.2047 5.23715 32.2047H27.6503C28.2085 32.2047 28.7455 31.9687 29.1226 31.5573C29.5003 31.146 29.6895 30.5907 29.6415 30.034L27.8188 8.75735ZM11.7799 6.20468C11.7799 3.63135 13.8718 1.53801 16.4434 1.53801C19.0149 1.53801 21.1068 3.63135 21.1068 6.20468V7.53801H11.7799V6.20468ZM6.39568 8.87135H10.4475V12.2047H11.7799V8.87135H21.1068V12.2047H22.4392V8.87135H26.4911L27.9754 26.2047H4.91138L6.39568 8.87135ZM28.1406 30.6553C28.0127 30.7947 27.8381 30.8713 27.6496 30.8713H5.23715C5.04861 30.8713 4.87407 30.7947 4.74616 30.6553C4.61891 30.516 4.55696 30.336 4.57361 30.1474L4.79679 27.538H28.0899L28.3138 30.148C28.3298 30.336 28.2685 30.516 28.1406 30.6553Z" fill="#575D9B"/>
                                    </g>
                                    <defs>
                                    <clipPath id="clip0_1483_13194">
                                    <rect width="31.9778" height="32" fill="white" transform="translate(0.454468 0.204681)"/>
                                    </clipPath>
                                    </defs>
</svg>