<svg width="40" height="25" viewBox="0 0 40 25" fill="none" xmlns="http://www.w3.org/2000/svg">
<rect x="0.200204" y="0.995126" width="39.5996" height="23.5996" rx="3.00306" fill="white"/>
<rect x="0.200204" y="0.995126" width="39.5996" height="23.5996" rx="3.00306" stroke="#C0C1C6" stroke-width="0.400408"/>
<path fill-rule="evenodd" clip-rule="evenodd" d="M30.7523 20.5517V18.8135H30.3565V19.8217C30.2147 19.6358 29.9937 19.5307 29.7628 19.5394C29.2163 19.5394 28.7733 19.9908 28.7733 20.5476C28.7733 21.1044 29.2163 21.5558 29.7628 21.5558C29.9937 21.5645 30.2147 21.4595 30.3565 21.2735V21.5074H30.7523V20.5517ZM18.4824 19.5879H19.1592L19.1632 19.971H18.4903V20.8502C18.4903 21.0438 18.5655 21.1728 18.7634 21.1728C18.8919 21.1685 19.0172 21.131 19.1275 21.0639L19.2463 21.4229C19.092 21.521 18.9136 21.5727 18.7317 21.5721C18.2449 21.5721 18.0747 21.3059 18.0747 20.8583V19.971H17.6908V19.5879H18.0668V19.0031H18.4824V19.5879ZM13.0104 20.3055V21.5154L12.5948 21.5234V20.4507C12.5948 20.124 12.4603 19.9425 12.1793 19.9425C12.0474 19.936 11.9196 19.9894 11.8302 20.0883C11.7408 20.1872 11.699 20.3214 11.7162 20.4547V21.5234H11.3006V20.4507C11.3006 20.124 11.162 19.9425 10.8889 19.9425C10.7569 19.9353 10.6286 19.9885 10.539 20.0875C10.4495 20.1866 10.4079 20.3213 10.4258 20.4547V21.5154H10.0103V19.5877H10.4219V19.8256C10.5437 19.6368 10.7545 19.5278 10.976 19.5393C11.2304 19.5281 11.4703 19.6596 11.6014 19.8821C11.7451 19.6528 11.9999 19.5215 12.2663 19.5393C12.4685 19.5272 12.666 19.6043 12.8084 19.751C12.9508 19.8976 13.0244 20.0997 13.0104 20.3055ZM22.67 19.5395C22.4655 19.5333 22.2742 19.6417 22.1713 19.8218V19.5879H21.7636V21.5156H22.1752V20.4348C22.1752 20.1162 22.3098 19.9387 22.571 19.9387C22.6591 19.9375 22.7465 19.9539 22.8283 19.9871L22.955 19.5838C22.8609 19.5496 22.7619 19.5318 22.6621 19.5314L22.67 19.5395ZM16.5905 19.5393C16.8614 19.5298 17.1293 19.5998 17.3623 19.7409L17.1802 20.0797C16.9994 19.9737 16.795 19.9168 16.5865 19.9143C16.3609 19.9143 16.2263 20.0111 16.2263 20.1402C16.2263 20.2692 16.3688 20.3055 16.5469 20.3297L16.7448 20.358C17.1564 20.4185 17.4058 20.5677 17.4058 20.9347C17.4058 21.3017 17.0892 21.5638 16.543 21.5638C16.2506 21.572 15.9634 21.4843 15.7236 21.3138L15.9215 20.9871C16.1032 21.1244 16.3248 21.1954 16.5509 21.1887C16.8319 21.1887 16.9823 21.104 16.9823 20.9548C16.9823 20.8459 16.8754 20.7855 16.6498 20.7532L16.4519 20.725C16.0284 20.6645 15.7988 20.4709 15.7988 20.1563C15.7988 19.7732 16.1115 19.5393 16.5905 19.5393ZM28.3874 19.5395C28.1829 19.5333 27.9916 19.6417 27.8887 19.8218V19.5879H27.481V21.5156H27.8926V20.4348C27.8926 20.1162 28.0272 19.9387 28.2884 19.9387C28.3765 19.9375 28.4639 19.9539 28.5457 19.9871L28.6724 19.5838C28.5783 19.5496 28.4793 19.5318 28.3795 19.5314L28.3874 19.5395ZM23.3696 21.279C23.1775 21.0871 23.0737 20.8216 23.0836 20.5477V20.5396C23.0737 20.2657 23.1775 20.0002 23.3696 19.8083C23.5617 19.6164 23.8243 19.5159 24.0929 19.5314C24.3401 19.5186 24.5829 19.6006 24.7737 19.7613L24.5758 20.1C24.4335 19.9895 24.26 19.9286 24.081 19.9266C23.7655 19.9526 23.5225 20.2211 23.5225 20.5436C23.5225 20.8662 23.7655 21.1347 24.081 21.1607C24.26 21.1586 24.4335 21.0978 24.5758 20.9873L24.7737 21.326C24.5829 21.4867 24.3401 21.5687 24.0929 21.5559C23.8243 21.5714 23.5617 21.4709 23.3696 21.279ZM26.9387 20.5475V19.5877H26.5271V19.8216C26.3853 19.6357 26.1643 19.5306 25.9334 19.5393C25.3869 19.5393 24.9439 19.9907 24.9439 20.5475C24.9439 21.1044 25.3869 21.5558 25.9334 21.5558C26.1643 21.5644 26.3853 21.4594 26.5271 21.2735V21.5074H26.9387V20.5475ZM25.9994 19.9995C25.6885 19.9876 25.4253 20.2311 25.407 20.5475C25.3965 20.7086 25.4525 20.8668 25.5615 20.984C25.6704 21.1011 25.8225 21.1666 25.9809 21.1646C26.292 21.1629 26.5448 20.9082 26.5498 20.5912C26.5548 20.2743 26.3103 20.0114 25.9994 19.9995ZM20.4396 19.5392C19.8931 19.547 19.4563 20.0047 19.464 20.5616C19.4716 21.1184 19.9209 21.5635 20.4673 21.5557C20.7521 21.5706 21.0321 21.4771 21.253 21.2935L21.0551 20.983C20.8988 21.1107 20.7052 21.1816 20.5049 21.1846C20.222 21.2094 19.9711 21.0003 19.9389 20.7128H21.344V20.5515C21.344 19.9465 20.9759 19.5432 20.4456 19.5432L20.4396 19.5392ZM20.7742 20.0473C20.6844 19.9596 20.564 19.9118 20.4396 19.9145H20.4317C20.1672 19.9053 19.944 20.1131 19.9291 20.3823H20.9186C20.916 20.2556 20.864 20.1351 20.7742 20.0473ZM31.4438 21.2353C31.4679 21.2356 31.4918 21.2403 31.5142 21.2494C31.5369 21.2588 31.5577 21.2725 31.5755 21.2897C31.5929 21.3071 31.607 21.3276 31.6171 21.3502C31.6374 21.3978 31.6374 21.4518 31.6171 21.4994C31.607 21.522 31.5929 21.5425 31.5755 21.5599C31.5577 21.5771 31.5369 21.5908 31.5142 21.6002C31.4905 21.6109 31.4649 21.6164 31.439 21.6164C31.3624 21.6158 31.293 21.5702 31.2609 21.4994C31.2409 21.4518 31.2409 21.3978 31.2609 21.3502C31.271 21.3276 31.285 21.3071 31.3024 21.2897C31.3203 21.2725 31.3411 21.2588 31.3638 21.2494C31.3896 21.2389 31.4172 21.2341 31.4449 21.2353H31.4438ZM31.4407 21.5759C31.4599 21.5758 31.4788 21.5717 31.4964 21.5638C31.5134 21.5561 31.5289 21.5451 31.5419 21.5315C31.5932 21.4745 31.5932 21.3869 31.5419 21.3299C31.5289 21.3163 31.5134 21.3053 31.4964 21.2976C31.4783 21.2896 31.4587 21.2855 31.439 21.2855C31.4193 21.2856 31.3998 21.2897 31.3816 21.2976C31.3638 21.3051 31.3477 21.316 31.3341 21.3299C31.2828 21.3869 31.2828 21.4745 31.3341 21.5315C31.3477 21.5454 31.3638 21.5563 31.3816 21.5638C31.4016 21.5726 31.4232 21.5767 31.4449 21.5759H31.4407ZM31.5023 21.3523C31.4875 21.341 31.4693 21.3352 31.4509 21.3362L31.3677 21.3382V21.5156H31.4053V21.4491H31.4231L31.4766 21.5156H31.5221L31.4647 21.4491C31.4802 21.4479 31.4948 21.4415 31.5063 21.4309C31.5157 21.4213 31.5207 21.4082 31.5201 21.3946C31.5212 21.3784 31.5146 21.3627 31.5023 21.3523ZM31.4073 21.3703V21.4187H31.4509C31.4586 21.421 31.4669 21.421 31.4746 21.4187C31.4774 21.413 31.4774 21.4062 31.4746 21.4005C31.4774 21.3948 31.4774 21.3881 31.4746 21.3824C31.4669 21.38 31.4586 21.38 31.4509 21.3824L31.4073 21.3703ZM29.8228 20.0038C29.5119 19.9919 29.2487 20.2354 29.2304 20.5518C29.2199 20.7129 29.2759 20.8711 29.3849 20.9883C29.4939 21.1054 29.6459 21.1709 29.8043 21.1689C30.1154 21.1672 30.3682 20.9125 30.3732 20.5955C30.3782 20.2786 30.1337 20.0157 29.8228 20.0038ZM15.3318 20.5516V19.5877H14.9202V19.8216C14.7784 19.6357 14.5574 19.5306 14.3265 19.5393C13.78 19.5393 13.337 19.9907 13.337 20.5475C13.337 21.1044 13.78 21.5558 14.3265 21.5558C14.5574 21.5644 14.7784 21.4594 14.9202 21.2735V21.5074H15.3318V20.5516ZM14.3924 20.0038C14.0815 19.9919 13.8183 20.2354 13.8 20.5518H13.7961C13.7855 20.7136 13.842 20.8725 13.9519 20.9898C14.0617 21.1071 14.2149 21.172 14.374 21.1689C14.6851 21.1672 14.9378 20.9125 14.9428 20.5955C14.9479 20.2786 14.7033 20.0157 14.3924 20.0038Z" fill="#231F20"/>
<rect x="17.2748" y="5.54785" width="6.25253" height="11.1783" fill="#FF5F00"/>
<path fill-rule="evenodd" clip-rule="evenodd" d="M17.6717 11.138C17.6694 8.95638 18.6759 6.89489 20.401 5.5479C17.4712 3.25735 13.2639 3.59099 10.7359 6.31434C8.20784 9.03769 8.20784 13.2364 10.7359 15.9598C13.2639 18.6831 17.4712 19.0167 20.401 16.7262C18.6764 15.3796 17.67 13.319 17.6717 11.138V11.138Z" fill="#EB001B"/>
<path fill-rule="evenodd" clip-rule="evenodd" d="M31.9632 11.1388C31.9631 13.8605 30.401 16.3432 27.9401 17.5326C25.4793 18.7219 22.5518 18.4091 20.401 16.727C22.1248 15.3793 23.1313 13.3189 23.1313 11.1378C23.1313 8.95674 22.1248 6.89638 20.401 5.54867C22.5518 3.86651 25.4793 3.55369 27.9401 4.74305C30.401 5.9324 31.9631 8.41514 31.9632 11.1368V11.1388Z" fill="#F79E1B"/>
<path fill-rule="evenodd" clip-rule="evenodd" d="M31.2805 15.3328V15.6622H31.2388V15.3328H31.1376V15.2646H31.3738V15.3328H31.2805ZM31.739 15.2646V15.6622L31.6973 15.6651V15.364L31.6199 15.6225H31.5663L31.4889 15.364V15.6622H31.4373V15.2646H31.5008L31.5842 15.5486L31.6675 15.2646H31.739Z" fill="#F79E1B"/>
</svg>
