<svg width="60" height="40" viewBox="0 0 31 20" fill="none" xmlns="http://www.w3.org/2000/svg">
<rect x="1.20589" y="0.208333" width="29.5833" height="19.5833" rx="2.29167" fill="white" stroke="#D8D8D8" stroke-width="0.416667"/>
<path fill-rule="evenodd" clip-rule="evenodd" d="M13.895 15.3737L14.0898 14.1661L13.6559 14.1563H11.5842L13.024 5.24491C13.0285 5.21793 13.043 5.19288 13.0642 5.17506C13.0854 5.15724 13.1126 5.14746 13.1409 5.14746H16.6341C17.7939 5.14746 18.5942 5.38299 19.012 5.84794C19.2079 6.06606 19.3327 6.29405 19.3931 6.54486C19.4564 6.80809 19.4575 7.12253 19.3957 7.50612L19.3912 7.53403V7.77984L19.5871 7.88819C19.752 7.97362 19.8832 8.07138 19.9837 8.18329C20.1513 8.36984 20.2596 8.60689 20.3054 8.88784C20.3528 9.17683 20.3371 9.52081 20.2596 9.9102C20.1702 10.358 20.0258 10.7482 19.8306 11.0673C19.6512 11.3614 19.4225 11.6053 19.151 11.7943C18.8917 11.974 18.5838 12.1103 18.2356 12.1976C17.8981 12.2833 17.5134 12.3266 17.0915 12.3266H16.8196C16.6253 12.3266 16.4365 12.3949 16.2882 12.5174C16.1396 12.6425 16.0413 12.8133 16.0112 13.0002L15.9906 13.109L15.6465 15.2375L15.6309 15.3156C15.6268 15.3403 15.6197 15.3527 15.6092 15.361C15.6 15.3686 15.5866 15.3737 15.5736 15.3737H13.895Z" fill="#28356A"/>
<path fill-rule="evenodd" clip-rule="evenodd" d="M19.7731 7.5625C19.7628 7.62757 19.7508 7.69406 19.7375 7.76239C19.2768 10.0713 17.7007 10.8689 15.6878 10.8689H14.6629C14.4167 10.8689 14.2092 11.0433 14.171 11.2804L13.4976 15.4498C13.4727 15.6055 13.5956 15.7457 13.7564 15.7457H15.5742C15.7894 15.7457 15.9723 15.593 16.0062 15.3858L16.024 15.2957L16.3663 13.1755L16.3883 13.0592C16.4218 12.8513 16.6051 12.6985 16.8203 12.6985H17.0921C18.8533 12.6985 20.232 12.0006 20.635 9.98073C20.8033 9.13698 20.7161 8.43242 20.2707 7.93692C20.1359 7.78754 19.9687 7.66351 19.7731 7.5625Z" fill="#298FC2"/>
<path fill-rule="evenodd" clip-rule="evenodd" d="M19.2912 7.37527C19.2208 7.35521 19.1482 7.33708 19.0737 7.32069C18.9988 7.3047 18.9222 7.29054 18.8432 7.27812C18.5669 7.23454 18.264 7.21387 17.9397 7.21387H15.2017C15.1343 7.21387 15.0702 7.22873 15.0129 7.25562C14.8866 7.31488 14.7928 7.43158 14.7701 7.57444L14.1876 11.1757L14.1709 11.2807C14.2092 11.0437 14.4167 10.8692 14.6629 10.8692H15.6878C17.7006 10.8692 19.2767 10.0712 19.7374 7.76272C19.7512 7.6944 19.7627 7.6279 19.7731 7.56283C19.6565 7.50245 19.5303 7.45082 19.3944 7.40683C19.3608 7.39594 19.3262 7.38545 19.2912 7.37527Z" fill="#22284F"/>
<path fill-rule="evenodd" clip-rule="evenodd" d="M14.7696 7.57426C14.7923 7.43139 14.8861 7.3147 15.0125 7.25584C15.0701 7.22886 15.1338 7.21399 15.2013 7.21399H17.9392C18.2636 7.21399 18.5664 7.23476 18.8427 7.27834C18.9217 7.29067 18.9984 7.30492 19.0732 7.32091C19.1477 7.3372 19.2203 7.35543 19.2907 7.37539C19.3257 7.38557 19.3603 7.39616 19.3942 7.40665C19.5302 7.45064 19.6565 7.50267 19.773 7.56265C19.9101 6.70943 19.7719 6.12849 19.2993 5.60244C18.7782 5.02324 17.8379 4.77539 16.6347 4.77539H13.1413C12.8956 4.77539 12.6859 4.94982 12.6479 5.18729L11.1929 14.1903C11.1642 14.3684 11.305 14.5291 11.489 14.5291H13.6456L14.7696 7.57426Z" fill="#28356A"/>
</svg>
