<svg width="40" height="25" viewBox="0 0 40 25" fill="none" xmlns="http://www.w3.org/2000/svg">
<rect x="0.200204" y="0.995126" width="39.5996" height="23.5996" rx="3.00306" fill="white"/>
<rect x="0.200204" y="0.995126" width="39.5996" height="23.5996" rx="3.00306" stroke="#C0C1C6" stroke-width="0.400408"/>
<path fill-rule="evenodd" clip-rule="evenodd" d="M16.613 16.6296L17.8442 8.99219H19.8121L18.5811 16.6296H16.613Z" fill="#26337A"/>
<path fill-rule="evenodd" clip-rule="evenodd" d="M25.7194 9.17981C25.3303 9.02653 24.7183 8.85938 23.956 8.85938C22.0103 8.85938 20.6407 9.89581 20.6294 11.3799C20.617 12.4777 21.6067 13.0899 22.3528 13.4548C23.1197 13.8288 23.3773 14.0682 23.3743 14.4026C23.369 14.9141 22.7622 15.1485 22.1964 15.1485C21.4085 15.1485 20.9899 15.0331 20.3427 14.748L20.0895 14.6264L19.8143 16.336C20.2732 16.5487 21.1239 16.7333 22.0068 16.743C24.0746 16.743 25.4182 15.7191 25.434 14.1343C25.4411 13.2638 24.9167 12.6039 23.781 12.0591C23.0932 11.705 22.6711 11.4704 22.676 11.1119C22.6764 10.7945 23.0326 10.4547 23.8034 10.4547C24.4471 10.4443 24.9131 10.593 25.2762 10.7482L25.4529 10.8355L25.7194 9.17981Z" fill="#26337A"/>
<path fill-rule="evenodd" clip-rule="evenodd" d="M28.3399 13.9219C28.503 13.483 29.1238 11.7871 29.1238 11.7871C29.1124 11.8073 29.286 11.3448 29.3854 11.0585L29.5182 11.7172C29.5182 11.7172 29.8959 13.5401 29.9736 13.9219C29.6673 13.9219 28.7241 13.9219 28.3399 13.9219ZM30.7677 9H29.2469C28.7751 9 28.422 9.13512 28.2154 9.6331L25.2928 16.6323H27.3598C27.3598 16.6323 27.6971 15.6908 27.7736 15.4841C27.9991 15.4841 30.0075 15.4881 30.2942 15.4881C30.3532 15.7546 30.5338 16.6323 30.5338 16.6323H32.3604L30.7677 9Z" fill="#26337A"/>
<path fill-rule="evenodd" clip-rule="evenodd" d="M14.962 8.99902L13.0358 14.2059L12.8295 13.1475C12.4706 11.928 11.3532 10.6062 10.1034 9.94387L11.8656 16.6234L13.9483 16.6221L17.0475 8.99902H14.962Z" fill="#26337A"/>
<path fill-rule="evenodd" clip-rule="evenodd" d="M11.2478 8.99316H8.07421L8.0481 9.15141C10.5175 9.78405 12.1514 11.3111 12.8295 13.1468L12.1399 9.63754C12.0209 9.15355 11.6751 9.01008 11.2478 8.99316Z" fill="#EC982D"/>
</svg>
