<?xml version="1.0" encoding="utf-8"?><svg xmlns="http://www.w3.org/2000/svg" xmlns:xlink="http://www.w3.org/1999/xlink"><symbol fill="none" viewBox="0 0 48 48" id="CD_all" xmlns="http://www.w3.org/2000/svg"><path d="M45.313 15.988C45.12 7.995 38.195 2.55 31.84.873 25.883-.7 20.563.756 17.685 4.67c-3.167-1.644-6.55-1.57-9.407.236-4.392 2.777-6.72 8.974-5.936 15.724.016.308.444 7.564 4.361 10.948.185.159.384.282.578.419C8.702 39.944 15.649 46 24 46c8.712 0 15.905-6.59 16.879-15.046 1.849-1.606 4.66-5.6 4.434-14.967zM4.333 20.46c-.7-6.054 1.268-11.497 5.014-13.865 2.476-1.564 5.359-1.475 8.123.252l1.387-.333c2.674-4.457 8.196-4.838 12.473-3.708 5.654 1.493 11.816 6.27 11.984 13.23.148 6.163-1.081 9.69-2.314 11.668V19l-.844-.989c-17.78-2.806-19.157-9.11-19.166-9.154L19 9c0 3.54-4.724 9-11 9l-1 1v9.951c-2.341-3.155-2.658-8.377-2.666-8.49zM24.001 44c-8.271 0-15-6.73-15-15v-9.038c5.746-.42 9.918-4.425 11.405-8.154 2.007 2.476 6.87 6.06 18.595 8.042V29c0 8.27-6.73 15-15 15z" fill="#000"/><path d="M26.013 36h-4.027v2h4.027v-2zM24.434 31h-2.448v2h4.448v-9.942h-2V31z" fill="#000"/></symbol><symbol fill="none" viewBox="0 0 47 48" id="CD_contactscare" xmlns="http://www.w3.org/2000/svg"><path d="M10.088 37.716c-5.251-5.25-8.198-12.295-8.085-19.325.067-4.164 1.217-8.048 3.266-11.356-.054 2.04.316 4.402 1.16 7.002 1.873 5.77 5.637 11.68 10.599 16.641 4.028 4.028 8.434 7.011 12.623 8.961.112-.522.293-1.162.58-1.95-3.844-1.822-7.958-4.593-11.79-8.425-4.742-4.743-8.333-10.37-10.11-15.845-1.55-4.77-1.414-8.83.352-10.597.507-.508 1.758-.827 3.55-.827 1.737 0 3.982.3 6.552 1.021 3.515.985 10.312 3.538 16.34 9.565 4.869 4.87 7.998 10.528 9.595 15.42h2.117c-1.614-5.333-4.955-11.492-10.298-16.834-6.35-6.35-13.51-9.039-17.213-10.077-5.57-1.56-10.303-1.436-12.057.318l-.014.017C2.685 5.732.11 11.743.003 18.36-.12 25.926 3.042 33.5 8.673 39.13c5.885 5.885 12.728 8.848 19.562 8.848 1.114 0 2.226-.107 3.335-.264a10.653 10.653 0 01-1.134-1.906c-7.054.71-14.253-1.997-20.348-8.092z" fill="#000"/><path d="M40.069 30c-.717 0-1.433.345-1.865 1.034-1.954 3.12-4.742 7.987-4.742 10.358a6.608 6.608 0 1013.216 0c0-2.37-2.788-7.238-4.742-10.358A2.19 2.19 0 0040.069 30zm0 16a4.613 4.613 0 01-4.608-4.608c0-1.069 1.166-4.073 4.438-9.297a.184.184 0 01.17-.096c.11 0 .152.067.17.096 3.272 5.224 4.437 8.227 4.437 9.297A4.613 4.613 0 0140.069 46z" fill="#000"/></symbol><symbol fill="none" viewBox="0 0 48 42" id="CD_contactstypes" xmlns="http://www.w3.org/2000/svg"><path d="M47.923 21.445C47.923 9.87 41.718.89 36.38.89c-.23 0-.457.017-.683.044-4.467.182-8.465 2.12-11.501 5.252a30.848 30.848 0 00-1.877-1.338C15.407.353 7.798-.645 4.62 2.533l-.004.005c-6.907 7-5.976 19.247 2.077 27.299 4.224 4.224 9.73 6.572 15.175 6.572.66 0 1.32-.048 1.977-.118 3.204 3.48 7.563 5.618 12.449 5.7.029 0 .058.009.086.009l.027-.003c.058 0 .114.009.172.009v-.026c6.065-.205 11.344-9.704 11.344-20.535zM21.228 6.527c.56.366 1.11.762 1.65 1.17-2.838 3.62-4.558 8.41-4.558 13.755 0 2.706.457 5.265 1.266 7.612a28.75 28.75 0 01-7.18-5.25C5.146 16.553 2.984 7.019 6.03 3.955l.008-.008c2.13-2.127 8.54-1.746 15.19 2.58zM8.107 28.423C2.623 22.939.749 15.353 2.782 9.283c.5 5.179 3.818 11.553 8.21 15.946 2.854 2.854 6.219 5.114 9.75 6.568.466.916.986 1.79 1.567 2.606-5.058.135-10.24-2.017-14.202-5.98zm12.213-6.971c0-7.965 4.142-14.594 10.12-17.272-3.386 3.99-5.602 10.965-5.602 17.265 0 7.35 2.505 13.644 5.698 17.266-6.038-2.686-10.216-9.307-10.216-17.26zm16.086 18.545c-.03 0-.06-.005-.09-.005-3.842-.084-9.478-7.842-9.478-18.547 0-10.194 5.135-18.41 9.437-18.541.036 0 .07-.006.106-.006v-.006c3.843 0 9.542 7.79 9.542 18.554 0 10.429-5.11 18.52-9.517 18.55z" fill="#000"/></symbol><symbol fill="none" viewBox="0 0 48 48" id="CD_eyehealth" xmlns="http://www.w3.org/2000/svg"><g clip-path="url(#dclip0_2_6415)" fill="#000"><path d="M34 46H2V2h32v9.72l2-2V2a2 2 0 00-2-2H2a2 2 0 00-2 2v44a2 2 0 002 2h32a2 2 0 002-2v-8.966l-2 2V46z"/><path d="M28 8H8v2h20V8zM28 16H8v2h20v-2zM22 24H8v2h14v-2zM47.414 17.134l-5.172-5.172a1.992 1.992 0 00-1.414-.586 1.99 1.99 0 00-1.414.586L19.257 32.12a2.006 2.006 0 00-.547 1.022l-1.293 6.464a2.001 2.001 0 002.353 2.354l6.464-1.293a1.998 1.998 0 001.022-.547l20.158-20.158a2 2 0 000-2.828zM25.842 38.706l-6.464 1.293 1.293-6.464 20.156-20.157h.002L46 18.548 25.842 38.706z"/></g><defs><clipPath id="dclip0_2_6415"><path fill="#fff" d="M0 0h48v48H0z"/></clipPath></defs></symbol><symbol fill="none" viewBox="0 0 48 48" id="CD_guideshowto" xmlns="http://www.w3.org/2000/svg"><g clip-path="url(#eclip0_926_33)" fill="#000"><path d="M47.707 46.293L34.815 33.401C38.027 29.853 40 25.163 40 20 40 8.954 31.046 0 20 0S0 8.954 0 20s8.954 20 20 20c5.163 0 9.853-1.973 13.401-5.185l12.892 12.892 1.414-1.414zM2.051 21H4v-2H2.051A17.896 17.896 0 016.605 8.019L7.98 9.394 9.394 7.98 8.019 6.605A17.896 17.896 0 0119 2.051V4h2V2.051a17.896 17.896 0 0110.981 4.554L30.606 7.98l1.414 1.414 1.375-1.375A17.9 17.9 0 0137.949 19H36v2h1.949a17.896 17.896 0 01-4.554 10.981l-1.375-1.375-1.414 1.414 1.375 1.375A17.9 17.9 0 0121 37.949V36h-2v1.949a17.896 17.896 0 01-10.981-4.554l1.375-1.375-1.414-1.414-1.375 1.375A17.896 17.896 0 012.051 21z"/><path d="M20 24a4 4 0 100-8 4 4 0 000 8zm0-6c1.103 0 2 .897 2 2s-.897 2-2 2-2-.897-2-2 .897-2 2-2z"/><path d="M20 29.245c5.753 0 10.777-3.311 13.49-8.24a2.076 2.076 0 000-2.01c-2.713-4.929-7.737-8.24-13.49-8.24s-10.777 3.311-13.49 8.24a2.076 2.076 0 000 2.01c2.713 4.929 7.737 8.24 13.49 8.24zM8.263 19.959c2.446-4.444 6.943-7.205 11.737-7.205 4.794 0 9.292 2.761 11.737 7.205a.079.079 0 010 .081c-2.446 4.444-6.943 7.204-11.737 7.204-4.794 0-9.292-2.761-11.737-7.204a.074.074 0 010-.081z"/></g><defs><clipPath id="eclip0_926_33"><path fill="#fff" d="M0 0h48v48H0z"/></clipPath></defs></symbol><symbol fill="none" viewBox="0 0 8 13" id="back" xmlns="http://www.w3.org/2000/svg"><path fill-rule="evenodd" clip-rule="evenodd" d="M7.272 12.733a.798.798 0 01-1.1 0L.728 7.483a.731.731 0 010-1.06l5.444-5.25a.798.798 0 011.1 0 .731.731 0 010 1.06l-4.894 4.72 4.894 4.72a.731.731 0 010 1.06z" fill="#0080A9"/></symbol></svg>