<svg width="30" height="20" viewBox="0 0 30 20" fill="none" xmlns="http://www.w3.org/2000/svg">
<rect x="0.208333" y="0.208333" width="28.75" height="19.5833" rx="2.29167" fill="white" stroke="#D8D8D8" stroke-width="0.416667"/>
<path fill-rule="evenodd" clip-rule="evenodd" d="M14.7506 14.4846C13.7577 15.3413 12.4698 15.8585 11.0625 15.8585C7.9219 15.8585 5.37598 13.283 5.37598 10.106C5.37598 6.92899 7.9219 4.35352 11.0625 4.35352C12.4698 4.35352 13.7577 4.87068 14.7506 5.72739C15.7435 4.87068 17.0314 4.35352 18.4388 4.35352C21.5793 4.35352 24.1252 6.92899 24.1252 10.106C24.1252 13.283 21.5793 15.8585 18.4388 15.8585C17.0314 15.8585 15.7435 15.3413 14.7506 14.4846Z" fill="#ED0006"/>
<path fill-rule="evenodd" clip-rule="evenodd" d="M14.751 14.4846C15.9739 13.4295 16.7493 11.8594 16.7493 10.106C16.7493 8.35264 15.9739 6.7825 14.751 5.72739C15.7439 4.87068 17.0318 4.35352 18.4391 4.35352C21.5797 4.35352 24.1256 6.92899 24.1256 10.106C24.1256 13.283 21.5797 15.8585 18.4391 15.8585C17.0318 15.8585 15.7439 15.3413 14.751 14.4846Z" fill="#F9A000"/>
<path fill-rule="evenodd" clip-rule="evenodd" d="M14.7483 14.4848C15.9712 13.4297 16.7466 11.8595 16.7466 10.1062C16.7466 8.3528 15.9712 6.78265 14.7483 5.72754C13.5254 6.78265 12.75 8.3528 12.75 10.1062C12.75 11.8595 13.5254 13.4297 14.7483 14.4848Z" fill="#FF5E00"/>
</svg>
