<svg id="Layer_1" data-name="Layer 1" xmlns="http://www.w3.org/2000/svg" width="109.16mm" height="30.39mm" viewBox="0 0 309.42 86.16">
  <defs>
    <style>
      .cls-1 {
        fill: #fff;
      }
    </style>
  </defs>
  <path class="cls-1" d="M159.71,73.22c20.07,10.67,37.42,6.59,37.33-7.64-.12-19.92-38.31-15.6-38.31-42.77,0-12.72,12-27.69,46-19.2V15C185.77,5.14,170.78,8.28,170.84,21c.06,16.51,40.2,15,38.89,42.73-1,21.1-21.71,27.58-50,20.6Z" transform="translate(-1 -1)"/>
  <path class="cls-1" d="M262.94,68.64S244.39,15.76,241.79,8.4c-2-5.54-8-5.9-10.71-5.9h-5.34L214,85.65h8.67l8.94-70.08,23.25,70.08h11.56L290,15.44c1.7,16,6.72,70.21,6.72,70.21h7.58c6,0,6.3-4.79,6-7.44-.18-1.87-6.28-60.57-7-67S297,2.5,293.39,2.5H285.6Z" transform="translate(-1 -1)"/>
  <path class="cls-1" d="M100.71,85.53V2.62h23.84c22.18,0,28.26,9.78,28.26,21.85S146.73,46.2,124.55,46.2H113.68s0,30.92,0,31.91c0,2.67-.45,7.41-6.43,7.41h-6.54M113.9,39.7h10.65c10.8,0,15.06-6.8,15.06-15.18S135.35,9.29,124.55,9.29h-6.7a4,4,0,0,0-3.95,4Z" transform="translate(-1 -1)"/>
  <path class="cls-1" d="M46.3,87.16C21.33,87.16,1,72.33,1,44.08,1,18,21.33,1,46.3,1S91.59,16.06,91.59,44.08C91.59,69.74,71.27,87.16,46.3,87.16ZM77.65,44.08c0-26.32-14-37.17-31.35-37.17S14.94,23.55,14.94,44.08c0,25.37,14,37.17,31.36,37.17S77.65,64.6,77.65,44.08Z" transform="translate(-1 -1)"/>
</svg>
