<svg width="200" height="100" viewBox="0 0 200 100" fill="none" xmlns="http://www.w3.org/2000/svg">
<g clip-path="url(#clip0_1968_14002)">
<path d="M52.2206 46.2272C52.2206 48.8062 50.7473 51.0706 47.6044 51.0706H43.3484V41.3498H47.6044C50.7473 41.3498 52.2206 43.6457 52.2206 46.2246M77.3284 46.2246C77.3284 48.8036 75.8225 51.068 72.7123 51.068H68.4235V41.3498H72.7123C75.8225 41.3498 77.3284 43.6457 77.3284 46.2246ZM101.52 52.7663H94.4508L97.7901 46.3819L101.522 52.7663H101.52ZM131.934 53.6784C131.934 57.2952 129.577 58.6476 126.958 58.6476H124.145V41.3498H126.958C129.577 41.3498 131.934 42.7021 131.934 46.319V53.6784ZM152.919 52.7663H145.848L149.187 46.3819L152.919 52.7663ZM57.5242 46.2272C57.5242 43.1136 55.1998 40 50.3217 40H35V40.346C35.2619 40.346 37.5864 40.4718 37.5864 42.7677V57.2323C37.5864 59.5282 35.2619 59.654 35 59.654V60H45.9347V59.654C45.6728 59.654 43.3484 59.5282 43.3484 57.2323V52.4204H50.3217C55.1998 52.4204 57.5242 49.3068 57.5242 46.2246M86.1679 60V59.7169L78.4088 53.6155C77.6558 53.8042 76.7719 53.93 75.8879 53.93C73.8909 53.93 71.6974 53.4897 70.6497 52.4204H75.4296C80.3077 52.4204 82.5994 49.3068 82.5994 46.2246C82.5994 43.1424 80.3077 40 75.4296 40H60.1079V40.346C60.3698 40.346 62.6942 40.4718 62.6942 42.7677V57.2323C62.6942 59.5282 60.3698 59.654 60.1079 59.654V60H71.0099V59.654C70.748 59.654 68.4235 59.5282 68.4235 57.2323V52.4204L77.9505 60H86.1679ZM113.603 60V59.654C112.225 59.654 111.54 58.5847 110.918 57.5154L100.704 40H92.421V40.346C93.3704 40.346 94.3198 40.6605 95.2365 42.1386L97.0044 45.0007L90.6858 57.3608C89.9328 58.8389 89.1471 59.6567 87.903 59.6567V60.0026H93.174V59.6567C92.2573 59.6567 91.9299 59.1849 91.9299 58.4642C91.9299 57.9924 92.0936 57.5206 92.29 57.1118L93.796 54.124H102.308L104.272 57.5206C104.499 57.9295 104.633 58.3384 104.633 58.6529C104.633 59.3448 104.174 59.6593 103.094 59.6593V60.0052H113.603V60ZM138.875 49.9987C138.875 43.3941 133.243 40 127.842 40H115.796V40.346C116.058 40.346 118.38 40.4718 118.38 42.7677V57.2323C118.38 59.5282 116.056 59.654 115.796 59.654V60H127.842C133.243 60 138.875 56.6348 138.875 49.9987ZM164.997 60V59.654C163.622 59.654 162.935 58.5847 162.313 57.5154L152.101 40H143.815V40.346C144.767 40.346 145.714 40.6605 146.634 42.1386L148.399 45.0007L142.08 57.3608C141.327 58.8389 140.541 59.6567 139.297 59.6567V60.0026H144.568V59.6567C143.649 59.6567 143.322 59.1849 143.322 58.4642C143.322 57.9924 143.485 57.5206 143.682 57.1118L145.188 54.124H153.697L155.661 57.5206C155.89 57.9295 156.021 58.3384 156.021 58.6529C156.021 59.3448 155.563 59.6593 154.483 59.6593V60.0052H164.992L164.997 60Z" fill="#1D1D1B"/>
</g>
<defs>
<clipPath id="clip0_1968_14002">
<rect width="130" height="20" fill="white" transform="translate(35 40)"/>
</clipPath>
</defs>
</svg>
