<svg width="20" height="20" viewBox="0 0 20 20" fill="none" xmlns="http://www.w3.org/2000/svg">
<g clip-path="url(#clip0_38_3065)">
<path d="M19.132 0H11.6799C11.4499 0 11.2291 0.0916667 11.0661 0.254583L0.254063 11.0887C-0.0846875 11.4283 -0.0846875 11.9792 0.254063 12.3188L7.6649 19.745C7.83448 19.915 8.05656 20 8.27865 20C8.4999 20 8.72073 19.9158 8.8899 19.7475L19.7428 8.9525C19.9074 8.78958 19.9999 8.56708 19.9999 8.33542V0.869583C19.9999 0.389583 19.6111 0 19.132 0ZM19.1666 8.33542C19.1666 8.34542 19.1628 8.355 19.1557 8.36208L8.30281 19.1567C8.29948 19.16 8.2924 19.1667 8.27865 19.1667C8.2649 19.1667 8.25823 19.16 8.2549 19.1567L0.844062 11.7304C0.829896 11.7162 0.829896 11.6921 0.844062 11.6775L11.6557 0.843333C11.6624 0.837083 11.6707 0.833333 11.6799 0.833333H19.132C19.1511 0.833333 19.1666 0.849583 19.1666 0.869583V8.33542Z" fill="#2D2A26"/>
<path d="M15.8332 2.5C14.9141 2.5 14.1666 3.2475 14.1666 4.16667C14.1666 5.08583 14.9141 5.83333 15.8332 5.83333C16.7524 5.83333 17.4999 5.08583 17.4999 4.16667C17.4999 3.2475 16.7524 2.5 15.8332 2.5ZM15.8332 5C15.3736 5 14.9999 4.62625 14.9999 4.16667C14.9999 3.70708 15.3736 3.33333 15.8332 3.33333C16.2928 3.33333 16.6666 3.70708 16.6666 4.16667C16.6666 4.62625 16.2928 5 15.8332 5Z" fill="#2D2A26"/>
</g>
<defs>
<clipPath id="clip0_38_3065">
<rect width="20" height="20" fill="white"/>
</clipPath>
</defs>
</svg>
