<svg id="Layer_1" data-name="Layer 1" xmlns="http://www.w3.org/2000/svg" viewBox="0 0 704.86 366.32"><path d="M410.84,317.61c-11.45,0-21,45.46-30.33,45-7.88-.38-1.3-31.36-13.37-31.44-7.4-.05-9.62,12.38-13,23-.19.61-5.66,22.08-14,22.08-5.29,0-9.91-4.23-9.91-16.75,0-5.85-.29-14.57-7.29-16-12.12-2.51-9.35,9.94-20,7.93-28.75-5.42-50.51,53.62-33,61.53,21,9.47,36.25-27.73,42.51-26.7,4.78.78,1.68,16.8,16.72,15.78,12.27-.83,21.94-26.16,26.72-25.86,4.23.26.54,15.24,11.12,15.8,12.39.65,17.5-19.91,23.14-20,1.42,0,2,1,1.91,6.1-.16,6.87-1.08,94-1.22,96.86-.26,5.37,2.34,5.82,3.51,5.82.8,0,12.7-.25,15-.34s2.69-2.25,2.66-3.55c0-.53,1.65-126.87,1.77-154.23C413.83,317.61,411.71,317.61,410.84,317.61Zm-102.06,52c-2.87,10.3-14.51,27.24-20,27.76-1.62.16-4-.7-3.89-4.42.21-8.7,13.8-28.43,19.41-29.93C308.16,362,309.86,365.74,308.78,369.63Z" transform="translate(-68.52 -114.48)"/><path d="M768.88,261.43c-22.34,14.11-18-38.08-31.63-38.08-14.83,0-19.16,30.94-24.44,31.46-6.47.64,2.41-22.68-10.41-22.16-14.13.58-22,51.81-32.29,47.85-10.53-4.07-3-31.14-14.83-33.12-6.1-1-7.36,3.87-11,6.23-5.45,3.53-15.23-2.61-30.59,15.29C596.31,289.13,591,321.81,604.25,324c17.83,3,34.08-27.44,38.2-31.35,5.74-5.46,2.54,15.76,18,16.07,16.35.33,21.26-26.65,26-26.39,4.08.23-.65,14.15,7.14,15.15,16.87,2.15,26.11-42.07,33.06-41.1s4.33,27.34,21,29c14.19,1.41,23.91-18,25.23-20.83S772,259.46,768.88,261.43ZM641.76,275.34c-3.23,9.19-12.57,24-18.31,25-2,.35-4.36-1.59-4.21-5,.36-7.9,13.6-24.67,19-25.91C641.88,268.57,643.09,271.59,641.76,275.34Z" transform="translate(-68.52 -114.48)"/><path d="M317,445c4,1.93,9.51,5.52,6.68,12-2,4.59-3.95,8.18-4.37,8.9-2.46,4.2-8.41,6.72-15.53,3.36-11.38-5.38-72.52-34.57-74.46-35.48-2.16-1-5.65-.27-5.66,5.73s0,14.41,0,16.28c0,2.2.3,7.62-4.2,10.81-4.78,3.39-12.6,8-14,8.74-2,1-7,4.91-7.06-3.25-.13-16.22-.14-46.32-.13-48s.37-4.88-4.46-7.08c-4.34-2-32-15-33.73-15.84-2.22-1-3.89-5,.64-7.73,5.38-3.25,32.29-19,34.15-20.31,3.12-2.23,3.12-4.36,3.15-10.84,0-7.3-.41-102.16-.36-103.69.09-2.47-.24-4.52,4-7.22l11.56-7.49c2.63-1.71,10.71-5.1,10.58,4-.08,6.13,0,92.91,0,95.22,0,3.17,1.52,8,6.64,4.23,61.23-45.23,69.36-83.47,57.16-108.76-24.92-51.66-154.39,30.8-210.41,77-8.8,7.25-8.59,4-8.6.54,0-4.14.18-19.48.51-22.31.49-4.07,1.5-17.29,13.61-26.08,11.72-8.5,172.25-111.91,218.9-45.45,22.75,32.41,8.86,83.57-72,143-4.94,3.63-5.85,4.82-5.85,11.38s-.15,16.45,0,18.33.34,5.84,4.24,7.82S313.65,443.37,317,445Z" transform="translate(-68.52 -114.48)"/><path d="M470.77,312.5c-5.95-6.67-17.87-6.56-27-.91-12.1,7.45-15.32,19.1-9.38,25.77s20.16,5.26,28.87-.53C473.18,330.21,476.71,319.17,470.77,312.5Z" transform="translate(-68.52 -114.48)"/><path d="M561.36,134.73c28.47,28-20,81.15-31.73,94.82-5.26,6.13-10.13,15.26-1.88,24s17.08,17.11,24.26,23.76c8.86,8.2,6.23,23.55.62,31.87-3.73,5.52-12.09,15.28-21.71,27.58s-18.4,23.59-19.38,24.83a20.23,20.23,0,0,0-1.45,23.69c10.36,16.06,11.35,15.82,17.95,4.36,11-19.09,25.48-36.83,36.51-49.4a220.35,220.35,0,0,0,16.74-21.42c10-14.25,10.93-29.47.85-38.24-13.35-11.62-28.79-21.77-41.54-31.5-7.37-5.61-2.26-12.53,5.62-18.43,28-21,67.17-56.11,49.22-98.4-17.36-40.91-99.11-9.35-102.42,75.29-1.18,30.19,2.82,113.67.58,134.56-1.31,12.16,3.32,10.8,7.76,9,4.06-1.68,19.67-9.31,18.86-29.19S517.6,215.7,517,206.75C514,160.17,542.88,116.53,561.36,134.73Z" transform="translate(-68.52 -114.48)"/></svg>