<svg width="36" height="36" viewBox="0 0 16 16" fill="none" xmlns="http://www.w3.org/2000/svg">
<path fill-rule="evenodd" clip-rule="evenodd" d="M14.1844 11.3829L9.07874 2.91568C8.96292 2.73792 8.80491 2.59152 8.61872 2.48956C8.42926 2.3858 8.21673 2.33142 8.00072 2.33142C7.78471 2.33142 7.57217 2.3858 7.38271 2.48956C7.19653 2.59152 7.03851 2.73792 6.92269 2.91568L1.81825 11.3809C1.81808 11.3812 1.81792 11.3815 1.81775 11.3818C1.72775 11.5321 1.67884 11.7035 1.67592 11.8787C1.67303 12.0524 1.71542 12.2238 1.79889 12.3761C1.90816 12.5655 2.06537 12.7229 2.25476 12.8324C2.44584 12.9429 2.66284 13.0007 2.88356 12.9998L2.88738 12.9998L13.1194 12.9998L13.1247 12.9999C13.344 13.0022 13.56 12.9467 13.751 12.8389C13.9394 12.7325 14.0968 12.5789 14.2078 12.3934C14.2929 12.2401 14.3362 12.0671 14.3333 11.8917C14.3303 11.7136 14.2799 11.5395 14.1871 11.3873L14.1844 11.3829ZM15.0741 12.8932C14.8735 13.2337 14.5868 13.5154 14.2426 13.7097C13.8985 13.904 13.5092 14.0041 13.1141 13.9998H2.88738C2.4896 14.0014 2.09855 13.8972 1.75419 13.6981C1.40982 13.499 1.1245 13.212 0.927384 12.8665C0.756888 12.5595 0.670208 12.2131 0.676059 11.862C0.68191 11.511 0.780087 11.1676 0.960718 10.8665L6.07405 2.3865C6.28081 2.06305 6.56568 1.79685 6.9024 1.61246C7.23911 1.42807 7.61682 1.33142 8.00072 1.33142C8.38461 1.33142 8.76233 1.42807 9.09904 1.61246C9.43575 1.79685 9.72062 2.06305 9.92739 2.3865L15.0407 10.8665C15.2263 11.1707 15.3273 11.519 15.3331 11.8753C15.339 12.2316 15.2496 12.583 15.0741 12.8932Z" fill="#CC0000"/>
<path d="M8.00065 11.3333C8.36884 11.3333 8.66732 11.0349 8.66732 10.6667C8.66732 10.2985 8.36884 10 8.00065 10C7.63246 10 7.33398 10.2985 7.33398 10.6667C7.33398 11.0349 7.63246 11.3333 8.00065 11.3333Z" fill="#CC0000"/>
<path d="M8.00065 5.33337C7.82384 5.33337 7.65427 5.40361 7.52925 5.52864C7.40422 5.65366 7.33398 5.82323 7.33398 6.00004V8.66671C7.33398 8.84352 7.40422 9.01309 7.52925 9.13811C7.65427 9.26314 7.82384 9.33337 8.00065 9.33337C8.17746 9.33337 8.34703 9.26314 8.47206 9.13811C8.59708 9.01309 8.66732 8.84352 8.66732 8.66671V6.00004C8.66732 5.82323 8.59708 5.65366 8.47206 5.52864C8.34703 5.40361 8.17746 5.33337 8.00065 5.33337Z" fill="#CC0000"/>
</svg>