<svg width="24" height="24" viewBox="0 0 24 24" fill="none" xmlns="http://www.w3.org/2000/svg">
<path d="M12 13C15.584 13 18.5 10.084 18.5 6.5C18.5 2.916 15.584 0 12 0C8.416 0 5.5 2.916 5.5 6.5C5.5 10.084 8.416 13 12 13ZM12 1C15.0325 1 17.5 3.4675 17.5 6.5C17.5 9.5325 15.0325 12 12 12C8.9675 12 6.5 9.5325 6.5 6.5C6.5 3.4675 8.9675 1 12 1Z" fill="#303030"/>
<path d="M17.2175 15H6.7825C3.0365 15 0 18.492 0 22.8V23C0 23.5525 0.4475 24 1 24H23C23.5525 24 24 23.5525 24 23V22.8C24 18.492 20.9635 15 17.2175 15ZM23 23H1V22.8C1 19.0505 3.594 16 6.7825 16H17.2175C20.406 16 23 19.0505 23 22.8V23Z" fill="#303030"/>
</svg>
