<svg xmlns="http://www.w3.org/2000/svg" width="38" height="42" viewBox="0 0 38 42">
    <g fill="none" fill-rule="evenodd">
        <g fill="#303030" fill-rule="nonzero" stroke="#303030" stroke-width=".3">
            <g>
                <g>
                    <g>
                        <path d="M35 0H1.667C.746 0 0 .746 0 1.667v36.666C0 39.254.746 40 1.667 40H35c.92 0 1.667-.746 1.667-1.667V1.667C36.667.746 35.92 0 35 0zm0 38.333H1.667V1.667H35v36.666z" transform="translate(-614 -195) translate(228 171.724) translate(300) translate(86.667 24.276)"/>
                        <path d="M15 33.333L16.667 33.333 16.667 28.333 20 28.333 20 33.333 21.667 33.333 21.667 26.667 15 26.667zM13.333 31.667L8.333 31.667 8.333 28.333 13.333 28.333 13.333 26.667 6.667 26.667 6.667 33.333 13.333 33.333zM23.333 28.333L28.333 28.333 28.333 31.667 23.333 31.667 23.333 33.333 30 33.333 30 26.667 23.333 26.667zM15.833 21.667L24.167 21.667 24.167 20.833 24.167 20 24.167 17.5 22.5 17.5 22.5 20 15.833 20 15.833 15 20 15 20 13.333 15.833 13.333 15.833 8.333 22.5 8.333 22.5 10.833 24.167 10.833 24.167 8.333 24.167 7.5 24.167 6.667 15.833 6.667 14.167 6.667 11.667 6.667 11.667 8.333 14.167 8.333 14.167 20 11.667 20 11.667 21.667 14.167 21.667z" transform="translate(-614 -195) translate(228 171.724) translate(300) translate(86.667 24.276)"/>
                    </g>
                </g>
            </g>
        </g>
    </g>
</svg>
