<svg width="24" height="22" viewBox="0 0 24 22" fill="none" xmlns="http://www.w3.org/2000/svg">
<path d="M22.0326 2.42453C20.7211 1.11303 19.0016 0.457031 17.2826 0.457031C15.5636 0.457031 13.8441 1.11303 12.5326 2.42453L12.0001 2.94303L11.4676 2.42453C10.1561 1.11303 8.43663 0.457031 6.71763 0.457031C4.99863 0.457031 3.27913 1.11303 1.96763 2.42453C-0.655875 5.04803 -0.655875 9.30103 1.96763 11.9245L11.2931 21.25C11.4886 21.4455 11.7441 21.543 12.0001 21.543C12.2561 21.543 12.5121 21.4455 12.7071 21.25L22.0326 11.9245C24.6561 9.30153 24.6561 5.04803 22.0326 2.42453ZM21.3256 11.2175L12.0001 20.543L2.67463 11.2175C1.59463 10.1375 1.00013 8.70203 1.00013 7.17453C1.00013 5.64753 1.59463 4.21153 2.67463 3.13153C3.75463 2.05153 5.19012 1.45703 6.71763 1.45703C8.24463 1.45703 9.68063 2.05153 10.7701 3.14103L12.0001 4.33853L13.2396 3.13153C14.3196 2.05153 15.7551 1.45703 17.2826 1.45703C18.8096 1.45703 20.2456 2.05153 21.3256 3.13153C22.4056 4.21153 23.0001 5.64703 23.0001 7.17453C23.0001 8.70203 22.4056 10.1375 21.3256 11.2175Z" fill="black"/>
<path d="M12.2776 2.67096C12.2061 2.74096 12.1081 2.78396 12.0001 2.78396C11.8916 2.78396 11.7926 2.74046 11.7211 2.66946L11.6301 2.92196L11.9631 3.04246L12.1711 2.93546L12.2776 2.67096Z" fill="black"/>
</svg>
