<svg width="22" height="22" viewBox="0 0 22 22" fill="none" xmlns="http://www.w3.org/2000/svg">
<path d="M16.9577 5.95833C17.4639 5.95833 17.8743 5.54793 17.8743 5.04167C17.8743 4.53541 17.4639 4.125 16.9577 4.125C16.4514 4.125 16.041 4.53541 16.041 5.04167C16.041 5.54793 16.4514 5.95833 16.9577 5.95833Z" fill="white"/>
<path d="M11 5.5C7.96263 5.5 5.5 7.96263 5.5 11C5.5 14.0374 7.96263 16.5 11 16.5C14.0374 16.5 16.5 14.0374 16.5 11C16.5 7.96263 14.0374 5.5 11 5.5ZM11 15.5833C8.47275 15.5833 6.41667 13.5273 6.41667 11C6.41667 8.47275 8.47275 6.41667 11 6.41667C13.5273 6.41667 15.5833 8.47275 15.5833 11C15.5833 13.5273 13.5273 15.5833 11 15.5833Z" fill="white"/>
<path d="M15.4797 0H6.52025C2.91913 0 0 2.91913 0 6.52025V15.4793C0 19.0809 2.91913 22 6.52025 22H15.4793C19.0809 22 22 19.0809 22 15.4797V6.52025C22 2.91913 19.0809 0 15.4797 0ZM21.0833 15.4797C21.0833 18.5694 18.5694 21.0833 15.4797 21.0833H6.52025C3.43062 21.0833 0.916667 18.5694 0.916667 15.4797V6.52025C0.916667 3.43062 3.43062 0.916667 6.52025 0.916667H15.4793C18.5694 0.916667 21.0833 3.43062 21.0833 6.52025V15.4797Z" fill="white"/>
</svg>
