<svg width="18" height="19" viewBox="0 0 18 19" fill="none" xmlns="http://www.w3.org/2000/svg">
<path d="M16.5 2.75H1.5C0.671625 2.75 0 3.42162 0 4.25V14.75C0 15.5784 0.671625 16.25 1.5 16.25H16.5C17.3284 16.25 18 15.5784 18 14.75V4.25C18 3.42162 17.3284 2.75 16.5 2.75ZM17.25 14.75C17.25 15.1636 16.9136 15.5 16.5 15.5H1.5C1.08637 15.5 0.75 15.1636 0.75 14.75V8H17.25V14.75ZM17.25 7.25H0.75V5.75H17.25V7.25ZM17.25 5H0.75V4.25C0.75 3.83637 1.08637 3.5 1.5 3.5H16.5C16.9136 3.5 17.25 3.83637 17.25 4.25V5Z" fill="black"/>
<path d="M4.125 14.375C4.53225 14.375 4.92675 14.2389 5.25 13.9932C5.57325 14.2389 5.96775 14.375 6.375 14.375C7.40887 14.375 8.25 13.5339 8.25 12.5C8.25 11.4661 7.40887 10.625 6.375 10.625C5.96775 10.625 5.57325 10.7611 5.25 11.0068C4.92675 10.7611 4.53225 10.625 4.125 10.625C3.09113 10.625 2.25 11.4661 2.25 12.5C2.25 13.5339 3.09113 14.375 4.125 14.375ZM4.125 11.375C4.449 11.375 4.74825 11.5134 4.968 11.7642H5.53238C5.75175 11.5134 6.051 11.375 6.375 11.375C6.99525 11.375 7.5 11.8798 7.5 12.5C7.5 13.1202 6.99525 13.625 6.375 13.625C6.051 13.625 5.75175 13.4866 5.532 13.2358H4.96762C4.74825 13.4866 4.449 13.625 4.125 13.625C3.50475 13.625 3 13.1202 3 12.5C3 11.8798 3.50475 11.375 4.125 11.375Z" fill="black"/>
</svg>
