<svg width="21" height="20" viewBox="0 0 21 20" fill="none" xmlns="http://www.w3.org/2000/svg">
<path d="M16.3332 10H4.6665V10.8333H16.3332V10Z" fill="#303030"/>
<path d="M19.6667 6.66667C20.1262 6.66667 20.5 6.29292 20.5 5.83333V4.16667C20.5 3.70708 20.1262 3.33333 19.6667 3.33333H18.5L17.3762 0.52375C17.2496 0.2075 16.9433 0 16.6025 0H4.3975C4.05667 0 3.75042 0.2075 3.62375 0.52375L2.5 3.33333H1.33333C0.87375 3.33333 0.5 3.70708 0.5 4.16667V5.83333C0.5 6.29292 0.87375 6.66667 1.33333 6.66667H2.16667V19.1667H0.5V20H2.16667H3H4.66667H5.5H8.83333H9.66667H11.3333H12.1667H15.5H16.3333H18H18.8333H20.5V19.1667H18.8333V6.66667H19.6667ZM4.3975 0.833333H16.6025L17.6025 3.33333H3.3975L4.3975 0.833333ZM1.33333 5.83333V4.16667H2.16667H18.8333H19.6667L19.6671 5.83333H18.8333H2.16667H1.33333ZM5.5 19.1667V13.3333H8.83333V19.1667H5.5ZM12.1667 19.1667V13.3333H15.5V19.1667H12.1667ZM18 19.1667H16.3333V13.3333C16.3333 12.8737 15.9596 12.5 15.5 12.5H12.1667C11.7071 12.5 11.3333 12.8737 11.3333 13.3333V19.1667H9.66667V13.3333C9.66667 12.8737 9.29292 12.5 8.83333 12.5H5.5C5.04042 12.5 4.66667 12.8737 4.66667 13.3333V19.1667H3V6.66667H18V19.1667Z" fill="black"/>
</svg>
