<svg xmlns="http://www.w3.org/2000/svg" width="30" height="30" viewBox="0 0 30 30" fill="none">
  <path d="M29.7373 12.8269C29.1654 10.6475 27.7135 9.2275 25.7417 8.93C24.9254 8.82188 24.0292 8.75812 23.1248 8.75437V8.75H6.87478V8.75437C5.96665 8.75875 5.06728 8.82313 4.24603 8.93188C2.28603 9.22813 0.834154 10.6481 0.262279 12.8275C-0.474596 15.6369 0.411654 18.8812 2.3229 20.3731C3.06603 20.9531 3.96415 21.2469 4.9454 21.2469C5.5304 21.2469 6.14415 21.1425 6.7729 20.9313C9.64478 19.9675 12.3823 16.97 13.4848 13.6487C14.3567 12.9887 15.6404 12.9881 16.5129 13.6481C17.3517 16.1856 19.1573 18.5375 21.2498 19.9356V18.4C19.5429 17.025 18.1292 14.9344 17.5448 12.7475C17.4123 12.1831 17.5135 11.74 17.8635 11.3531C18.6304 10.5056 20.5373 10.0206 22.8685 10H23.1248V9.99937C23.9042 10.0037 24.7254 10.0562 25.5667 10.1675C27.5423 10.4662 28.2698 12.1606 28.5279 13.1444C29.0492 15.1331 28.5967 17.4325 27.4998 18.7937V20.4881C27.5573 20.4475 27.6204 20.4169 27.676 20.3731C29.5879 18.8806 30.4735 15.6369 29.7373 12.8269ZM12.4592 12.7294C11.6135 15.8956 9.0554 18.8475 6.37603 19.7469C5.4754 20.0487 4.17603 20.2319 3.0929 19.3881C1.57665 18.2037 0.864779 15.4619 1.47228 13.1444C1.7304 12.1606 2.4579 10.4662 4.42228 10.1694C5.2679 10.0581 6.09353 10.0031 6.8754 9.99875V10H7.1504C9.47603 10.0231 11.3723 10.5081 12.1367 11.3531C12.486 11.74 12.5873 12.1831 12.4592 12.7294ZM16.9367 10.5144C16.5254 10.9694 16.2979 11.505 16.2542 12.0963C15.8542 11.9544 15.431 11.875 14.9998 11.875C14.5685 11.875 14.1467 11.9544 13.7473 12.0963C13.7035 11.5081 13.476 10.9712 13.0629 10.515C12.8904 10.3244 12.6854 10.1562 12.4617 10.0006H17.5373C17.3142 10.1556 17.1085 10.3237 16.9367 10.5144Z" fill="black"/>
  <path d="M22.4998 16.875V18.125H23.7498V21.25H22.4998V22.5H26.2498V21.25H24.9998V18.125H26.2498V16.875H22.4998Z" fill="black"/>
</svg>