<svg xmlns="http://www.w3.org/2000/svg" width="23" height="22" viewBox="0 0 23 22" fill="none">
  <g clip-path="url(#clip0_532_410)">
    <path d="M6.29215 6.32427C8.06407 6.32427 9.50049 4.90853 9.50049 3.16213C9.50049 1.41573 8.06407 0 6.29215 0C4.52024 0 3.08382 1.41573 3.08382 3.16213C3.08382 4.90853 4.52024 6.32427 6.29215 6.32427ZM6.29215 0.903467C7.55578 0.903467 8.58382 1.9167 8.58382 3.16213C8.58382 4.40756 7.55578 5.4208 6.29215 5.4208C5.02853 5.4208 4.00049 4.40756 4.00049 3.16213C4.00049 1.9167 5.02853 0.903467 6.29215 0.903467Z" fill="#575D9B"/>
    <path d="M16.3755 6.32427C18.1474 6.32427 19.5838 4.90853 19.5838 3.16213C19.5838 1.41573 18.1474 0 16.3755 0C14.6036 0 13.1672 1.41573 13.1672 3.16213C13.1672 4.90853 14.6036 6.32427 16.3755 6.32427ZM16.3755 0.903467C17.6391 0.903467 18.6672 1.9167 18.6672 3.16213C18.6672 4.40756 17.6391 5.4208 16.3755 5.4208C15.1119 5.4208 14.0838 4.40756 14.0838 3.16213C14.0838 1.9167 15.1119 0.903467 16.3755 0.903467Z" fill="#575D9B"/>
    <path d="M6.29215 7.22773C4.26724 7.22773 2.62549 8.84584 2.62549 10.8416V15.3589C2.62549 15.8581 3.0357 16.2624 3.54215 16.2624H4.45882V20.7797C4.45882 21.2789 4.86903 21.6832 5.37549 21.6832H7.20882C7.71528 21.6832 8.12549 21.2789 8.12549 20.7797V16.2624H9.04215C9.54861 16.2624 9.95882 15.8581 9.95882 15.3589V10.8416C9.95882 8.84584 8.31707 7.22773 6.29215 7.22773ZM9.04215 15.3589H7.20882V20.7797H5.37549V15.3589H3.54215V10.8416C3.54215 9.34727 4.77599 8.1312 6.29215 8.1312C7.80832 8.1312 9.04215 9.34727 9.04215 10.8416V15.3589Z" fill="#575D9B"/>
    <path d="M20.7109 15.1629L19.7218 9.87354C19.3734 8.3277 17.9824 7.22773 16.3755 7.22773C14.7686 7.22773 13.3775 8.3277 13.0287 9.87354L12.0397 15.1629C11.9127 15.7271 12.3486 16.2624 12.9348 16.2624H14.5422V20.7797C14.5422 21.2789 14.9524 21.6832 15.4588 21.6832H17.2922C17.7986 21.6832 18.2088 21.2789 18.2088 20.7797V16.2624H19.8162C20.4024 16.2624 20.8383 15.7271 20.7109 15.1629ZM17.2922 15.3589V20.7797H15.4588V15.3589H12.9348L12.9384 15.3427L12.9417 15.3264L13.9275 10.0542C14.1902 8.92128 15.1944 8.1312 16.3755 8.1312C17.5566 8.1312 18.5608 8.92128 18.8239 10.0547L19.8098 15.3269L19.813 15.3431L19.8162 15.3589H17.2922Z" fill="#575D9B"/>
  </g>
  <defs>
    <clipPath id="clip0_532_410">
      <rect width="22" height="21.6832" fill="white" transform="translate(0.791992)"/>
    </clipPath>
  </defs>
</svg>