<svg xmlns="http://www.w3.org/2000/svg" width="32" height="32" viewBox="0 0 32 32" fill="none">
  <g clip-path="url(#clip0_4_20094)">
    <path d="M31.7092 13.6822C31.0996 11.3575 29.552 9.84283 27.4502 9.5255C26.5801 9.41083 25.6248 9.34216 24.6608 9.33816V9.3335H7.33947V9.33816C6.37148 9.34283 5.41281 9.4115 4.53742 9.5275C2.4482 9.8435 0.900609 11.3582 0.291032 13.6828C-0.494423 16.6795 0.450254 20.1402 2.48751 21.7315C3.27962 22.3502 4.23696 22.6635 5.2829 22.6635C5.90647 22.6635 6.56068 22.5522 7.23088 22.3268C10.2921 21.2988 13.2101 18.1015 14.3852 14.5588C15.3146 13.8548 16.683 13.8542 17.613 14.5582C18.7802 18.0915 21.7028 21.2975 24.7687 22.3268C25.4389 22.5515 26.0931 22.6635 26.7167 22.6635C27.7626 22.6635 28.72 22.3495 29.5121 21.7315C31.55 20.1395 32.494 16.6795 31.7092 13.6822ZM13.292 13.5782C12.3906 16.9555 9.66386 20.1042 6.80784 21.0635C5.84784 21.3855 4.4628 21.5802 3.30827 20.6808C1.69206 19.4175 0.933252 16.4928 1.5808 14.0208C1.85595 12.9715 2.63141 11.1642 4.72529 10.8475C5.62666 10.7288 6.50672 10.6702 7.34014 10.6655V10.6668H7.61728C10.1036 10.6895 12.1321 11.2068 12.9482 12.1102C13.3207 12.5228 13.4286 12.9955 13.292 13.5782ZM14.6651 12.9028C14.6184 12.2755 14.3759 11.7028 13.9356 11.2162C13.7517 11.0128 13.5332 10.8335 13.2947 10.6675H18.7042C18.4664 10.8335 18.2472 11.0128 18.064 11.2162C17.6257 11.7015 17.3832 12.2728 17.3365 12.9035C16.9108 12.7515 16.4598 12.6668 16.0001 12.6668C15.5404 12.6668 15.0908 12.7515 14.6651 12.9028ZM28.6926 20.6808C27.5381 21.5808 26.1524 21.3862 25.1931 21.0635C22.3371 20.1042 19.6096 16.9562 18.7129 13.5975C18.5717 12.9955 18.6796 12.5228 19.0527 12.1102C19.8701 11.2062 21.9027 10.6888 24.3876 10.6668H24.6608V10.6662C25.4915 10.6708 26.3669 10.7268 27.2636 10.8455C29.3695 11.1642 30.145 12.9715 30.4201 14.0208C31.0677 16.4922 30.3089 19.4175 28.6926 20.6808Z" fill="#575D9B"/>
  </g>
  <defs>
    <clipPath id="clip0_4_20094">
      <rect width="31.9778" height="32" fill="white" transform="translate(0.0112305)"/>
    </clipPath>
  </defs>
</svg>