<svg xmlns="http://www.w3.org/2000/svg" width="23" height="22" viewBox="0 0 23 22" fill="none">
  <g clip-path="url(#clip0_532_398)">
    <path d="M16.2066 0H7.03996C5.77633 0 4.74829 1.01324 4.74829 2.25867V19.4245C4.74829 20.67 5.77633 21.6832 7.03996 21.6832H16.2066C17.4702 21.6832 18.4983 20.67 18.4983 19.4245V2.25867C18.4983 1.01324 17.4702 0 16.2066 0ZM17.5816 19.4245C17.5816 20.1717 16.9647 20.7797 16.2066 20.7797H7.03996C6.28187 20.7797 5.66496 20.1717 5.66496 19.4245V2.25867C5.66496 1.5115 6.28187 0.903467 7.03996 0.903467H16.2066C16.9647 0.903467 17.5816 1.5115 17.5816 2.25867V19.4245Z" fill="#575D9B"/>
    <path d="M13.4566 2.7104H9.78996V3.61387H13.4566V2.7104Z" fill="#575D9B"/>
    <path d="M11.6233 18.9728C12.1296 18.9728 12.54 18.5683 12.54 18.0693C12.54 17.5704 12.1296 17.1659 11.6233 17.1659C11.117 17.1659 10.7066 17.5704 10.7066 18.0693C10.7066 18.5683 11.117 18.9728 11.6233 18.9728Z" fill="#575D9B"/>
  </g>
  <defs>
    <clipPath id="clip0_532_398">
      <rect width="22" height="21.6832" fill="white" transform="translate(0.623291)"/>
    </clipPath>
  </defs>
</svg>