<svg xmlns="http://www.w3.org/2000/svg" width="24" height="24" viewBox="0 0 24 24" fill="none">
  <g clip-path="url(#clip0_4_21675)">
    <path d="M22.8326 17.4995C21.5901 17.036 18.5351 15.926 18.2246 15.7845C18.0486 15.7045 17.8566 15.6415 17.6506 15.6415C17.4926 15.6415 17.3261 15.6785 17.1521 15.7735C16.7516 15.9925 16.5011 16.1045 16.1556 16.423C15.8106 16.742 15.3826 17.0955 15.1186 17.3805C14.9126 17.604 14.6931 17.835 14.3631 17.835C14.2246 17.835 14.0666 17.7945 13.8816 17.6955C13.2586 17.362 11.2201 16.215 9.53414 14.4665C7.78564 12.7805 6.63814 10.742 6.30514 10.119C5.97064 9.4935 6.30264 9.1745 6.62014 8.882C6.90514 8.618 7.25864 8.19 7.57764 7.845C7.89564 7.5 8.00814 7.249 8.22714 6.8485C8.44614 6.448 8.35764 6.087 8.21614 5.7755C8.07464 5.465 6.96464 2.41 6.50114 1.1675C6.13114 0.1755 5.72714 0.093 5.39764 0.093C5.33214 0.093 5.27014 0.096 5.21114 0.096C5.19514 0.096 5.17964 0.096 5.16414 0.095C4.80764 0.0825 4.40214 0.0155 3.99414 0.0005C3.97314 0.0005 3.95164 0 3.92964 0C3.51814 0 2.88814 0.1445 2.33514 0.7045C1.75214 1.295 0.117141 2.7145 0.0046412 5.7235C-0.107859 8.7305 1.97314 11.7195 2.26364 12.138C2.44264 12.397 3.91514 14.978 6.45364 17.5465C9.02264 20.0845 11.6036 21.557 11.8621 21.736C12.2696 22.019 15.1141 24 18.0396 24C18.1186 24 18.1976 23.9985 18.2766 23.9955C21.2856 23.883 22.7051 22.248 23.2956 21.665C23.8861 21.0825 24.0146 20.414 23.9991 20.0065C23.9841 19.599 23.9171 19.193 23.9046 18.8365C23.8906 18.4795 24.0751 17.963 22.8326 17.4995ZM22.5931 20.9535L22.4611 21.086C21.8316 21.722 20.6601 22.9055 18.2396 22.9965C18.1726 22.999 18.1061 23 18.0396 23C15.6261 23 13.1411 21.4065 12.4311 20.9145C12.3926 20.888 12.3126 20.837 12.1946 20.764C11.4861 20.324 9.33064 18.9845 7.16464 16.8445C5.01614 14.67 3.67664 12.5145 3.23614 11.806C3.16314 11.6885 3.11214 11.608 3.08164 11.564C2.57064 10.8275 0.911141 8.232 1.00364 5.7615C1.09464 3.34 2.27814 2.1685 2.91414 1.539L3.04664 1.407C3.40914 1.04 3.78464 1 3.92914 1L3.95714 1.0005C4.13364 1.007 4.31664 1.0255 4.51064 1.0455C4.71264 1.066 4.92164 1.0875 5.12414 1.0945C5.15264 1.0955 5.18164 1.096 5.21064 1.096C5.24764 1.096 5.28564 1.095 5.32464 1.094L5.35764 1.0935C5.39964 1.1525 5.47364 1.277 5.56314 1.5165C5.71564 1.925 5.93764 2.5295 6.17264 3.1675C6.89364 5.128 7.21014 5.981 7.30514 6.1895C7.35864 6.307 7.35864 6.3475 7.34914 6.368L7.25664 6.5395C7.10464 6.8225 7.02864 6.964 6.84314 7.1655C6.73114 7.2865 6.61514 7.4175 6.49914 7.5485C6.29964 7.7735 6.09364 8.006 5.94214 8.1465C5.63964 8.4255 4.71964 9.274 5.42314 10.5905C5.85414 11.3965 7.04764 13.4535 8.82664 15.1735C10.5466 16.953 12.6036 18.146 13.4101 18.5775C13.7296 18.7485 14.0506 18.835 14.3631 18.835C15.1376 18.835 15.6036 18.33 15.8521 18.06C15.9941 17.907 16.2266 17.7005 16.4516 17.5015C16.5826 17.3855 16.7131 17.2695 16.8331 17.1585C17.0351 16.972 17.1771 16.896 17.4601 16.744L17.6506 16.6415C17.6551 16.6415 17.6966 16.643 17.8096 16.6945C18.0186 16.79 18.8721 17.1065 20.8326 17.8275C21.4706 18.062 22.0751 18.2845 22.4836 18.4365C22.7241 18.526 22.8486 18.6005 22.9071 18.6425C22.9066 18.6535 22.9061 18.6645 22.9056 18.675C22.9036 18.745 22.9026 18.812 22.9051 18.8705C22.9121 19.078 22.9336 19.287 22.9541 19.489C22.9741 19.683 22.9926 19.8665 22.9991 20.044C23.0041 20.159 22.9876 20.564 22.5931 20.9535Z" fill="#333333"/>
    <path d="M23.0001 9.5H24.0001C24.0001 4.2615 19.7386 0 14.5001 0V1C19.1871 1 23.0001 4.813 23.0001 9.5Z" fill="#333333"/>
    <path d="M20.0001 9.5H21.0001C21.0001 5.916 18.0841 3 14.5001 3V4C17.5326 4 20.0001 6.4675 20.0001 9.5Z" fill="#333333"/>
    <path d="M17.0001 9.5H18.0001C18.0001 7.5705 16.4301 6 14.5001 6V7C15.8786 7 17.0001 8.1215 17.0001 9.5Z" fill="#333333"/>
  </g>
  <defs>
    <clipPath id="clip0_4_21675">
      <rect width="24" height="24" fill="white"/>
    </clipPath>
  </defs>
</svg>