<svg xmlns="http://www.w3.org/2000/svg" xmlns:xlink="http://www.w3.org/1999/xlink" width="24" height="24" viewBox="0 0 24 24">
    <defs>
        <path id="vanqxckh7a" d="M17.5 0l-.16.03L12 2.1 6 0 .36 1.9c-.21.07-.36.25-.36.48V17.5c0 .28.22.5.5.5l.16-.03L6 15.9l6 2.1 5.64-1.9c.21-.07.36-.25.36-.48V.5c0-.28-.22-.5-.5-.5zM12 16l-6-2.11V2l6 2.11V16z"/>
    </defs>
    <g fill="none" fill-rule="evenodd">
        <g>
            <g>
                <g>
                    <g transform="translate(-230 -414) translate(0 402) translate(233 15)">
                        <mask id="b29skwvodb" fill="#fff">
                            <use xlink:href="#vanqxckh7a"/>
                        </mask>
                        <g fill="#000" mask="url(#b29skwvodb)">
                            <path d="M0 0H50V50H0z" transform="translate(-16 -16)"/>
                        </g>
                    </g>
                </g>
            </g>
        </g>
    </g>
</svg>
