<svg width="24" height="24" viewBox="0 0 24 24" fill="none" xmlns="http://www.w3.org/2000/svg">
<path d="M23 6H1C0.4477 6 0 6.4477 0 7V17C0 17.5523 0.4477 18 1 18H12C15.4302 18 16.1795 15.9116 16.9724 13.7007C17.5437 12.1079 18.1914 10.3033 19.9719 8.93165C20.3914 8.6084 21.0081 8.4131 21.6042 8.22415C22.0915 8.0695 22.5859 7.91085 23 7.6746V18C23.5523 18 24 17.5523 24 17V7C24 6.4477 23.5523 6 23 6ZM1 17V7.6729C1.41465 7.91 1.9086 8.0699 2.39625 8.22465C2.99245 8.4136 3.6089 8.60895 4.0281 8.9317C5.8086 10.3033 6.4563 12.108 7.0276 13.7008C7.4803 14.963 7.9209 16.1835 8.8521 17H1V17ZM21.302 7.271C20.6231 7.48635 19.9209 7.709 19.3615 8.13965C17.3489 9.68945 16.6489 11.6411 16.0312 13.3628C15.2456 15.5532 14.7266 17 12 17C9.27345 17 8.7544 15.5532 7.96875 13.3628C7.35105 11.6411 6.6511 9.68945 4.63845 8.13965C4.07935 7.709 3.37745 7.48635 2.69875 7.271C2.4197 7.18255 2.1465 7.09595 1.90395 7H22.0948C21.8525 7.0959 21.5804 7.18265 21.302 7.271Z" fill="#222222"/>
<path d="M12 15C12.5523 15 13 14.5523 13 14C13 13.4477 12.5523 13 12 13C11.4477 13 11 13.4477 11 14C11 14.5523 11.4477 15 12 15Z" fill="#222222"/>
<path d="M18 19L20.3999 15.7998L19.6001 15.2002L16.6001 19.2002L17 20H21L18.6001 23.2002L19.3999 23.7998L22.3999 19.7998L22 19H18Z" fill="#222222"/>
</svg>
