<svg xmlns="http://www.w3.org/2000/svg" width="24" height="24" viewBox="0 0 24 24" fill="none">
  <path d="M23.1355 2H0.8645C0.387 2 0 2.387 0 2.8645V18.1375C0 18.615 0.387 19.002 0.8645 19.002H15.017V21.089C15.017 21.61 15.4435 21.955 15.8875 21.955C16.1 21.955 16.3165 21.876 16.4925 21.7L19.1905 19.002H23.135C23.6125 19.002 23.9995 18.615 23.9995 18.1375V2.8645C24 2.387 23.613 2 23.1355 2ZM23 18.002H18.777L16.017 20.762V18.0025H1V3H23V18.002Z" fill="#333333"/>
  <path d="M13 9.5H11V11.5H13V9.5Z" fill="#333333"/>
  <path d="M8 9.5H6V11.5H8V9.5Z" fill="#333333"/>
  <path d="M18 9.5H16V11.5H18V9.5Z" fill="#333333"/>
</svg>