<svg xmlns="http://www.w3.org/2000/svg" width="23" height="22" viewBox="0 0 23 22" fill="none">
  <g clip-path="url(#clip0_532_404)">
    <path d="M11.2077 6.32427C12.9796 6.32427 14.416 4.90853 14.416 3.16213C14.416 1.41573 12.9796 0 11.2077 0C9.43577 0 7.99935 1.41573 7.99935 3.16213C7.99935 4.90853 9.43577 6.32427 11.2077 6.32427ZM11.2077 0.903467C12.4713 0.903467 13.4993 1.9167 13.4993 3.16213C13.4993 4.40756 12.4713 5.4208 11.2077 5.4208C9.94406 5.4208 8.91602 4.40756 8.91602 3.16213C8.91602 1.9167 9.94406 0.903467 11.2077 0.903467Z" fill="#575D9B"/>
    <path d="M11.2077 7.22773C9.18277 7.22773 7.54102 8.84584 7.54102 10.8416V15.3589C7.54102 15.8581 7.95122 16.2624 8.45768 16.2624H9.37435V20.7797C9.37435 21.2789 9.78456 21.6832 10.291 21.6832H12.1243C12.6308 21.6832 13.041 21.2789 13.041 20.7797V16.2624H13.9577C14.4641 16.2624 14.8743 15.8581 14.8743 15.3589V10.8416C14.8743 8.84584 13.2326 7.22773 11.2077 7.22773ZM13.9577 15.3589H12.1243V20.7797H10.291V15.3589H8.45768V10.8416C8.45768 9.34727 9.69152 8.1312 11.2077 8.1312C12.7238 8.1312 13.9577 9.34727 13.9577 10.8416V15.3589Z" fill="#575D9B"/>
  </g>
  <defs>
    <clipPath id="clip0_532_404">
      <rect width="22" height="21.6832" fill="white" transform="translate(0.20752)"/>
    </clipPath>
  </defs>
</svg>