<svg xmlns="http://www.w3.org/2000/svg" width="30" height="30" viewBox="0 0 30 30">
    <g fill="none" fill-rule="evenodd">
        <g fill-rule="nonzero" stroke="#222">
            <g>
                <g>
                    <g>
                        <path d="M25 8.847c-.7.313-1.45.525-2.238.62.805-.487 1.421-1.26 1.713-2.179-.755.452-1.588.78-2.476.957C21.287 7.478 20.276 7 19.154 7 17 7 15.256 8.765 15.256 10.94c0 .31.034.61.1.899-3.238-.165-6.11-1.734-8.032-4.119-.336.581-.527 1.259-.527 1.981 0 1.368.688 2.575 1.733 3.28-.639-.021-1.24-.199-1.765-.494v.05c0 1.908 1.344 3.501 3.126 3.864-.327.089-.671.138-1.027.138-.252 0-.495-.025-.734-.073.496 1.567 1.935 2.706 3.64 2.737-1.333 1.057-3.014 1.685-4.84 1.685-.315 0-.625-.02-.93-.054 1.725 1.12 3.773 1.773 5.974 1.773 7.17 0 11.09-6.005 11.09-11.214l-.013-.51c.765-.552 1.428-1.246 1.949-2.036z" transform="translate(-1321 -3732) translate(0 3496) translate(0 225) translate(1321 11)"/>
                    </g>
                </g>
            </g>
        </g>
    </g>
</svg>
