<svg width="23" height="22" viewBox="0 0 23 22" fill="none" xmlns="http://www.w3.org/2000/svg">
<path d="M17.5302 6.06441C18.0253 6.06441 18.4266 5.6631 18.4266 5.16806C18.4266 4.67302 18.0253 4.27171 17.5302 4.27171C17.0352 4.27171 16.6339 4.67302 16.6339 5.16806C16.6339 5.6631 17.0352 6.06441 17.5302 6.06441Z" fill="black"/>
<path d="M11.704 5.61623C8.73391 5.61623 6.32587 8.02428 6.32587 10.9943C6.32587 13.9644 8.73391 16.3724 11.704 16.3724C14.674 16.3724 17.0821 13.9644 17.0821 10.9943C17.0821 8.02428 14.674 5.61623 11.704 5.61623ZM11.704 15.4761C9.23273 15.4761 7.22222 13.4656 7.22222 10.9943C7.22222 8.5231 9.23273 6.51258 11.704 6.51258C14.1752 6.51258 16.1857 8.5231 16.1857 10.9943C16.1857 13.4656 14.1752 15.4761 11.704 15.4761Z" fill="black"/>
<path d="M16.0844 0.238129H7.32349C3.80218 0.238129 0.947754 3.09256 0.947754 6.61387V15.3743C0.947754 18.8961 3.80218 21.7505 7.32349 21.7505H16.084C19.6057 21.7505 22.4602 18.8961 22.4602 15.3748V6.61387C22.4602 3.09256 19.6057 0.238129 16.0844 0.238129ZM21.5638 15.3748C21.5638 18.3959 19.1056 20.8542 16.0844 20.8542H7.32349C4.30235 20.8542 1.8441 18.3959 1.8441 15.3748V6.61387C1.8441 3.59272 4.30235 1.13448 7.32349 1.13448H16.084C19.1056 1.13448 21.5638 3.59272 21.5638 6.61387V15.3748Z" fill="black"/>
</svg>
