<svg width="48" height="48" viewBox="0 0 48 48" fill="none" xmlns="http://www.w3.org/2000/svg">
<path d="M24 0C10.767 0 0 10.767 0 24C0 37.233 10.767 48 24 48C37.233 48 48 37.233 48 24C48 10.767 37.233 0 24 0ZM24 46C11.869 46 2 36.131 2 24C2 11.869 11.869 2 24 2C36.131 2 46 11.869 46 24C46 36.131 36.131 46 24 46Z" />
<path d="M33.286 22.304L19.06 13.412C18.722 13.201 18.359 13.105 18.004 13.105C16.962 13.105 16 13.936 16 15.108V32.891C16 34.063 16.963 34.894 18.004 34.894C18.358 34.894 18.722 34.798 19.06 34.587L33.286 25.695C34.54 24.913 34.54 23.087 33.286 22.304ZM18 32.891L18.008 15.113L32.226 24L18 32.891Z" />
</svg>
