<svg xmlns="http://www.w3.org/2000/svg" width="32" height="32" viewBox="0 0 32 32" fill="none">
  <g clip-path="url(#clip0_4_20097)">
    <path d="M31.989 30.6667H0.0112305V32H31.989V30.6667Z" fill="#575D9B"/>
    <path d="M4.00446 28C4.09173 28 4.181 27.9913 4.27094 27.9733L8.94303 26.746C9.20085 26.6947 9.43802 26.5673 9.62389 26.3813L30.2662 5.724C30.7865 5.20333 30.7865 4.35933 30.2662 3.83867L26.8206 0.390667C26.5608 0.13 26.2197 0 25.8786 0C25.5375 0 25.1964 0.13 24.9366 0.390667L4.29359 21.048C4.10772 21.234 3.98048 21.4713 3.92918 21.7293L2.7027 26.4047C2.53415 27.2473 3.18903 28 4.00446 28ZM5.22828 22.03L5.23627 21.9913L25.878 1.33333H25.8793L29.3242 4.78133L8.68122 25.4387L8.64258 25.4467L4.01312 26.6633L5.22828 22.03Z" fill="#575D9B"/>
  </g>
  <defs>
    <clipPath id="clip0_4_20097">
      <rect width="31.9778" height="32" fill="white" transform="translate(0.0112305)"/>
    </clipPath>
  </defs>
</svg>