<svg xmlns="http://www.w3.org/2000/svg" width="30" height="30" viewBox="0 0 30 30" fill="none">
  <path d="M15 8.75C11.5538 8.75 8.75 11.5538 8.75 15C8.75 18.4462 11.5538 21.25 15 21.25C18.4463 21.25 21.25 18.4462 21.25 15C21.25 11.5538 18.4463 8.75 15 8.75ZM15 20C12.2431 20 10 17.7569 10 15C10 12.2431 12.2431 10 15 10C17.7569 10 20 12.2431 20 15C20 17.7569 17.7569 20 15 20Z" fill="black"/>
  <path d="M15 16.25C15.6904 16.25 16.25 15.6904 16.25 15C16.25 14.3096 15.6904 13.75 15 13.75C14.3096 13.75 13.75 14.3096 13.75 15C13.75 15.6904 14.3096 16.25 15 16.25Z" fill="black"/>
  <path d="M29.8631 14.4269C27.0012 8.81312 21.42 5 15 5C8.58 5 2.99875 8.81312 0.136875 14.4269C-0.045625 14.7844 -0.045625 15.2162 0.136875 15.5737C2.99875 21.1869 8.58 25 15 25C21.42 25 27.0012 21.1869 29.8631 15.5731C30.0456 15.2156 30.0456 14.7844 29.8631 14.4269ZM15 23.75C9.26875 23.75 4 20.3994 1.25062 14.9944C4 9.60062 9.26875 6.25 15 6.25C20.7312 6.25 26 9.60063 28.7494 15.0056C26 20.3994 20.7312 23.75 15 23.75Z" fill="black"/>
</svg>