<svg xmlns="http://www.w3.org/2000/svg" width="30" height="30" viewBox="0 0 30 30" fill="none">
  <path d="M27.7719 14.3681C27.45 13.8731 26.785 13.2956 25.42 13.1562L25.4575 12.9319C25.5381 12.45 25.5794 11.96 25.6019 11.47L25.6056 11.4694C25.605 11.4637 25.6031 11.4594 25.6025 11.4544C25.6106 11.2719 25.625 11.09 25.625 10.9075C25.625 8.17688 24.6462 5.68563 23.0338 3.77C23.8587 2.97375 24.375 1.85938 24.375 0.625V0H15V1.25H23.0619C23.04 1.35625 23.0025 1.45625 22.9706 1.55875C22.8706 1.87688 22.7225 2.17062 22.5325 2.43563C21.965 3.22688 21.0456 3.75 20 3.75V5C20.7281 5 21.4137 4.81875 22.0181 4.5025C23.1262 5.79375 23.9044 7.38937 24.2169 9.15625C22.6956 8.12938 20.3588 8.125 19.375 8.125C17.4994 8.125 16.08 7.88063 15 7.54125V8.84875C16.1469 9.16438 17.58 9.375 19.375 9.375C23.5238 9.375 24.2262 10.5694 24.35 11.5112C24.3275 11.9187 24.2913 12.3256 24.2244 12.7269L22.835 21.0619C22.6281 22.3006 22.2387 23.4994 21.6762 24.6231C20.4044 27.1688 17.8456 28.75 15 28.75V30C18.3225 30 21.3094 28.1544 22.795 25.1825C23.4125 23.9469 23.8412 22.63 24.0681 21.2669L24.2869 19.9531C24.4475 19.9812 24.6106 20 24.7781 20C26.4575 20 27.1188 18.4856 27.7025 17.1494L27.8494 16.8162C28.24 15.9369 28.2119 15.045 27.7719 14.3681ZM26.7069 16.3088L26.5569 16.6494C25.9881 17.9519 25.5975 18.75 24.7781 18.75C24.6806 18.75 24.5869 18.7331 24.4937 18.7162L25.2137 14.3944C25.955 14.4575 26.4856 14.6831 26.7237 15.0487C27.0044 15.4812 26.8337 16.0238 26.7069 16.3088Z" fill="black"/>
  <path d="M9.375 28.75V1.25H10.625V0H6.875V1.25H8.125V28.75H6.875V30H10.625V28.75H9.375Z" fill="black"/>
  <path d="M16.2581 22.5H13.7413V23.75H16.2581V22.5Z" fill="black"/>
  <path d="M15.2712 19.375H13.7413V20.625H16.5212V14.4106H15.2712V19.375Z" fill="black"/>
</svg>