<svg xmlns="http://www.w3.org/2000/svg" width="32" height="32" viewBox="0 0 32 32" fill="none">
  <g clip-path="url(#clip0_4_20100)">
    <path d="M30.6567 8.67334H1.34364C0.607484 8.67334 0.0112305 9.27001 0.0112305 10.0067V21.9933C0.0112305 22.73 0.607484 23.3267 1.34364 23.3267H30.6567C31.3928 23.3267 31.9891 22.73 31.9891 21.9933V10.0067C31.9891 9.27067 31.3928 8.67334 30.6567 8.67334ZM30.6567 21.9933H1.34364V10.0067H5.11902V15.34H6.45144V10.0067H10.2268V15.34H11.5592V10.0067H15.3339V15.34H16.6664V10.0067H20.4417V15.34H21.7742V10.0067H25.5495V15.34H26.8819V10.0067H30.6567V21.9933Z" fill="#575D9B"/>
  </g>
  <defs>
    <clipPath id="clip0_4_20100">
      <rect width="31.9778" height="32" fill="white" transform="translate(0.0112305)"/>
    </clipPath>
  </defs>
</svg>