<svg xmlns="http://www.w3.org/2000/svg" width="48" height="48" viewBox="0 0 48 48" fill="none">
<g clip-path="url(#clip0_2_6415)">
<path d="M34 46H2V2H34V11.72L36 9.72V2C36 0.895 35.105 0 34 0H2C0.895 0 0 0.895 0 2V46C0 47.105 0.895 48 2 48H34C35.105 48 36 47.105 36 46V37.034L34 39.034V46Z" fill="black"/>
<path d="M28 8H8V10H28V8Z" fill="black"/>
<path d="M28 16H8V18H28V16Z" fill="black"/>
<path d="M22 24H8V26H22V24Z" fill="black"/>
<path d="M47.414 17.134L42.242 11.962C41.851 11.571 41.34 11.376 40.828 11.376C40.316 11.376 39.804 11.571 39.414 11.962L19.257 32.12C18.978 32.399 18.788 32.755 18.71 33.142L17.417 39.606C17.164 40.871 18.146 42 19.37 42C19.501 42 19.635 41.987 19.77 41.96L26.234 40.667C26.621 40.59 26.977 40.399 27.256 40.12L47.414 19.962C48.195 19.182 48.195 17.915 47.414 17.134ZM25.842 38.706L19.378 39.999L20.671 33.535L40.827 13.378H40.829L46 18.548L25.842 38.706Z" fill="black"/>
</g>
<defs>
<clipPath id="clip0_2_6415">
<rect width="48" height="48" fill="white"/>
</clipPath>
</defs>
</svg>