<svg width="48" height="48" viewBox="0 0 48 48" fill="none" xmlns="http://www.w3.org/2000/svg">
<path d="M38.605 16.0029C37.455 16.0029 36.282 16.0939 35.138 16.3199C31.954 16.9489 28.598 18.6249 27.007 20.8279C26.099 20.2989 25.073 19.9999 24 19.9999C22.92 19.9999 21.89 20.2869 20.985 20.8159C19.391 18.6189 16.041 16.9479 12.863 16.3209C11.719 16.0949 10.546 16.0039 9.39595 16.0039C4.50195 16.0039 0.0279541 17.6599 0.0279541 17.6599C0.0279541 26.1929 4.74395 31.9979 12.518 31.9979C20.292 31.9979 22.573 26.8409 21.885 22.8259C21.875 22.7649 21.853 22.7049 21.84 22.6439C22.478 22.2299 23.218 21.9999 24 21.9999C24.776 21.9999 25.523 22.2229 26.163 22.6349C26.149 22.6989 26.127 22.7609 26.116 22.8249C25.429 26.8399 27.709 31.9969 35.483 31.9969C43.257 31.9969 47.973 26.1919 47.973 17.6589C47.973 17.6589 43.499 16.0029 38.605 16.0029ZM18.764 27.7249C17.511 29.2109 15.35 29.9969 12.517 29.9969C6.46695 29.9969 2.55995 25.8639 2.07795 19.1059C3.66795 18.6529 6.45995 18.0029 9.39595 18.0029C10.5 18.0029 11.536 18.0969 12.475 18.2819C16.243 19.0259 19.58 21.2149 19.913 23.1619C20.202 24.8529 19.783 26.5159 18.764 27.7249ZM35.483 29.9969C32.65 29.9969 30.49 29.2109 29.236 27.7249C28.216 26.5159 27.797 24.8529 28.087 23.1619C28.42 21.2149 31.757 19.0259 35.525 18.2819C36.464 18.0969 37.501 18.0029 38.605 18.0029C41.526 18.0029 44.327 18.6549 45.922 19.1079C45.439 25.8649 41.532 29.9969 35.483 29.9969Z" fill="black"/>
</svg>
