<svg width="48" height="48" viewBox="0 0 48 48" fill="none" xmlns="http://www.w3.org/2000/svg">
<path d="M37 13C32.12 13 27.977 16.197 26.542 20.605C24.947 19.885 23.054 19.885 21.458 20.606C20.023 16.197 15.88 13 11 13C4.935 13 0 17.935 0 24C0 30.065 4.935 35 11 35C17.065 35 22 30.065 22 24C22 23.529 21.96 23.067 21.902 22.611C23.165 21.849 24.836 21.848 26.097 22.61C26.04 23.066 26 23.528 26 24C26 30.065 30.935 35 37 35C43.065 35 48 30.065 48 24C48 17.935 43.065 13 37 13ZM11 33C6.038 33 2 28.963 2 24C2 19.037 6.038 15 11 15C15.962 15 20 19.037 20 24C20 28.963 15.962 33 11 33ZM37 33C32.038 33 28 28.963 28 24C28 19.037 32.038 15 37 15C41.962 15 46 19.037 46 24C46 28.963 41.962 33 37 33Z" fill="black"/>
</svg>
