<svg width="48" height="48" viewBox="0 0 48 48" fill="none" xmlns="http://www.w3.org/2000/svg">
<path d="M47.58 20.523C46.665 17.036 44.342 14.764 41.187 14.288C39.881 14.116 38.447 14.013 37 14.007V14H11V14.007C9.54699 14.014 8.10799 14.117 6.79399 14.291C3.65799 14.765 1.33499 17.037 0.419989 20.524C-0.759011 25.019 0.658989 30.21 3.71699 32.597C4.90599 33.525 6.34299 33.995 7.91299 33.995C8.84899 33.995 9.83099 33.828 10.837 33.49C15.432 31.948 19.812 27.152 21.576 21.838C22.971 20.782 25.025 20.781 26.421 21.837C28.173 27.137 32.56 31.946 37.162 33.49C38.168 33.827 39.15 33.995 40.086 33.995C41.656 33.995 43.093 33.524 44.282 32.597C47.341 30.209 48.758 25.019 47.58 20.523ZM19.935 20.367C18.582 25.433 14.489 30.156 10.202 31.595C8.76099 32.078 6.68199 32.37 4.94899 31.021C2.52299 29.126 1.38399 24.739 2.35599 21.031C2.76899 19.457 3.93299 16.746 7.07599 16.271C8.42899 16.093 9.74999 16.005 11.001 15.998V16H11.417C15.149 16.034 18.194 16.81 19.419 18.165C19.978 18.784 20.14 19.493 19.935 20.367ZM21.996 19.354C21.926 18.413 21.562 17.554 20.901 16.824C20.625 16.519 20.297 16.25 19.939 16.001H28.059C27.702 16.25 27.373 16.519 27.098 16.824C26.44 17.552 26.076 18.409 26.006 19.355C25.367 19.127 24.69 19 24 19C23.31 19 22.635 19.127 21.996 19.354ZM43.052 31.021C41.319 32.371 39.239 32.079 37.799 31.595C33.512 30.156 29.418 25.434 28.072 20.396C27.86 19.493 28.022 18.784 28.582 18.165C29.809 16.809 32.86 16.033 36.59 16H37V15.999C38.247 16.006 39.561 16.09 40.907 16.268C44.068 16.746 45.232 19.457 45.645 21.031C46.617 24.738 45.478 29.126 43.052 31.021Z" fill="black"/>
</svg>
