<svg xmlns="http://www.w3.org/2000/svg" width="48" height="48" viewBox="0 0 48 48" fill="none">
<path d="M45.3129 15.9875C45.1209 7.99547 38.1949 2.55047 31.8409 0.873472C25.8829 -0.700528 20.5629 0.756472 17.6849 4.67047C14.5179 3.02647 11.1359 3.09947 8.27795 4.90647C3.88595 7.68347 1.55795 13.8795 2.34195 20.6295C2.35795 20.9375 2.78595 28.1935 6.70295 31.5775C6.88795 31.7365 7.08695 31.8595 7.28095 31.9965C8.70195 39.9435 15.6489 46.0005 23.9999 46.0005C32.7119 46.0005 39.9049 39.4105 40.8789 30.9545C42.7279 29.3485 45.5399 25.3555 45.3129 15.9875ZM4.33395 20.4605C3.63295 14.4065 5.60095 8.96447 9.34695 6.59647C11.8229 5.03247 14.7059 5.12147 17.4699 6.84847L18.8569 6.51547C21.5309 2.05847 27.0529 1.67747 31.3299 2.80747C36.9839 4.30047 43.1459 9.07747 43.3139 16.0365C43.4619 22.1995 42.2329 25.7265 40.9999 27.7045V19.0005L40.1559 18.0125C22.3769 15.2055 20.9989 8.90147 20.9899 8.85847L18.9999 9.00047C18.9999 12.5405 14.2759 18.0005 7.99995 18.0005L6.99995 19.0005V28.9515C4.65895 25.7955 4.34195 20.5745 4.33395 20.4605ZM23.9999 44.0005C15.7289 44.0005 8.99995 37.2715 8.99995 29.0005V19.9635C14.7459 19.5425 18.9179 15.5385 20.4049 11.8095C22.4119 14.2845 27.2759 17.8695 38.9999 19.8505V29.0005C38.9999 37.2715 32.2709 44.0005 23.9999 44.0005Z" fill="black"/>
<path d="M26.0129 36.0005H21.9859V38.0005H26.0129V36.0005Z" fill="black"/>
<path d="M24.4339 31.0005H21.9859V33.0005H26.4339V23.0575H24.4339V31.0005Z" fill="black"/>
</svg>