<svg xmlns="http://www.w3.org/2000/svg" width="48" height="48" viewBox="0 0 48 48" fill="none">
<g clip-path="url(#clip0_3952_18)">
<path d="M10 0V24H0V42C0 45.309 2.691 48 6 48H42C45.309 48 48 45.309 48 42V0H10ZM2 42V26H10V42C10 44.206 8.206 46 6 46C3.794 46 2 44.206 2 42ZM42 46H10.46C11.414 44.937 12 43.538 12 42V2H46V42C46 44.206 44.206 46 42 46Z" fill="black"/>
<path d="M16 20H42V8H16V20ZM18 10H40V18H18V10Z" fill="black"/>
<path d="M42 26H16V28H42V26Z" fill="black"/>
<path d="M42 32H16V34H42V32Z" fill="black"/>
<path d="M42 38H16V40H42V38Z" fill="black"/>
</g>
<defs>
<clipPath id="clip0_3952_18">
<rect width="48" height="48" fill="white"/>
</clipPath>
</defs>
</svg>