<svg xmlns="http://www.w3.org/2000/svg" width="47" height="48" viewBox="0 0 47 48" fill="none">
<path d="M10.0879 37.7162C4.83692 32.4652 1.88992 25.4212 2.00292 18.3912C2.06992 14.2272 3.21992 10.3432 5.26892 7.03516C5.21492 9.07516 5.58492 11.4372 6.42892 14.0372C8.30192 19.8062 12.0659 25.7162 17.0279 30.6782C21.0559 34.7062 25.4619 37.6892 29.6509 39.6392C29.7629 39.1172 29.9439 38.4772 30.2319 37.6892C26.3869 35.8672 22.2729 33.0962 18.4419 29.2642C13.6989 24.5212 10.1079 18.8942 8.33092 13.4192C6.78192 8.64816 6.91692 4.58816 8.68292 2.82216C9.18992 2.31416 10.4409 1.99516 12.2339 1.99516C13.9699 1.99516 16.2149 2.29516 18.7849 3.01616C22.2999 4.00116 29.0969 6.55416 35.1249 12.5812C39.9939 17.4502 43.1229 23.1092 44.7199 28.0002H46.8369C45.2229 22.6682 41.8819 16.5092 36.5389 11.1672C30.1899 4.81716 23.0289 2.12816 19.3259 1.09016C13.7569 -0.470839 9.02292 -0.345839 7.26892 1.40816C7.26392 1.41316 7.25992 1.42016 7.25492 1.42516C2.68492 5.73216 0.109917 11.7432 0.00291719 18.3592C-0.119083 25.9262 3.04192 33.4982 8.67392 39.1302C14.5579 45.0152 21.4009 47.9782 28.2349 47.9782C29.3489 47.9782 30.4609 47.8712 31.5699 47.7142C31.1289 47.1222 30.7479 46.4852 30.4359 45.8082C23.3819 46.5172 16.1829 43.8112 10.0879 37.7162Z" fill="black"/>
<path d="M40.0689 30.0002C39.3519 30.0002 38.6359 30.3452 38.2039 31.0342C36.2499 34.1542 33.4619 39.0212 33.4619 41.3922C33.4619 45.0412 36.4199 48.0002 40.0699 48.0002C43.7189 48.0002 46.6779 45.0422 46.6779 41.3922C46.6779 39.0212 43.8899 34.1542 41.9359 31.0342C41.5019 30.3452 40.7849 30.0002 40.0689 30.0002ZM40.0689 46.0002C37.5279 46.0002 35.4609 43.9332 35.4609 41.3922C35.4609 40.3232 36.6269 37.3192 39.8989 32.0952C39.9169 32.0662 39.9589 31.9992 40.0689 31.9992C40.1789 31.9992 40.2209 32.0662 40.2389 32.0952C43.5109 37.3192 44.6759 40.3222 44.6759 41.3922C44.6759 43.9332 42.6089 46.0002 40.0689 46.0002Z" fill="black"/>
</svg>