<svg xmlns="http://www.w3.org/2000/svg" width="48" height="42" viewBox="0 0 48 42" fill="none">
<path d="M47.9229 21.4448C47.9229 9.86977 41.7179 0.890766 36.3809 0.890766C36.1509 0.890766 35.9239 0.907766 35.6979 0.934766C31.2309 1.11677 27.2329 3.05577 24.1969 6.18677C23.5839 5.71877 22.9589 5.26477 22.3199 4.84877C15.4069 0.352766 7.7979 -0.645234 4.6209 2.53277C4.6189 2.53377 4.6179 2.53577 4.6159 2.53777C-2.2911 9.53777 -1.3601 21.7848 6.6929 29.8368C10.9169 34.0608 16.4239 36.4088 21.8679 36.4088C22.5289 36.4088 23.1879 36.3608 23.8449 36.2908C27.0489 39.7718 31.4079 41.9088 36.2939 41.9908C36.3229 41.9908 36.3519 41.9998 36.3799 41.9998C36.3889 41.9998 36.3979 41.9968 36.4069 41.9968C36.4649 41.9978 36.5209 42.0058 36.5789 42.0058V41.9798C42.6439 41.7748 47.9229 32.2758 47.9229 21.4448ZM21.2279 6.52677C21.7889 6.89277 22.3379 7.28877 22.8789 7.69777C20.0399 11.3168 18.3199 16.1078 18.3199 21.4518C18.3199 24.1578 18.7769 26.7168 19.5859 29.0638C17.0009 27.7408 14.5519 25.9588 12.4069 23.8148C5.1449 16.5518 2.9829 7.01777 6.0289 3.95477C6.0319 3.95177 6.0339 3.94877 6.0369 3.94577C8.1669 1.81877 14.5779 2.19977 21.2279 6.52677ZM8.1069 28.4228C2.6229 22.9388 0.748904 15.3528 2.7819 9.28377C3.2829 14.4618 6.5999 20.8358 10.9919 25.2288C13.8459 28.0828 17.2109 30.3428 20.7429 31.7968C21.2079 32.7128 21.7279 33.5868 22.3089 34.4028C17.2509 34.5378 12.0699 32.3858 8.1069 28.4228ZM20.3199 21.4518C20.3199 13.4868 24.4619 6.85777 30.4409 4.17977C27.0539 8.16977 24.8379 15.1448 24.8379 21.4448C24.8379 28.7958 27.3429 35.0888 30.5359 38.7108C24.4979 36.0248 20.3199 29.4038 20.3199 21.4518ZM36.4059 39.9968C36.3759 39.9968 36.3459 39.9918 36.3159 39.9918C32.4739 39.9078 26.8379 32.1498 26.8379 21.4448C26.8379 11.2508 31.9729 3.03577 36.2749 2.90377C36.3109 2.90377 36.3449 2.89777 36.3809 2.89777V2.89177C40.2239 2.89177 45.9229 10.6828 45.9229 21.4458C45.9229 31.8748 40.8129 39.9658 36.4059 39.9968Z" fill="black"/>
</svg>