<svg xmlns="http://www.w3.org/2000/svg" width="48" height="48" viewBox="0 0 48 48" fill="none">
<g clip-path="url(#clip0_926_33)">
<path d="M47.707 46.293L34.815 33.401C38.027 29.853 40 25.163 40 20C40 8.954 31.046 0 20 0C8.954 0 0 8.954 0 20C0 31.046 8.954 40 20 40C25.163 40 29.853 38.027 33.401 34.815L46.293 47.707L47.707 46.293ZM2.051 21H4V19H2.051C2.284 14.791 3.961 10.971 6.605 8.019L7.98 9.394L9.394 7.98L8.019 6.605C10.971 3.961 14.791 2.284 19 2.051V4H21V2.051C25.209 2.284 29.029 3.961 31.981 6.605L30.606 7.98L32.02 9.394L33.395 8.019C36.039 10.972 37.716 14.792 37.949 19H36V21H37.949C37.716 25.209 36.039 29.029 33.395 31.981L32.02 30.606L30.606 32.02L31.981 33.395C29.028 36.039 25.208 37.716 21 37.949V36H19V37.949C14.791 37.716 10.971 36.039 8.019 33.395L9.394 32.02L7.98 30.606L6.605 31.981C3.961 29.029 2.284 25.209 2.051 21Z" fill="black"/>
<path d="M20 24C22.209 24 24 22.209 24 20C24 17.791 22.209 16 20 16C17.791 16 16 17.791 16 20C16 22.209 17.791 24 20 24ZM20 18C21.103 18 22 18.897 22 20C22 21.103 21.103 22 20 22C18.897 22 18 21.103 18 20C18 18.897 18.897 18 20 18Z" fill="black"/>
<path d="M20 29.245C25.753 29.245 30.777 25.934 33.49 21.005C33.836 20.377 33.836 19.623 33.49 18.995C30.777 14.066 25.753 10.755 20 10.755C14.247 10.755 9.223 14.066 6.51 18.995C6.164 19.623 6.164 20.377 6.51 21.005C9.223 25.934 14.247 29.245 20 29.245ZM8.263 19.959C10.709 15.515 15.206 12.754 20 12.754C24.794 12.754 29.292 15.515 31.737 19.959C31.752 19.987 31.752 20.012 31.737 20.04C29.291 24.484 24.794 27.244 20 27.244C15.206 27.244 10.708 24.483 8.263 20.04C8.247 20.013 8.247 19.987 8.263 19.959Z" fill="black"/>
</g>
<defs>
<clipPath id="clip0_926_33">
<rect width="48" height="48" fill="white"/>
</clipPath>
</defs>
</svg>