<svg width="48" height="48" viewBox="0 0 48 48" fill="none" xmlns="http://www.w3.org/2000/svg">
<path d="M47.732 23L43.113 15C42.756 14.381 42.096 14 41.381 14H32.143C31.428 14 30.768 14.381 30.411 15L28.368 18.539C27.138 17.553 25.606 17 24 17C22.394 17 20.862 17.553 19.632 18.539L17.588 15C17.231 14.381 16.57 14 15.856 14H6.61899C5.90399 14 5.24399 14.381 4.88699 15L0.267994 23C-0.0890059 23.619 -0.0890059 24.381 0.267994 25L4.88699 33C5.24399 33.619 5.90499 34 6.61899 34H15.857C16.572 34 17.232 33.619 17.589 33L22.208 25C22.565 24.381 22.565 23.619 22.208 23L20.648 20.298C21.561 19.469 22.749 19 24 19C25.25 19 26.438 19.469 27.353 20.298L25.793 23C25.436 23.619 25.436 24.381 25.793 25L30.412 33C30.769 33.619 31.43 34 32.144 34H41.382C42.097 34 42.757 33.619 43.114 33L47.733 25C48.089 24.381 48.089 23.619 47.732 23ZM15.856 32H6.61899L1.99999 24L6.61899 16H15.857L20.476 24L15.856 32ZM41.381 32H32.143L27.524 24L32.143 16H41.381L46 24L41.381 32Z" fill="black"/>
</svg>
