<svg width="120" height="60" viewBox="0 0 120 60" fill="none" xmlns="http://www.w3.org/2000/svg">
<path fill-rule="evenodd" clip-rule="evenodd" d="M60.1831 39.0197H59.3631V4.7998H60.1831V39.0197ZM79.0444 20.4073L86.422 31.6943H82.4862L77.0194 23.3306L71.2254 31.6943H70.0776L76.4621 22.478L69.6949 12.1247H73.6306L78.4872 19.5547L83.6342 12.1247H84.7821L79.0444 20.4073ZM45.9702 31.6948H49.4687L41.8744 11.6332H41.3641L33.6891 31.6948H34.7459L36.7571 26.438H43.9802L45.9702 31.6948ZM11.4794 55.1091H10.105L9.32326 53.0439H6.48551L5.69544 55.1091H5.28027L8.2955 47.2276H8.49598L11.4794 55.1091ZM37.0783 25.5996L40.3884 16.9475L43.6636 25.5996H37.0783ZM7.91208 49.3155L6.61174 52.7145H9.1987L7.91208 49.3155ZM34.9495 55.1091H36.3239L33.3405 47.2276H33.14L30.1248 55.1091H30.54L31.33 53.0439H34.1678L34.9495 55.1091ZM32.7566 49.3155L31.4563 52.7145H34.0432L32.7566 49.3155ZM90.1052 55.1091H91.4797L88.4961 47.2276H88.2957L85.2804 55.1091H85.6956L86.4858 53.0439H89.3234L90.1052 55.1091ZM87.9118 49.3155L86.6115 52.7145H89.1986L87.9118 49.3155ZM68.46 55.0863L65.5584 50.6469L67.8151 47.3892H67.3636L65.3392 50.3115L63.4289 47.3892H61.881L64.5426 51.4613L62.0314 55.0863H62.4829L64.7618 51.7967L66.9121 55.0863H68.46ZM16.7264 51.2529H16.7355L18.8309 55.1088H17.4006L15.3052 51.2529H14.9499V55.1044H13.6014V47.4013H15.8608V47.4039C17.3723 47.4493 18.4528 48.144 18.4528 49.3237C18.4528 50.8711 16.9758 51.2038 16.7264 51.249V51.2529ZM14.9488 50.9362V47.7474H15.5455C17.0579 47.7474 17.1408 48.9181 17.1408 49.3418C17.1408 50.7984 16.0469 50.9274 15.76 50.9362H14.9488ZM43.58 47.4013H43.9626V55.1044H43.7029L38.6329 48.2181V55.1044H38.2503V47.4013H39.6441L43.58 52.7471V47.4013ZM99.1676 47.4013H98.785V52.7471L94.8492 47.4013H93.4552V55.1044H93.8379V48.2181L98.908 55.1044H99.1676V47.4013ZM47.9519 55.1044H46.5442V47.4013H47.9519V55.1044ZM26.7975 47.4013L24.742 52.9439L22.5337 47.4013H21.0715V55.1088H21.4952V48.4647L24.037 54.8447H24.4196L26.8658 48.2489V55.1088H28.1641V47.4013H26.7975ZM60.3024 47.4013V47.7658H56.9041V50.8179H59.3094V51.2376H56.9041V54.6626H60.3024V55.0862H55.6012V47.4013H60.3024ZM114.638 47.7658V47.4013H109.937V55.0862H114.638V54.6626H111.24V51.2376H113.645V50.8179H111.24V47.7658H114.638ZM81.9494 50.9545V47.4013H83.2704V55.1998H81.9494V51.3463H78.8245V55.1998H77.5035V47.4013H78.8245V50.9545H81.9494ZM74.986 53.7377C74.4473 54.4478 73.7211 54.8906 73.0358 54.8906C71.5962 54.8905 70.8977 53.2631 70.8977 51.2378C70.8977 49.2126 71.6448 47.5565 73.0358 47.5565C73.6633 47.5565 74.4109 48.0259 74.973 48.7703L75.2347 48.5639C74.7332 47.7296 73.8441 47.2194 72.8519 47.2194C71.0179 47.2194 69.531 49.0059 69.531 51.2096C69.531 53.4135 71.0179 55.2 72.8519 55.2C73.8146 55.2 74.6812 54.7072 75.2877 53.9208L74.986 53.7377ZM105.22 52.351V51.9888H107.516V53.5057C107.516 53.5057 107.197 53.9647 107.047 54.1726C106.496 54.9361 105.647 55.2 104.903 55.2C103.069 55.2 101.583 53.4135 101.583 51.2096C101.583 49.0059 103.069 47.2194 104.903 47.2194C105.896 47.2194 106.785 47.7296 107.286 48.5639L107.025 48.7703C106.462 48.0259 105.715 47.5565 105.087 47.5565C103.696 47.5565 102.949 49.2126 102.949 51.2378C102.949 53.2631 103.648 54.9059 105.087 54.8906C105.504 54.8861 105.879 54.7088 106.227 54.1719V52.351H105.22Z" fill="#222222"/>
</svg>
