<svg width="120" height="60" viewBox="0 0 120 60" fill="none" xmlns="http://www.w3.org/2000/svg">
<g clip-path="url(#clip0)">
<path fill-rule="evenodd" clip-rule="evenodd" d="M74.0406 46.6224C73.1557 46.3936 72.2149 45.8431 71.8457 44.9788C71.4292 44.0038 71.5356 42.8054 72.1928 41.9575C72.7666 41.2171 73.6913 40.7902 74.6242 40.8951C75.367 40.9397 76.0987 41.3373 76.485 41.9794L75.4825 42.346C74.9904 41.8122 74.1508 41.6789 73.538 42.1404C72.8278 42.6752 72.6408 43.7016 72.9251 44.5132C73.1514 45.1594 73.7713 45.6891 74.4762 45.6646C74.8781 45.6506 75.2051 45.6348 75.5391 45.3837C75.6475 45.2821 75.6408 45.1407 75.6342 45.0011C75.6315 44.9434 75.6288 44.886 75.6342 44.8317V44.3397H74.4909V43.4723H76.6953V45.8821C76.4651 46.0899 76.1757 46.2649 75.8756 46.3699C75.2929 46.5739 74.6384 46.7769 74.0406 46.6223L74.0406 46.6224ZM28.0468 46.6415C27.3236 46.642 26.6205 46.3312 26.1341 45.8034C25.3122 44.9115 25.1488 43.5284 25.665 42.4235C26.1342 41.4192 27.0564 40.8858 28.0703 40.8849C29.08 40.8839 30.0004 41.55 30.4368 42.4403C30.8997 43.3846 30.8399 44.5578 30.2552 45.4348C29.7695 46.1633 28.9304 46.641 28.0469 46.6416L28.0468 46.6415ZM26.4996 43.7332C26.4972 44.4423 26.7978 45.2137 27.4753 45.5136C28.0522 45.7691 28.6927 45.6223 29.1087 45.1347C29.8084 44.3145 29.778 42.9989 28.9758 42.2643C28.4346 41.7686 27.6175 41.7795 27.0801 42.2813C26.6677 42.6663 26.5015 43.1777 26.4996 43.7332L26.4996 43.7332ZM21.0342 46.6007V41.0138H22.1974V45.6033H25.2113V46.6007L21.0342 46.6007ZM33.006 46.6021V42.7249L33.1513 42.7386L35.8045 46.6021H36.8197V41.011H35.7163V44.6511L33.1471 41.0151H31.9026V46.6021H33.006ZM38.1753 40.9993L40.4928 41.0071C41.38 41.0101 42.271 41.515 42.6887 42.3169C43.1019 43.1102 43.1415 44.0799 42.849 44.9197C42.6173 45.603 42.0632 46.1534 41.3895 46.4042C40.85 46.6224 40.2698 46.6135 39.6973 46.6048C39.5854 46.6031 39.4739 46.6014 39.3629 46.6014H38.1754L38.1753 40.9993ZM41.8953 43.7924C41.9042 43.1503 41.6139 42.4225 41.0661 42.1723L41.0529 42.1662C40.8738 42.0843 40.6978 42.0039 40.5083 42.0032L39.2788 41.9988V45.6465C39.4228 45.6435 39.5672 45.6451 39.7115 45.6466C40.0006 45.6497 40.2896 45.6527 40.5766 45.6194C41.1584 45.5343 41.6124 45.0842 41.7834 44.5262C41.8562 44.2884 41.8919 44.0406 41.8953 43.7924L41.8953 43.7924ZM64.654 46.6014V45.6168L61.1872 45.6167V44.1869H63.8171V43.2733H61.1872V41.9839H64.3427V40.9993H60.0839V46.6014H64.654ZM85.643 40.9993H84.5038L82.2991 46.6014H83.4857L83.9092 45.5041H86.221L86.6528 46.6014H87.8394L85.643 40.9993ZM85.0974 42.3577L85.9283 44.6788H84.2151L85.0574 42.3546L85.0974 42.3577ZM78.0268 46.5886V41.0017H79.19V45.5912H82.0244V46.5885L78.0268 46.5886ZM89.8401 46.6021V42.7249L89.9854 42.7386L92.6386 46.6021H93.6538V41.011H92.5504V44.6511L89.9812 41.0151H88.7367V46.6021H89.8401ZM95.1931 41.004L97.5106 41.0118C98.3978 41.0147 99.2888 41.5196 99.7065 42.3216C100.12 43.1149 100.159 44.0846 99.8668 44.9244C99.6351 45.6077 99.081 46.1581 98.4073 46.4089C97.8678 46.6271 97.2876 46.6182 96.7151 46.6095C96.6032 46.6078 96.4917 46.6061 96.3808 46.6061H95.1931L95.1931 41.004ZM98.9132 43.7971C98.922 43.155 98.6317 42.4272 98.0839 42.177L98.0707 42.1709C97.8916 42.089 97.7157 42.0086 97.5261 42.0079L96.2966 42.0035V45.6512C96.4407 45.6482 96.585 45.6498 96.7293 45.6513C97.0184 45.6543 97.3075 45.6574 97.5945 45.624C98.1763 45.539 98.6303 45.0889 98.8012 44.5308C98.8741 44.293 98.9098 44.0453 98.9132 43.7971V43.7971ZM66.6385 46.6165V42.7393L66.7838 42.753L69.437 46.6165H70.4522V41.0255H69.3488V44.6656L66.7796 41.0296H65.5351V46.6165H66.6385ZM51.4606 42.7175V46.5947H50.3572V41.0077H51.6017L54.1709 44.6437V41.0036H55.2743V46.5947H54.2591L51.6059 42.7311L51.4606 42.7175ZM44.782 45.8011C45.2684 46.3289 45.9715 46.6396 46.6947 46.6392L46.6948 46.6393C47.5782 46.6387 48.4174 46.1609 48.9031 45.4325C49.4878 44.5555 49.5476 43.3822 49.0847 42.438C48.6483 41.5477 47.7278 40.8816 46.7182 40.8825C45.7043 40.8835 44.7821 41.4169 44.3129 42.4211C43.7967 43.526 43.9601 44.9091 44.782 45.8011ZM46.1232 45.5113C45.4457 45.2114 45.1451 44.4399 45.1475 43.7308C45.1494 43.1754 45.3156 42.664 45.7279 42.279C46.2654 41.7771 47.0825 41.7663 47.6237 42.262C48.4259 42.9966 48.4563 44.3122 47.7566 45.1324C47.3406 45.62 46.7001 45.7668 46.1232 45.5113Z" fill="#222222"/>
<path fill-rule="evenodd" clip-rule="evenodd" d="M56.6075 24.6843C58.7047 25.3964 59.7269 27.1755 59.7269 28.8891C59.7269 31.3056 57.7582 33.2712 55.337 33.2789H46.7378V17.7603H54.6578C56.7147 17.7767 58.3834 19.4498 58.3834 21.5038C58.3834 22.8022 57.7178 23.9948 56.6075 24.6843ZM54.2804 30.3833H50.307V26.7576H54.2804C55.594 26.7576 56.1836 27.798 56.1836 28.5368C56.1836 29.4548 55.5297 30.3833 54.2804 30.3833ZM54.8507 22.2588C54.8507 23.1589 54.1327 23.8635 53.2163 23.8635L50.307 23.8634V20.6558H53.2163C54.1013 20.6558 54.8507 21.3901 54.8507 22.2588ZM45.0646 33.2785L41.3434 26.7735C42.9883 25.9868 44.0422 24.3315 44.0422 22.5075C44.0422 19.8894 41.9047 17.761 39.2777 17.761H31.3176V33.2782H34.8581V27.2542H37.6747L41.1211 33.2782L45.0646 33.2785ZM34.7983 24.26V20.7644H38.6151L38.5989 20.7685C39.7617 20.8311 40.5005 21.5014 40.5005 22.5133C40.5005 23.5165 39.708 24.2179 38.5272 24.2597H34.7986L34.7983 24.26ZM86.1609 26.7735L89.8821 33.2785L85.9387 33.2782L82.4923 27.2542H79.6756V33.2782H76.1351V17.761H84.0952C86.7223 17.761 88.8597 19.8894 88.8597 22.5075C88.8597 24.3315 87.8058 25.9868 86.1609 26.7735ZM79.6156 20.7644V24.26L79.616 24.2597H83.3446C84.5253 24.2179 85.3179 23.5165 85.3179 22.5133C85.3179 21.5014 84.5791 20.8311 83.4163 20.7685L83.4324 20.7644H79.6156ZM61.6798 17.7618V33.279H73.712V30.1641H65.3146V26.8535H72.3315V23.8264H65.3146V20.7217H73.3179V17.7618H61.6798ZM28.6931 27.1394C28.6931 31.2261 26.1496 33.665 21.8912 33.665C17.6327 33.665 15.0894 31.2263 15.0894 27.1394V17.7763H18.7254V26.8977C18.7254 29.1069 19.8791 30.3741 21.8912 30.3741C23.903 30.3741 25.0568 29.1068 25.0568 26.8977V17.7763H28.6931V27.1394ZM13.4685 28.8937C13.4685 27.1804 12.4462 25.4011 10.3493 24.6892C11.4594 24.0011 12.125 22.807 12.125 21.5085C12.125 19.4547 10.4564 17.7813 8.39949 17.7649H0.479492V33.2836H9.07869C11.5013 33.2759 13.4685 31.3103 13.4685 28.8937ZM4.0482 30.3882H8.02164C9.27096 30.3882 9.92469 29.4598 9.92469 28.5433C9.92469 27.803 9.33513 26.7627 8.02164 26.7627H4.0482V30.3882ZM6.95747 23.8684C7.87384 23.8684 8.59178 23.1639 8.59178 22.2639C8.59178 21.3952 7.84257 20.6607 6.95747 20.6607H4.0482V23.8683L6.95747 23.8684ZM105.285 33.2785L101.564 26.7735C103.209 25.9868 104.263 24.3315 104.263 22.5075C104.263 19.8894 102.125 17.761 99.4984 17.761H91.5383V33.2782H95.0788V27.2542H97.8954L101.342 33.2782L105.285 33.2785ZM95.019 24.26V20.7644H98.8357L98.8196 20.7685C99.9824 20.8311 100.721 21.5014 100.721 22.5133C100.721 23.5165 99.9286 24.2179 98.748 24.2597H95.0194L95.019 24.26ZM110.45 26.9557V33.2785H114.285V26.9557L120.479 17.761H115.938L112.367 23.0958L108.811 17.761H104.271L110.45 26.9557Z" fill="#222222"/>
</g>
<defs>
<clipPath id="clip0">
<rect width="120" height="60" fill="white"/>
</clipPath>
</defs>
</svg>
