<svg width="32" height="32" viewBox="0 0 32 32" fill="none" xmlns="http://www.w3.org/2000/svg">
<path fill-rule="evenodd" clip-rule="evenodd" d="M26.0362 7.33333C26.7331 7.33333 27.304 7.85733 27.364 8.55267L29.1867 29.8293C29.2347 30.386 29.0455 30.9413 28.6677 31.3527C28.2906 31.764 27.7537 32 27.1954 32H4.78232C4.22404 32 3.68708 31.764 3.30934 31.3527C2.9316 30.9413 2.74307 30.386 2.79037 29.8293L4.6131 8.55267C4.67306 7.85733 5.24399 7.33333 5.94084 7.33333H9.9927V6C9.9927 2.692 12.6828 0 15.9885 0C19.2942 0 21.9844 2.692 21.9844 6V7.33333H26.0362ZM15.9885 1.33333C13.417 1.33333 11.3251 3.42667 11.3251 6V7.33333H20.652V6C20.652 3.42667 18.5601 1.33333 15.9885 1.33333ZM5.94084 8.66667H9.9927V12H11.3251V8.66667H20.652V12H21.9844V8.66667H26.0362L27.5205 26H4.45654L5.94084 8.66667ZM27.1947 30.6667C27.3833 30.6667 27.5578 30.59 27.6857 30.4507C27.8137 30.3113 27.8749 30.1313 27.8589 29.9433L27.6351 27.3333H4.34195L4.11878 29.9427C4.10212 30.1313 4.16408 30.3113 4.29132 30.4507C4.41923 30.59 4.59378 30.6667 4.78232 30.6667H27.1947Z" fill="#557B92"/>
</svg>
