<svg width="32" height="32" viewBox="0 0 32 32" fill="none" xmlns="http://www.w3.org/2000/svg">
<path fill-rule="evenodd" clip-rule="evenodd" d="M27.4394 9.5255C29.5413 9.84283 31.0889 11.3575 31.6985 13.6822C32.4833 16.6795 31.5392 20.1395 29.5013 21.7315C28.7092 22.3495 27.7519 22.6635 26.7059 22.6635C26.0824 22.6635 25.4282 22.5515 24.758 22.3268C21.6921 21.2975 18.7694 18.0915 17.6023 14.5582C16.6722 13.8542 15.3039 13.8548 14.3745 14.5588C13.1993 18.1015 10.2813 21.2988 7.22014 22.3268C6.54994 22.5522 5.89572 22.6635 5.27216 22.6635C4.22622 22.6635 3.26888 22.3502 2.47676 21.7315C0.439512 20.1402 -0.505165 16.6795 0.28029 13.6828C0.889866 11.3582 2.43746 9.8435 4.52667 9.5275C5.40207 9.4115 6.36073 9.34283 7.32873 9.33816V9.3335H24.65V9.33816C25.614 9.34216 26.5694 9.41083 27.4394 9.5255ZM6.7971 21.0635C9.65311 20.1042 12.3799 16.9555 13.2813 13.5782C13.4178 12.9955 13.3099 12.5228 12.9375 12.1102C12.1214 11.2068 10.0928 10.6895 7.60654 10.6668H7.32939V10.6655C6.49597 10.6702 5.61592 10.7288 4.71454 10.8475C2.62066 11.1642 1.8452 12.9715 1.57006 14.0208C0.92251 16.4928 1.68132 19.4175 3.29753 20.6808C4.45206 21.5802 5.8371 21.3855 6.7971 21.0635ZM14.6543 12.9028C14.6077 12.2755 14.3652 11.7028 13.9248 11.2162C13.7409 11.0128 13.5224 10.8335 13.2839 10.6675H18.6935C18.4557 10.8335 18.2365 11.0128 18.0533 11.2162C17.6149 11.7015 17.3724 12.2728 17.3258 12.9035C16.9001 12.7515 16.4491 12.6668 15.9894 12.6668C15.5297 12.6668 15.08 12.7515 14.6543 12.9028ZM25.1823 21.0635C26.1417 21.3862 27.5274 21.5808 28.6819 20.6808C30.2981 19.4175 31.0569 16.4922 30.4094 14.0208C30.1342 12.9715 29.3588 11.1642 27.2529 10.8455C26.3562 10.7268 25.4808 10.6708 24.65 10.6662V10.6668H24.3769C21.8919 10.6888 19.8594 11.2062 19.0419 12.1102C18.6689 12.5228 18.5609 12.9955 18.7022 13.5975C19.5989 16.9562 22.3263 20.1042 25.1823 21.0635Z" fill="#557B92"/>
</svg>
