<svg width="120" height="60" viewBox="0 0 120 60" fill="none" xmlns="http://www.w3.org/2000/svg">
<path fill-rule="evenodd" clip-rule="evenodd" d="M18.3115 24C15.1464 24 12.5805 26.4176 12.5805 29.3999C12.5805 32.3822 15.1464 34.7998 18.3115 34.7998C21.4767 34.7998 24.0425 32.3822 24.0425 29.3999C24.0425 26.4176 21.4767 24 18.3115 24ZM18.3123 25.4038C16.0357 25.4038 14.1898 27.1927 14.1898 29.3997C14.1898 31.6067 16.0357 33.3956 18.3123 33.3956C20.589 33.3956 22.4348 31.6067 22.4348 29.3997C22.4348 27.1927 20.589 25.4038 18.3123 25.4038ZM24.4564 34.5324V24.2548H25.9953V33.2507H28.94V34.5324H24.4564ZM6.66738 24.2548H3.59961V34.5324H6.82062C10.5829 34.5324 12.1212 31.8217 12.1212 29.4512C12.1212 26.5147 9.99279 24.2548 6.66738 24.2548ZM5.27605 25.5761V33.2452H7.01781C8.97875 33.2452 10.4629 31.5338 10.4629 29.4292C10.4629 27.4685 9.06198 25.5761 6.85115 25.5761H5.27605ZM42.8328 33.2507V34.5324H37.5049V24.2548H42.8328V25.5759H39.1506V28.5299H42.7308V29.7896H39.1506V33.2507H42.8328ZM71.6221 34.5324L67.3235 24.2548H66.3347L62.0362 34.5324H63.6972L64.862 31.636H68.7977L69.9611 34.5324H71.6221ZM68.2774 30.3368H65.3842L66.8299 26.7336L68.2774 30.3368ZM96.1031 34.5324L91.8043 24.2548H90.8159L86.517 34.5324H88.1781L89.3432 31.636H93.2789L94.4421 34.5324H96.1031ZM92.7582 30.3368H89.865L91.3106 26.7336L92.7582 30.3368ZM116.506 34.5324L112.207 24.2548H111.219L106.92 34.5324H108.581L109.746 31.636H113.682L114.845 34.5324H116.506ZM113.159 30.3368H110.266L111.711 26.7336L113.159 30.3368ZM57.9293 29.3195H62.9247V29.3999C62.9247 32.9687 61.1495 34.7996 57.7042 34.7996C54.539 34.7996 51.9731 32.382 51.9731 29.3999C51.9731 26.4176 54.539 24 57.7042 24C59.782 24 61.5761 25.0608 62.419 26.6018L61.1707 27.2365C60.4279 26.1339 59.1585 25.404 57.7042 25.404C55.4273 25.404 53.5819 27.1929 53.5819 29.3999C53.5819 31.6069 55.4273 33.3958 57.7042 33.3958C59.5539 33.3958 61.2211 32.3462 61.2211 30.5881H57.9293V29.3195ZM98.1963 34.5326V27.0549L105.288 34.5326H106.354V24.2548H104.886V31.9164L97.6709 24.2548H96.6741V34.5326H98.1963ZM37.0666 33.7933C36.1472 34.4268 35.0212 34.7996 33.8042 34.7996C30.175 34.7996 28.1935 32.382 28.1935 29.3999C28.1935 26.4176 30.1929 24 33.8042 24C35.0187 24 36.1398 24.3714 37.0666 25.0024V26.5283C36.2876 25.8323 35.241 25.404 34.0839 25.404C31.7192 25.404 29.8022 27.1929 29.8022 29.3999C29.8022 31.6069 31.7192 33.3958 34.0839 33.3958C35.2436 33.3958 36.2868 32.9654 37.0666 32.2666V33.7933ZM74.6121 24.2548C77.1644 24.2548 78.2465 25.1815 78.2465 26.9978C78.2465 28.3075 77.0841 28.9896 77.0841 28.9896C77.0841 28.9896 79.2084 29.5635 79.2084 31.636C79.2084 34.0967 76.977 34.5326 75.5605 34.5326H72.0733V24.2548H74.6121ZM76.6307 27.0647C76.6307 25.9693 75.9781 25.5761 75.0552 25.5761H73.7591V28.6152H74.8934C75.6413 28.6152 76.6307 28.1602 76.6307 27.0647ZM75.4589 29.8783C76.6695 29.8783 77.5255 30.3266 77.5255 31.5763C77.5255 32.8262 76.4396 33.3452 75.4589 33.3452H73.7591V29.8783H75.4589ZM86.0546 26.9978C86.0546 25.1815 84.9726 24.2548 82.4203 24.2548H79.8812V34.5326H83.3686C84.7852 34.5326 87.0165 34.0967 87.0165 31.636C87.0165 29.5635 84.8922 28.9896 84.8922 28.9896C84.8922 28.9896 86.0546 28.3075 86.0546 26.9978ZM82.8633 25.5761C83.7862 25.5761 84.4388 25.9693 84.4388 27.0647C84.4388 28.1602 83.4492 28.6152 82.7015 28.6152H81.567V25.5761H82.8633ZM85.3336 31.5763C85.3336 30.3266 84.4777 29.8783 83.2671 29.8783H81.567V33.3452H83.2671C84.2477 33.3452 85.3336 32.8262 85.3336 31.5763ZM48.8088 32.8822L47.8287 31.7442C48.308 31.4502 48.7372 31.0863 48.7372 30.4404C48.7372 29.7208 48.2014 29.3047 47.4177 29.3047C46.6344 29.3047 46.1291 29.8205 46.1291 30.4862C46.1291 30.919 46.283 31.1685 46.6189 31.5611C46.0402 31.8615 45.4932 32.2742 45.4932 33.1431C45.4932 33.9453 46.0894 34.6667 47.1383 34.6667C47.7058 34.6667 48.2541 34.3779 48.7152 34.0194L49.1458 34.5322H50.2353L49.319 33.4728C49.7345 33.0424 49.9932 32.6608 49.9932 32.6608L49.4213 32.0888C49.4213 32.0888 49.1784 32.4707 48.8088 32.8822ZM47.3597 31.1993C47.692 31.0212 47.9344 30.8256 47.9344 30.512C47.9344 30.4036 47.8717 30.0267 47.4272 30.0267C46.8641 30.0267 46.8572 30.6063 47.0917 30.8861L47.3597 31.1993ZM46.3434 33.1254C46.3434 32.6651 46.6932 32.3885 47.1252 32.1378C47.1887 32.2113 47.2557 32.289 47.3259 32.3726L48.2254 33.439C47.8996 33.6958 47.5375 33.8861 47.1804 33.8861C46.772 33.8861 46.3434 33.6333 46.3434 33.1254Z" fill="#222222"/>
</svg>
