<svg width="32" height="32" viewBox="0 0 32 32" fill="none" xmlns="http://www.w3.org/2000/svg">
<path fill-rule="evenodd" clip-rule="evenodd" d="M13.1447 10.6668C11.0427 10.6668 9.33333 12.3762 9.33333 14.4782V30.6668H20V32.0002H9.33333C8.59667 32.0002 8 31.4035 8 30.6668V14.4782C8 11.6368 10.3033 9.3335 13.1447 9.3335H13.3333V2.66683C13.3333 1.93016 13.93 1.3335 14.6667 1.3335H20C20.7367 1.3335 21.3333 1.93016 21.3333 2.66683V9.3335H21.522C24.3633 9.3335 26.6667 11.6368 26.6667 14.4775V17.4055C26.4493 17.3628 26.228 17.3335 26 17.3335C25.772 17.3335 25.5507 17.3628 25.3333 17.4062V14.4782C25.3333 12.3762 23.624 10.6668 21.522 10.6668H20H14.6667H13.1447ZM20 2.66683H14.6667V9.3335H20V2.66683Z" fill="#557B92"/>
<rect x="4" y="4.66675" width="5.33333" height="1.33333" fill="#557B92"/>
<rect x="4.73828" y="8.75586" width="5.33322" height="1.3333" transform="rotate(-30.0007 4.73828 8.75586)" fill="#557B92"/>
<rect x="4.73877" y="1.91113" width="1.3333" height="5.33322" transform="rotate(-59.9993 4.73877 1.91113)" fill="#557B92"/>
<path fill-rule="evenodd" clip-rule="evenodd" d="M28.3178 23.6813L31.5725 25.3087C32.1425 25.5933 32.1425 26.4067 31.5732 26.6907L28.3185 28.318L26.6912 31.5727C26.5485 31.8573 26.2745 32 25.9998 32C25.7252 32 25.4512 31.8573 25.3085 31.574L23.6812 28.3193L20.4265 26.692C19.8572 26.4067 19.8572 25.594 20.4265 25.3093L23.6812 23.682L25.3085 20.4273C25.4512 20.1427 25.7252 20 25.9998 20C26.2745 20 26.5485 20.1427 26.6905 20.4267L28.3178 23.6813ZM27.3245 27.3247L27.7218 27.126L29.9738 26L27.7218 24.874L27.3245 24.6753L27.1258 24.278L25.9998 22.026L24.8738 24.278L24.6752 24.6753L24.2778 24.874L22.0258 26L24.2778 27.126L24.6752 27.3247L24.8738 27.722L25.9998 29.974L27.1258 27.722L27.3245 27.3247Z" fill="#557B92"/>
</svg>
