<svg width="120" height="60" viewBox="0 0 120 60" fill="none" xmlns="http://www.w3.org/2000/svg">
<path fill-rule="evenodd" clip-rule="evenodd" d="M26.2761 24.7545C28.4928 24.7545 30.3735 26.2363 31.0354 28.2905H29.2196C28.656 27.2115 27.5494 26.4778 26.2761 26.4778C24.4315 26.4778 22.9358 28.0179 22.9358 29.9177C22.9358 31.8176 24.4315 33.3577 26.2761 33.3577C27.5133 33.3577 28.5934 32.6649 29.1705 31.6354H31.0052C30.3177 33.6425 28.4601 35.081 26.2761 35.081C23.5073 35.081 21.2626 32.7694 21.2626 29.9177C21.2626 27.0662 23.5073 24.7545 26.2761 24.7545ZM6.49391 27.7694L9.21916 34.9629H10.933L13.4911 27.8454V34.9629H15.1852V24.9357H12.813L10.0378 32.0278L7.3534 24.9357H4.7998V34.9629H6.49391V27.7694ZM17.6649 34.9629H19.3505V24.9357H17.6649V34.9629ZM39.3358 30.6994V34.9629H41.0353V24.9357H39.3358V29.0209H34.3068V24.9357H32.6075V34.9629H34.3068V30.6994H39.3358ZM49.4124 32.4617L50.3876 34.9629H52.1907L48.2347 24.9357H46.4036L42.4477 34.9629H44.2648L45.2261 32.4617H49.4124ZM47.3261 26.8087L48.8426 30.7985H45.8095L47.3261 26.8087ZM53.7313 24.9357V34.9629H60.8765V33.299H55.5583V30.7143H60.5349V29.0356H55.5583V26.5993H60.8317V24.9357H53.7313ZM63.048 24.9357V34.9629H69.3828V33.299H64.8876V24.9357H63.048ZM79.4527 30.1501L77.9547 31.5788V34.9629H76.2738V24.9357H77.9547V29.4015L82.1634 24.9357H84.3362L80.5371 28.9952L85.0505 34.9629H82.8187L79.4527 30.1501ZM92.05 34.6277C92.6719 34.3624 93.2093 33.994 93.6616 33.522C94.1139 33.0501 94.4817 32.5045 94.7504 31.8855C95.019 31.2663 95.1461 30.6027 95.1461 29.8802C95.1461 29.1725 95.0047 28.5089 94.7361 27.8749C94.4674 27.241 94.0999 26.6954 93.6475 26.2235C93.1952 25.7519 92.6578 25.3831 92.0357 25.1178C91.4138 24.8524 90.7494 24.7197 90.0425 24.7197C89.3355 24.7197 88.6709 24.8524 88.049 25.1178C87.4269 25.3831 86.8897 25.7519 86.4372 26.2235C85.9846 26.6954 85.6173 27.241 85.3486 27.8749C85.08 28.5089 84.9386 29.1725 84.9386 29.8802C84.9386 30.6027 85.0659 31.281 85.3345 31.9002C85.603 32.5194 85.9706 33.0648 86.4231 33.5369C86.8754 34.0085 87.4126 34.3771 88.0347 34.6427C89.2827 35.175 90.8033 35.1599 92.05 34.6277ZM90.029 33.3305C89.5767 33.3305 89.1526 33.2419 88.7568 33.0649C88.3609 32.8881 88.0074 32.6374 87.7105 32.3279C87.4135 32.0182 87.1734 31.6496 87.0036 31.2221C86.8338 30.7943 86.7493 30.3521 86.7493 29.8803C86.7493 29.4084 86.8338 28.966 87.0036 28.5386C87.1734 28.1109 87.4135 27.7423 87.7105 27.4326C88.0074 27.1231 88.3609 26.8724 88.7568 26.6954C89.1526 26.5186 89.5767 26.4301 90.029 26.4301C90.4816 26.4301 90.9057 26.5186 91.3156 26.6954C91.7256 26.8724 92.0791 27.1231 92.376 27.4326C92.6728 27.7423 92.9131 28.1109 93.0829 28.5386C93.2524 28.966 93.3372 29.4084 93.3372 29.8803C93.3372 30.3521 93.2524 30.7943 93.0829 31.2221C92.9131 31.6496 92.6728 32.0182 92.376 32.3279C92.0791 32.6374 91.7256 32.8881 91.3156 33.0649C90.9057 33.2419 90.4816 33.3305 90.029 33.3305ZM99.3366 26.5252H102.316C102.522 26.5252 102.701 26.5698 102.866 26.659C103.03 26.7481 103.167 26.8818 103.278 27.0452C103.387 27.2085 103.47 27.3868 103.525 27.58C103.58 27.7732 103.607 27.981 103.607 28.1889C103.607 28.397 103.58 28.6049 103.525 28.8129C103.47 29.021 103.387 29.214 103.278 29.3774C103.167 29.5407 103.03 29.6744 102.866 29.7785C102.701 29.8826 102.509 29.9419 102.289 29.9419H99.3229L99.3366 26.5252ZM101.947 31.6205L103.867 34.9183H105.907L103.613 31.3104C104.814 30.4693 105.295 29.7332 105.295 28.1444C105.295 27.7432 105.227 27.357 105.103 26.9708C104.979 26.5846 104.801 26.243 104.568 25.931C104.334 25.619 104.046 25.3812 103.703 25.2031C103.359 25.0248 102.961 24.9357 102.522 24.9357H97.6197V34.9629H99.3088V31.6648L101.947 31.6205ZM107.073 33.425C108.532 34.48 109.585 34.9633 111.427 34.9633C112.322 34.9633 113.186 34.8177 113.851 34.3961C114.819 33.7824 115.383 32.6678 115.146 31.2626C114.968 30.2002 114.116 29.4788 112.637 29.2292C112.063 29.1324 110.729 29.0418 109.94 28.6178C109.099 28.1653 109.014 27.2179 109.642 26.7535C110.675 25.9898 113.2 26.8762 114.133 27.4803L114.843 26.0621C114.539 25.8304 114.206 25.6423 113.844 25.4831C113.482 25.3239 113.12 25.208 112.759 25.1214C112.397 25.0345 112.035 24.962 111.687 24.9186C111.34 24.8751 111.022 24.8608 110.747 24.8608C110.211 24.8608 109.734 24.9332 109.314 25.0779C108.38 25.3998 107.752 26.1898 107.562 27.1567C107.224 28.8859 108.208 29.8239 109.428 30.2649C110.483 30.6459 111.694 30.61 112.607 30.9411C113.483 31.2589 113.715 32.4223 113.033 33.0278C112.773 33.2594 112.339 33.3751 111.731 33.3751C110.003 33.3751 109.375 32.839 108.055 32.0355L107.073 33.425Z" fill="#222222"/>
</svg>
