<svg width="120" height="60" viewBox="0 0 120 60" fill="none" xmlns="http://www.w3.org/2000/svg">
<path fill-rule="evenodd" clip-rule="evenodd" d="M58.2085 9.83984C38.4704 9.83984 22.0778 15.25 22.0778 22.3349C22.0778 29.4063 38.4704 34.8252 58.2085 34.8252C77.9448 34.8252 94.3374 29.4063 94.3374 22.3332C94.3374 15.2526 77.9448 9.83984 58.2085 9.83984ZM9.38699 48.1376V48.291C9.38699 48.8722 9.88687 48.9933 10.6527 48.9933C11.5849 48.9933 12.0608 48.8864 12.0608 48.3681V48.2307V41.1747V41.0223C12.0608 40.5802 11.4883 40.4715 10.6766 40.4715C9.81566 40.4715 9.38699 40.5802 9.38699 41.0529V41.2055V48.1376ZM16.6716 48.3978V48.5043C16.6716 49.5584 15.0722 49.9711 10.6526 49.9711C7.11639 49.9711 5.27757 49.6347 4.89455 48.8721C4.84728 48.7644 4.7998 48.535 4.7998 48.2146V48.0767V41.5254V41.3578C4.7998 40.457 5.1812 40.1065 6.3045 39.8462C7.26043 39.6176 8.83612 39.4954 10.6766 39.4954C12.42 39.4954 14.0215 39.6176 15.0484 39.8156C16.2904 40.06 16.6716 40.3962 16.6716 41.2509V41.4034V48.3978ZM31.9423 49.7882L31.1053 47.2531H27.9772L27.2587 49.7882H23.7001L27.379 39.6176H33.1843L37.1734 49.7882H31.9423ZM29.4091 42.0611L30.7951 46.0771H28.2142L29.4091 42.0611ZM49.8445 39.6173V43.7544L53.6672 39.6173H57.9662L54.0719 43.8155L57.727 49.7862H52.4254L49.8445 45.3125V49.7862H44.876V39.6173H49.8445ZM70.4614 48.4424V39.6173H65.4911L65.4929 49.7862H75.3821V48.4424H70.4614ZM92.4949 40.8993H87.7402V44.0452H91.3967L91.4201 45.2364H87.7651V48.5043H92.4727V49.7862H82.7715V39.6175L92.4949 39.6157V40.8993ZM102.576 49.7864H107.567V46.0142L111.844 39.6159H107.975L105.752 43.4183L103.555 39.6159H98.2512L102.576 46.0142V49.7864ZM36.2792 22.2333C36.2792 27.9285 46.7072 32.1545 58.2944 32.1545C69.8763 32.1545 80.3045 27.9285 80.3045 22.2333C80.3045 16.5361 69.8763 12.305 58.2944 12.305C46.7153 12.305 36.2792 16.5361 36.2792 22.2333ZM115.2 40.4139C115.2 40.8294 114.731 41.1594 114.138 41.1594C113.544 41.1594 113.072 40.8294 113.072 40.4139C113.072 39.9992 113.544 39.6748 114.145 39.6748C114.731 39.6748 115.2 39.9992 115.2 40.4139ZM114.144 41.0042C113.684 41.0042 113.336 40.7437 113.336 40.4138C113.336 40.0904 113.684 39.8233 114.13 39.8233C114.592 39.8233 114.932 40.0904 114.932 40.4185C114.932 40.7437 114.592 41.0109 114.144 41.0042ZM113.975 40.7975H113.735V40.0572L113.774 40.0538C113.864 40.0454 113.983 40.0345 114.131 40.0345C114.329 40.0345 114.417 40.0572 114.486 40.0938C114.548 40.1268 114.593 40.1796 114.593 40.2522C114.593 40.3411 114.497 40.4005 114.378 40.4269V40.4366C114.479 40.4597 114.53 40.5176 114.561 40.6184C114.593 40.7298 114.619 40.7696 114.638 40.7974L114.638 40.7975H114.385C114.356 40.7726 114.338 40.7196 114.312 40.6454L114.303 40.6184C114.282 40.5403 114.22 40.5044 114.088 40.5044H113.975V40.7975ZM114.094 40.3827H113.978V40.1695C114.005 40.1662 114.049 40.1609 114.112 40.1609C114.264 40.1609 114.332 40.2058 114.332 40.275C114.332 40.3506 114.226 40.3827 114.094 40.3827ZM90.1505 32.3173C90.1505 32.7328 89.6815 33.0626 89.0879 33.0626C88.4943 33.0626 88.0226 32.7328 88.0226 32.3173C88.0226 31.9024 88.4943 31.578 89.0948 31.578C89.6815 31.578 90.1505 31.9024 90.1505 32.3173ZM89.0942 32.9076C88.6343 32.9076 88.286 32.6471 88.286 32.3174C88.286 31.9939 88.6343 31.7267 89.0804 31.7267C89.5422 31.7267 89.8818 31.9939 89.8818 32.3221C89.8818 32.6471 89.5422 32.9143 89.0942 32.9076ZM88.924 32.7013H88.6846V31.9611L88.7233 31.9575C88.8138 31.9492 88.9325 31.9383 89.08 31.9383C89.2782 31.9383 89.3659 31.9611 89.4353 31.9976C89.4977 32.0308 89.5418 32.0834 89.5418 32.156C89.5418 32.2449 89.4464 32.3043 89.3275 32.3307V32.3404C89.4284 32.3636 89.4791 32.4214 89.5105 32.5222C89.5416 32.6331 89.5684 32.673 89.587 32.7008L89.5874 32.7013H89.334C89.305 32.6766 89.287 32.6244 89.2617 32.5508L89.2519 32.5222C89.2314 32.4441 89.1693 32.4082 89.0368 32.4082H88.924V32.7013ZM89.0445 32.2862H88.9284V32.0729C88.9548 32.0697 88.999 32.0646 89.0619 32.0646C89.2145 32.0646 89.2826 32.1093 89.2826 32.1786C89.2826 32.2541 89.1761 32.2862 89.0445 32.2862Z" fill="#222222"/>
</svg>
