<svg width="120" height="60" viewBox="0 0 120 60" fill="none" xmlns="http://www.w3.org/2000/svg">
<path fill-rule="evenodd" clip-rule="evenodd" d="M93.842 4.80123C89.7015 4.80123 87.3944 11.4263 87.3944 16.0405V30.2371C87.3944 30.2371 87.6312 32.0705 89.4651 32.0705C91.2985 32.0705 94.3747 30.3556 96.0307 29.3497C97.6872 28.3442 99.4027 27.8121 100.172 27.8121C100.941 27.8121 101 28.3442 101 28.6401C101 28.9359 100.645 29.3497 98.6927 30.0597C96.7408 30.7693 38.4159 54.4897 37.351 55.1998H48.8862C48.8862 55.1998 78.4622 40.8253 85.5609 37.5723C92.6592 34.3187 98.6927 31.4199 100.586 30.4735C102.423 29.5546 102.421 28.6361 102.42 27.9335L102.419 27.871C102.419 27.161 101.769 26.6288 100.29 26.6288C98.8111 26.6288 96.7998 27.161 95.0843 28.2853C93.3688 29.4091 91.8312 28.1074 91.8312 25.9192C91.8312 23.7305 91.8902 21.3639 93.1914 19.7668C93.3982 19.513 93.6528 19.2398 93.9348 18.9372L93.935 18.9371C95.4275 17.3354 97.6872 14.9105 97.6872 10.184C97.6872 4.56486 93.842 4.80123 93.842 4.80123ZM77.2784 35.7975C81.2415 35.7975 85.4415 30.1778 85.4415 24.2628C85.4415 18.3474 80.5909 17.8741 79.9403 17.8741C79.2897 17.8741 72.6051 19.767 72.6051 29.2908C72.6051 29.2908 72.4278 35.7975 77.2784 35.7975ZM65.3888 24.5588C65.3888 24.5588 65.4483 25.86 67.2227 27.3981C68.9972 28.9362 71.1269 31.4797 71.1269 35.147C71.1269 38.8143 67.637 40.5893 65.3299 40.5893C63.0227 40.5893 61.0709 39.5834 61.0709 39.5834C61.0709 39.5834 58.1132 44.375 54.6232 44.375C51.1333 44.375 50.8375 39.5244 54.0316 34.319L51.4136 33.3967C49.3468 41.9519 46.3445 49.5804 41.1217 49.5804C35.7979 49.5804 35.8569 43.7244 35.8569 43.7244C35.8569 36.3893 40.7075 32.4851 44.3753 32.4851C48.22 32.4851 47.5104 38.4006 47.5104 38.4006L41.3581 43.0143C41.3581 43.0143 40.9443 46.1495 43.9016 46.1495C46.6592 46.1495 49.4681 34.4273 49.8354 32.8413C49.8354 32.8413 51.2517 26.7475 51.3107 26.3332L51.7839 26.2743C51.7839 26.2743 52.9077 29.7642 56.0429 29.7642C56.0429 29.7642 57.581 29.7052 58.35 29.291L58.7048 29.8232C58.7048 29.8232 56.5161 33.3726 56.5161 36.2709C56.5161 36.2709 56.6935 38.0458 58.409 38.0458C60.1245 38.0458 61.6036 34.5554 61.6036 34.5554C61.6036 34.5554 63.9102 38.578 65.8031 38.578C65.8031 38.578 67.4001 38.4006 67.4001 36.9215C67.4001 35.4428 65.7441 33.9637 65.0935 33.4315C64.4424 32.8993 61.2483 29.5868 61.2483 26.5106C61.2483 23.435 63.8512 20.773 67.2227 20.773C70.5942 20.773 71.3043 22.3111 71.3043 22.3111L69.5888 25.7416C69.5888 25.7416 67.8144 23.7308 67.5775 23.435C67.3412 23.1391 65.3888 22.6659 65.3888 24.5588ZM17.5199 36.2121C17.458 29.2322 25.4462 20.8917 34.4968 20.8917C34.4968 20.8917 43.6064 21.0691 43.6064 26.1561C43.6064 31.243 37.7499 31.7757 37.7499 31.7757C40.057 22.3113 33.1729 22.4472 33.1729 22.4472C25.365 22.4472 22.4295 31.7163 22.4295 34.7924C22.4295 37.8681 24.3224 41.0627 24.973 41.9497C25.6236 42.8372 24.2039 42.9556 24.2039 42.9556C24.2039 42.9556 17.5789 42.8961 17.5199 36.2121ZM35.5023 25.2093C35.5023 25.2093 27.8718 27.457 27.6349 38.341C27.6349 38.341 27.3986 44.1975 28.2856 48.9887C28.2856 48.9887 28.2856 52.9518 25.9784 52.9518C23.9377 52.9518 22.7301 50.3129 21.4957 47.6154L21.4957 47.6153L21.4956 47.6153L21.4955 47.6149C21.3347 47.2635 21.1735 46.9112 21.0099 46.5636L17.9932 50.6452C17.9932 50.6452 19.886 54.9631 24.4998 54.9631C29.1136 54.9631 34.6743 50.8226 34.6743 37.7498C34.6743 37.7498 34.3195 33.8457 34.26 31.598C34.2213 30.1194 35.088 25.9194 35.5023 25.2093ZM43.3702 39.347L40.9451 40.944C40.5308 39.8202 40.4124 35.2654 42.0095 34.8512C43.2121 34.5394 43.1928 36.6256 43.1928 36.6256L43.3702 39.347ZM79.7633 32.0115C77.9888 32.0115 76.2912 25.7954 76.4508 23.4346C76.7466 19.0572 78.6984 20.4769 79.7043 22.9019C80.5048 24.8335 81.5377 32.0115 79.7633 32.0115ZM91.949 10.48C91.949 8.52813 92.3632 6.45786 93.3687 6.45786C94.1972 6.45786 94.6699 7.28587 94.6699 10.5984C94.6699 13.8237 93.8441 15.4305 93.076 16.925L93.0139 17.0461C92.1564 18.7171 91.949 17.1645 91.949 17.1645V10.48ZM99.2093 6.89154C99.2093 5.96733 99.9585 5.28578 100.845 5.28578C101.721 5.28578 102.471 5.96733 102.471 6.89154C102.471 7.82396 101.721 8.50502 100.845 8.50502C99.9585 8.50502 99.2093 7.82396 99.2093 6.89154ZM102.147 6.89184C102.147 7.66668 101.572 8.23706 100.844 8.23706C100.108 8.23706 99.5325 7.66668 99.5325 6.89184C99.5325 6.12957 100.108 5.55436 100.844 5.55436C101.572 5.55436 102.147 6.12957 102.147 6.89184ZM100.503 7.824H100.222V5.96738H100.929C101.368 5.96738 101.585 6.12931 101.585 6.49522C101.585 6.82729 101.376 6.9723 101.104 7.00614L101.632 7.824H101.316L100.827 7.01919H100.503V7.824ZM101.291 6.47862C101.291 6.76381 101.078 6.78121 100.84 6.78121H100.503V6.206H100.887C101.082 6.206 101.291 6.24854 101.291 6.47862Z" fill="#222222"/>
</svg>
