<svg width="120" height="60" viewBox="0 0 120 60" fill="none" xmlns="http://www.w3.org/2000/svg">
<path fill-rule="evenodd" clip-rule="evenodd" d="M102.154 24.893H106.971L104.429 20.3663L102.154 24.893ZM115.2 29.7761V30.0214H108.042V29.7761C108.778 29.7761 109.09 29.553 109.09 29.0627C109.09 28.8396 109.001 28.5499 108.845 28.2598L107.507 25.8515H101.71L100.683 27.9698C100.55 28.2598 100.438 28.5943 100.438 28.9288C100.438 29.4413 100.661 29.7761 101.285 29.7761V30.0214H97.6955V29.7761C98.5425 29.7761 99.0782 29.1963 99.5904 28.1481L103.894 19.3852L102.691 17.3561C102.066 16.3079 101.42 16.0846 100.773 16.0846V15.8398H106.414L113.371 28.2598C113.795 29.018 114.263 29.7761 115.2 29.7761ZM83.8261 29.0628C85.6102 29.0628 87.2154 28.1038 87.2154 25.5396V20.3218C87.2154 17.7573 85.6102 16.7983 83.8261 16.7983H81.9084V29.0628H83.8261ZM84.4269 15.8398C88.106 15.8398 91.9417 18.2479 91.9417 22.9306C91.9417 27.6353 88.106 30.0214 84.4269 30.0214H76.221V29.7761C76.4 29.7761 77.9832 29.6869 77.9832 28.059V17.802C77.9832 16.1743 76.4 16.0846 76.221 16.0846V15.8398H84.4269ZM56.2207 24.893H61.0373L58.4954 20.3663L56.2207 24.893ZM69.2659 29.7761V30.0214H62.1078V29.7761C62.8435 29.7761 63.1557 29.553 63.1557 29.0627C63.1557 28.8396 63.0668 28.5499 62.9107 28.2598L61.5728 25.8515H55.7755L54.7492 27.9698C54.6156 28.2598 54.5039 28.5943 54.5039 28.9288C54.5039 29.4413 54.7273 29.7761 55.3518 29.7761V30.0214H51.7614V29.7761C52.6087 29.7761 53.1438 29.1963 53.6566 28.1481L57.9602 19.3852L56.7564 17.3561C56.1322 16.3079 55.4854 16.0846 54.8384 16.0846V15.8398H60.4799L67.4376 28.2598C67.861 29.018 68.3294 29.7761 69.2659 29.7761ZM35.9505 23.6888C38.0691 23.6888 39.0948 22.0834 39.0948 20.2548C39.0948 18.4263 38.0691 16.7983 35.9505 16.7983H33.0294V23.6888H35.9505ZM45.1149 29.8211V30.0214H39.5178L33.0288 24.6472V28.059C33.0288 29.6869 34.6123 29.7761 34.7904 29.7761V30.0214H27.3651V29.7761C27.5435 29.7761 29.1267 29.6869 29.1267 28.059V17.802C29.1267 16.1743 27.5435 16.0846 27.3651 16.0846V15.8398H37.8004C41.1233 15.8398 42.684 18.0473 42.684 20.2548C42.684 22.44 41.1233 24.6472 37.8004 24.6472H34.5451C35.2588 25.4053 36.7525 25.7179 38.113 25.7179C38.715 25.7179 39.317 25.6287 39.8298 25.4951L45.1149 29.8211ZM13.3853 23.6888C15.5258 23.6888 16.5293 22.0834 16.5293 20.2548C16.5293 18.4263 15.5258 16.7983 13.3853 16.7983H10.4864V23.6888H13.3853ZM15.2357 15.8398C18.5583 15.8398 20.1412 18.0473 20.1412 20.2548C20.1412 22.44 18.5583 24.6472 15.2357 24.6472H10.486V28.059C10.486 29.6869 12.0692 29.7761 12.2479 29.7761V30.0214H4.7998V29.7761C4.97844 29.7761 6.56139 29.6869 6.56139 28.059V17.802C6.56139 16.1743 4.97844 16.0846 4.7998 16.0846V15.8398H15.2357ZM20.317 40.8233V43.2322H24.761V44.1949H19.258V36.7492H24.6863V37.7364H20.317V39.8857H24.355V40.8233H20.317ZM36.0956 36.7492L34.0035 40.2444L31.9254 36.77L31.9129 36.7492H30.6465L33.4648 41.1988V44.1949H34.548V41.1988L37.3711 36.7492H36.0956ZM44.4916 40.8233V43.2322H48.9353V44.1949H43.4332V36.7492H48.8609V37.7364H44.4916V39.8857H48.5299V40.8233H44.4916ZM63.1058 36.7492L61.7497 42.6069L60.1277 36.7808L60.1192 36.7492H58.975L57.3484 42.5966L55.9994 36.7825L55.9917 36.7492H54.8187L56.757 44.1627L56.7652 44.1949H57.8792L59.5542 38.2104L61.2109 44.1633L61.2197 44.1949H62.3337L64.2757 36.8033L64.2899 36.7492H63.1058ZM71.5055 40.8233V43.2322H75.9495V44.1949H70.4473V36.7492H75.8751V37.7364H71.5055V39.8857H75.5438V40.8233H71.5055ZM85.7978 36.7774L85.7876 36.7492H84.6015L81.7974 44.1949H82.9123L83.7109 41.9906H86.5377L87.295 44.1662L87.3053 44.1949H88.4905L85.7978 36.7774ZM100.42 43.5251C100.476 43.7431 100.575 43.8855 100.715 43.9473L100.741 43.9587V44.1949H99.45L99.4377 44.1721C99.4018 44.1049 99.3745 44.0209 99.3537 43.9152C99.3326 43.8095 99.3149 43.6057 99.3027 43.3268L99.2426 42.1C99.2201 41.6319 99.0574 41.3276 98.7457 41.1695C98.5656 41.0826 98.2787 41.0382 97.8935 41.0382H95.7316V44.1949H94.6473V36.7492H98.0366C98.5921 36.7492 99.0571 36.8329 99.4181 36.9984C100.111 37.319 100.461 37.9167 100.461 38.7763C100.461 39.2236 100.367 39.5954 100.181 39.882C100.011 40.1435 99.7753 40.3615 99.4793 40.5304C99.732 40.6447 99.9281 40.7923 100.064 40.9689C100.214 41.1661 100.299 41.4866 100.316 41.9205L100.351 42.9086C100.361 43.1824 100.384 43.3898 100.42 43.5251ZM86.2253 41.0927H84.0363L85.1509 38.0143L86.2253 41.0927ZM98.983 39.8475C99.2343 39.6703 99.3619 39.3423 99.3619 38.8722C99.3619 38.36 99.1879 38.0218 98.83 37.8383C98.6385 37.7417 98.3779 37.6922 98.0553 37.6922H95.7311V40.121H97.9294C98.373 40.121 98.7272 40.0287 98.983 39.8475Z" fill="#222222"/>
</svg>
