<svg width="82" height="43" viewBox="0 0 82 43" fill="none" xmlns="http://www.w3.org/2000/svg">
<g clip-path="url(#clip0_3349_261215)">
<path d="M39.7268 24.2334C38.411 24.2334 37.3136 29.4573 36.2415 29.4044C35.336 29.3607 36.0921 25.8008 34.7051 25.7916C33.8548 25.7859 33.5997 27.2142 33.2113 28.4346C33.1895 28.5047 32.5609 30.9718 31.6025 30.9718C30.9947 30.9718 30.4638 30.4857 30.4638 29.047C30.4638 28.3748 30.4304 27.3728 29.6261 27.2085C28.2333 26.92 28.5516 28.3507 27.3278 28.1197C24.0241 27.4969 21.5237 34.2812 23.5358 35.1902C25.9489 36.2784 27.7013 32.0037 28.4207 32.1221C28.9699 32.2117 28.6137 34.0526 30.342 33.9354C31.7519 33.84 32.8631 30.9293 33.4124 30.9637C33.8985 30.9936 33.4744 32.715 34.6902 32.7793C36.114 32.854 36.7011 30.4915 37.3492 30.4811C37.5124 30.4811 37.5791 30.596 37.5687 31.1821C37.5503 31.9715 37.4446 41.9837 37.4285 42.3124C37.3987 42.9295 37.6974 42.9812 37.8319 42.9812C37.9238 42.9812 39.2912 42.9524 39.5555 42.9421C39.8198 42.9318 39.8647 42.6835 39.8612 42.5342C39.8612 42.4733 40.0508 27.9554 40.0646 24.8114C40.0703 24.2334 39.8267 24.2334 39.7268 24.2334ZM27.9989 30.2088C27.6691 31.3924 26.3316 33.339 25.7007 33.3987C25.5145 33.4171 25.2411 33.3183 25.2537 32.8908C25.2778 31.8911 26.8395 29.6239 27.4841 29.4515C27.9277 29.3343 28.123 29.7641 27.9989 30.2111V30.2088Z" fill="#222222"/>
<path d="M80.8696 17.7779C78.3025 19.3993 78.8012 13.4021 77.235 13.4021C75.5308 13.4021 75.0333 16.9574 74.4265 17.0172C73.6831 17.0907 74.7035 14.411 73.2303 14.4708C71.6066 14.5374 70.7023 20.4243 69.5198 19.9693C68.3098 19.5016 69.1751 16.3909 67.8157 16.1634C67.1147 16.0485 66.97 16.6081 66.5517 16.8793C65.9254 17.2849 64.8016 16.5794 63.0365 18.6363C61.0394 20.961 60.4292 24.7163 61.9518 24.9679C64.0006 25.3126 65.868 21.8147 66.3414 21.3654C67.001 20.738 66.6333 23.1764 68.4098 23.2121C70.2886 23.25 70.8528 20.1497 71.3975 20.1796C71.8663 20.206 71.3228 21.8056 72.2179 21.9205C74.1565 22.1675 75.2183 17.0862 76.0169 17.1976C76.8155 17.3091 76.5145 20.3393 78.43 20.53C80.0606 20.6921 81.1776 18.4616 81.3293 18.1364C81.4809 17.8112 81.2281 17.5515 80.8696 17.7779ZM66.2621 19.3763C65.8909 20.4324 64.8177 22.1342 64.1581 22.2491C63.9283 22.2893 63.6571 22.0664 63.6743 21.6746C63.7157 20.7668 65.2371 18.8397 65.8576 18.6972C66.2759 18.5984 66.4149 18.9454 66.2621 19.3763Z" fill="#222222"/>
<path d="M28.9435 38.8722C29.4032 39.0939 30.0363 39.5065 29.7111 40.2511C29.4813 40.7785 29.2572 41.1911 29.209 41.2738C28.9263 41.7564 28.2426 42.046 27.4244 41.6599C26.1167 41.0417 19.091 37.6874 18.8681 37.5828C18.6199 37.4679 18.2189 37.5518 18.2177 38.2413C18.2166 38.9308 18.2177 39.8972 18.2177 40.112C18.2177 40.3648 18.2522 40.9877 17.7351 41.3542C17.1858 41.7438 16.2872 42.2735 16.1263 42.3586C15.8965 42.4735 15.322 42.9228 15.3151 41.9851C15.3001 40.1212 15.299 36.6624 15.3001 36.4694C15.3013 36.2763 15.3426 35.9086 14.7876 35.6558C14.2889 35.426 11.1105 33.9321 10.9117 33.8356C10.6566 33.7207 10.4647 33.261 10.9852 32.9473C11.6034 32.5739 14.6957 30.764 14.9094 30.6135C15.2679 30.3572 15.2679 30.1125 15.2714 29.3678C15.2714 28.529 15.2243 17.6285 15.23 17.4527C15.2404 17.1689 15.2025 16.9333 15.6897 16.6231L17.018 15.7624C17.3203 15.5659 18.2487 15.1763 18.2338 16.222C18.2246 16.9264 18.2338 26.8984 18.2338 27.1638C18.2338 27.5281 18.4085 28.0831 18.9968 27.6499C26.0328 22.4525 26.9671 18.0583 25.5651 15.1522C22.7016 9.21588 7.824 18.6914 1.38667 24.0003C0.375456 24.8335 0.399587 24.46 0.398438 24.0624C0.398438 23.5867 0.419122 21.8239 0.457042 21.4987C0.513349 21.031 0.629409 19.5119 2.02098 18.5018C3.36774 17.5251 21.8144 5.64214 27.175 13.2791C29.7893 17.0034 28.1932 22.8823 18.9014 29.7114C18.3338 30.1286 18.2292 30.2653 18.2292 31.0191C18.2292 31.7729 18.212 32.9094 18.2292 33.1254C18.2464 33.3415 18.2683 33.7965 18.7164 34.024C19.1646 34.2516 28.5586 38.6848 28.9435 38.8722Z" fill="#222222"/>
<path d="M46.6134 23.6462C45.9297 22.8798 44.5599 22.8924 43.5108 23.5417C42.1204 24.3978 41.7504 25.7365 42.4329 26.5029C43.1155 27.2694 44.7495 27.1074 45.7504 26.442C46.8903 25.6813 47.296 24.4127 46.6134 23.6462Z" fill="#222222"/>
<path d="M57.0232 3.21862C60.2947 6.43613 54.725 12.5437 53.377 14.1145C52.7726 14.8189 52.213 15.868 53.161 16.8724C54.109 17.8767 55.1237 18.8385 55.9488 19.6027C56.9669 20.5449 56.6647 22.3088 56.02 23.2649C55.5914 23.8992 54.6307 25.0207 53.5253 26.4341C52.4198 27.8475 51.4109 29.1449 51.2983 29.2874C50.9873 29.6657 50.8037 30.1326 50.7738 30.6215C50.7439 31.1103 50.8691 31.5962 51.1317 32.0096C52.3222 33.8551 52.4359 33.8275 53.1943 32.5106C54.4584 30.317 56.1223 28.2784 57.3897 26.834C58.081 26.0539 58.7234 25.2319 59.3134 24.3726C60.4625 22.7351 60.5693 20.9862 59.411 19.9784C57.877 18.6431 56.1027 17.4768 54.6376 16.3587C53.7907 15.7141 54.3779 14.9189 55.2834 14.2409C58.5009 11.8278 63.002 7.79323 60.9394 2.93364C58.9445 -1.76738 49.5505 1.85922 49.1701 11.5853C49.0345 15.0545 49.4942 24.6473 49.2368 27.0478C49.0863 28.4451 49.6183 28.2888 50.1285 28.082C50.595 27.8889 52.3888 27.0121 52.2957 24.7277C52.2026 22.4433 51.9947 12.523 51.9257 11.4945C51.581 6.14196 54.8996 1.12723 57.0232 3.21862Z" fill="#222222"/>
</g>
<defs>
<clipPath id="clip0_3349_261215">
<rect width="80.9963" height="42.0943" fill="white" transform="translate(0.390381 0.891602)"/>
</clipPath>
</defs>
</svg>
