<svg width="32" height="32" viewBox="0 0 32 32" fill="none" xmlns="http://www.w3.org/2000/svg">
<path fill-rule="evenodd" clip-rule="evenodd" d="M9.99984 14.0002C9.99984 16.5775 7.9105 18.6668 5.33317 18.6668C2.75584 18.6668 0.666504 16.5775 0.666504 14.0002C0.666504 11.4228 2.75584 9.3335 5.33317 9.3335C7.9105 9.3335 9.99984 11.4228 9.99984 14.0002ZM8.6665 14.0002C8.6665 12.1622 7.17117 10.6668 5.33317 10.6668C3.49517 10.6668 1.99984 12.1622 1.99984 14.0002C1.99984 15.8382 3.49517 17.3335 5.33317 17.3335C7.17117 17.3335 8.6665 15.8382 8.6665 14.0002Z" fill="#557B92"/>
<path fill-rule="evenodd" clip-rule="evenodd" d="M0 24.8C0 22.1493 2.388 20 5.33333 20C8.27867 20 10.6667 22.1493 10.6667 24.8V30.8C10.6667 31.4627 10.07 32 9.33333 32H8H2.66667H1.33333C0.596667 32 0 31.4627 0 30.8V24.8ZM8 30.6667H9.33333V24.8C9.33333 22.8887 7.53867 21.3333 5.33333 21.3333C3.128 21.3333 1.33333 22.8887 1.33333 24.8V30.6667H2.66667H8Z" fill="#557B92"/>
<path fill-rule="evenodd" clip-rule="evenodd" d="M26.6667 18.6668C24.0893 18.6668 22 16.5775 22 14.0002C22 11.4228 24.0893 9.3335 26.6667 9.3335C29.244 9.3335 31.3333 11.4228 31.3333 14.0002C31.3333 16.5775 29.244 18.6668 26.6667 18.6668ZM26.6667 17.3335C28.5047 17.3335 30 15.8382 30 14.0002C30 12.1622 28.5047 10.6668 26.6667 10.6668C24.8287 10.6668 23.3333 12.1622 23.3333 14.0002C23.3333 15.8382 24.8287 17.3335 26.6667 17.3335Z" fill="#557B92"/>
<path fill-rule="evenodd" clip-rule="evenodd" d="M21.3335 24.8C21.3335 22.1493 23.7215 20 26.6668 20C29.6122 20 32.0002 22.1493 32.0002 24.8V30.8C32.0002 31.4627 31.4035 32 30.6668 32H29.3335H24.0002H22.6668C21.9302 32 21.3335 31.4627 21.3335 30.8V24.8ZM29.3335 30.6667H30.6668V24.8C30.6668 22.8887 28.8722 21.3333 26.6668 21.3333C24.4615 21.3333 22.6668 22.8887 22.6668 24.8V30.6667H24.0002H29.3335Z" fill="#557B92"/>
<path d="M8.55206 5.69078L6.86206 4.00011H25.1381L23.4481 5.69078L24.3907 6.63345L27.6901 3.33345L24.3907 0.0334473L23.4481 0.976114L25.1381 2.66678H6.86206L8.55206 0.976114L7.60939 0.0334473L4.31006 3.33345L7.60939 6.63345L8.55206 5.69078Z" fill="#557B92"/>
</svg>
