<svg width="120" height="60" viewBox="0 0 120 60" fill="none" xmlns="http://www.w3.org/2000/svg">
<g clip-path="url(#clip0)">
<path d="M3 26.2974V27.7295H5.9152V34.106H7.89078V27.7295H10.7953V26.2974H3Z" fill="#222222"/>
<path d="M20.2323 27.5526C20.0556 27.333 19.8361 27.1376 19.6166 26.9717C19.3436 26.7736 19.1214 26.6638 19.0009 26.5969C18.1309 26.1686 16.9638 26.0053 15.9974 26.0481C14.9534 26.0802 13.8183 26.356 12.9724 27.0011C12.3996 27.4401 11.5322 28.3717 11.5322 30.1626C11.5322 31.3485 11.9605 32.1596 12.2256 32.5317C12.7877 33.3562 14.0057 34.2878 16.3186 34.2878C17.8579 34.2878 18.8456 33.8487 19.3891 33.4981C20.5642 32.7084 20.8614 31.5894 20.9711 31.0754C21.0461 30.6471 21.0568 30.2402 21.0568 30.0876C21.0568 28.792 20.5616 27.938 20.2323 27.5526ZM17.4162 32.711C16.9316 32.8877 16.4712 32.8957 16.2945 32.8957C15.3362 32.8957 14.7419 32.5665 14.434 32.3041C14.2359 32.1408 14.0941 31.932 14.0405 31.8651C13.8638 31.6242 13.7969 31.4823 13.7434 31.3378C13.5453 30.8773 13.5319 30.3714 13.5319 30.2188C13.5319 29.7021 13.6443 28.3316 15.0845 27.6944C15.5664 27.4856 16.0295 27.4401 16.2062 27.4401C17.0093 27.408 17.8338 27.6944 18.3825 28.286C19.0223 28.9981 19.0759 29.844 19.0759 30.1733C19.0785 30.6605 18.9447 32.1623 17.4162 32.711Z" fill="#222222"/>
<path d="M28.7388 30.7995C29.5338 30.6576 30.203 30.4167 30.5537 29.6243C30.7518 29.188 30.7625 28.8025 30.7625 28.6044C30.7625 27.5845 30.2138 26.7278 29.2126 26.4307C28.894 26.3317 28.5942 26.3022 27.925 26.2915H22.5791V34.0359H24.5172V30.9199H26.7391L28.8084 34.0359H31.1079L28.7388 30.7995ZM28.1124 29.5172C27.9464 29.5493 27.6385 29.5493 27.6278 29.5493H24.5172V27.6487H27.5743C27.9705 27.6621 28.3988 27.6701 28.6397 28.0449C28.7816 28.2671 28.795 28.5508 28.795 28.6285C28.795 29.2656 28.3452 29.4503 28.1124 29.5172Z" fill="#222222"/>
<path d="M38.5731 26.2915L36.2736 29.5922L33.9874 26.2915H31.5996L35.2965 31.1287V34.0386H37.2319V31.1287L40.9395 26.2915H38.5731Z" fill="#222222"/>
<path d="M73.1675 26.2832C73.751 26.2939 74.3748 26.3046 74.9021 26.5777C75.2635 26.7758 75.7775 27.2014 75.7775 28.1785C75.7775 28.5185 75.7106 29.2867 74.8459 29.6936C74.7683 29.7258 74.6719 29.7713 74.4952 29.8248C74.8459 29.9131 74.9771 29.956 75.1538 30.0443C76.1175 30.5262 76.171 31.439 76.171 31.8004C76.171 32.0975 76.1496 32.997 75.3947 33.5672C74.8138 34.0169 74.1446 34.0276 73.4646 34.0276H68.1455V26.2832H73.1675ZM70.0649 29.3215H72.8382C73.2103 29.3215 73.5851 29.3215 73.7939 28.9494C73.9143 28.7513 73.9143 28.5345 73.9143 28.4569C73.9143 28.39 73.9143 28.2374 73.8474 28.0714C73.66 27.5788 73.1139 27.6217 72.9908 27.6217H70.0622V29.3215H70.0649ZM70.0649 32.665H72.9828C73.2023 32.665 73.4325 32.665 73.652 32.5901C73.917 32.5018 74.2463 32.2501 74.2463 31.613C74.2463 31.5247 74.2249 31.174 74.0161 30.9331C73.7965 30.6895 73.5235 30.6787 73.2156 30.668L70.0676 30.6787V32.665H70.0649Z" fill="#222222"/>
<path d="M79.6715 26.2832V30.8447C79.6956 31.4363 79.7599 31.9316 80.2846 32.3037C80.9003 32.7427 81.789 32.7213 81.963 32.7213C82.1049 32.7213 82.8732 32.7213 83.4112 32.4134C83.7726 32.2126 83.9493 31.9396 84.0269 31.7977C84.1153 31.621 84.134 31.4899 84.1581 31.1178V26.2832H86.0882V30.7912C86.0775 31.5166 86.0775 32.1189 85.6947 32.7454C85.6304 32.8444 85.4752 33.0746 85.2342 33.2941C84.4017 34.0383 83.0204 34.2926 81.955 34.2926C81.706 34.2926 81.1117 34.2819 80.4425 34.1374C78.8952 33.7974 78.2367 32.997 77.961 32.3599C77.7977 31.9771 77.7548 31.6264 77.7441 30.7805V26.2832H79.6715V26.2832Z" fill="#222222"/>
<path d="M93.3588 26.2832C94.0281 26.2939 94.3252 26.326 94.6438 26.4224C95.6396 26.7195 96.1911 27.5762 96.1911 28.5961C96.1911 28.7942 96.1803 29.1797 95.9796 29.616C95.6289 30.4057 94.9623 30.6466 94.17 30.7885L96.5284 34.0249H94.2369L92.173 30.909H89.9591V34.0249H88.0264V26.2832H93.3588ZM89.9618 29.541H93.0644C93.0751 29.541 93.3829 29.541 93.5462 29.5089C93.7738 29.4447 94.2262 29.2573 94.2262 28.6202C94.2262 28.5425 94.2155 28.2561 94.0736 28.0393C93.8327 27.6672 93.4043 27.6565 93.0082 27.6431H89.9618V29.541Z" fill="#222222"/>
<path d="M104.566 28.717C104.445 28.5323 104.226 28.1923 103.787 27.8952C103.532 27.7319 103.008 27.4669 102.239 27.4669C102.041 27.4669 101.549 27.4776 101.035 27.6971C100.026 28.1147 99.4875 29.0784 99.4875 30.1652C99.4875 30.7006 99.6507 31.2949 99.972 31.7419C100.039 31.841 100.202 32.0391 100.454 32.2372C100.751 32.4781 101.343 32.8609 102.296 32.8609C103.425 32.8609 104.028 32.3898 104.335 32.0284C104.467 31.8865 104.555 31.7419 104.732 31.4153L106.771 31.3913C106.664 31.7874 106.597 31.9293 106.498 32.1274C106.378 32.3683 106.169 32.7217 105.698 33.1366C105.061 33.6961 104.044 34.2877 102.132 34.2877C101.693 34.2877 100.159 34.277 98.9521 33.3775C97.5467 32.3362 97.4824 30.7113 97.4824 30.1411C97.4824 29.3514 97.6698 28.5296 98.1088 27.8711C98.2614 27.6409 98.406 27.4776 98.6014 27.2875C98.8664 27.0359 98.9976 26.9475 99.1502 26.8512C99.6534 26.5112 100.695 26.04 102.242 26.04C102.67 26.04 104.161 26.0829 105.369 26.8833C106.027 27.333 106.386 27.8711 106.531 28.1227C106.587 28.2351 106.64 28.3422 106.683 28.452L104.566 28.717Z" fill="#222222"/>
<path d="M114.883 26.2832V29.268H110.212V26.2832H108.269V34.0249H110.212V30.7028H114.883V34.0249H116.824V26.2832H114.883Z" fill="#222222"/>
<path d="M44.4282 30.165C44.4282 24.9155 48.7006 20.6431 53.9501 20.6431C59.2023 20.6431 63.472 24.9128 63.472 30.165C63.472 35.4145 59.2023 39.6869 53.9501 39.6869C48.7006 39.6869 44.4282 35.4171 44.4282 30.165ZM42.9854 30.165C42.9854 36.2122 47.9056 41.1324 53.9501 41.1324C59.9974 41.1324 64.9176 36.2122 64.9176 30.165C64.9176 24.1204 59.9974 19.2002 53.9528 19.2002C47.9056 19.2002 42.9854 24.1204 42.9854 30.165Z" fill="#222222"/>
<path d="M55.5359 30.521H58.2048C58.9972 30.521 59.4657 30.6682 59.7681 31.3776C60.0171 30.7726 60.4454 30.5344 61.1762 30.521H61.4573V34.0465H57.988C58.3119 33.7655 58.4779 33.3987 58.4779 32.9731C58.4779 32.1994 57.8729 31.6266 57.0189 31.6266C56.0499 31.6266 55.477 32.1994 55.477 32.9731C55.477 33.4951 55.7474 33.8699 56.2694 34.0465C55.7581 34.2955 55.477 34.7345 55.477 35.2779C55.477 36.1346 56.0927 36.5896 57.3134 36.5896C57.4579 36.5896 57.6266 36.5789 57.8033 36.5682V37.7568H55.5412C54.7167 37.7568 54.2697 37.5908 53.9779 36.8921C53.6861 37.5908 53.2364 37.7568 52.4119 37.7568H50.1499V36.5682C50.3265 36.5789 50.4952 36.5896 50.6505 36.5896C51.8604 36.5896 52.4868 36.1319 52.4868 35.2779C52.4868 34.7345 52.1951 34.2955 51.6838 34.0465C52.2058 33.8699 52.4761 33.4924 52.4761 32.9731C52.4761 32.1994 51.914 31.6266 50.9449 31.6266C50.0883 31.6266 49.486 32.1994 49.486 32.9731C49.486 33.4014 49.6413 33.7655 49.9652 34.0465H46.4932V30.521H46.7742C47.505 30.5317 47.9307 30.7726 48.1823 31.3776C48.4741 30.6789 48.9212 30.521 49.7457 30.521H52.4146C53.1855 30.521 53.6647 30.6468 53.9806 31.3776C54.2643 30.6763 54.7141 30.521 55.5359 30.521Z" fill="#222222"/>
<path d="M52.3706 29.8146H49.7017C48.9093 29.8146 48.4409 29.6674 48.1384 28.958C47.8867 29.563 47.4611 29.8013 46.7303 29.8146H46.4492V26.2891H49.9212C49.5973 26.5702 49.4313 26.9369 49.4313 27.3626C49.4313 28.1335 50.0363 28.7064 50.8903 28.7064C51.8593 28.7064 52.4322 28.1335 52.4322 27.3626C52.4322 26.8405 52.1618 26.4658 51.6398 26.2891C52.1511 26.0375 52.4322 25.6011 52.4322 25.0577C52.4322 24.2038 51.8165 23.7433 50.5985 23.7433C50.4539 23.7433 50.2853 23.754 50.1086 23.7647V22.5762H52.3706C53.1951 22.5762 53.6422 22.7448 53.934 23.4435C54.2258 22.7448 54.6728 22.5762 55.4973 22.5762H57.762V23.7647C57.5853 23.754 57.4167 23.7433 57.2587 23.7433C56.0514 23.7433 55.4223 24.2011 55.4223 25.0577C55.4223 25.6011 55.7141 26.0375 56.2254 26.2891C55.7034 26.4658 55.4331 26.8405 55.4331 27.3626C55.4331 28.1335 55.9979 28.7064 56.9669 28.7064C57.8209 28.7064 58.4259 28.1335 58.4259 27.3626C58.4259 26.9342 58.2706 26.5702 57.9467 26.2891H61.4187V29.8146H61.1376C60.4068 29.8039 59.9812 29.563 59.7296 28.958C59.4378 29.6567 58.9907 29.8146 58.1662 29.8146H55.4973C54.7263 29.8146 54.2472 29.6888 53.934 28.958C53.6422 29.6567 53.1951 29.8146 52.3706 29.8146Z" fill="#222222"/>
</g>
<defs>
<clipPath id="clip0">
<rect width="113.824" height="21.9322" fill="white" transform="translate(3 19.2002)"/>
</clipPath>
</defs>
</svg>
