<svg width="120" height="60" viewBox="0 0 120 60" fill="none" xmlns="http://www.w3.org/2000/svg">
<mask id="mask0" mask-type="alpha" maskUnits="userSpaceOnUse" x="54" y="22" width="12" height="16">
<path d="M54.0166 22.7998H65.5864V37.17H54.0166V22.7998Z" fill="#222222"/>
</mask>
<g mask="url(#mask0)">
<path fill-rule="evenodd" clip-rule="evenodd" d="M59.9496 37.1701C63.1638 37.1574 65.5829 35.5456 65.5864 32.6425C65.6048 30.0518 62.8892 29.3038 60.4434 28.831C58.4381 28.4446 56.6347 27.7076 56.6143 25.9904C56.6143 25.9469 56.6154 25.8997 56.618 25.8536C56.7212 24.5078 58.2842 23.7653 59.7346 23.7601C61.138 23.7561 62.1805 24.3525 63.1266 25.4669L64.5906 24.3113C62.4089 22.8329 61.3628 22.8059 59.7317 22.7998C58.8175 22.7989 57.4553 23.0231 56.3458 23.6584C55.2365 24.2989 54.3788 25.3139 54.3747 26.9709C54.3747 26.996 54.3747 27.0164 54.3759 27.0392C54.3932 30.0163 57.8728 30.5413 58.9924 30.768C60.3474 31.0524 62.9624 31.6382 62.9921 33.9022C62.9693 35.4151 61.2933 36.2178 59.9317 36.2195C59.9317 36.2195 59.9262 36.2195 59.9115 36.2207C58.7256 36.219 56.8745 35.97 55.618 34.1941L54.0166 35.4143C55.3201 36.5022 56.8387 37.1663 59.9496 37.1701Z" fill="#222222"/>
</g>
<path fill-rule="evenodd" clip-rule="evenodd" d="M22.0449 36.81H31.2241V35.9494H24.7821V30.1873H29.9506V29.3848L24.7821 29.4044V23.8774H31.2241V23.0249H22.0449V36.81Z" fill="#222222"/>
<path fill-rule="evenodd" clip-rule="evenodd" d="M87.9717 29.9681C87.9988 35.1698 90.6405 37.1201 94.8693 37.1477C98.0129 37.1451 99.4893 36.4093 100.248 35.3749C100.667 34.7969 100.78 34.3573 100.799 33.7727H98.9643C98.8606 35.336 97.4957 36.5997 95.6737 36.6026C94.5866 36.6026 93.3641 36.4375 92.4171 35.5147C91.4717 34.5912 90.8413 32.9567 90.8413 30.1049C90.8419 27.046 91.4539 25.3262 92.3128 24.3607C93.1714 23.3943 94.2579 23.2307 95.0851 23.2327C95.933 23.2327 96.7798 23.5032 97.4188 24.0884C98.0253 24.643 98.4318 25.4795 98.4713 26.5919H100.83C100.74 24.5586 99.4743 22.8348 95.0851 22.8086C90.5806 22.8388 87.9999 24.7623 87.9717 29.9681Z" fill="#222222"/>
<path fill-rule="evenodd" clip-rule="evenodd" d="M3.83203 23.0249L8.76377 36.81H11.3024L16.4427 23.0261H15.1001L10.8529 34.9539L10.6708 35.4642L6.61296 23.0249H3.83203Z" fill="#222222"/>
<path fill-rule="evenodd" clip-rule="evenodd" d="M42.5414 30.7742L46.2538 36.81H49.0399L45.2713 30.692L45.1529 30.4984L45.3655 30.4215C46.6468 29.9527 48.4199 28.9409 48.4179 26.7045C48.4087 24.486 46.7402 23.0474 42.2596 23.0261L37.0225 23.0249V36.81H39.757V30.7742H42.5414ZM41.6304 30.153L39.757 30.1501V23.6882H42.0015C44.1906 23.691 45.6237 25.0801 45.6269 26.7549C45.6225 28.4225 44.1419 30.1501 41.6318 30.153H41.6304Z" fill="#222222"/>
<path fill-rule="evenodd" clip-rule="evenodd" d="M79.6472 31.9861L81.6257 36.8104H84.2113L78.3423 23.0259H75.7867L69.4043 36.8104H70.6155L72.8364 32.0921L72.8851 31.9861H79.6472ZM73.2369 31.209L76.2947 24.6624L76.4722 24.2844L79.3378 31.209H73.2369Z" fill="#222222"/>
<path fill-rule="evenodd" clip-rule="evenodd" d="M106.835 36.811H116.014V35.9492H109.569V30.1868H114.739V29.3847L109.569 29.4046V23.8773H116.015V23.0259H106.835V36.811Z" fill="#222222"/>
</svg>
