<svg width="200" height="100" viewBox="0 0 200 100" fill="none" xmlns="http://www.w3.org/2000/svg">
<path d="M26.8343 30.4233L33.393 15.6045H37.6014L26.8343 39.0862L16 15.6045H20.2755L26.8343 30.4233Z" fill="black"/>
<path d="M50.7197 26.6625C50.7197 20.1933 55.8459 15 62.2927 15C68.7619 15 73.8656 20.1933 73.8656 26.6625C73.8656 33.1317 68.7171 38.2355 62.2927 38.2355C55.8906 38.2355 50.7197 33.1317 50.7197 26.6625ZM54.4804 26.6177C54.4804 31.1171 57.659 34.7658 62.3151 34.7658C66.9487 34.7658 70.1498 31.1171 70.1498 26.6177C70.1498 22.1631 66.9711 18.4696 62.3151 18.4696C57.659 18.4696 54.4804 22.1631 54.4804 26.6177Z" fill="black"/>
<path d="M110.396 36.5566C110.396 40.071 110.396 43.1154 108.157 46.0254C106.098 48.6444 102.919 49.9203 99.6289 49.9203C93.4954 49.9203 88.9513 46.0254 88.7946 39.8024H92.5329C92.5776 43.8764 95.5324 46.4507 99.5617 46.4507C105.382 46.4507 106.635 42.1752 106.635 37.2281V34.5867H106.546C104.755 36.8924 101.867 38.2355 98.9125 38.2355C92.4881 38.2355 88.4141 32.8407 88.4141 26.7073C88.4141 20.5291 92.5329 15 99.0469 15C102.091 15 104.755 16.3655 106.546 18.7383H106.635V15.6044H110.374V36.5566H110.396ZM92.2419 26.3939C92.2419 30.7142 94.7714 34.7882 99.4498 34.7882C104.285 34.7882 106.814 30.8932 106.814 26.4386C106.814 22.0288 104.039 18.4696 99.405 18.4696C95.0624 18.4696 92.2419 22.2527 92.2419 26.3939Z" fill="black"/>
<path d="M132.646 27.8938C132.646 31.5873 133.072 34.7883 137.616 34.7883C142.16 34.7883 142.585 31.6096 142.585 27.8938V15.6045H146.324V28.2967C146.324 34.1615 144.13 38.2356 137.616 38.2356C131.102 38.2356 128.908 34.1615 128.908 28.2967V15.6045H132.646V27.8938V27.8938Z" fill="black"/>
<path d="M166.538 27.4236C166.582 31.4976 169.492 34.7882 173.746 34.7882C176.924 34.7882 178.984 32.8631 180.439 30.2441L183.617 32.0796C181.513 36.0194 177.954 38.2578 173.455 38.2578C166.896 38.2578 162.688 33.2436 162.688 26.9087C162.688 20.3947 166.493 15 173.365 15C180.439 15 184.199 20.8648 183.819 27.4236H166.538ZM179.879 24.2226C179.364 21.0439 176.7 18.4696 173.41 18.4696C170.186 18.4696 167.187 21.0439 166.717 24.2226H179.879Z" fill="black"/>
<path d="M43.4234 74.6558C43.4458 76.6705 44.856 78.3046 46.9154 78.3046C48.46 78.3046 49.4449 77.3644 50.1612 76.0437L51.7058 76.9391C50.6761 78.8866 48.9748 80.0058 46.7811 80.0058C43.6025 80.0058 41.5654 77.5211 41.5654 74.3872C41.5654 71.1638 43.401 68.5 46.7363 68.5C50.1612 68.5 51.9744 71.41 51.7953 74.6558H43.4234V74.6558ZM49.8926 73.0889C49.6464 71.522 48.348 70.2236 46.7587 70.2236C45.1918 70.2236 43.7368 71.4996 43.5129 73.0889H49.8926Z" fill="black"/>
<path d="M58.1748 68.8135H60.279L64.0396 76.6258L67.4869 68.8135H69.5463L61.6892 85.8483H59.6298L63.0771 78.7076L58.1748 68.8135Z" fill="black"/>
<path d="M77.8052 74.6558C77.8276 76.6705 79.2378 78.3046 81.2972 78.3046C82.8418 78.3046 83.8267 77.3644 84.543 76.0437L86.0876 76.9391C85.0579 78.8866 83.3566 80.0058 81.1629 80.0058C77.9843 80.0058 75.9473 77.5211 75.9473 74.3872C75.9473 71.1638 77.7828 68.5 81.1182 68.5C84.543 68.5 86.3562 71.41 86.1771 74.6558H77.8052V74.6558ZM84.252 73.0889C84.0058 71.522 82.7075 70.2236 81.1182 70.2236C79.5512 70.2236 78.0962 71.4996 77.8724 73.0889H84.252Z" fill="black"/>
<path d="M97.8856 76.2006L101.199 67.9854L104.534 76.2006L107.713 68.8136H109.772L104.489 80.4761L101.199 72.3504L97.908 80.4761L92.6699 68.8136H94.7293L97.8856 76.2006Z" fill="black"/>
<path d="M118.123 74.6558C118.145 76.6705 119.555 78.3046 121.615 78.3046C123.159 78.3046 124.144 77.3644 124.86 76.0437L126.405 76.9391C125.375 78.8866 123.674 80.0058 121.48 80.0058C118.302 80.0058 116.265 77.5211 116.265 74.3872C116.265 71.1638 118.1 68.5 121.436 68.5C124.86 68.5 126.674 71.41 126.495 74.6558H118.123V74.6558ZM124.569 73.0889C124.323 71.522 123.025 70.2236 121.436 70.2236C119.869 70.2236 118.414 71.4996 118.19 73.0889H124.569Z" fill="black"/>
<path d="M144.356 79.7159H142.543V78.2161H142.498C141.558 79.4248 140.327 80.0292 138.827 80.0292C135.693 80.0292 133.724 77.3207 133.724 74.2987C133.724 71.1872 135.649 68.5234 138.85 68.5234C140.305 68.5234 141.625 69.2174 142.498 70.3814H142.543V68.8368H144.356V79.7159ZM135.582 74.142C135.582 76.2686 136.813 78.3056 139.074 78.3056C141.402 78.3056 142.633 76.3805 142.633 74.1644C142.633 71.9931 141.29 70.2247 139.051 70.2247C136.947 70.2247 135.582 72.105 135.582 74.142Z" fill="black"/>
<path d="M155.101 70.0008H155.146C155.773 69.1502 156.332 68.5234 157.496 68.5234C158.101 68.5234 158.616 68.7249 159.131 69.0383L158.28 70.7395C157.922 70.4933 157.676 70.2471 157.183 70.2471C155.191 70.2471 155.101 72.8661 155.101 74.2763V79.7382H153.288V68.8368H155.101V70.0008V70.0008Z" fill="black"/>
</svg>
