<svg width="92" height="46" viewBox="0 0 92 46" fill="none" xmlns="http://www.w3.org/2000/svg">
<path fill-rule="evenodd" clip-rule="evenodd" d="M44.6262 7.54395C29.4936 7.54395 16.926 11.6917 16.926 17.1235C16.926 22.5449 29.4936 26.6994 44.6262 26.6994C59.7574 26.6994 72.325 22.5449 72.325 17.1222C72.325 11.6938 59.7574 7.54395 44.6262 7.54395ZM7.19639 36.9056V37.0231C7.19639 37.4687 7.57962 37.5616 8.16677 37.5616C8.88145 37.5616 9.24633 37.4796 9.24633 37.0822V36.9769V31.5673V31.4505C9.24633 31.1116 8.80741 31.0282 8.18512 31.0282C7.52503 31.0282 7.19639 31.1116 7.19639 31.474V31.5909V36.9056ZM12.7814 37.105V37.1867C12.7814 37.9948 11.5552 38.3112 8.16685 38.3112C5.45573 38.3112 4.04597 38.0533 3.75232 37.4687C3.71608 37.3861 3.67969 37.2102 3.67969 36.9646V36.8588V31.8361V31.7077C3.67969 31.0171 3.97209 30.7483 4.83329 30.5488C5.56616 30.3735 6.7742 30.2799 8.18521 30.2799C9.52187 30.2799 10.7497 30.3735 11.537 30.5253C12.4892 30.7127 12.7814 30.9704 12.7814 31.6257V31.7427V37.105ZM24.489 38.171L23.8473 36.2275H21.4491L20.8982 38.171H18.17L20.9905 30.3736H25.4412L28.4995 38.171H24.489ZM22.5469 32.2469L23.6095 35.3259H21.6308L22.5469 32.2469ZM38.2138 30.3735V33.5453L41.1446 30.3735H44.4405L41.4548 33.5921L44.2571 38.1696H40.1925L38.2138 34.7398V38.1696H34.4046V30.3735H38.2138ZM54.0201 37.1394V30.3735H50.2095L50.2109 38.1696H57.7926V37.1394H54.0201ZM70.9126 31.3561H67.2674V33.768H70.0707L70.0886 34.6813H67.2865V37.1866H70.8957V38.1694H63.458V30.3734L70.9126 30.372V31.3561ZM78.641 38.1695H82.4681V35.2775L85.7471 30.3721H82.7803L81.0766 33.2873L79.3917 30.3721H75.3257L78.641 35.2775V38.1695ZM27.8139 17.0456C27.8139 21.4119 35.8087 24.6518 44.6922 24.6518C53.5717 24.6518 61.5666 21.4119 61.5666 17.0456C61.5666 12.6777 53.5717 9.43388 44.6922 9.43388C35.8149 9.43388 27.8139 12.6777 27.8139 17.0456ZM88.3199 30.984C88.3199 31.3025 87.9605 31.5556 87.5054 31.5556C87.0503 31.5556 86.6885 31.3025 86.6885 30.984C86.6885 30.6661 87.0503 30.4174 87.5107 30.4174C87.9605 30.4174 88.3199 30.6661 88.3199 30.984ZM87.5102 31.4365C87.1574 31.4365 86.8904 31.2368 86.8904 30.9839C86.8904 30.7359 87.1574 30.5311 87.4995 30.5311C87.8536 30.5311 88.114 30.7359 88.114 30.9874C88.114 31.2368 87.8536 31.4416 87.5102 31.4365ZM87.3805 31.2781H87.197V30.7106L87.2266 30.7079C87.296 30.7015 87.3871 30.6932 87.5001 30.6932C87.6521 30.6932 87.7195 30.7106 87.7726 30.7386C87.8204 30.7639 87.8543 30.8044 87.8543 30.86C87.8543 30.9282 87.7812 30.9737 87.6901 30.994V31.0014C87.7672 31.0192 87.8061 31.0635 87.8302 31.1408C87.8543 31.2262 87.8748 31.2567 87.8891 31.278L87.8891 31.2781H87.6949C87.6726 31.259 87.6587 31.2184 87.6392 31.1615L87.632 31.1408C87.6163 31.0809 87.5686 31.0534 87.4672 31.0534H87.3805V31.2781ZM87.4722 30.9601H87.3834V30.7967C87.4035 30.7942 87.4375 30.7901 87.4856 30.7901C87.6025 30.7901 87.6548 30.8245 87.6548 30.8775C87.6548 30.9355 87.5732 30.9601 87.4722 30.9601ZM69.1153 24.7767C69.1153 25.0952 68.7557 25.3481 68.3006 25.3481C67.8455 25.3481 67.4839 25.0952 67.4839 24.7767C67.4839 24.4586 67.8455 24.2099 68.3059 24.2099C68.7557 24.2099 69.1153 24.4586 69.1153 24.7767ZM68.3054 25.2293C67.9528 25.2293 67.6858 25.0296 67.6858 24.7769C67.6858 24.5288 67.9528 24.3239 68.2948 24.3239C68.6488 24.3239 68.9092 24.5288 68.9092 24.7804C68.9092 25.0296 68.6488 25.2344 68.3054 25.2293ZM68.1748 25.0709H67.9913V24.5034L68.021 24.5007C68.0903 24.4943 68.1813 24.486 68.2944 24.486C68.4464 24.486 68.5136 24.5034 68.5668 24.5314C68.6147 24.5569 68.6484 24.5972 68.6484 24.6529C68.6484 24.721 68.5753 24.7666 68.4842 24.7868V24.7943C68.5615 24.812 68.6004 24.8563 68.6245 24.9336C68.6483 25.0186 68.6689 25.0493 68.6832 25.0705L68.6834 25.0709H68.4892C68.4669 25.052 68.4531 25.0119 68.4337 24.9555L68.4262 24.9336C68.4105 24.8737 68.3629 24.8462 68.2613 24.8462H68.1748V25.0709ZM68.2673 24.7529H68.1784V24.5894C68.1986 24.587 68.2325 24.5831 68.2807 24.5831C68.3977 24.5831 68.4499 24.6173 68.4499 24.6705C68.4499 24.7283 68.3683 24.7529 68.2673 24.7529Z" fill="#231916"/>
</svg>
