<svg width="92" height="46" viewBox="0 0 92 46" fill="none" xmlns="http://www.w3.org/2000/svg">
<path d="M44.8799 24.7573C43.8703 24.7573 43.031 28.7544 42.2066 28.7144C41.5129 28.6819 42.093 25.9579 41.0291 25.9504C40.3774 25.9454 40.1799 27.0385 39.8837 27.9765C39.8664 28.029 39.385 29.9175 38.6519 29.9175C38.1854 29.9175 37.7781 29.5448 37.7781 28.4442C37.7781 27.929 37.7534 27.1636 37.1362 27.036C36.0674 26.8159 36.3118 27.909 35.3762 27.7339C32.8435 27.2561 30.9255 32.4464 32.4658 33.1417C34.3123 33.9747 35.6601 30.7054 36.2105 30.7955C36.6302 30.863 36.3587 32.2738 37.6842 32.1837C38.7655 32.1112 39.6171 29.8825 40.0367 29.91C40.4095 29.9325 40.0861 31.2507 41.0167 31.2983C42.1078 31.3558 42.5571 29.5473 43.0557 29.5398C43.1816 29.5373 43.2335 29.6324 43.2236 30.0751C43.2088 30.6804 43.1298 38.342 43.1174 38.5896C43.0952 39.0624 43.3223 39.0999 43.426 39.0999C43.4951 39.0999 44.5442 39.0774 44.7466 39.0699C44.9491 39.0624 44.9836 38.8723 44.9812 38.7572C44.9812 38.7122 45.1268 27.6038 45.1367 25.2C45.1441 24.7573 44.9565 24.7573 44.8799 24.7573ZM35.8872 29.3322C35.6354 30.2377 34.6085 31.726 34.1271 31.7735C33.984 31.786 33.7766 31.711 33.784 31.3858C33.8013 30.6204 34.9985 28.887 35.4922 28.7544C35.8329 28.6619 35.9834 28.9895 35.8872 29.3322ZM76.425 19.8197C74.4576 21.0603 74.8353 16.4729 73.6381 16.4729C72.3322 16.4729 71.9496 19.1918 71.4855 19.2394C70.9153 19.2969 71.6978 17.2458 70.5672 17.2908C69.3231 17.3409 68.6245 21.8457 67.721 21.4981C66.7929 21.1404 67.4594 18.7591 66.4152 18.5865C65.8771 18.4965 65.766 18.9267 65.4451 19.1343C64.9662 19.4445 64.1022 18.9042 62.7495 20.4775C61.219 22.256 60.75 25.13 61.9176 25.3251C63.49 25.5877 64.9218 22.9138 65.2846 22.5686C65.7907 22.0884 65.5093 23.9544 66.8719 23.9819C68.311 24.0094 68.7455 21.6381 69.1651 21.6606C69.5255 21.6807 69.1083 22.9038 69.7946 22.9914C71.2806 23.1815 72.0952 19.2919 72.7074 19.3769C73.3196 19.462 73.09 21.7807 74.5613 21.9283C75.8103 22.0534 76.6694 20.35 76.7854 20.0973C76.9039 19.8372 76.699 19.6446 76.425 19.8197ZM65.2254 21.0428C64.9415 21.8507 64.117 23.1489 63.611 23.239C63.4357 23.269 63.2259 23.0989 63.2407 22.8013C63.2728 22.1059 64.4379 20.6326 64.9119 20.5225C65.2353 20.4475 65.3414 20.7126 65.2254 21.0428ZM36.608 35.9557C36.9585 36.1258 37.4473 36.441 37.198 37.0063C37.0202 37.409 36.8499 37.7267 36.8129 37.7892C36.5956 38.1569 36.0723 38.3795 35.4453 38.0844C34.4431 37.6116 29.0568 35.0452 28.884 34.9652C28.6939 34.8777 28.3854 34.9427 28.3854 35.468C28.3854 36.0033 28.3854 36.7336 28.3854 36.8987C28.3854 37.0913 28.4125 37.5691 28.0151 37.8492C27.5955 38.1469 26.9043 38.5546 26.7833 38.6171C26.6105 38.7047 26.1662 39.0499 26.1613 38.332C26.1489 36.9062 26.1489 34.2598 26.1489 34.1123C26.1489 33.9647 26.181 33.682 25.7564 33.4894C25.3738 33.3143 22.9374 32.1662 22.7843 32.0962C22.5893 32.0061 22.4412 31.656 22.8411 31.4158C23.3151 31.1307 25.6848 29.7474 25.8502 29.6299C26.1267 29.4348 26.1267 29.2472 26.1292 28.6769C26.1316 28.034 26.0921 19.6971 26.0971 19.5595C26.1045 19.3419 26.0749 19.1618 26.4451 18.9242C26.8648 18.6541 27.3165 18.3614 27.4622 18.2663C27.6942 18.1163 28.4051 17.8186 28.3953 18.6215C28.3879 19.1618 28.3928 26.7909 28.3953 26.9935C28.4002 27.2711 28.5286 27.6989 28.9803 27.3662C34.3764 23.3891 35.0923 20.0273 34.016 17.8036C31.8215 13.2637 20.4121 20.5125 15.4776 24.5722C14.7024 25.2175 14.7222 24.9349 14.7197 24.6272C14.7197 24.262 14.737 22.9138 14.7666 22.6662C14.8086 22.3085 14.8975 21.1454 15.9639 20.3725C16.9957 19.6246 31.1402 10.5322 35.2503 16.3753C37.2547 19.2244 36.0303 23.7242 28.9112 28.947C28.4767 29.2672 28.3953 29.3722 28.3953 29.9475C28.3953 30.5229 28.3829 31.3933 28.3953 31.5584C28.4076 31.7235 28.4249 32.0712 28.768 32.2463C29.1111 32.4214 36.3167 35.8157 36.608 35.9557ZM49.4936 26.4482C48.7259 26.956 47.4743 27.081 46.951 26.4932C46.4277 25.9079 46.7116 24.8824 47.778 24.227C48.5876 23.7292 49.6368 23.7192 50.1601 24.3071C50.6834 24.8949 50.3724 25.8654 49.4936 26.4482ZM54.2331 15.0121C54.285 15.8 54.4429 23.3916 54.5145 25.1325C54.5861 26.8809 53.2112 27.5513 52.8532 27.6989C52.4607 27.8614 52.0559 27.979 52.1694 26.9109C52.3669 25.075 52.0139 17.7361 52.1176 15.0822C52.4089 7.64071 59.612 4.86673 61.1425 8.46364C62.7248 12.1806 59.2763 15.2698 56.8053 17.1157C56.1117 17.6335 55.6599 18.2413 56.3091 18.7366C57.4323 19.592 58.7925 20.485 59.9699 21.5056C60.8586 22.276 60.7747 23.6142 59.8959 24.8673C59.7724 25.0424 59.2985 25.7553 58.4222 26.7508C57.4496 27.8564 56.1734 29.4148 55.2057 31.0932C54.6231 32.1012 54.5367 32.1212 53.6234 30.7105C53.305 30.2202 53.1568 29.3797 53.7518 28.6268C53.8382 28.5193 54.6083 27.5288 55.4575 26.4432C56.3042 25.3626 57.0423 24.5047 57.3706 24.0169C57.8643 23.2865 58.0963 21.9358 57.3163 21.2154C56.6843 20.6301 55.9166 19.9072 55.1786 19.1268C54.4503 18.3564 54.8823 17.556 55.344 17.0157C56.3758 15.815 60.6463 11.1426 58.1408 8.67876C56.5116 7.08041 53.969 10.9174 54.2331 15.0121ZM75.6178 16.8431H75.7783V16.5304H75.8548L76.0325 16.8431H76.1979L76.0004 16.5204C76.114 16.5104 76.1979 16.4579 76.1979 16.3228C76.1979 16.1552 76.0893 16.1002 75.8992 16.1002H75.6203V16.8431H75.6178ZM75.7783 16.4079V16.2253H75.8918C75.9535 16.2253 76.035 16.2353 76.035 16.3103C76.035 16.3954 75.9831 16.4079 75.9066 16.4079H75.7783ZM75.877 17.1558C75.5042 17.1558 75.2006 16.8531 75.2006 16.4804C75.2006 16.1077 75.5042 15.805 75.877 15.805C76.2497 15.805 76.5534 16.1077 76.5534 16.4804C76.5534 16.8531 76.2497 17.1558 75.877 17.1558ZM75.877 15.9326C75.5734 15.9326 75.3265 16.1777 75.3265 16.4804C75.3265 16.7831 75.5734 17.0282 75.877 17.0282C76.1806 17.0282 76.4275 16.7831 76.4275 16.4804C76.4275 16.1777 76.1806 15.9326 75.877 15.9326Z" fill="#222222"/>
</svg>
